<svg width="20" height="20" viewBox="0 0 20 20" fill="none" xmlns="http://www.w3.org/2000/svg">
<path d="M16.875 7.50107C16.8759 6.27896 16.551 5.07871 15.9338 4.02392C15.3166 2.96913 14.4293 2.09792 13.3635 1.50003C12.2976 0.90214 11.0916 0.599172 9.86973 0.622328C8.64785 0.645485 7.45422 0.993929 6.41177 1.63178C5.36932 2.26962 4.51574 3.17382 3.93894 4.25124C3.36213 5.32866 3.08294 6.54036 3.13013 7.76155C3.17732 8.98275 3.54917 10.1693 4.2074 11.199C4.86563 12.2287 5.78644 13.0643 6.875 13.6198V19.3761H13.125V13.6261C14.2539 13.05 15.2016 12.173 15.8634 11.0922C16.5251 10.0113 16.8752 8.76846 16.875 7.50107Z" stroke="#C7C9D1" stroke-linecap="round" stroke-linejoin="round"/>
<path d="M6.875 16.875H13.125" stroke="#C7C9D1" stroke-linecap="round" stroke-linejoin="round"/>
<path d="M6.875 7.5C6.875 6.6712 7.20424 5.87634 7.79029 5.29029C8.37634 4.70424 9.1712 4.375 10 4.375" stroke="#C7C9D1" stroke-linecap="round" stroke-linejoin="round"/>
</svg>
