<svg preserveAspectRatio="none" width="100%" height="100%" overflow="visible" style="display: block;" viewBox="0 0 104.994 20" fill="none" xmlns="http://www.w3.org/2000/svg">
<g id="Group 2147227802">
<path id="Vector" d="M14.4783 0.768487C14.4716 0.768487 14.4649 0.775228 14.4582 0.775228C13.4418 1.15273 12.4921 1.66505 11.6227 2.28523C11.2683 2.5414 10.9273 2.81105 10.5995 3.10091C10.5795 3.12113 10.5594 3.13462 10.5394 3.15484C10.5327 3.16158 10.5327 3.16158 10.526 3.16832C9.00797 4.53003 7.83097 6.26924 7.1288 8.23763H7.10873L7.09536 8.27813C6.61387 9.11399 5.99862 9.85552 5.26969 10.469C5.26301 10.4757 5.26301 10.4757 5.25632 10.4824C5.17606 10.5566 5.08913 10.624 5.00219 10.6914C4.85507 10.806 4.70795 10.9139 4.55414 11.0217C3.97233 11.4194 3.33702 11.7363 2.66159 11.9722C2.5011 12.0261 2.3406 12.08 2.1801 12.1205C1.75211 12.2419 1.31074 12.3295 0.855992 12.3767C0.8493 12.3767 0.842618 12.3767 0.835926 12.3767C0.561743 12.4104 0.280872 12.4238 0 12.4238V16.5831C1.49798 16.5831 2.9224 16.3135 4.24652 15.8146C4.2532 15.8146 4.25989 15.8079 4.26658 15.8079C5.28307 15.4304 6.23268 14.9181 7.10205 14.2979C7.45648 14.0417 7.79754 13.7721 8.12522 13.4822C8.14529 13.462 8.16534 13.4485 8.18541 13.4283C8.19209 13.4215 8.1921 13.4215 8.19878 13.4148C9.71684 12.0531 10.8938 10.3139 11.596 8.34554H11.6027L11.6094 8.31854H11.6361C11.6361 8.31179 11.6295 8.31179 11.6295 8.30504C12.1109 7.46916 12.7261 6.72763 13.4551 6.11419C13.4617 6.10745 13.4617 6.10745 13.4685 6.10071C13.5487 6.02655 13.6357 5.95914 13.7226 5.89173C13.8697 5.77713 14.0169 5.66928 14.1706 5.56142C14.7525 5.1637 15.3878 4.84686 16.0632 4.61092C16.2237 4.55699 16.3842 4.50307 16.5447 4.46262C16.9727 4.34128 17.4141 4.25364 17.8688 4.20645C17.8754 4.20645 17.8822 4.20645 17.8889 4.20645C18.163 4.17275 18.4439 4.15926 18.7248 4.15926V0C17.2335 0.00674121 15.8024 0.276383 14.4783 0.768487Z" fill="var(--fill-0, #9194A1)"/>
<path id="Vector_2" d="M18.7211 12.4583V16.5906C16.0729 16.5839 13.6253 15.7345 11.6191 14.2986V8.35976H11.6057L11.6124 8.33277H11.6392C11.6458 8.34626 11.6525 8.35301 11.6592 8.36643C13.0769 10.8 15.7118 12.4448 18.7211 12.4583Z" fill="var(--fill-0, #9194A1)"/>
<path id="Vector_3" d="M7.11557 8.23763L7.10219 8.27813C7.09551 8.26463 7.08882 8.25113 7.07544 8.23763C5.65102 5.79062 3.01618 4.14578 0.00683594 4.1323V0C2.65505 0.00674121 5.10265 0.856122 7.10888 2.29197L7.11557 8.23763Z" fill="var(--fill-0, #9194A1)"/>
<path id="Vector_4" d="M88.1251 4.88733C89.6666 4.88733 90.8666 5.23932 91.7248 5.94331C92.5973 6.6473 93.0339 7.68128 93.0339 9.0453V16.5848H90.1108V14.7872C89.8483 15.3445 89.4417 15.7845 88.8884 16.1071C88.3359 16.4298 87.6526 16.5911 86.8377 16.5911C85.7619 16.5911 84.867 16.2758 84.1545 15.6452C83.4562 15.0145 83.1074 14.1785 83.1074 13.1372C83.1074 12.1545 83.4421 11.3552 84.1112 10.7393C84.7803 10.1232 85.7469 9.77858 87.0127 9.70525L90.0233 9.52926V9.0453C90.0233 8.47325 89.8558 8.03328 89.5217 7.72528C89.2017 7.40262 88.7284 7.24129 88.1034 7.24129C86.9835 7.24129 86.351 7.68861 86.2052 8.58324L83.5654 8.31926C83.6962 7.29262 84.1545 6.46397 84.9403 5.83331C85.7252 5.20266 86.7868 4.88733 88.1251 4.88733ZM87.7109 14.1052C88.3792 14.1052 88.9325 13.9365 89.3683 13.5992C89.805 13.2618 90.0233 12.7852 90.0233 12.1692V11.5752L87.5143 11.7512C87.0635 11.7805 86.7143 11.9052 86.4669 12.1252C86.2202 12.3306 86.0961 12.6166 86.0961 12.9832C86.0961 13.3498 86.2419 13.6285 86.5327 13.8191C86.8235 14.0099 87.216 14.1052 87.7109 14.1052Z" fill="var(--fill-0, #9194A1)"/>
<path id="Vector_5" d="M71.375 0H77.5844C79.2889 0 80.6354 0.431511 81.6237 1.29453C82.612 2.15756 83.1062 3.41489 83.1062 5.06654C83.1062 6.71818 82.612 7.97552 81.6237 8.8385C80.6354 9.70153 79.2889 10.1331 77.5844 10.1331H74.4905V16.5899H71.375V0ZM77.3695 7.32082C78.2433 7.32082 78.895 7.13481 79.3247 6.76282C79.7688 6.39083 79.9907 5.8254 79.9907 5.06654C79.9907 4.2928 79.7688 3.72737 79.3247 3.37025C78.895 2.99826 78.2433 2.81226 77.3695 2.81226H74.4905V7.32082H77.3695Z" fill="var(--fill-0, #9194A1)"/>
<path id="Vector_6" d="M63.9192 16.5762C63.0034 16.5762 62.1676 16.3546 61.4118 15.9112C60.6705 15.4531 60.0745 14.7807 59.6239 13.8941C59.1878 13.0074 58.9698 11.936 58.9698 10.6799C58.9698 9.4238 59.1951 8.35237 59.6457 7.46571C60.1109 6.57904 60.7213 5.91405 61.4772 5.47071C62.2476 5.0126 63.0834 4.78354 63.9846 4.78354C64.6678 4.78354 65.2783 4.91655 65.8161 5.18254C66.3539 5.44854 66.7609 5.80321 67.0371 6.24654V0H70.0242L70.0176 16.5899H67.1664L67.1679 14.8915C66.8482 15.4236 66.4048 15.8374 65.8379 16.1328C65.2855 16.4284 64.646 16.5762 63.9192 16.5762ZM64.5733 14.0049C65.3437 14.0049 65.9687 13.7167 66.4484 13.1404C66.9281 12.5641 67.1679 11.7439 67.1679 10.6799C67.1679 9.60112 66.9281 8.78092 66.4484 8.21938C65.9687 7.64304 65.3437 7.35487 64.5733 7.35487C63.7884 7.35487 63.1561 7.64304 62.6764 8.21938C62.2112 8.78092 61.9787 9.60112 61.9787 10.6799C61.9787 11.7586 62.2112 12.5862 62.6764 13.1625C63.1561 13.7241 63.7884 14.0049 64.5733 14.0049Z" fill="var(--fill-0, #9194A1)"/>
<path id="Vector_7" d="M47.461 4.89133H50.3608V6.87912C50.6854 6.25946 51.1725 5.77259 51.8217 5.41849C52.4711 5.06441 53.2311 4.88736 54.1018 4.88736C55.3118 4.88736 56.2711 5.27096 56.9795 6.03815C57.7026 6.79059 58.0642 7.86762 58.0642 9.26923V16.5911H55.0094V9.71187C55.0094 8.97417 54.8175 8.40612 54.4338 8.00778C54.0501 7.59467 53.5189 7.38812 52.84 7.38812C52.1759 7.38812 51.6152 7.60943 51.1577 8.05206C50.715 8.49462 50.4936 9.09216 50.4936 9.84461V16.5911H47.461V4.89133Z" fill="var(--fill-0, #9194A1)"/>
<path id="Vector_8" d="M41.7092 16.5899H38.7764V0H41.7092V16.5899Z" fill="var(--fill-0, #9194A1)"/>
<path id="Vector_9" d="M25.3535 0H31.9287C33.6385 0 34.9442 0.379197 35.8458 1.1376C36.7473 1.89599 37.1981 2.94667 37.1981 4.28966C37.1981 5.09546 36.9961 5.79065 36.5919 6.37525C36.2033 6.94404 35.6981 7.37854 35.0764 7.67873C35.8691 7.93153 36.5297 8.38187 37.0582 9.02966C37.6023 9.66161 37.8742 10.5464 37.8742 11.684C37.8742 12.711 37.6256 13.5958 37.1281 14.3384C36.6307 15.081 35.9701 15.6419 35.1463 16.0211C34.338 16.4002 33.4597 16.5899 32.5115 16.5899H25.3535V0ZM31.8354 6.54114C32.5349 6.54114 33.0634 6.39105 33.4209 6.09085C33.7784 5.79065 33.9572 5.34825 33.9572 4.76366C33.9572 4.17906 33.7784 3.73667 33.4209 3.43647C33.0634 3.13628 32.5349 2.98618 31.8354 2.98618H28.7344V6.54114H31.8354ZM31.9753 13.6037C32.7525 13.6037 33.3665 13.4062 33.8173 13.0112C34.2681 12.6162 34.4934 12.0632 34.4934 11.3522C34.4934 10.657 34.2681 10.1119 33.8173 9.71694C33.3665 9.32189 32.7525 9.1244 31.9753 9.1244H28.7344V13.6037H31.9753Z" fill="var(--fill-0, #9194A1)"/>
<path id="Vector_10" d="M96.0567 20C95.4876 20 94.8476 19.9004 94.1368 19.7012V17.0116C94.3643 17.097 94.6343 17.1682 94.9476 17.2251C95.2742 17.282 95.5801 17.3105 95.8642 17.3105C96.3333 17.3105 96.7108 17.1895 96.995 16.9476C97.2933 16.72 97.5783 16.293 97.8482 15.6669L97.8691 15.6029L93.2619 4.88736H96.59L99.2773 11.5045L101.815 4.88736H104.994L100.386 16.7341C99.9314 17.9011 99.3623 18.7335 98.6798 19.2316C97.9974 19.7439 97.1225 20 96.0567 20Z" fill="var(--fill-0, #9194A1)"/>
<path id="Vector_11" d="M43.0643 4.88736H46.1099V16.5912H43.0643V4.88736Z" fill="var(--fill-0, #9194A1)"/>
<path id="Vector_12" d="M46.5615 2.16008C46.5615 3.29013 45.6777 4.20623 44.5875 4.20623C43.4973 4.20623 42.6135 3.29013 42.6135 2.16008C42.6135 1.03002 43.4973 0.113925 44.5875 0.113925C45.6777 0.113925 46.5615 1.03002 46.5615 2.16008Z" fill="var(--fill-0, #9194A1)"/>
</g>
</svg>
