<svg preserveAspectRatio="none" width="100%" height="100%" overflow="visible" style="display: block;" viewBox="0 0 81.7744 16.8681" fill="none" xmlns="http://www.w3.org/2000/svg">
<g id="Group">
<path id="Vector" d="M8.28649 16.8681C11.0562 16.8681 13.0995 15.8011 14.3027 14.3481L11.987 12.373C11.0562 13.3946 9.89838 13.9167 8.3546 13.9167C5.22162 13.9167 3.29189 11.5557 3.29189 8.64971C3.29189 5.74376 5.22162 3.33727 8.28649 3.33727C9.71676 3.33727 10.8973 3.83673 11.8508 4.83565L14.0984 2.88322C12.6681 1.18054 10.8746 0.385946 8.28649 0.385946C3.3827 0.385946 1.812e-06 4.08646 1.812e-06 8.64971C1.812e-06 13.1902 3.56432 16.8681 8.28649 16.8681ZM20.0877 16.8681C22.199 16.8681 23.266 15.9827 23.9017 14.6432V16.573H26.8758V4.76755H23.8336V6.62917C23.1979 5.35782 22.1309 4.51782 20.0877 4.51782C16.8412 4.51782 14.2531 7.31025 14.2531 10.7157C14.2531 14.1211 16.8412 16.8681 20.0877 16.8681ZM17.3179 10.6929C17.3179 8.85403 18.6347 7.28754 20.5871 7.28754C22.6077 7.28754 23.9017 8.87673 23.9017 10.7157C23.9017 12.5546 22.6077 14.0984 20.5871 14.0984C18.6347 14.0984 17.3179 12.4865 17.3179 10.6929ZM28.6967 16.573H31.7618V0H28.6967V16.573ZM35.2089 16.8681C36.3894 16.8681 37.2294 15.96 37.2294 14.8702C37.2294 13.8032 36.3894 12.8951 35.2089 12.8951C34.0283 12.8951 33.1656 13.8032 33.1656 14.8702C33.1656 15.96 34.0283 16.8681 35.2089 16.8681ZM43.8162 16.8681C46.1319 16.8681 47.7665 16.0281 48.8789 14.5978L46.6541 12.6681C46.0411 13.4854 45.2692 14.0757 44.0887 14.0757C42.1362 14.0757 40.7968 12.5092 40.7968 10.6702C40.7968 8.83133 42.0681 7.26484 44.0205 7.26484C45.0649 7.26484 45.973 7.787 46.5178 8.6043L48.8789 6.67457C47.88 5.28971 46.1319 4.44971 43.9751 4.47241C40.3654 4.49511 37.7319 7.24214 37.7319 10.6702C37.7319 14.0984 40.4335 16.8681 43.8162 16.8681ZM55.1721 16.8681C58.8273 16.8681 61.4608 14.0984 61.4608 10.6929C61.4608 7.28754 58.8273 4.49511 55.1721 4.49511C51.517 4.49511 48.8835 7.28754 48.8835 10.6929C48.8835 14.0984 51.517 16.8681 55.1721 16.8681ZM51.9483 10.6929C51.9483 8.85403 53.2197 7.28754 55.1721 7.28754C57.1245 7.28754 58.3959 8.85403 58.3959 10.6929C58.3959 12.5319 57.1245 14.0757 55.1721 14.0757C53.2197 14.0757 51.9483 12.5319 51.9483 10.6929ZM62.8176 16.573H65.8825V10.1027C65.8825 8.05944 67.0403 7.17403 68.3344 7.17403C69.8555 7.17403 70.8771 8.05944 70.8771 10.1027V16.573H73.9419V10.1027C73.9419 7.83241 74.9182 7.17403 76.3484 7.17403C77.7333 7.17403 78.7095 8.05944 78.7095 10.1027V16.573H81.7744V9.35349C81.7744 6.37944 79.822 4.49511 77.2793 4.49511C75.2133 4.49511 74.0782 5.28971 73.2836 6.71998C72.5117 5.28971 71.1041 4.49511 69.4468 4.49511C67.6306 4.49511 66.4501 5.17619 65.8371 6.49295V4.76755H62.8176V16.573Z" fill="var(--fill-0, #9194A1)"/>
</g>
</svg>
