<svg preserveAspectRatio="none" width="100%" height="100%" overflow="visible" style="display: block;" viewBox="0 0 73.41 20.0824" fill="none" xmlns="http://www.w3.org/2000/svg">
<path id="Vector" d="M3.24649 15.9203H0V1.3527H3.97486L7.94973 12.0287L11.9038 1.3527H15.879V15.9203H12.6325V6.93002L9.28162 15.9203H6.59703L3.24649 6.93002V15.9203ZM19.5788 3.78758C19.0521 3.78758 18.6011 3.60725 18.2265 3.24649C17.8655 2.87189 17.6854 2.41405 17.6854 1.87297C17.6854 1.34576 17.8655 0.901804 18.2265 0.541081C18.6011 0.180358 19.0521 0 19.5788 0C20.1199 0 20.5709 0.180358 20.9319 0.541081C21.2929 0.901804 21.473 1.34576 21.473 1.87297C21.473 2.41405 21.2929 2.87189 20.9319 3.24649C20.5709 3.60725 20.1199 3.78758 19.5788 3.78758ZM21.1816 15.9203H17.9768V4.89056H21.1816V15.9203ZM23.0932 15.9203V4.89056H25.6737L25.9446 6.45137C26.2496 5.86866 26.7211 5.39698 27.3598 5.03623C28.0114 4.67549 28.7401 4.49515 29.5445 4.49515C30.7099 4.49515 31.6392 4.86975 32.3332 5.61893C33.0408 6.36812 33.3949 7.37401 33.3949 8.6365V15.9203H30.1901V8.80299C30.1901 8.3313 30.0372 7.95671 29.7322 7.6792C29.4265 7.4017 29.0103 7.26299 28.4836 7.26299C27.8592 7.26299 27.3386 7.45029 26.9224 7.82488C26.5062 8.19948 26.2981 8.68509 26.2981 9.28164V15.9203H23.0932ZM40.0604 15.9203C38.7429 15.9203 37.7296 15.6151 37.0221 15.0046C36.3289 14.3941 35.9815 13.5062 35.9815 12.3408V7.59596H34.1713V4.89056H35.9815V1.12378H39.1864V4.89056H41.8918V7.59596H39.1864V11.987C39.1864 12.3894 39.2908 12.6946 39.4989 12.9027C39.707 13.1108 40.0052 13.2149 40.3934 13.2149H41.6632V15.9203H40.0604ZM46.4293 15.9203H43.2244V0.312162H46.4293V15.9203ZM49.9626 3.78758C49.4359 3.78758 48.9849 3.60725 48.6103 3.24649C48.2493 2.87189 48.0692 2.41405 48.0692 1.87297C48.0692 1.34576 48.2493 0.901804 48.6103 0.541081C48.9849 0.180358 49.4359 0 49.9626 0C50.5037 0 50.9547 0.180358 51.3157 0.541081C51.6766 0.901804 51.8568 1.34576 51.8568 1.87297C51.8568 2.41405 51.6766 2.87189 51.3157 3.24649C50.9547 3.60725 50.5037 3.78758 49.9626 3.78758ZM51.5654 15.9203H48.3605V4.89056H51.5654V15.9203ZM54.7052 15.9203V7.59596H52.8943V4.89056H54.7052V3.68353C54.7052 2.58748 55.0382 1.75505 55.7041 1.18622C56.3701 0.603514 57.3342 0.312162 58.5964 0.312162H60.9484V3.01757H58.9294C58.2498 3.01757 57.9101 3.35748 57.9101 4.03731V4.89056H60.7403V7.59596H57.9101V15.9203H54.7052ZM62.1101 20.0824V17.377H64.3364C65.0856 17.377 65.5578 17.1135 65.7516 16.5862L66.0013 15.9203H65.523L61.1528 4.89056H64.5862L67.3332 12.32L70.0802 4.89056H73.41L68.7483 17.3979C68.4154 18.2997 67.8955 18.9725 67.1879 19.4165C66.4803 19.8605 65.5298 20.0824 64.3364 20.0824H62.1101Z" fill="var(--fill-0, #9194A1)"/>
</svg>
