<svg width="1333" height="1000" viewBox="0 0 1333 1000" fill="none" xmlns="http://www.w3.org/2000/svg">
<rect width="1333" height="1000" fill="url(#paint0_linear_17723_145669)"/>
<g filter="url(#filter0_i_17723_145669)">
<path d="M58.6776 93.983V88.5355L74.7244 63.1818H79.267V70.9375H76.4972L65.6946 88.0554V88.3509H88.0938V93.983H58.6776ZM76.7188 101V92.321L76.7926 89.8835V63.1818H83.2557V101H76.7188ZM96.8854 96.4574C95.7651 96.4574 94.8049 96.0634 94.0047 95.2756C93.2045 94.4754 92.8106 93.5152 92.8229 92.3949C92.8106 91.2869 93.2045 90.339 94.0047 89.5511C94.8049 88.7633 95.7651 88.3693 96.8854 88.3693C97.9687 88.3693 98.9105 88.7633 99.7107 89.5511C100.523 90.339 100.936 91.2869 100.948 92.3949C100.936 93.1458 100.739 93.8291 100.357 94.4446C99.9876 95.0601 99.4952 95.5526 98.8797 95.9219C98.2765 96.2789 97.6117 96.4574 96.8854 96.4574ZM96.8854 77.7145C95.7651 77.7145 94.8049 77.3205 94.0047 76.5327C93.2045 75.7325 92.8106 74.7723 92.8229 73.652C92.8106 72.544 93.2045 71.5961 94.0047 70.8082C94.8049 70.008 95.7651 69.608 96.8854 69.608C97.9687 69.608 98.9105 70.008 99.7107 70.8082C100.523 71.5961 100.936 72.544 100.948 73.652C100.936 74.3906 100.739 75.0677 100.357 75.6832C99.9876 76.2988 99.4952 76.7912 98.8797 77.1605C98.2765 77.5298 97.6117 77.7145 96.8854 77.7145ZM120.048 101.517C117.389 101.517 115.025 101.062 112.957 100.151C110.901 99.2396 109.276 97.9716 108.082 96.3466C106.888 94.7216 106.254 92.8442 106.18 90.7145H113.123C113.185 91.7363 113.523 92.6288 114.139 93.392C114.755 94.143 115.573 94.7277 116.595 95.1463C117.617 95.5649 118.762 95.7741 120.03 95.7741C121.384 95.7741 122.584 95.5402 123.63 95.0724C124.677 94.5923 125.496 93.9276 126.086 93.0781C126.677 92.2287 126.967 91.25 126.954 90.142C126.967 88.9972 126.671 87.9877 126.068 87.1136C125.465 86.2396 124.591 85.5563 123.446 85.0639C122.313 84.5715 120.947 84.3253 119.346 84.3253H116.004V79.044H119.346C120.664 79.044 121.815 78.8163 122.8 78.3608C123.797 77.9053 124.578 77.2652 125.145 76.4403C125.711 75.6032 125.988 74.6368 125.976 73.5412C125.988 72.4702 125.748 71.5407 125.255 70.7528C124.775 69.9527 124.092 69.331 123.206 68.8878C122.332 68.4446 121.304 68.223 120.122 68.223C118.965 68.223 117.894 68.4323 116.909 68.8509C115.924 69.2694 115.13 69.8665 114.527 70.642C113.924 71.4053 113.603 72.3163 113.567 73.375H106.974C107.023 71.2576 107.633 69.3987 108.802 67.7983C109.984 66.1856 111.56 64.9299 113.53 64.0312C115.499 63.1203 117.709 62.6648 120.159 62.6648C122.683 62.6648 124.874 63.1387 126.733 64.0866C128.604 65.0223 130.05 66.2841 131.072 67.8722C132.094 69.4602 132.605 71.2145 132.605 73.1349C132.617 75.2647 131.989 77.0497 130.721 78.4901C129.466 79.9304 127.816 80.8722 125.773 81.3153V81.6108C128.432 81.9801 130.469 82.965 131.885 84.5653C133.313 86.1534 134.021 88.1293 134.008 90.4929C134.008 92.6103 133.405 94.5062 132.199 96.1804C131.005 97.8423 129.355 99.1473 127.25 100.095C125.157 101.043 122.756 101.517 120.048 101.517Z" fill="#C8C8D0"/>
</g>
<g filter="url(#filter1_i_17723_145669)">
<path d="M682 446C683.657 446 685 447.343 685 449C685 450.657 683.657 452 682 452H613C605.82 452 600 457.82 600 465V547C600 554.18 605.82 560 613 560H717C724.18 560 730 554.18 730 547V489C730 487.343 731.343 486 733 486C734.657 486 736 487.343 736 489V547C736 557.493 727.493 566 717 566H613C602.507 566 594 557.493 594 547V465C594 454.507 602.507 446 613 446H682ZM681.111 486.004C681.877 486.044 682.577 486.472 682.968 487.146L712.682 538.477C713.1 539.2 713.106 540.091 712.697 540.821C712.29 541.549 711.534 542 710.714 542H619.286C618.45 542 617.681 541.533 617.278 540.784C616.879 540.035 616.911 539.121 617.363 538.402L637.935 505.737C638.307 505.145 638.927 504.755 639.612 504.681C640.293 504.597 640.984 504.851 641.471 505.351L655.587 519.76L679.155 486.953C679.61 486.321 680.35 485.96 681.111 486.004ZM640 470C646.065 470 651 474.935 651 481C651 487.065 646.065 492 640 492C633.935 492 629 487.065 629 481C629 474.935 633.935 470 640 470ZM718 434C719.217 434 720.2 434.984 720.2 436.2C720.2 445.904 728.096 453.8 737.8 453.8C739.016 453.8 740 454.783 740 456C740 457.217 739.016 458.2 737.8 458.2C728.096 458.2 720.2 466.096 720.2 475.8C720.2 477.016 719.217 478 718 478C716.783 478 715.8 477.016 715.8 475.8C715.8 466.096 707.904 458.2 698.2 458.2C696.984 458.2 696 457.217 696 456C696 454.783 696.984 453.8 698.2 453.8C707.904 453.8 715.8 445.904 715.8 436.2C715.8 434.984 716.783 434 718 434Z" fill="url(#paint1_linear_17723_145669)"/>
</g>
<rect x="594" y="446" width="142" height="120" rx="19" fill="#D2D2D7" fill-opacity="0.01"/>
<rect x="595" y="447" width="140" height="118" rx="18" stroke="url(#paint2_linear_17723_145669)" stroke-opacity="0.2" stroke-width="2"/>
<g filter="url(#filter2_i_17723_145669)">
<path d="M682 446C683.657 446 685 447.343 685 449C685 450.657 683.657 452 682 452H613C605.82 452 600 457.82 600 465V547C600 554.18 605.82 560 613 560H717C724.18 560 730 554.18 730 547V489C730 487.343 731.343 486 733 486C734.657 486 736 487.343 736 489V547C736 557.493 727.493 566 717 566H613C602.507 566 594 557.493 594 547V465C594 454.507 602.507 446 613 446H682ZM681.111 486.004C681.877 486.044 682.577 486.472 682.968 487.146L712.682 538.477C713.1 539.2 713.107 540.091 712.698 540.821C712.291 541.549 711.534 542 710.714 542H619.286C618.45 542 617.682 541.533 617.279 540.784C616.879 540.035 616.911 539.121 617.363 538.402L637.935 505.737C638.307 505.145 638.927 504.755 639.612 504.681C640.293 504.597 640.984 504.851 641.471 505.351L655.587 519.76L679.155 486.953C679.61 486.321 680.35 485.96 681.111 486.004ZM640 470C646.065 470 651 474.935 651 481C651 487.065 646.065 492 640 492C633.935 492 629 487.065 629 481C629 474.935 633.935 470 640 470ZM718 434C719.217 434 720.2 434.984 720.2 436.2C720.2 445.904 728.096 453.8 737.8 453.8C739.016 453.8 740 454.783 740 456C740 457.217 739.016 458.2 737.8 458.2C728.096 458.2 720.2 466.096 720.2 475.8C720.2 477.016 719.217 478 718 478C716.783 478 715.8 477.016 715.8 475.8C715.8 466.096 707.904 458.2 698.2 458.2C696.984 458.2 696 457.217 696 456C696 454.783 696.984 453.8 698.2 453.8C707.904 453.8 715.8 445.904 715.8 436.2C715.8 434.984 716.783 434 718 434Z" fill="url(#paint3_linear_17723_145669)"/>
</g>
<rect x="594" y="446" width="142" height="120" rx="19" fill="#D2D2D7" fill-opacity="0.01"/>
<rect x="595" y="447" width="140" height="118" rx="18" stroke="url(#paint4_linear_17723_145669)" stroke-opacity="0.2" stroke-width="2"/>
<defs>
<filter id="filter0_i_17723_145669" x="58.6777" y="62.6646" width="77.3486" height="40.8525" filterUnits="userSpaceOnUse" color-interpolation-filters="sRGB">
<feFlood flood-opacity="0" result="BackgroundImageFix"/>
<feBlend mode="normal" in="SourceGraphic" in2="BackgroundImageFix" result="shape"/>
<feColorMatrix in="SourceAlpha" type="matrix" values="0 0 0 0 0 0 0 0 0 0 0 0 0 0 0 0 0 0 127 0" result="hardAlpha"/>
<feOffset dx="2" dy="2"/>
<feGaussianBlur stdDeviation="1"/>
<feComposite in2="hardAlpha" operator="arithmetic" k2="-1" k3="1"/>
<feColorMatrix type="matrix" values="0 0 0 0 0 0 0 0 0 0 0 0 0 0 0 0 0 0 0.25 0"/>
<feBlend mode="normal" in2="shape" result="effect1_innerShadow_17723_145669"/>
</filter>
<filter id="filter1_i_17723_145669" x="594" y="434" width="148" height="134" filterUnits="userSpaceOnUse" color-interpolation-filters="sRGB">
<feFlood flood-opacity="0" result="BackgroundImageFix"/>
<feBlend mode="normal" in="SourceGraphic" in2="BackgroundImageFix" result="shape"/>
<feColorMatrix in="SourceAlpha" type="matrix" values="0 0 0 0 0 0 0 0 0 0 0 0 0 0 0 0 0 0 127 0" result="hardAlpha"/>
<feOffset dx="2" dy="2"/>
<feGaussianBlur stdDeviation="1"/>
<feComposite in2="hardAlpha" operator="arithmetic" k2="-1" k3="1"/>
<feColorMatrix type="matrix" values="0 0 0 0 0 0 0 0 0 0 0 0 0 0 0 0 0 0 0.25 0"/>
<feBlend mode="normal" in2="shape" result="effect1_innerShadow_17723_145669"/>
</filter>
<filter id="filter2_i_17723_145669" x="594" y="434" width="148" height="134" filterUnits="userSpaceOnUse" color-interpolation-filters="sRGB">
<feFlood flood-opacity="0" result="BackgroundImageFix"/>
<feBlend mode="normal" in="SourceGraphic" in2="BackgroundImageFix" result="shape"/>
<feColorMatrix in="SourceAlpha" type="matrix" values="0 0 0 0 0 0 0 0 0 0 0 0 0 0 0 0 0 0 127 0" result="hardAlpha"/>
<feOffset dx="2" dy="2"/>
<feGaussianBlur stdDeviation="1"/>
<feComposite in2="hardAlpha" operator="arithmetic" k2="-1" k3="1"/>
<feColorMatrix type="matrix" values="0 0 0 0 0 0 0 0 0 0 0 0 0 0 0 0 0 0 0.25 0"/>
<feBlend mode="normal" in2="shape" result="effect1_innerShadow_17723_145669"/>
</filter>
<linearGradient id="paint0_linear_17723_145669" x1="666.5" y1="1000" x2="666.5" y2="0" gradientUnits="userSpaceOnUse">
<stop stop-color="#242428"/>
<stop offset="1" stop-color="#303036"/>
</linearGradient>
<linearGradient id="paint1_linear_17723_145669" x1="667" y1="434" x2="667" y2="566" gradientUnits="userSpaceOnUse">
<stop offset="0.4" stop-color="#AFAFB6"/>
<stop offset="0.795455" stop-color="#6E6E77"/>
</linearGradient>
<linearGradient id="paint2_linear_17723_145669" x1="665" y1="446" x2="665" y2="566" gradientUnits="userSpaceOnUse">
<stop offset="0.334657" stop-color="white" stop-opacity="0"/>
<stop offset="0.75" stop-color="white"/>
</linearGradient>
<linearGradient id="paint3_linear_17723_145669" x1="667" y1="434" x2="667" y2="566" gradientUnits="userSpaceOnUse">
<stop offset="0.4" stop-color="#AFAFB6"/>
<stop offset="0.795455" stop-color="#6E6E77"/>
</linearGradient>
<linearGradient id="paint4_linear_17723_145669" x1="665" y1="446" x2="665" y2="566" gradientUnits="userSpaceOnUse">
<stop offset="0.334657" stop-color="white" stop-opacity="0"/>
<stop offset="0.75" stop-color="white"/>
</linearGradient>
</defs>
</svg>
