<svg width="1778" height="1000" viewBox="0 0 1778 1000" fill="none" xmlns="http://www.w3.org/2000/svg">
<rect width="1778" height="1000" fill="url(#paint0_linear_17723_145684)"/>
<g filter="url(#filter0_i_17723_145684)">
<path d="M74.7429 63.1818V101H67.892V69.848H67.6705L58.8253 75.4986V69.2202L68.2244 63.1818H74.7429ZM96.8946 101.517C95.0849 101.505 93.3184 101.191 91.5949 100.575C89.8714 99.9474 88.3203 98.9318 86.9415 97.5284C85.5627 96.1127 84.467 94.2353 83.6545 91.8963C82.842 89.545 82.442 86.6335 82.4543 83.1619C82.4543 79.9242 82.799 77.0374 83.4884 74.5014C84.1777 71.9654 85.1688 69.8234 86.4614 68.0753C87.754 66.3149 89.3113 64.973 91.1332 64.0497C92.9675 63.1264 95.0172 62.6648 97.2824 62.6648C99.6583 62.6648 101.763 63.1326 103.598 64.0682C105.444 65.0038 106.934 66.2841 108.066 67.9091C109.199 69.5218 109.901 71.3438 110.172 73.375H103.432C103.087 71.9223 102.379 70.7652 101.308 69.9034C100.249 69.0294 98.9074 68.5923 97.2824 68.5923C94.6602 68.5923 92.6413 69.7311 91.2256 72.0085C89.8222 74.286 89.1143 77.4129 89.102 81.3892H89.3605C89.9637 80.3059 90.7455 79.3764 91.7057 78.6009C92.6659 77.8253 93.7492 77.2282 94.9557 76.8097C96.1744 76.3788 97.4609 76.1634 98.8151 76.1634C101.031 76.1634 103.019 76.6927 104.78 77.7514C106.552 78.8101 107.956 80.2689 108.99 82.1278C110.024 83.9744 110.535 86.0919 110.522 88.4801C110.535 90.9669 109.968 93.2012 108.824 95.1832C107.679 97.1529 106.084 98.7041 104.041 99.8366C101.997 100.969 99.6152 101.529 96.8946 101.517ZM96.8577 95.9773C98.1995 95.9773 99.3998 95.651 100.459 94.9986C101.517 94.3461 102.354 93.4659 102.97 92.358C103.585 91.25 103.887 90.0066 103.875 88.6278C103.887 87.2737 103.592 86.0488 102.988 84.9531C102.397 83.8575 101.579 82.9896 100.532 82.3494C99.486 81.7093 98.2919 81.3892 96.95 81.3892C95.9528 81.3892 95.0234 81.58 94.1616 81.9616C93.2999 82.3433 92.549 82.8726 91.9088 83.5497C91.2687 84.2145 90.7639 84.9901 90.3946 85.8764C90.0376 86.7505 89.8529 87.6861 89.8406 88.6832C89.8529 90.0005 90.1607 91.2131 90.7639 92.321C91.3671 93.429 92.1981 94.3153 93.2568 94.9801C94.3155 95.6449 95.5158 95.9773 96.8577 95.9773ZM119.656 96.4574C118.535 96.4574 117.575 96.0634 116.775 95.2756C115.975 94.4754 115.581 93.5152 115.593 92.3949C115.581 91.2869 115.975 90.339 116.775 89.5511C117.575 88.7633 118.535 88.3693 119.656 88.3693C120.739 88.3693 121.681 88.7633 122.481 89.5511C123.293 90.339 123.706 91.2869 123.718 92.3949C123.706 93.1458 123.509 93.8291 123.127 94.4446C122.758 95.0601 122.266 95.5526 121.65 95.9219C121.047 96.2789 120.382 96.4574 119.656 96.4574ZM119.656 77.7145C118.535 77.7145 117.575 77.3205 116.775 76.5327C115.975 75.7325 115.581 74.7723 115.593 73.652C115.581 72.544 115.975 71.5961 116.775 70.8082C117.575 70.008 118.535 69.608 119.656 69.608C120.739 69.608 121.681 70.008 122.481 70.8082C123.293 71.5961 123.706 72.544 123.718 73.652C123.706 74.3906 123.509 75.0677 123.127 75.6832C122.758 76.2988 122.266 76.7912 121.65 77.1605C121.047 77.5298 120.382 77.7145 119.656 77.7145ZM142.375 62.6648C144.185 62.6771 145.945 62.9972 147.656 63.625C149.38 64.2405 150.931 65.25 152.31 66.6534C153.689 68.0445 154.784 69.9096 155.597 72.2486C156.409 74.5876 156.816 77.4806 156.816 80.9276C156.828 84.1776 156.483 87.0829 155.781 89.6435C155.092 92.1918 154.101 94.3461 152.808 96.1065C151.516 97.867 149.959 99.2088 148.137 100.132C146.315 101.055 144.265 101.517 141.987 101.517C139.599 101.517 137.482 101.049 135.635 100.114C133.801 99.178 132.317 97.8977 131.185 96.2727C130.052 94.6477 129.357 92.7888 129.098 90.696H135.838C136.183 92.1979 136.885 93.392 137.943 94.2784C139.014 95.1525 140.362 95.5895 141.987 95.5895C144.61 95.5895 146.629 94.4508 148.044 92.1733C149.46 89.8958 150.168 86.732 150.168 82.6818H149.909C149.306 83.7652 148.524 84.7008 147.564 85.4886C146.604 86.2642 145.514 86.8613 144.296 87.2798C143.089 87.6984 141.809 87.9077 140.455 87.9077C138.239 87.9077 136.245 87.3783 134.472 86.3196C132.711 85.2609 131.314 83.8082 130.28 81.9616C129.258 80.1151 128.741 78.0038 128.729 75.6278C128.729 73.1657 129.295 70.956 130.428 68.9986C131.573 67.0289 133.167 65.4777 135.21 64.3452C137.254 63.2003 139.642 62.6401 142.375 62.6648ZM142.394 68.2045C141.064 68.2045 139.864 68.5308 138.793 69.1832C137.734 69.8234 136.897 70.6974 136.281 71.8054C135.678 72.901 135.377 74.1259 135.377 75.4801C135.389 76.822 135.691 78.0407 136.281 79.1364C136.885 80.232 137.703 81.0999 138.737 81.7401C139.784 82.3802 140.978 82.7003 142.32 82.7003C143.317 82.7003 144.246 82.5095 145.108 82.1278C145.97 81.7462 146.721 81.2169 147.361 80.5398C148.013 79.8504 148.518 79.0687 148.875 78.1946C149.245 77.3205 149.423 76.3973 149.411 75.4247C149.411 74.1321 149.103 72.938 148.487 71.8423C147.884 70.7467 147.053 69.8665 145.995 69.2017C144.948 68.5369 143.748 68.2045 142.394 68.2045Z" fill="#C8C8D0"/>
</g>
<g filter="url(#filter1_i_17723_145684)">
<path d="M904 446C905.657 446 907 447.343 907 449C907 450.657 905.657 452 904 452H835C827.82 452 822 457.82 822 465V547C822 554.18 827.82 560 835 560H939C946.18 560 952 554.18 952 547V489C952 487.343 953.343 486 955 486C956.657 486 958 487.343 958 489V547C958 557.493 949.493 566 939 566H835C824.507 566 816 557.493 816 547V465C816 454.507 824.507 446 835 446H904ZM903.111 486.004C903.877 486.044 904.577 486.472 904.968 487.146L934.682 538.477C935.1 539.2 935.106 540.091 934.697 540.821C934.29 541.549 933.534 542 932.714 542H841.286C840.45 542 839.682 541.533 839.279 540.784C838.879 540.035 838.911 539.121 839.363 538.402L859.935 505.737C860.307 505.145 860.927 504.755 861.612 504.681C862.293 504.597 862.984 504.851 863.471 505.351L877.587 519.76L901.155 486.953C901.61 486.321 902.35 485.96 903.111 486.004ZM862 470C868.065 470 873 474.935 873 481C873 487.065 868.065 492 862 492C855.935 492 851 487.065 851 481C851 474.935 855.935 470 862 470ZM940 434C941.217 434 942.2 434.984 942.2 436.2C942.2 445.904 950.096 453.8 959.8 453.8C961.016 453.8 962 454.783 962 456C962 457.217 961.016 458.2 959.8 458.2C950.096 458.2 942.2 466.096 942.2 475.8C942.2 477.016 941.217 478 940 478C938.783 478 937.8 477.016 937.8 475.8C937.8 466.096 929.904 458.2 920.2 458.2C918.984 458.2 918 457.217 918 456C918 454.783 918.984 453.8 920.2 453.8C929.904 453.8 937.8 445.904 937.8 436.2C937.8 434.984 938.783 434 940 434Z" fill="url(#paint1_linear_17723_145684)"/>
</g>
<rect x="816" y="446" width="142" height="120" rx="19" fill="#D2D2D7" fill-opacity="0.01"/>
<rect x="817" y="447" width="140" height="118" rx="18" stroke="url(#paint2_linear_17723_145684)" stroke-opacity="0.2" stroke-width="2"/>
<defs>
<filter id="filter0_i_17723_145684" x="58.8252" y="62.6279" width="100.009" height="40.9077" filterUnits="userSpaceOnUse" color-interpolation-filters="sRGB">
<feFlood flood-opacity="0" result="BackgroundImageFix"/>
<feBlend mode="normal" in="SourceGraphic" in2="BackgroundImageFix" result="shape"/>
<feColorMatrix in="SourceAlpha" type="matrix" values="0 0 0 0 0 0 0 0 0 0 0 0 0 0 0 0 0 0 127 0" result="hardAlpha"/>
<feOffset dx="2" dy="2"/>
<feGaussianBlur stdDeviation="1"/>
<feComposite in2="hardAlpha" operator="arithmetic" k2="-1" k3="1"/>
<feColorMatrix type="matrix" values="0 0 0 0 0 0 0 0 0 0 0 0 0 0 0 0 0 0 0.25 0"/>
<feBlend mode="normal" in2="shape" result="effect1_innerShadow_17723_145684"/>
</filter>
<filter id="filter1_i_17723_145684" x="816" y="434" width="148" height="134" filterUnits="userSpaceOnUse" color-interpolation-filters="sRGB">
<feFlood flood-opacity="0" result="BackgroundImageFix"/>
<feBlend mode="normal" in="SourceGraphic" in2="BackgroundImageFix" result="shape"/>
<feColorMatrix in="SourceAlpha" type="matrix" values="0 0 0 0 0 0 0 0 0 0 0 0 0 0 0 0 0 0 127 0" result="hardAlpha"/>
<feOffset dx="2" dy="2"/>
<feGaussianBlur stdDeviation="1"/>
<feComposite in2="hardAlpha" operator="arithmetic" k2="-1" k3="1"/>
<feColorMatrix type="matrix" values="0 0 0 0 0 0 0 0 0 0 0 0 0 0 0 0 0 0 0.25 0"/>
<feBlend mode="normal" in2="shape" result="effect1_innerShadow_17723_145684"/>
</filter>
<linearGradient id="paint0_linear_17723_145684" x1="889" y1="1000" x2="889" y2="0" gradientUnits="userSpaceOnUse">
<stop stop-color="#242428"/>
<stop offset="1" stop-color="#303036"/>
</linearGradient>
<linearGradient id="paint1_linear_17723_145684" x1="889" y1="434" x2="889" y2="566" gradientUnits="userSpaceOnUse">
<stop offset="0.4" stop-color="#AFAFB6"/>
<stop offset="0.795455" stop-color="#6E6E77"/>
</linearGradient>
<linearGradient id="paint2_linear_17723_145684" x1="887" y1="446" x2="887" y2="566" gradientUnits="userSpaceOnUse">
<stop offset="0.334657" stop-color="white" stop-opacity="0"/>
<stop offset="0.75" stop-color="white"/>
</linearGradient>
</defs>
</svg>
