<svg width="1000" height="1333" viewBox="0 0 1000 1333" fill="none" xmlns="http://www.w3.org/2000/svg">
<rect width="1000" height="1333" fill="url(#paint0_linear_17723_145736)"/>
<g filter="url(#filter0_i_17723_145736)">
<path d="M72.9332 101.517C70.2741 101.517 67.9105 101.062 65.8423 100.151C63.7865 99.2396 62.1615 97.9716 60.9673 96.3466C59.7732 94.7216 59.1392 92.8442 59.0653 90.7145H66.0085C66.0701 91.7363 66.4086 92.6288 67.0241 93.392C67.6397 94.143 68.4583 94.7277 69.4801 95.1463C70.5019 95.5649 71.6468 95.7741 72.9148 95.7741C74.2689 95.7741 75.4692 95.5402 76.5156 95.0724C77.562 94.5923 78.3807 93.9276 78.9716 93.0781C79.5625 92.2287 79.8518 91.25 79.8395 90.142C79.8518 88.9972 79.5563 87.9877 78.9531 87.1136C78.3499 86.2396 77.4759 85.5563 76.331 85.0639C75.1984 84.5715 73.8319 84.3253 72.2315 84.3253H68.8892V79.044H72.2315C73.5488 79.044 74.6998 78.8163 75.6847 78.3608C76.6818 77.9053 77.4635 77.2652 78.0298 76.4403C78.5961 75.6032 78.8731 74.6368 78.8608 73.5412C78.8731 72.4702 78.633 71.5407 78.1406 70.7528C77.6605 69.9527 76.9773 69.331 76.0909 68.8878C75.2169 68.4446 74.1889 68.223 73.0071 68.223C71.8499 68.223 70.7789 68.4323 69.794 68.8509C68.8092 69.2694 68.0152 69.8665 67.4119 70.642C66.8087 71.4053 66.4886 72.3163 66.4517 73.375H59.8594C59.9086 71.2576 60.518 69.3987 61.6875 67.7983C62.8693 66.1856 64.4451 64.9299 66.4148 64.0312C68.3845 63.1203 70.5942 62.6648 73.044 62.6648C75.5677 62.6648 77.759 63.1387 79.6179 64.0866C81.4891 65.0223 82.9356 66.2841 83.9574 67.8722C84.9792 69.4602 85.4901 71.2145 85.4901 73.1349C85.5024 75.2647 84.8745 77.0497 83.6065 78.4901C82.3509 79.9304 80.7012 80.8722 78.6577 81.3153V81.6108C81.3168 81.9801 83.3542 82.965 84.7699 84.5653C86.1979 86.1534 86.9058 88.1293 86.8935 90.4929C86.8935 92.6103 86.2902 94.5062 85.0838 96.1804C83.8897 97.8423 82.2401 99.1473 80.1349 100.095C78.0421 101.043 75.6416 101.517 72.9332 101.517ZM96.1237 96.4574C95.0034 96.4574 94.0432 96.0634 93.243 95.2756C92.4428 94.4754 92.0488 93.5152 92.0612 92.3949C92.0488 91.2869 92.4428 90.339 93.243 89.5511C94.0432 88.7633 95.0034 88.3693 96.1237 88.3693C97.207 88.3693 98.1487 88.7633 98.9489 89.5511C99.7614 90.339 100.174 91.2869 100.186 92.3949C100.174 93.1458 99.9769 93.8291 99.5952 94.4446C99.2259 95.0601 98.7335 95.5526 98.118 95.9219C97.5148 96.2789 96.85 96.4574 96.1237 96.4574ZM96.1237 77.7145C95.0034 77.7145 94.0432 77.3205 93.243 76.5327C92.4428 75.7325 92.0488 74.7723 92.0612 73.652C92.0488 72.544 92.4428 71.5961 93.243 70.8082C94.0432 70.008 95.0034 69.608 96.1237 69.608C97.207 69.608 98.1487 70.008 98.9489 70.8082C99.7614 71.5961 100.174 72.544 100.186 73.652C100.174 74.3906 99.9769 75.0677 99.5952 75.6832C99.2259 76.2988 98.7335 76.7912 98.118 77.1605C97.5148 77.5298 96.85 77.7145 96.1237 77.7145ZM105.031 93.983V88.5355L121.078 63.1818H125.62V70.9375H122.85L112.048 88.0554V88.3509H134.447V93.983H105.031ZM123.072 101V92.321L123.146 89.8835V63.1818H129.609V101H123.072Z" fill="#C8C8D0"/>
</g>
<g filter="url(#filter1_i_17723_145736)">
<path d="M515 613C516.657 613 518 614.343 518 616C518 617.657 516.657 619 515 619H446C438.82 619 433 624.82 433 632V714C433 721.18 438.82 727 446 727H550C557.18 727 563 721.18 563 714V656C563 654.343 564.343 653 566 653C567.657 653 569 654.343 569 656V714C569 724.493 560.493 733 550 733H446C435.507 733 427 724.493 427 714V632C427 621.507 435.507 613 446 613H515ZM514.111 653.004C514.877 653.044 515.577 653.472 515.968 654.146L545.682 705.477C546.1 706.2 546.107 707.091 545.698 707.821C545.291 708.549 544.534 709 543.714 709H452.286C451.45 709 450.682 708.533 450.279 707.784C449.879 707.035 449.911 706.121 450.363 705.402L470.935 672.737C471.307 672.145 471.927 671.755 472.612 671.681C473.293 671.597 473.984 671.851 474.471 672.351L488.587 686.76L512.155 653.953C512.61 653.321 513.35 652.96 514.111 653.004ZM473 637C479.065 637 484 641.935 484 648C484 654.065 479.065 659 473 659C466.935 659 462 654.065 462 648C462 641.935 466.935 637 473 637ZM551 601C552.217 601 553.2 601.984 553.2 603.2C553.2 612.904 561.096 620.8 570.8 620.8C572.016 620.8 573 621.783 573 623C573 624.217 572.016 625.2 570.8 625.2C561.096 625.2 553.2 633.096 553.2 642.8C553.2 644.016 552.217 645 551 645C549.783 645 548.8 644.016 548.8 642.8C548.8 633.096 540.904 625.2 531.2 625.2C529.984 625.2 529 624.217 529 623C529 621.783 529.984 620.8 531.2 620.8C540.904 620.8 548.8 612.904 548.8 603.2C548.8 601.984 549.783 601 551 601Z" fill="url(#paint1_linear_17723_145736)"/>
</g>
<defs>
<filter id="filter0_i_17723_145736" x="59.0654" y="62.665" width="77.3818" height="40.8516" filterUnits="userSpaceOnUse" color-interpolation-filters="sRGB">
<feFlood flood-opacity="0" result="BackgroundImageFix"/>
<feBlend mode="normal" in="SourceGraphic" in2="BackgroundImageFix" result="shape"/>
<feColorMatrix in="SourceAlpha" type="matrix" values="0 0 0 0 0 0 0 0 0 0 0 0 0 0 0 0 0 0 127 0" result="hardAlpha"/>
<feOffset dx="2" dy="2"/>
<feGaussianBlur stdDeviation="1"/>
<feComposite in2="hardAlpha" operator="arithmetic" k2="-1" k3="1"/>
<feColorMatrix type="matrix" values="0 0 0 0 0 0 0 0 0 0 0 0 0 0 0 0 0 0 0.25 0"/>
<feBlend mode="normal" in2="shape" result="effect1_innerShadow_17723_145736"/>
</filter>
<filter id="filter1_i_17723_145736" x="427" y="601" width="148" height="134" filterUnits="userSpaceOnUse" color-interpolation-filters="sRGB">
<feFlood flood-opacity="0" result="BackgroundImageFix"/>
<feBlend mode="normal" in="SourceGraphic" in2="BackgroundImageFix" result="shape"/>
<feColorMatrix in="SourceAlpha" type="matrix" values="0 0 0 0 0 0 0 0 0 0 0 0 0 0 0 0 0 0 127 0" result="hardAlpha"/>
<feOffset dx="2" dy="2"/>
<feGaussianBlur stdDeviation="1"/>
<feComposite in2="hardAlpha" operator="arithmetic" k2="-1" k3="1"/>
<feColorMatrix type="matrix" values="0 0 0 0 0 0 0 0 0 0 0 0 0 0 0 0 0 0 0.25 0"/>
<feBlend mode="normal" in2="shape" result="effect1_innerShadow_17723_145736"/>
</filter>
<linearGradient id="paint0_linear_17723_145736" x1="500" y1="1333" x2="500" y2="0" gradientUnits="userSpaceOnUse">
<stop stop-color="#242428"/>
<stop offset="1" stop-color="#303036"/>
</linearGradient>
<linearGradient id="paint1_linear_17723_145736" x1="500" y1="601" x2="500" y2="733" gradientUnits="userSpaceOnUse">
<stop offset="0.4" stop-color="#AFAFB6"/>
<stop offset="0.795455" stop-color="#6E6E77"/>
</linearGradient>
</defs>
</svg>
