<svg width="36" height="36" viewBox="0 0 36 36" fill="none" xmlns="http://www.w3.org/2000/svg">
<g clip-path="url(#clip0_7749_4295)">
<path fill-rule="evenodd" clip-rule="evenodd" d="M18 0C8.1 0 0 8.1 0 18C0 25.9875 5.175 32.7375 12.2625 35.1C13.1625 35.2125 13.5 34.7625 13.5 34.2C13.5 33.75 13.5 32.625 13.5 31.1625C8.4375 32.2875 7.425 28.8 7.425 28.8C6.6375 26.775 5.4 26.2125 5.4 26.2125C3.7125 25.0875 5.5125 25.0875 5.5125 25.0875C7.3125 25.2 8.325 26.8875 8.325 26.8875C9.9 29.5875 12.4875 28.8 13.6125 28.35C13.725 27.225 14.2875 26.4375 14.7375 25.9875C10.6875 25.5375 6.525 23.9625 6.525 17.1C6.525 15.1875 7.2 13.5 8.325 12.2625C8.1 11.8125 7.5375 10.0125 8.55 7.5375C8.55 7.5375 10.0125 7.0875 13.5 9.3375C14.9625 8.8875 16.425 8.775 18 8.775C19.575 8.775 21.0375 9 22.5 9.3375C25.9875 6.975 27.45 7.425 27.45 7.425C28.4625 9.9 27.7875 11.7 27.675 12.15C28.8 13.3875 29.475 14.9625 29.475 16.9875C29.475 23.85 25.3125 25.425 21.2625 25.875C21.9375 26.4375 22.5 27.5625 22.5 29.25C22.5 31.6125 22.5 33.6375 22.5 34.2C22.5 34.65 22.8375 35.2125 23.7375 35.1C30.825 32.7375 36 25.9875 36 18C36 8.1 27.9 0 18 0Z" fill="#09090B"/>
</g>
<defs>
<clipPath id="clip0_7749_4295">
<rect width="36" height="36" fill="white"/>
</clipPath>
</defs>
</svg>
