<svg width="36" height="36" viewBox="0 0 36 36" fill="none" xmlns="http://www.w3.org/2000/svg">
<path fill-rule="evenodd" clip-rule="evenodd" d="M16.2181 6.02068C13.5811 4.12074 11.421 3.72091 10.0883 4.49035C8.75559 5.25979 8.02185 7.33034 8.34873 10.564C8.36941 10.7686 8.39428 10.9765 8.42332 11.1874C9.92629 10.7294 11.59 10.3778 13.3638 10.1528C14.4442 8.73259 15.5788 7.47056 16.7251 6.40042C16.5555 6.26858 16.3864 6.14196 16.2181 6.02068ZM18.0059 5.28844C17.7343 5.07021 17.4629 4.86339 17.1923 4.66844C14.4625 2.70162 11.5095 1.74536 9.25497 3.04698C7.00049 4.3486 6.35212 7.38413 6.69052 10.7316C6.72386 11.0615 6.76696 11.3978 6.81971 11.74C6.49383 11.8665 6.17801 11.9985 5.87292 12.1357C2.80468 13.5164 0.5 15.5957 0.5 18.199C0.5 20.8022 2.80468 22.8815 5.87292 24.2622C6.1778 24.3994 6.4934 24.5313 6.81905 24.6577C6.76556 25.0034 6.72192 25.3433 6.68825 25.6764C6.34985 29.0239 6.99822 32.0595 9.2527 33.3611C11.5072 34.6627 14.4602 33.7064 17.1901 31.7396C17.4614 31.5441 17.7336 31.3367 18.0059 31.1178C18.2769 31.3355 18.5476 31.5418 18.8176 31.7363C21.5475 33.7031 24.5005 34.6594 26.755 33.3578C29.0095 32.0561 29.6578 29.0206 29.3194 25.6731C29.2858 25.34 29.2422 25.0003 29.1887 24.6547C29.5116 24.5292 29.8246 24.3983 30.1271 24.2622C33.1953 22.8815 35.5 20.8022 35.5 18.199C35.5 15.5957 33.1953 13.5164 30.1271 12.1357C29.8244 11.9995 29.5112 11.8685 29.188 11.743C29.2408 11.4009 29.2838 11.0647 29.3172 10.735C29.6556 7.38747 29.0072 4.35193 26.7527 3.05032C24.4982 1.7487 21.5452 2.70496 18.8153 4.67177C18.5461 4.86573 18.2761 5.07144 18.0059 5.28844ZM18.0057 7.48614C17.2234 8.20412 16.4393 9.02478 15.6708 9.93672C16.4334 9.88981 17.211 9.86566 18 9.86566C18.7928 9.86566 19.5741 9.89005 20.3403 9.9374C19.5719 9.02526 18.7879 8.20438 18.0057 7.48614ZM12.0223 12.0419C10.8447 12.2513 9.73868 12.5203 8.72284 12.8393C8.95407 13.8785 9.27378 14.971 9.68083 16.0956C10.0221 15.4104 10.3906 14.7236 10.7858 14.0391C11.1835 13.3502 11.5967 12.6837 12.0223 12.0419ZM10.5303 18.2015C11.0188 17.1032 11.5854 15.9875 12.2292 14.8724C12.8755 13.753 13.5612 12.7006 14.2711 11.7252C15.4654 11.5993 16.7137 11.5323 18 11.5323C19.2902 11.5323 20.5422 11.5997 21.7398 11.7264C22.4486 12.7005 23.1332 13.7513 23.7785 14.869C24.4229 15.9853 24.99 17.1021 25.4788 18.2015C24.9895 19.3025 24.4217 20.4211 23.7762 21.539C23.1333 22.6526 22.4513 23.6999 21.7454 24.6709C20.5461 24.798 19.2922 24.8656 18 24.8656C16.7117 24.8656 15.4616 24.7984 14.2656 24.6721C13.5585 23.6998 12.8754 22.651 12.2315 21.5357C11.5867 20.4189 11.0193 19.3014 10.5303 18.2015ZM8.71489 18.2013C8.0233 16.5525 7.49643 14.9358 7.14223 13.4052C6.9422 13.4865 6.74701 13.57 6.55686 13.6556C3.59294 14.9894 2.16666 16.6601 2.16666 18.199C2.16666 19.7378 3.59294 21.4086 6.55686 22.7423C6.74704 22.8279 6.94225 22.9114 7.1423 22.9928C7.49687 21.4635 8.0237 19.8484 8.71489 18.2013ZM8.72283 23.5586C8.95424 22.5208 9.27383 21.43 9.68047 20.3072C10.0224 20.9941 10.3918 21.6827 10.7881 22.369C11.1835 23.0539 11.5942 23.7168 12.0172 24.3552C10.8416 24.1458 9.73722 23.8772 8.72283 23.5586ZM8.42248 25.2103C8.39283 25.4247 8.36749 25.6361 8.34646 25.844C8.01958 29.0777 8.75332 31.1483 10.086 31.9177C11.4188 32.6872 13.5788 32.2873 16.2158 30.3874C16.385 30.2655 16.5549 30.1383 16.7253 30.0057C15.5768 28.9333 14.44 27.6682 13.3578 26.2443C11.5859 26.0193 9.92397 25.6679 8.42248 25.2103ZM19.2863 30.0054C19.4554 30.1369 19.624 30.2631 19.7919 30.3841C22.4289 32.284 24.5889 32.6838 25.9216 31.9144C27.2544 31.1449 27.9881 29.0744 27.6612 25.8407C27.6402 25.633 27.6149 25.422 27.5853 25.2079C26.085 25.6657 24.4242 26.0174 22.6535 26.2429C21.5714 27.6671 20.4348 28.9325 19.2863 30.0054ZM20.3469 26.4601C19.5764 27.3756 18.7901 28.1993 18.0057 28.9198C17.2211 28.1996 16.4347 27.3761 15.6642 26.4608C16.4289 26.508 17.2087 26.5323 18 26.5323C18.7951 26.5323 19.5786 26.5077 20.3469 26.4601ZM23.994 24.3532C25.1685 24.1436 26.2717 23.8748 27.285 23.5561C27.0539 22.5193 26.7347 21.4295 26.3286 20.3077C25.9862 20.9956 25.6164 21.6851 25.2196 22.3724C24.8253 23.0553 24.4157 23.7164 23.994 24.3532ZM27.2942 18.2013C27.9847 19.8473 28.5111 21.4614 28.8654 22.9896C29.0628 22.9093 29.2554 22.8268 29.4432 22.7423C32.4071 21.4086 33.8333 19.7378 33.8333 18.199C33.8333 16.6601 32.4071 14.9894 29.4432 13.6556C29.2554 13.5711 29.0628 13.4887 28.8655 13.4083C28.5115 14.9379 27.9851 16.5536 27.2942 18.2013ZM27.5845 11.1898C26.0827 10.7315 24.4201 10.3797 22.6475 10.1543C21.5673 8.73369 20.4327 7.47128 19.2865 6.40073C19.4548 6.26998 19.6226 6.14437 19.7896 6.02401C22.4266 4.12408 24.5867 3.72425 25.9194 4.49369C27.2521 5.26313 27.9858 7.33368 27.659 10.5674C27.6383 10.7717 27.6135 10.9792 27.5845 11.1898ZM27.285 12.8418C27.0541 13.8801 26.7348 14.9715 26.3283 16.0951C25.9866 15.4089 25.6176 14.7212 25.2219 14.0357C24.8252 13.3488 24.4133 12.684 23.9889 12.0439C25.1653 12.2536 26.2703 12.5227 27.285 12.8418ZM21.3338 18.2031C21.3338 20.044 19.8414 21.5364 18.0004 21.5364C16.1595 21.5364 14.6671 20.044 14.6671 18.2031C14.6671 16.3621 16.1595 14.8697 18.0004 14.8697C19.8414 14.8697 21.3338 16.3621 21.3338 18.2031Z" fill="#09090B"/>
<path d="M10.0883 4.49035L10.1388 4.57784L10.0883 4.49035ZM16.2181 6.02068L16.2771 5.93871V5.93871L16.2181 6.02068ZM8.34873 10.564L8.44924 10.5539L8.34873 10.564ZM8.42332 11.1874L8.32324 11.2012L8.3394 11.3186L8.45276 11.284L8.42332 11.1874ZM13.3638 10.1528L13.3766 10.253L13.4186 10.2477L13.4443 10.214L13.3638 10.1528ZM16.7251 6.40042L16.794 6.47426L16.8807 6.39339L16.7871 6.32066L16.7251 6.40042ZM17.1923 4.66844L17.1333 4.7504H17.1333L17.1923 4.66844ZM18.0059 5.28844L17.9426 5.36719L18.0059 5.41802L18.0692 5.36721L18.0059 5.28844ZM9.25497 3.04698L9.20446 2.95949L9.25497 3.04698ZM6.69052 10.7316L6.59001 10.7418L6.69052 10.7316ZM6.81971 11.74L6.85626 11.8342L6.93192 11.8048L6.91956 11.7246L6.81971 11.74ZM5.87292 12.1357L5.91437 12.2279L5.87292 12.1357ZM5.87292 24.2622L5.83146 24.3543L5.87292 24.2622ZM6.81905 24.6577L6.91889 24.6731L6.9313 24.5929L6.8556 24.5635L6.81905 24.6577ZM6.68825 25.6764L6.78876 25.6866L6.68825 25.6764ZM9.2527 33.3611L9.30321 33.2736L9.2527 33.3611ZM17.1901 31.7396L17.2491 31.8216L17.1901 31.7396ZM18.0059 31.1178L18.0692 31.039L18.0059 30.9882L17.9426 31.0391L18.0059 31.1178ZM18.8176 31.7363L18.7586 31.8183L18.8176 31.7363ZM26.755 33.3578L26.7045 33.2703L26.755 33.3578ZM29.3194 25.6731L29.2189 25.6832L29.3194 25.6731ZM29.1887 24.6547L29.1521 24.5605L29.0764 24.5899L29.0889 24.6701L29.1887 24.6547ZM30.1271 24.2622L30.0856 24.1701L30.1271 24.2622ZM30.1271 12.1357L30.0856 12.2279L30.1271 12.1357ZM29.188 11.743L29.0882 11.7276L29.0758 11.8078L29.1514 11.8372L29.188 11.743ZM29.3172 10.735L29.4177 10.7451L29.3172 10.735ZM26.7527 3.05032L26.7022 3.1378L26.7527 3.05032ZM18.8153 4.67177L18.8744 4.75374L18.8153 4.67177ZM18.0057 7.48614L18.074 7.41173L18.0057 7.34901L17.9374 7.41171L18.0057 7.48614ZM15.6708 9.93672L15.5935 9.87162L15.4415 10.052L15.677 10.0376L15.6708 9.93672ZM20.3403 9.9374L20.334 10.0382L20.5696 10.0528L20.4175 9.87232L20.3403 9.9374ZM8.72284 12.8393L8.69257 12.7429L8.60408 12.7707L8.62423 12.8612L8.72284 12.8393ZM12.0223 12.0419L12.1065 12.0977L12.2369 11.9011L12.0046 11.9424L12.0223 12.0419ZM9.68083 16.0956L9.58584 16.13L9.66611 16.3518L9.77126 16.1406L9.68083 16.0956ZM10.7858 14.0391L10.8733 14.0896L10.7858 14.0391ZM12.2292 14.8724L12.1417 14.8219L12.2292 14.8724ZM10.5303 18.2015L10.438 18.1604L10.4198 18.2015L10.438 18.2425L10.5303 18.2015ZM14.2711 11.7252L14.2605 11.6248L14.2159 11.6295L14.1894 11.6658L14.2711 11.7252ZM21.7398 11.7264L21.8215 11.667L21.7951 11.6307L21.7505 11.6259L21.7398 11.7264ZM23.7785 14.869L23.691 14.9196L23.7785 14.869ZM25.4788 18.2015L25.5711 18.2425L25.5894 18.2015L25.5711 18.1604L25.4788 18.2015ZM23.7762 21.539L23.6887 21.4885L23.7762 21.539ZM21.7454 24.6709L21.756 24.7714L21.8007 24.7667L21.8271 24.7303L21.7454 24.6709ZM14.2656 24.6721L14.1839 24.7315L14.2103 24.7679L14.255 24.7726L14.2656 24.6721ZM12.2315 21.5357L12.319 21.4852L12.2315 21.5357ZM7.14223 13.4052L7.24065 13.3824L7.21393 13.267L7.10417 13.3116L7.14223 13.4052ZM8.71489 18.2013L8.80804 18.2404L8.82444 18.2013L8.80805 18.1623L8.71489 18.2013ZM6.55686 13.6556L6.5154 13.5635L6.55686 13.6556ZM6.55686 22.7423L6.59831 22.6502H6.59831L6.55686 22.7423ZM7.1423 22.9928L7.10424 23.0864L7.21396 23.131L7.24071 23.0156L7.1423 22.9928ZM9.68047 20.3072L9.77091 20.2622L9.6658 20.051L9.58549 20.2728L9.68047 20.3072ZM8.72283 23.5586L8.62423 23.5366L8.60404 23.6272L8.69256 23.655L8.72283 23.5586ZM10.7881 22.369L10.8756 22.3185L10.7881 22.369ZM12.0172 24.3552L11.9995 24.4546L12.2317 24.496L12.1015 24.2994L12.0172 24.3552ZM8.42248 25.2103L8.45193 25.1137L8.33863 25.0791L8.32241 25.1965L8.42248 25.2103ZM8.34646 25.844L8.24595 25.8339L8.34646 25.844ZM10.086 31.9177L10.0355 32.0052L10.086 31.9177ZM16.2158 30.3874L16.2749 30.4694L16.2158 30.3874ZM16.7253 30.0057L16.7873 30.0855L16.8808 30.0127L16.7942 29.9319L16.7253 30.0057ZM13.3578 26.2443L13.4382 26.1832L13.4126 26.1495L13.3706 26.1441L13.3578 26.2443ZM19.2863 30.0054L19.2173 29.9316L19.1307 30.0125L19.2243 30.0852L19.2863 30.0054ZM19.7919 30.3841L19.8509 30.3021L19.7919 30.3841ZM25.9216 31.9144L25.9722 32.0019H25.9722L25.9216 31.9144ZM27.6612 25.8407L27.5607 25.8509L27.6612 25.8407ZM27.5853 25.2079L27.6854 25.1941L27.6692 25.0767L27.5559 25.1113L27.5853 25.2079ZM22.6535 26.2429L22.6407 26.1427L22.5987 26.1481L22.5731 26.1818L22.6535 26.2429ZM18.0057 28.9198L17.9373 28.9943L18.0057 29.057L18.074 28.9942L18.0057 28.9198ZM20.3469 26.4601L20.4242 26.5252L20.5761 26.3447L20.3406 26.3593L20.3469 26.4601ZM15.6642 26.4608L15.6704 26.36L15.435 26.3454L15.5869 26.5259L15.6642 26.4608ZM27.285 23.5561L27.3153 23.6525L27.4038 23.6247L27.3836 23.5342L27.285 23.5561ZM23.994 24.3532L23.9098 24.2974L23.7795 24.494L24.0117 24.4526L23.994 24.3532ZM26.3286 20.3077L26.4236 20.2733L26.3433 20.0515L26.2382 20.2627L26.3286 20.3077ZM25.2196 22.3724L25.3071 22.4229L25.2196 22.3724ZM27.2942 18.2013L27.201 18.1623L27.1847 18.2013L27.201 18.2404L27.2942 18.2013ZM28.8654 22.9896L28.767 23.0124L28.7938 23.1279L28.9035 23.0832L28.8654 22.9896ZM29.4432 22.7423L29.4846 22.8344L29.4432 22.7423ZM29.4432 13.6556L29.4846 13.5635L29.4432 13.6556ZM28.8655 13.4083L28.9036 13.3148L28.7938 13.27L28.7671 13.3855L28.8655 13.4083ZM22.6475 10.1543L22.5671 10.2154L22.5927 10.2491L22.6347 10.2545L22.6475 10.1543ZM27.5845 11.1898L27.555 11.2864L27.6684 11.321L27.6846 11.2035L27.5845 11.1898ZM19.2865 6.40073L19.2245 6.32095L19.1309 6.39366L19.2175 6.47456L19.2865 6.40073ZM19.7896 6.02401L19.8487 6.10598L19.7896 6.02401ZM25.9194 4.49369L25.9699 4.4062L25.9194 4.49369ZM27.659 10.5674L27.7595 10.5775L27.659 10.5674ZM26.3283 16.0951L26.2378 16.1401L26.343 16.3513L26.4233 16.1295L26.3283 16.0951ZM27.285 12.8418L27.3836 12.8637L27.4038 12.7732L27.3153 12.7454L27.285 12.8418ZM25.2219 14.0357L25.1344 14.0862L25.2219 14.0357ZM23.9889 12.0439L24.0067 11.9444L23.7744 11.903L23.9047 12.0997L23.9889 12.0439ZM10.1388 4.57784C10.7768 4.20948 11.622 4.11559 12.6412 4.35289C13.6605 4.59023 14.8476 5.15779 16.159 6.10264L16.2771 5.93871C14.9515 4.98363 13.7401 4.4013 12.687 4.15611C11.6337 3.91086 10.7325 4.00177 10.0378 4.40286L10.1388 4.57784ZM8.44924 10.5539C8.28668 8.94574 8.38869 7.63392 8.69283 6.63245C8.9969 5.63119 9.50081 4.94619 10.1388 4.57784L10.0378 4.40286C9.34309 4.80395 8.81377 5.53894 8.49951 6.57374C8.18531 7.60833 8.0839 8.94863 8.24822 10.5742L8.44924 10.5539ZM8.52339 11.1736C8.49452 10.9639 8.4698 10.7572 8.44924 10.5539L8.24822 10.5742C8.26903 10.78 8.29404 10.9891 8.32324 11.2012L8.52339 11.1736ZM13.3511 10.0526C11.5722 10.2782 9.90283 10.6309 8.39387 11.0907L8.45276 11.284C9.94975 10.8278 11.6079 10.4774 13.3766 10.253L13.3511 10.0526ZM13.4443 10.214C14.5215 8.79784 15.6523 7.54013 16.794 6.47426L16.6562 6.32658C15.5053 7.40098 14.3669 8.66733 13.2834 10.0917L13.4443 10.214ZM16.159 6.10264C16.3263 6.22319 16.4944 6.34907 16.6631 6.48018L16.7871 6.32066C16.6165 6.1881 16.4465 6.06074 16.2771 5.93871L16.159 6.10264ZM17.1333 4.7504C17.4024 4.94427 17.6724 5.15002 17.9426 5.36719L18.0692 5.20969C17.7963 4.9904 17.5235 4.78251 17.2514 4.58647L17.1333 4.7504ZM9.30548 3.13446C11.5039 1.86519 14.4088 2.78745 17.1333 4.7504L17.2514 4.58647C14.5162 2.61579 11.515 1.62552 9.20446 2.95949L9.30548 3.13446ZM6.79103 10.7215C6.4533 7.38055 7.10703 4.40374 9.30548 3.13446L9.20446 2.95949C6.89396 4.29346 6.25095 7.38771 6.59001 10.7418L6.79103 10.7215ZM6.91956 11.7246C6.86705 11.3841 6.82418 11.0495 6.79103 10.7215L6.59001 10.7418C6.62353 11.0734 6.66686 11.4115 6.71987 11.7554L6.91956 11.7246ZM5.91437 12.2279C6.21777 12.0913 6.53195 11.96 6.85626 11.8342L6.78317 11.6458C6.4557 11.7729 6.13824 11.9056 5.83146 12.0436L5.91437 12.2279ZM0.601021 18.199C0.601021 15.6604 2.85217 13.6059 5.91437 12.2279L5.83146 12.0436C2.75719 13.427 0.398979 15.531 0.398979 18.199H0.601021ZM5.91437 24.1701C2.85217 22.7921 0.601021 20.7375 0.601021 18.199H0.398979C0.398979 20.8669 2.75719 22.9709 5.83146 24.3543L5.91437 24.1701ZM6.8556 24.5635C6.53153 24.4377 6.21757 24.3065 5.91437 24.1701L5.83146 24.3543C6.13803 24.4923 6.45527 24.6249 6.7825 24.7519L6.8556 24.5635ZM6.78876 25.6866C6.82225 25.3553 6.86565 25.0172 6.91889 24.6731L6.71922 24.6422C6.66547 24.9897 6.6216 25.3313 6.58774 25.6663L6.78876 25.6866ZM9.30321 33.2736C7.10476 32.0043 6.45103 29.0275 6.78876 25.6866L6.58774 25.6663C6.24868 29.0204 6.89169 32.1146 9.20219 33.4486L9.30321 33.2736ZM17.131 31.6577C14.4065 33.6206 11.5017 34.5429 9.30321 33.2736L9.20219 33.4486C11.5127 34.7825 14.5139 33.7923 17.2491 31.8216L17.131 31.6577ZM17.9426 31.0391C17.6716 31.2569 17.4009 31.4633 17.131 31.6577L17.2491 31.8216C17.522 31.625 17.7955 31.4165 18.0692 31.1965L17.9426 31.0391ZM18.8767 31.6543C18.6082 31.4609 18.3388 31.2557 18.0692 31.039L17.9427 31.1966C18.2149 31.4153 18.4871 31.6227 18.7586 31.8183L18.8767 31.6543ZM26.7045 33.2703C24.506 34.5395 21.6011 33.6173 18.8767 31.6543L18.7586 31.8183C21.4938 33.7889 24.495 34.7792 26.8055 33.4452L26.7045 33.2703ZM29.2189 25.6832C29.5567 29.0242 28.9029 32.001 26.7045 33.2703L26.8055 33.4452C29.116 32.1113 29.759 29.017 29.4199 25.6629L29.2189 25.6832ZM29.0889 24.6701C29.1421 25.0141 29.1854 25.352 29.2189 25.6832L29.4199 25.6629C29.3861 25.328 29.3422 24.9866 29.2885 24.6392L29.0889 24.6701ZM30.0856 24.1701C29.7848 24.3054 29.4734 24.4356 29.1521 24.5605L29.2253 24.7488C29.5498 24.6228 29.8644 24.4912 30.1685 24.3543L30.0856 24.1701ZM35.399 18.199C35.399 20.7375 33.1478 22.7921 30.0856 24.1701L30.1685 24.3543C33.2428 22.9709 35.601 20.8669 35.601 18.199H35.399ZM30.0856 12.2279C33.1478 13.6059 35.399 15.6604 35.399 18.199H35.601C35.601 15.531 33.2428 13.427 30.1685 12.0436L30.0856 12.2279ZM29.1514 11.8372C29.473 11.9621 29.7846 12.0924 30.0856 12.2279L30.1685 12.0436C29.8642 11.9067 29.5493 11.775 29.2246 11.6488L29.1514 11.8372ZM29.2167 10.7248C29.1835 11.0527 29.1407 11.3872 29.0882 11.7276L29.2879 11.7584C29.3409 11.4147 29.3842 11.0767 29.4177 10.7451L29.2167 10.7248ZM26.7022 3.1378C28.9007 4.40708 29.5544 7.38389 29.2167 10.7248L29.4177 10.7451C29.7567 7.39105 29.1137 4.29679 26.8032 2.96283L26.7022 3.1378ZM18.8744 4.75374C21.5989 2.79079 24.5037 1.86853 26.7022 3.1378L26.8032 2.96283C24.4927 1.62886 21.4915 2.61913 18.7563 4.58981L18.8744 4.75374ZM18.0692 5.36721C18.3381 5.15126 18.6067 4.94662 18.8744 4.75374L18.7563 4.58981C18.4856 4.78485 18.2142 4.99162 17.9427 5.20968L18.0692 5.36721ZM17.9374 7.41171C17.1516 8.13284 16.3646 8.95666 15.5935 9.87162L15.748 10.0018C16.514 9.09289 17.2951 8.27539 18.074 7.56057L17.9374 7.41171ZM18 9.76464C17.209 9.76464 16.4293 9.78885 15.6646 9.83589L15.677 10.0376C16.4376 9.99077 17.2131 9.96668 18 9.96668V9.76464ZM20.3465 9.83658C19.5782 9.78909 18.7949 9.76464 18 9.76464V9.96668C18.7907 9.96668 19.5699 9.991 20.334 10.0382L20.3465 9.83658ZM17.9373 7.56055C18.7161 8.27564 19.4972 9.09337 20.263 10.0025L20.4175 9.87232C19.6466 8.95716 18.8596 8.13312 18.074 7.41173L17.9373 7.56055ZM8.75311 12.9357C9.76449 12.6181 10.8663 12.3501 12.04 12.1413L12.0046 11.9424C10.8232 12.1526 9.71287 12.4225 8.69257 12.7429L8.75311 12.9357ZM9.77582 16.0612C9.37011 14.9403 9.05166 13.852 8.82145 12.8174L8.62423 12.8612C8.85647 13.905 9.17744 15.0016 9.58584 16.13L9.77582 16.0612ZM9.77126 16.1406C10.1116 15.4573 10.4791 14.7724 10.8733 14.0896L10.6983 13.9885C10.3021 14.6749 9.93257 15.3635 9.5904 16.0506L9.77126 16.1406ZM10.8733 14.0896C11.27 13.4025 11.6821 12.7378 12.1065 12.0977L11.9381 11.986C11.5114 12.6296 11.0971 13.2979 10.6983 13.9885L10.8733 14.0896ZM12.1417 14.8219C11.4962 15.94 10.9279 17.0588 10.438 18.1604L10.6226 18.2425C11.1096 17.1475 11.6746 16.0349 12.3167 14.9229L12.1417 14.8219ZM14.1894 11.6658C13.4774 12.6441 12.7898 13.6994 12.1417 14.8219L12.3167 14.9229C12.9612 13.8065 13.645 12.7571 14.3528 11.7847L14.1894 11.6658ZM14.2817 11.8257C15.4724 11.7002 16.7172 11.6333 18 11.6333V11.4313C16.7102 11.4313 15.4584 11.4985 14.2605 11.6248L14.2817 11.8257ZM18 11.6333C19.2867 11.6333 20.5352 11.7006 21.7292 11.8269L21.7505 11.6259C20.5493 11.4989 19.2937 11.4313 18 11.4313V11.6333ZM21.6581 11.7858C22.3648 12.757 23.0474 13.8049 23.691 14.9196L23.866 14.8185C23.2189 13.6978 22.5324 12.644 21.8215 11.667L21.6581 11.7858ZM23.691 14.9196C24.3337 16.0327 24.8992 17.1464 25.3865 18.2425L25.5711 18.1604C25.0809 17.0578 24.5122 15.9378 23.866 14.8185L23.691 14.9196ZM23.8637 21.5895C24.5109 20.4686 25.0804 19.3468 25.5711 18.2425L25.3865 18.1605C24.8987 19.2582 24.3324 20.3736 23.6887 21.4885L23.8637 21.5895ZM21.8271 24.7303C22.5351 23.7564 23.219 22.7062 23.8637 21.5895L23.6887 21.4885C23.0475 22.5991 22.3675 23.6434 21.6637 24.6115L21.8271 24.7303ZM21.7347 24.5705C20.539 24.6971 19.2887 24.7646 18 24.7646V24.9666C19.2957 24.9666 20.5531 24.8988 21.756 24.7714L21.7347 24.5705ZM18 24.7646C16.7152 24.7646 15.4686 24.6975 14.2762 24.5716L14.255 24.7726C15.4545 24.8992 16.7082 24.9666 18 24.9666V24.7646ZM14.3473 24.6127C13.6423 23.6432 12.9611 22.5975 12.319 21.4852L12.144 21.5862C12.7897 22.7045 13.4747 23.7563 14.1839 24.7315L14.3473 24.6127ZM12.319 21.4852C11.6759 20.3714 11.1102 19.2571 10.6227 18.1604L10.438 18.2425C10.9285 19.3458 11.4974 20.4664 12.144 21.5862L12.319 21.4852ZM7.04381 13.428C7.39942 14.9646 7.92814 16.5868 8.62173 18.2404L8.80805 18.1623C8.11845 16.5181 7.59343 14.9069 7.24065 13.3824L7.04381 13.428ZM6.59831 13.7477C6.78731 13.6627 6.98136 13.5797 7.18029 13.4988L7.10417 13.3116C6.90304 13.3934 6.70672 13.4774 6.5154 13.5635L6.59831 13.7477ZM2.26769 18.199C2.26769 17.4623 2.60897 16.6834 3.32405 15.9194C4.03928 15.1553 5.12435 14.411 6.59831 13.7477L6.5154 13.5635C5.02546 14.234 3.91542 14.9919 3.17654 15.7813C2.4375 16.5709 2.06564 17.3968 2.06564 18.199H2.26769ZM6.59831 22.6502C5.12435 21.9869 4.03928 21.2426 3.32405 20.4785C2.60897 19.7146 2.26769 18.9357 2.26769 18.199H2.06564C2.06564 19.0011 2.4375 19.827 3.17654 20.6166C3.91542 21.406 5.02546 22.164 6.5154 22.8344L6.59831 22.6502ZM7.18036 22.8992C6.98141 22.8183 6.78733 22.7352 6.59831 22.6502L6.5154 22.8344C6.70674 22.9205 6.90309 23.0045 7.10424 23.0864L7.18036 22.8992ZM7.24071 23.0156C7.59387 21.4924 8.11884 19.8828 8.80804 18.2404L8.62173 18.1622C7.92856 19.8141 7.39987 21.4346 7.04389 22.97L7.24071 23.0156ZM9.58549 20.2728C9.1775 21.3993 8.85666 22.4943 8.62423 23.5366L8.82143 23.5806C9.05182 22.5473 9.37016 21.4607 9.77546 20.3416L9.58549 20.2728ZM9.59004 20.3522C9.93294 21.041 10.3033 21.7314 10.7006 22.4195L10.8756 22.3185C10.4804 21.634 10.1119 20.9472 9.77091 20.2622L9.59004 20.3522ZM10.7006 22.4195C11.0971 23.1062 11.5089 23.7708 11.933 24.411L12.1015 24.2994C11.6796 23.6627 11.27 23.0016 10.8756 22.3185L10.7006 22.4195ZM12.035 24.2557C10.8632 24.0471 9.76303 23.7794 8.7531 23.4622L8.69256 23.655C9.7114 23.9749 10.82 24.2446 11.9995 24.4546L12.035 24.2557ZM8.32241 25.1965C8.2926 25.4121 8.2671 25.6246 8.24595 25.8339L8.44697 25.8542C8.46787 25.6475 8.49306 25.4374 8.52255 25.2241L8.32241 25.1965ZM8.24595 25.8339C8.08163 27.4594 8.18304 28.7997 8.49724 29.8343C8.8115 30.8691 9.34082 31.6041 10.0355 32.0052L10.1365 31.8302C9.49854 31.4619 8.99463 30.7769 8.69056 29.7756C8.38642 28.7741 8.28441 27.4623 8.44697 25.8542L8.24595 25.8339ZM10.0355 32.0052C10.7302 32.4063 11.6314 32.4972 12.6847 32.252C13.7378 32.0068 14.9492 31.4244 16.2749 30.4694L16.1568 30.3054C14.8453 31.2503 13.6583 31.8178 12.6389 32.0552C11.6197 32.2925 10.7746 32.1986 10.1365 31.8302L10.0355 32.0052ZM16.2749 30.4694C16.4451 30.3467 16.6159 30.2187 16.7873 30.0855L16.6633 29.926C16.4938 30.0578 16.3249 30.1843 16.1568 30.3054L16.2749 30.4694ZM16.7942 29.9319C15.6503 28.8637 14.5173 27.6029 13.4382 26.1832L13.2774 26.3055C14.3627 27.7334 15.5032 29.0028 16.6564 30.0796L16.7942 29.9319ZM13.3706 26.1441C11.6038 25.9197 9.94744 25.5695 8.45193 25.1137L8.39303 25.3069C9.9005 25.7664 11.5681 26.1189 13.3451 26.3446L13.3706 26.1441ZM19.2243 30.0852C19.3944 30.2173 19.5639 30.3443 19.7328 30.466L19.8509 30.3021C19.6841 30.1819 19.5165 30.0564 19.3483 29.9256L19.2243 30.0852ZM19.7328 30.466C21.0584 31.4211 22.2699 32.0034 23.323 32.2486C24.3763 32.4939 25.2774 32.403 25.9722 32.0019L25.8711 31.8269C25.2331 32.1952 24.3879 32.2891 23.3688 32.0518C22.3494 31.8145 21.1623 31.2469 19.8509 30.3021L19.7328 30.466ZM25.9722 32.0019C26.6669 31.6008 27.1962 30.8658 27.5104 29.831C27.8246 28.7964 27.9261 27.4561 27.7617 25.8305L27.5607 25.8509C27.7233 27.459 27.6213 28.7708 27.3171 29.7723C27.0131 30.7735 26.5091 31.4585 25.8711 31.8269L25.9722 32.0019ZM27.7617 25.8305C27.7406 25.6216 27.7152 25.4094 27.6854 25.1941L27.4853 25.2217C27.5147 25.4347 27.5399 25.6445 27.5607 25.8509L27.7617 25.8305ZM27.5559 25.1113C26.0615 25.5673 24.4063 25.9178 22.6407 26.1427L22.6663 26.3431C24.4421 26.117 26.1085 25.7642 27.6148 25.3045L27.5559 25.1113ZM22.5731 26.1818C21.4941 27.6018 20.3612 28.863 19.2173 29.9316L19.3552 30.0792C20.5083 29.0021 21.6488 27.7323 22.7339 26.304L22.5731 26.1818ZM18.074 28.9942C18.8619 28.2706 19.6512 27.4437 20.4242 26.5252L20.2696 26.3951C19.5017 27.3075 18.7184 28.1281 17.9373 28.8454L18.074 28.9942ZM15.5869 26.5259C16.36 27.4442 17.1493 28.2708 17.9373 28.9943L18.074 28.8454C17.2929 28.1283 16.5095 27.308 15.7415 26.3957L15.5869 26.5259ZM18 26.4312C17.2108 26.4312 16.4331 26.407 15.6704 26.36L15.658 26.5616C16.4248 26.6089 17.2067 26.6333 18 26.6333V26.4312ZM20.3406 26.3593C19.5744 26.4068 18.793 26.4312 18 26.4312V26.6333C18.7972 26.6333 19.5827 26.6087 20.3531 26.5609L20.3406 26.3593ZM27.2547 23.4598C26.2459 23.777 25.1469 24.0448 23.9762 24.2537L24.0117 24.4526C25.1901 24.2423 26.2976 23.9725 27.3153 23.6525L27.2547 23.4598ZM26.2336 20.3421C26.6384 21.4602 26.9563 22.5458 27.1864 23.5781L27.3836 23.5342C27.1515 22.4927 26.831 21.3988 26.4236 20.2733L26.2336 20.3421ZM26.2382 20.2627C25.8967 20.9487 25.5279 21.6364 25.1321 22.3218L25.3071 22.4229C25.7049 21.7338 26.0758 21.0425 26.4191 20.3527L26.2382 20.2627ZM25.1321 22.3218C24.7388 23.0031 24.3304 23.6623 23.9098 24.2974L24.0782 24.4089C24.5011 23.7705 24.9117 23.1076 25.3071 22.4229L25.1321 22.3218ZM27.201 18.2404C27.8896 19.8817 28.4141 21.4903 28.767 23.0124L28.9638 22.9668C28.6081 21.4324 28.0799 19.813 27.3874 18.1622L27.201 18.2404ZM28.9035 23.0832C29.102 23.0024 29.2957 22.9194 29.4846 22.8344L29.4017 22.6502C29.2151 22.7341 29.0236 22.8161 28.8273 22.8961L28.9035 23.0832ZM29.4846 22.8344C30.9746 22.164 32.0846 21.406 32.8235 20.6166C33.5625 19.827 33.9344 19.0011 33.9344 18.199H33.7323C33.7323 18.9357 33.391 19.7146 32.676 20.4785C31.9607 21.2426 30.8757 21.9869 29.4017 22.6502L29.4846 22.8344ZM33.9344 18.199C33.9344 17.3968 33.5625 16.5709 32.8235 15.7813C32.0846 14.9919 30.9746 14.234 29.4846 13.5635L29.4017 13.7477C30.8757 14.411 31.9607 15.1553 32.676 15.9194C33.391 16.6834 33.7323 17.4623 33.7323 18.199H33.9344ZM29.4846 13.5635C29.2958 13.4785 29.102 13.3956 28.9036 13.3148L28.8274 13.5019C29.0236 13.5818 29.2151 13.6638 29.4017 13.7477L29.4846 13.5635ZM28.7671 13.3855C28.4145 14.909 27.89 16.5192 27.201 18.1623L27.3874 18.2404C28.0803 16.5879 28.6086 14.9668 28.9639 13.4311L28.7671 13.3855ZM22.6347 10.2545C24.4023 10.4793 26.0592 10.83 27.555 11.2864L27.614 11.0931C26.1062 10.6331 24.438 10.2801 22.6602 10.054L22.6347 10.2545ZM19.2175 6.47456C20.3592 7.54085 21.49 8.79893 22.5671 10.2154L22.7279 10.0931C21.6446 8.66845 20.5063 7.40172 19.3554 6.3269L19.2175 6.47456ZM19.7306 5.94205C19.5625 6.06314 19.3937 6.18948 19.2245 6.32095L19.3485 6.4805C19.5158 6.35048 19.6826 6.2256 19.8487 6.10598L19.7306 5.94205ZM25.9699 4.4062C25.2752 4.00511 24.374 3.9142 23.3207 4.15945C22.2676 4.40464 21.0562 4.98696 19.7306 5.94205L19.8487 6.10598C21.1601 5.16113 22.3471 4.59357 23.3665 4.35623C24.3857 4.11893 25.2309 4.21282 25.8689 4.58117L25.9699 4.4062ZM27.7595 10.5775C27.9238 8.95196 27.8224 7.61166 27.5082 6.57708C27.1939 5.54228 26.6646 4.80729 25.9699 4.4062L25.8689 4.58117C26.5069 4.94953 27.0108 5.63453 27.3149 6.63579C27.619 7.63726 27.721 8.94908 27.5584 10.5572L27.7595 10.5775ZM27.6846 11.2035C27.7137 10.9918 27.7387 10.7831 27.7595 10.5775L27.5584 10.5572C27.5379 10.7603 27.5132 10.9666 27.4844 11.176L27.6846 11.2035ZM26.4233 16.1295C26.8311 15.0021 27.1517 13.9066 27.3836 12.8637L27.1864 12.8198C26.9565 13.8536 26.6384 14.9408 26.2333 16.0607L26.4233 16.1295ZM25.1344 14.0862C25.5291 14.77 25.8971 15.4558 26.2378 16.1401L26.4187 16.0501C26.0761 15.362 25.7062 14.6725 25.3093 13.9852L25.1344 14.0862ZM23.9047 12.0997C24.3279 12.7381 24.7388 13.4011 25.1344 14.0862L25.3093 13.9852C24.9117 13.2965 24.4986 12.63 24.0731 11.9881L23.9047 12.0997ZM27.3153 12.7454C26.2961 12.4249 25.1869 12.1548 24.0067 11.9444L23.9712 12.1433C25.1437 12.3523 26.2444 12.6205 27.2547 12.9381L27.3153 12.7454ZM18.0004 21.6374C19.8972 21.6374 21.4348 20.0998 21.4348 18.2031H21.2328C21.2328 19.9882 19.7856 21.4354 18.0004 21.4354V21.6374ZM14.5661 18.2031C14.5661 20.0998 16.1037 21.6374 18.0004 21.6374V21.4354C16.2153 21.4354 14.7681 19.9882 14.7681 18.2031H14.5661ZM18.0004 14.7687C16.1037 14.7687 14.5661 16.3063 14.5661 18.2031H14.7681C14.7681 16.4179 16.2153 14.9708 18.0004 14.9708V14.7687ZM21.4348 18.2031C21.4348 16.3063 19.8972 14.7687 18.0004 14.7687V14.9708C19.7856 14.9708 21.2328 16.4179 21.2328 18.2031H21.4348Z" fill="#09090B"/>
</svg>
