<svg width="79" height="28" viewBox="0 0 79 28" fill="none" xmlns="http://www.w3.org/2000/svg">
<path d="M72.2655 28H63.0401V24.8889H75.3406L72.2655 28Z" fill="#ffffff"/>
<path d="M78.4157 21.7778L75.3406 24.8889V6.22222H78.4157V21.7778Z" fill="#ffffff"/>
<path d="M3.07513 6.22222V18.6667H12.3005L9.22538 21.7778H3.07513C1.37612 21.7778 0 20.3856 0 18.6667V6.22222H3.07513Z" fill="#ffffff"/>
<path d="M19.2195 9.33333V21.7778H16.1444V12.4444L19.2195 9.33333Z" fill="#ffffff"/>
<path d="M28.4449 6.22222C30.1439 6.22222 31.52 7.61444 31.52 9.33333V21.7778H28.4449V9.33333H19.2195L22.2947 6.22222H28.4449Z" fill="#ffffff"/>
<path d="M35.364 14.2645L43.3132 6.22222H47.663L39.9751 14L47.6645 21.7778H43.3147L37.8009 16.1995L35.364 18.6636V21.7778H32.2888V3.11111L35.364 0V14.2645Z" fill="#ffffff"/>
<path d="M59.1962 6.22222C60.8937 6.22222 62.2713 7.61444 62.2713 9.33333V12.4444C62.2713 14.1633 60.8937 15.5556 59.1962 15.5556H49.9708V18.6667H62.2713V21.7778H49.9708C49.1221 21.7778 48.3533 21.4293 47.7967 20.8662C47.2402 20.3031 46.8957 19.5253 46.8957 18.6667V12.4444L49.9708 9.33333V12.4444H59.1962V9.33333H49.9708L53.0459 6.22222H59.1962Z" fill="#ffffff"/>
<path d="M66.1152 6.22222V18.6667H75.3406L72.2655 21.7778H66.1152C64.4162 21.7778 63.0401 20.3856 63.0401 18.6667V6.22222H66.1152Z" fill="#ffffff"/>
<path d="M15.3756 15.5556L12.3005 18.6667V6.22222H15.3756V15.5556Z" fill="#ffffff"/>
</svg>
