<svg width="149" height="148" viewBox="0 0 149 148" fill="none" xmlns="http://www.w3.org/2000/svg">
<path d="M0.7519 97.498L0.750923 109.174C0.750922 119.761 15.9294 128.343 34.653 128.343C53.3767 128.343 68.5552 119.761 68.5552 109.174L68.5552 97.498" stroke="#777A88" stroke-width="1.5"/>
<path d="M0.750923 84.998L0.750923 97.1743C0.750922 107.761 15.9294 116.343 34.653 116.343C53.3767 116.343 68.5552 107.761 68.5552 97.1743L68.5552 84.998" stroke="#777A88" stroke-width="1.5"/>
<path d="M0.749947 72.998L0.749946 85.1743C0.749945 95.7609 15.9284 104.343 34.6521 104.343C53.3757 104.343 68.5542 95.7609 68.5542 85.1743L68.5542 72.998" stroke="#777A88" stroke-width="1.5"/>
<path d="M0.7519 60.998L0.751899 73.1743C0.751899 83.7609 15.9304 92.343 34.654 92.343C53.3777 92.343 68.5562 83.7609 68.5562 73.1743L68.5562 60.998" stroke="#777A88" stroke-width="1.5"/>
<path d="M0.7519 49L0.751899 61.1763C0.751899 71.7628 15.9304 80.345 34.654 80.345C53.3777 80.345 68.5562 71.7628 68.5562 61.1763L68.5562 49" stroke="#777A88" stroke-width="1.5" stroke-dasharray="3 3"/>
<ellipse cx="34.653" cy="36.9187" rx="19.1687" ry="33.9021" transform="rotate(90 34.653 36.9187)" stroke="#777A88" stroke-width="1.5" stroke-dasharray="3 3"/>
<path d="M0.750923 37L0.750923 49.1763C0.750922 59.7628 15.9294 68.345 34.653 68.345C53.3767 68.345 68.5552 59.7628 68.5552 49.1763L68.5552 37" stroke="#777A88" stroke-width="1.5" stroke-dasharray="3 3"/>
<path d="M76.9472 98.5391L76.9472 108.715C76.9472 119.302 92.1257 127.884 110.849 127.884C129.573 127.884 144.751 119.302 144.751 108.715L144.751 98.5391" stroke="#777A88" stroke-width="1.5" stroke-dasharray="3 3"/>
<path d="M76.9482 85.1706C76.9482 74.5841 92.1267 66.002 110.85 66.002C129.487 66.002 144.612 74.5048 144.751 85.0237M76.9482 85.1706C76.9482 95.7572 92.1267 104.339 110.85 104.339C129.574 104.339 144.752 95.7572 144.752 85.1706C144.752 85.1216 144.752 85.0726 144.751 85.0237M76.9482 85.1706L76.9472 98.5371L76.9472 108.713C76.9472 119.3 92.1257 127.882 110.849 127.882C129.573 127.882 144.751 119.3 144.751 108.713L144.751 98.5371L144.751 85.0237M76.9462 96.998C76.9462 107.585 92.1247 116.167 110.848 116.167C129.572 116.167 144.75 107.585 144.75 96.998" stroke="#777A88" stroke-width="1.5" stroke-dasharray="3 3"/>
</svg>
