<svg xmlns="http://www.w3.org/2000/svg" viewBox="0 0 45.247 22" width="45.247" height="22" preserveAspectRatio="xMinYMid meet" role="img" aria-hidden="true"><path d="M5.088 0.137 Q3.398 0.137 2.373 -0.937 Q1.348 -2.012 1.348 -3.975 L1.348 -10.918 L3.887 -10.918 L3.887 -4.365 Q3.887 -3.271 4.458 -2.646 Q5.029 -2.021 6.025 -2.021 Q7.041 -2.021 7.695 -2.676 Q8.35 -3.33 8.35 -4.521 L8.35 -10.918 L10.898 -10.918 L10.898 0 L8.486 0 L8.467 -2.187 Q7.49 0.137 5.088 0.137 Z M15.133 -6.396 L15.133 0 L12.594 0 L12.594 -10.918 L14.996 -10.918 L15.025 -8.74 Q16.002 -11.055 18.404 -11.055 Q20.094 -11.055 21.114 -9.98 Q22.135 -8.906 22.135 -6.943 L22.135 0 L19.596 0 L19.596 -6.553 Q19.596 -7.646 19.029 -8.271 Q18.463 -8.896 17.467 -8.896 Q16.451 -8.896 15.792 -8.242 Q15.133 -7.588 15.133 -6.396 Z M23.83 0 L23.83 -14.551 L26.369 -14.551 L26.369 -6.514 L26.555 -6.514 L30.49 -10.918 L33.469 -10.918 L29.24 -6.201 L33.723 0 L30.676 0 L27.307 -4.678 L26.369 -3.672 L26.369 0 Z M38.592 0.225 Q36.941 0.225 35.755 -0.469 Q34.568 -1.162 33.929 -2.422 Q33.289 -3.682 33.289 -5.391 Q33.289 -7.07 33.919 -8.345 Q34.549 -9.619 35.706 -10.337 Q36.863 -11.055 38.426 -11.055 Q39.754 -11.055 40.892 -10.474 Q42.029 -9.893 42.723 -8.677 Q43.416 -7.461 43.416 -5.547 L43.416 -4.746 L35.818 -4.746 Q35.867 -3.291 36.634 -2.529 Q37.4 -1.768 38.621 -1.768 Q39.461 -1.768 40.062 -2.129 Q40.662 -2.49 40.916 -3.184 L43.25 -2.705 Q42.859 -1.387 41.634 -0.581 Q40.408 0.225 38.592 0.225 Z M35.828 -6.475 L40.945 -6.475 Q40.828 -7.646 40.198 -8.354 Q39.568 -9.062 38.436 -9.062 Q37.273 -9.062 36.595 -8.315 Q35.916 -7.568 35.828 -6.475 Z M44.115 3.896 L44.711 1.914 L45.014 1.992 Q45.873 2.227 46.449 1.948 Q47.025 1.67 47.221 0.732 L47.377 0.039 L43.256 -10.918 L45.971 -10.918 L47.963 -4.98 Q48.197 -4.268 48.373 -3.56 Q48.549 -2.852 48.705 -2.139 Q48.891 -2.861 49.081 -3.569 Q49.271 -4.277 49.516 -4.98 L51.576 -10.918 L54.262 -10.918 L49.574 1.406 Q49.076 2.715 48.188 3.438 Q47.299 4.16 45.814 4.16 Q45.277 4.16 44.823 4.082 Q44.369 4.004 44.115 3.896 Z" fill="#ffffff" transform="translate(-1.153 15.443) scale(0.855)" /></svg>