<svg width="84" height="28" viewBox="0 0 84 28" fill="none" xmlns="http://www.w3.org/2000/svg">
<g clip-path="url(#clip0_22733_5576)">
<path d="M8.44664 22.0321C11.2164 22.0321 13.2596 20.9651 14.4629 19.5121L12.1472 17.537C11.2164 18.5586 10.0585 19.0808 8.51475 19.0808C5.38178 19.0808 3.45205 16.7197 3.45205 13.8138C3.45205 10.9078 5.38178 8.50134 8.44664 8.50134C9.87691 8.50134 11.0575 9.0008 12.011 9.99972L14.2585 8.04728C12.8283 6.3446 11.0347 5.55001 8.44664 5.55001C3.54286 5.55001 0.160156 9.25053 0.160156 13.8138C0.160156 18.3543 3.72448 22.0321 8.44664 22.0321ZM20.2478 22.0321C22.3592 22.0321 23.4262 21.1467 24.0619 19.8073V21.737H27.0359V9.93161H23.9938V11.7932C23.3581 10.5219 22.2911 9.68188 20.2478 9.68188C17.0013 9.68188 14.4132 12.4743 14.4132 15.8797C14.4132 19.2851 17.0013 22.0321 20.2478 22.0321ZM17.4781 15.857C17.4781 14.0181 18.7948 12.4516 20.7473 12.4516C22.7678 12.4516 24.0619 14.0408 24.0619 15.8797C24.0619 17.7186 22.7678 19.2624 20.7473 19.2624C18.7948 19.2624 17.4781 17.6505 17.4781 15.857ZM28.8569 21.737H31.922V5.16406H28.8569V21.737ZM35.369 22.0321C36.5496 22.0321 37.3896 21.124 37.3896 20.0343C37.3896 18.9673 36.5496 18.0592 35.369 18.0592C34.1885 18.0592 33.3258 18.9673 33.3258 20.0343C33.3258 21.124 34.1885 22.0321 35.369 22.0321ZM43.9764 22.0321C46.2921 22.0321 47.9266 21.1921 49.0391 19.7619L46.8142 17.8321C46.2012 18.6494 45.4293 19.2397 44.2488 19.2397C42.2964 19.2397 40.9569 17.6732 40.9569 15.8343C40.9569 13.9954 42.2283 12.4289 44.1807 12.4289C45.225 12.4289 46.1331 12.9511 46.678 13.7684L49.0391 11.8386C48.0402 10.4538 46.2921 9.61377 44.1353 9.63647C40.5256 9.65917 37.892 12.4062 37.892 15.8343C37.892 19.2624 40.5937 22.0321 43.9764 22.0321ZM55.3323 22.0321C58.9874 22.0321 61.6209 19.2624 61.6209 15.857C61.6209 12.4516 58.9874 9.65917 55.3323 9.65917C51.6771 9.65917 49.0436 12.4516 49.0436 15.857C49.0436 19.2624 51.6771 22.0321 55.3323 22.0321ZM52.1085 15.857C52.1085 14.0181 53.3798 12.4516 55.3323 12.4516C57.2847 12.4516 58.5561 14.0181 58.5561 15.857C58.5561 17.6959 57.2847 19.2397 55.3323 19.2397C53.3798 19.2397 52.1085 17.6959 52.1085 15.857ZM62.9778 21.737H66.0426V15.2667C66.0426 13.2235 67.2005 12.3381 68.4945 12.3381C70.0156 12.3381 71.0372 13.2235 71.0372 15.2667V21.737H74.1021V15.2667C74.1021 12.9965 75.0783 12.3381 76.5086 12.3381C77.8935 12.3381 78.8697 13.2235 78.8697 15.2667V21.737H81.9345V14.5176C81.9345 11.5435 79.9821 9.65917 77.4394 9.65917C75.3735 9.65917 74.2383 10.4538 73.4437 11.884C72.6718 10.4538 71.2643 9.65917 69.607 9.65917C67.7908 9.65917 66.6102 10.3403 65.9972 11.657V9.93161H62.9778V21.737Z" fill="#9194A1"/>
</g>
<defs>
<clipPath id="clip0_22733_5576">
<rect width="84" height="28" fill="white"/>
</clipPath>
</defs>
</svg>
