<svg width="160" height="28" viewBox="0 0 160 28" fill="none" xmlns="http://www.w3.org/2000/svg">
<path fill-rule="evenodd" clip-rule="evenodd" d="M22.7345 5.29688L18.7541 14.8352L14.77 5.29688H12.2142L16.581 15.7239C16.9432 16.5939 17.7927 17.1559 18.7392 17.1559C19.6858 17.1559 20.5334 16.5939 20.8974 15.7276L25.2904 5.29688H22.7345ZM24.4353 19.8293L31.7166 12.4679L30.7233 10.1248L22.77 18.1808C22.1054 18.8548 21.915 19.848 22.2827 20.7181C22.6486 21.5805 23.4944 22.1388 24.4372 22.1388L24.4409 22.1425L35.8089 22.1145L34.8157 19.7715L24.4372 19.8293H24.4353ZM5.79551 12.4623L6.78876 10.1192L14.742 18.1752C15.4067 18.8474 15.599 19.8443 15.2293 20.7125C14.8634 21.5768 14.0139 22.1332 13.0748 22.1332L1.70683 22.1071L1.70312 22.1108L2.69637 19.7677L13.0748 19.8256L5.79551 12.4623Z" fill="#9194A1"/>
<path d="M44.8906 21.207L44.8924 21.2089H46.8472V14.4766H53.1613V12.731H46.8472V8.35107H53.7923V6.60547H44.8906V21.207Z" fill="#9194A1"/>
<path d="M57.6536 10.6602H55.8203V21.2066H57.6536V10.6602Z" fill="#9194A1"/>
<path d="M62.3019 12.0586H62.3038C62.2627 12.1594 62.2235 12.221 62.1003 12.221C61.9976 12.221 61.9584 12.1818 61.9584 12.081V10.6602H60.125V21.2067H61.9547V15.2212C61.9547 13.1955 62.8937 12.404 64.6655 12.404H66.1329V10.6191H64.9511C63.5061 10.6191 62.7724 11.0448 62.3019 12.0586Z" fill="#9194A1"/>
<path d="M72.2302 19.9332C70.2642 19.9332 68.7968 18.8167 68.6736 16.4457H77.2407V15.4301C77.2407 12.4896 75.4487 10.3594 72.1871 10.3594C68.9255 10.3594 66.8477 12.4896 66.8477 15.936C66.8477 19.3824 68.8642 21.5127 72.2265 21.5127C75.5887 21.5127 76.9706 19.4665 77.2801 17.8646H75.3685C75.0719 19.0632 74.1963 19.9332 72.2302 19.9332ZM72.1871 11.937C74.1252 11.937 75.3239 12.9731 75.4079 14.9204H68.7242C69.0284 12.9302 70.4345 11.937 72.1871 11.937Z" fill="#9194A1"/>
<path d="M90.2521 19.2389C90.2074 19.4218 90.1514 19.4834 90.0061 19.4834C89.8601 19.4834 89.7988 19.4218 89.7594 19.2389L87.7207 10.6602H84.562L82.5233 19.2389C82.4787 19.4218 82.4227 19.4834 82.2766 19.4834C82.1313 19.4834 82.0693 19.4218 82.0307 19.2389L79.9912 10.6602H78.1992V11.0671H78.2106L80.6973 21.2066H83.8446L85.9454 12.3629C85.9847 12.2191 86.0241 12.1799 86.1467 12.1799C86.2481 12.1799 86.3094 12.2228 86.3487 12.3629L88.4487 21.2066H91.5968L94.0835 11.0671V10.6602H92.2908L90.2521 19.2389Z" fill="#9194A1"/>
<path d="M100.475 10.3574C97.3967 10.3574 94.9531 12.2822 94.9531 15.934C94.9531 19.5858 97.3944 21.5107 100.475 21.5107C103.556 21.5107 106 19.5858 106 15.934C106 12.2822 103.554 10.3574 100.475 10.3574ZM100.479 19.8882C98.3396 19.8882 96.8102 18.4712 96.8102 15.934C96.8102 13.3969 98.3396 11.9798 100.479 11.9798C102.618 11.9798 104.148 13.4006 104.148 15.934C104.148 18.4675 102.618 19.8882 100.479 19.8882Z" fill="#9194A1"/>
<path d="M110.115 12.0586C110.075 12.1594 110.036 12.221 109.913 12.221C109.81 12.221 109.771 12.1818 109.771 12.081V10.6602H107.938V21.2048H109.767V15.2212C109.767 13.1955 110.706 12.404 112.478 12.404H113.945V10.6191H112.763C111.319 10.6191 110.585 11.0448 110.115 12.0586Z" fill="#9194A1"/>
<path d="M117.192 15.5688V6.60547H115.359V21.2164H117.192V17.8484L119.181 16.1532L123.135 21.2126H125.14V20.8056L120.534 14.9937L125.14 11.0675V10.6605H122.784L117.192 15.5688Z" fill="#9194A1"/>
<path d="M131.492 15.1707L129.986 14.8869C128.541 14.6124 127.908 14.31 127.908 13.4363C127.908 12.5625 128.623 11.9146 130.333 11.9146C132.043 11.9146 133.021 12.5662 133.163 14.0056H135.03C134.823 11.4349 132.827 10.3613 130.325 10.3613C127.824 10.3613 126.067 11.4367 126.067 13.4624C126.067 15.4881 127.504 16.19 129.573 16.5746L131.08 16.8584C132.547 17.1329 133.281 17.4484 133.281 18.3594C133.281 19.2705 132.545 19.9501 130.776 19.9501C129.006 19.9501 127.831 19.2201 127.69 17.8198H125.824C125.998 20.3347 128.046 21.5109 130.777 21.5109C133.508 21.5109 135.118 20.3459 135.118 18.2549C135.118 16.1639 133.427 15.5347 131.492 15.1707Z" fill="#9194A1"/>
<path d="M157.528 6.60547H155.473V21.2164H157.528V6.60547Z" fill="#9194A1"/>
<path d="M145.503 6.7474L139.805 20.9494V21.2164H141.84L143.283 17.4022H150.142L151.586 21.2164H153.682V20.9531L147.943 6.60547H145.503V6.7474ZM143.961 15.636L146.41 9.21922H146.408C146.45 9.10912 146.556 9.03624 146.674 9.03624H146.774C146.892 9.03624 146.998 9.10912 147.039 9.21922L149.47 15.636H143.961Z" fill="#9194A1"/>
<path d="M57.6536 6.60547H55.8203V8.75624H57.6536V6.60547Z" fill="#9194A1"/>
</svg>
