<svg width="159" height="24" viewBox="0 0 159 24" fill="none" xmlns="http://www.w3.org/2000/svg">
<g clip-path="url(#clip0_22733_5622)">
<path d="M68.4271 8.45243C69.1123 8.45243 69.71 8.5934 70.2371 8.85752C70.7642 9.12163 71.1685 9.47382 71.4671 9.91403V8.611H73.8044V17.9081C73.8044 18.7532 73.6462 19.528 73.2948 20.1971C72.9433 20.8662 72.4337 21.4121 71.7483 21.7995C71.063 22.2045 70.2196 22.3982 69.253 22.3982C67.9526 22.3982 66.8807 22.0988 66.0372 21.4826C65.1937 20.8662 64.7191 20.0387 64.6136 18.9822H66.9157C67.0387 19.4048 67.3024 19.7393 67.7067 19.9859C68.1108 20.2324 68.6027 20.3556 69.1827 20.3556C69.8679 20.3556 70.4129 20.1444 70.8347 19.7393C71.2563 19.3168 71.4671 18.718 71.4671 17.8904V16.4642C71.1685 16.8868 70.7642 17.2567 70.2371 17.5384C69.71 17.8377 69.0949 17.9786 68.4271 17.9786C67.6538 17.9786 66.9511 17.7847 66.3008 17.3798C65.6507 16.9748 65.1411 16.4114 64.772 15.6895C64.403 14.9675 64.2097 14.14 64.2097 13.1891C64.2097 12.2559 64.403 11.4283 64.772 10.7064C65.1411 9.98448 65.6505 9.42092 66.2833 9.03353C66.9334 8.6462 67.6363 8.45243 68.4271 8.45243ZM129.669 8.43496C130.547 8.43498 131.338 8.6287 132.024 8.99847C132.709 9.38584 133.253 9.91404 133.64 10.6183C134.027 11.3226 134.22 12.1151 134.22 13.0131C134.22 13.3476 134.202 13.6469 134.15 13.911H127.419C127.472 14.5801 127.718 15.1084 128.122 15.4782C128.526 15.848 129.036 16.0417 129.633 16.0417C130.494 16.0417 131.11 15.6718 131.479 14.9323H133.992C133.728 15.8127 133.218 16.5524 132.463 17.1158C131.707 17.6969 130.776 17.9788 129.686 17.9788C128.79 17.9788 127.999 17.7674 127.296 17.3799C126.593 16.9926 126.031 16.429 125.644 15.7071C125.24 14.9851 125.047 14.1576 125.047 13.2067C125.047 12.2559 125.24 11.4107 125.627 10.6888C126.013 9.96689 126.558 9.40346 127.261 9.01609C127.964 8.6287 128.755 8.43496 129.669 8.43496ZM57.6898 8.43496C58.3751 8.43498 58.9902 8.57578 59.4998 8.85752C60.0094 9.13923 60.4136 9.49144 60.7299 9.91403V8.59338H63.0671V17.8201H60.7299V16.4642C60.4312 16.9044 60.0269 17.2567 59.4998 17.5384C58.9727 17.8201 58.3576 17.9611 57.6722 17.9611C56.8814 17.9611 56.1785 17.7674 55.5459 17.3622C54.9133 16.9573 54.4037 16.3939 54.0345 15.672C53.6656 14.9501 53.4723 14.1224 53.4723 13.1715C53.4723 12.2383 53.6656 11.4107 54.0345 10.6888C54.4035 9.96688 54.9133 9.40347 55.5459 9.01609C56.196 8.6287 56.8991 8.43496 57.6898 8.43496ZM104.908 8.43496C105.593 8.43496 106.208 8.5758 106.718 8.85752C107.228 9.13923 107.632 9.49142 107.948 9.91403V8.59338H110.285V17.8201H107.948V16.4642C107.649 16.9044 107.245 17.2565 106.718 17.5384C106.191 17.8201 105.576 17.9611 104.891 17.9611C104.1 17.9611 103.397 17.7674 102.764 17.3622C102.132 16.9574 101.622 16.3939 101.253 15.672C100.884 14.9501 100.69 14.1224 100.69 13.1715C100.69 12.2383 100.884 11.4107 101.253 10.6888C101.622 9.96688 102.132 9.40346 102.764 9.01609C103.414 8.62872 104.117 8.43498 104.908 8.43496ZM83.1001 8.41719C84.2423 8.41719 85.1737 8.71658 85.9293 9.28005C86.6849 9.86112 87.177 10.6536 87.4405 11.6924H84.9276C84.8046 11.3051 84.5761 10.988 84.2598 10.7591C83.9435 10.5302 83.5394 10.4245 83.0824 10.4245C82.4323 10.4245 81.9051 10.6712 81.5009 11.1466C81.1143 11.6396 80.9212 12.3264 80.9212 13.2067C80.9212 14.0871 81.1143 14.7739 81.5009 15.2493C81.8874 15.7247 82.4147 15.9712 83.0824 15.9712C84.0313 15.9712 84.6464 15.5486 84.9276 14.7034H87.4405C87.1945 15.6894 86.6849 16.4994 85.9293 17.0804C85.1737 17.6615 84.2247 17.9609 83.1001 17.9609C82.2214 17.9609 81.4306 17.7495 80.7452 17.3622C80.0599 16.9572 79.5153 16.4114 79.1287 15.6895C78.742 14.9851 78.5487 14.14 78.5487 13.1891C78.5487 12.2383 78.742 11.4106 79.1287 10.6886C79.5153 9.96674 80.0599 9.40329 80.7452 9.01592C81.4306 8.61093 82.2214 8.41719 83.1001 8.41719ZM155.202 8.45243C156.292 8.45243 157.17 8.7342 157.82 9.28005C158.471 9.82591 158.822 10.5656 158.892 11.4988H156.661C156.625 11.129 156.467 10.8296 156.204 10.6183C155.922 10.407 155.571 10.3013 155.114 10.3013C154.692 10.3013 154.376 10.3718 154.148 10.5302C153.919 10.6887 153.814 10.9001 153.814 11.1818C153.814 11.4811 153.954 11.7276 154.27 11.8861C154.569 12.0446 155.061 12.2206 155.712 12.3791C156.379 12.5376 156.924 12.7137 157.363 12.8898C157.803 13.0658 158.172 13.3476 158.488 13.7174C158.804 14.0872 158.963 14.5802 158.998 15.1964C158.998 15.7246 158.857 16.2001 158.559 16.6226C158.26 17.0453 157.838 17.3622 157.293 17.6089C156.749 17.8378 156.116 17.9609 155.378 17.9609C154.64 17.9609 153.954 17.8201 153.357 17.556C152.759 17.2742 152.285 16.922 151.934 16.4466C151.582 15.9712 151.389 15.4605 151.354 14.8971H153.691C153.743 15.2492 153.919 15.5486 154.218 15.7776C154.534 16.0064 154.903 16.1296 155.36 16.1296C155.799 16.1296 156.151 16.0416 156.397 15.8655C156.643 15.6894 156.766 15.4605 156.766 15.1788C156.766 14.8795 156.608 14.6682 156.309 14.5098C155.993 14.3513 155.518 14.1928 154.851 14.0168C154.165 13.8583 153.603 13.6822 153.164 13.5061C152.724 13.33 152.355 13.0659 152.039 12.6961C151.723 12.3264 151.564 11.8333 151.564 11.2171C151.564 10.7064 151.705 10.2485 152.004 9.82592C152.302 9.40334 152.724 9.06878 153.269 8.82226C153.814 8.57576 154.464 8.45243 155.202 8.45243ZM42.3489 6.19861L46.0392 14.8444L49.7295 6.19861H52.3477V17.8201H50.0281V10.2486L46.9179 17.8201H45.1429L42.0326 10.2486V17.8201H39.6953V6.19861H42.3489ZM96.3679 6.19861C98.4064 6.19861 100.076 7.85386 100.058 9.89641C100.058 11.939 98.4064 13.5942 96.3679 13.5942H93.5037V17.8201H91.1841V6.19861H96.3679ZM77.4065 17.82H75.0869V8.59338H77.4065V17.82ZM115.558 8.59338H117.35V10.5126H115.558V17.82H113.22V10.5126H111.428V8.59338H113.22V6.30432H115.558V8.59338ZM122.622 8.59338H124.414V10.5126H122.622V17.82H120.285V10.5126H118.492V8.59338H120.285V6.30432H122.622V8.59338ZM140.493 10.9175H139.878C139.14 10.9175 138.595 11.076 138.226 11.4282C137.857 11.7627 137.664 12.3614 137.664 13.2242V17.82H135.344V8.59321H137.664V10.0196C137.963 9.52655 138.367 9.1567 138.841 8.89258C139.316 8.61086 139.878 8.47004 140.493 8.47004V10.9175ZM146.732 8.45243C147.839 8.45243 148.717 8.80461 149.385 9.49132C150.071 10.178 150.404 11.1466 150.404 12.3967V17.8024H148.085V12.7137C148.085 11.9742 147.909 11.4106 147.54 11.0232C147.171 10.6183 146.679 10.4247 146.046 10.4247C145.396 10.4247 144.887 10.6359 144.517 11.0232C144.148 11.4106 143.955 11.9742 143.955 12.7137V17.8024H141.636V8.57576H143.955V9.72021C144.271 9.33285 144.676 9.01593 145.15 8.78703C145.624 8.55813 146.152 8.45243 146.732 8.45243ZM58.2871 10.4951C57.8655 10.4951 57.4612 10.6008 57.0922 10.8121C56.7233 11.0058 56.4246 11.3227 56.1962 11.7277C55.9677 12.1327 55.8622 12.6081 55.8622 13.1715C55.8622 13.735 55.9677 14.2105 56.1962 14.6331C56.4246 15.0381 56.7233 15.355 57.0922 15.5839C57.4612 15.8128 57.8655 15.9185 58.2871 15.9185C58.7266 15.9185 59.1309 15.8128 59.4998 15.6015C59.8688 15.3902 60.1676 15.0733 60.3959 14.6683C60.6244 14.2634 60.7299 13.7702 60.7299 13.2067C60.7299 12.6433 60.6244 12.1503 60.3959 11.7453C60.1676 11.3404 59.8688 11.0234 59.4998 10.8121C59.1309 10.6008 58.7266 10.4951 58.2871 10.4951ZM105.506 10.4951C105.084 10.4951 104.68 10.6008 104.311 10.8121C103.942 11.0058 103.643 11.3227 103.414 11.7277C103.186 12.1327 103.081 12.6081 103.081 13.1715C103.081 13.735 103.186 14.2105 103.414 14.6331C103.643 15.0381 103.942 15.355 104.311 15.5839C104.68 15.8128 105.084 15.9185 105.506 15.9185C105.945 15.9185 106.349 15.8128 106.718 15.6015C107.087 15.3902 107.386 15.0733 107.614 14.6683C107.843 14.2634 107.948 13.7702 107.948 13.2067C107.948 12.6433 107.843 12.1503 107.614 11.7453C107.386 11.3403 107.087 11.0234 106.718 10.8121C106.349 10.6008 105.945 10.4951 105.506 10.4951ZM69.0245 10.495C68.6029 10.495 68.1986 10.6007 67.8296 10.812C67.4607 11.0057 67.1619 11.3227 66.9334 11.7277C66.7049 12.1327 66.5994 12.6081 66.5994 13.1715C66.5994 13.7349 66.7049 14.2104 66.9334 14.6329C67.1619 15.0379 67.4607 15.3548 67.8296 15.5837C68.1986 15.8126 68.6029 15.9183 69.0245 15.9183C69.4638 15.9183 69.8681 15.8126 70.2371 15.6014C70.606 15.3901 70.905 15.0732 71.1333 14.6682C71.3443 14.2632 71.4671 13.7702 71.4671 13.2067C71.4671 12.6433 71.3618 12.1503 71.1333 11.7453C70.905 11.3403 70.606 11.0233 70.2371 10.812C69.8681 10.6007 69.4638 10.495 69.0245 10.495ZM129.598 10.3542C129.018 10.3542 128.526 10.5303 128.14 10.8825C127.753 11.2346 127.507 11.7278 127.419 12.3441H131.795C131.777 11.7454 131.567 11.2698 131.145 10.9001C130.723 10.5303 130.213 10.3542 129.598 10.3542ZM93.5212 11.6924H95.8935C96.8775 11.6924 97.686 10.8649 97.686 9.87879C97.686 8.89273 96.8952 8.08274 95.8935 8.08274H93.5212V11.6924ZM76.2465 5.35352C76.6331 5.35352 76.9494 5.47685 77.2129 5.72337C77.4765 5.96987 77.5997 6.26916 77.5997 6.63893C77.5997 7.0087 77.4765 7.30797 77.2129 7.55449C76.9494 7.801 76.6331 7.92432 76.2465 7.92432C75.8598 7.92432 75.5435 7.801 75.2801 7.55449C75.0164 7.30798 74.8933 7.00868 74.8933 6.63893C74.8933 6.26918 75.0164 5.96987 75.2801 5.72337C75.5435 5.47685 75.8598 5.35352 76.2465 5.35352Z" fill="#9194A1"/>
<path d="M32.2991 11.639C32.2814 11.639 32.2463 11.639 32.2288 11.639L29.997 11.9912C29.9795 11.9912 29.9618 11.9912 29.9443 11.9912C29.6982 11.9912 29.505 11.7975 29.505 11.551C29.505 11.5334 29.505 11.4982 29.505 11.4806L31.1744 3.416C31.192 3.36317 31.192 3.29273 31.192 3.23991C31.192 2.76449 30.8054 2.39472 30.3484 2.39472C30.2958 2.39472 30.243 2.39472 30.2078 2.41232L22.6867 3.6273C22.6339 3.6273 22.5987 3.6449 22.5461 3.6449C22.0716 3.6449 21.7027 3.25751 21.7027 2.79971C21.7027 2.74689 21.7027 2.69406 21.7201 2.64123L22.0541 1.02129C22.0541 1.02129 22.0716 0.898027 22.0716 0.845203C22.0716 0.36978 21.685 0 21.228 0C21.1754 0 21.1227 6.44872e-06 21.0875 0.0176146L5.46518 2.51797C4.72712 2.64124 4.12963 3.2047 3.97148 3.92664L0.0175687 22.9787C0.0175687 22.9787 0 23.102 0 23.1547C0 23.6303 0.386603 24 0.843498 24C0.984083 24 1.1071 23.9648 1.23011 23.912L10.7722 19.0346C10.8776 18.9816 11.0007 18.9464 11.1412 18.9464C11.6157 18.9464 11.9847 19.3338 11.9847 19.7917C11.9847 19.8444 11.9847 19.8974 11.9672 19.9501L11.3521 22.9435C11.3345 23.014 11.3345 23.0844 11.3345 23.1547C11.3345 23.6303 11.7212 24 12.178 24C12.3186 24 12.4416 23.9648 12.5647 23.912L23.3896 18.3654C23.4423 18.3302 23.5126 18.3125 23.583 18.3125C23.8289 18.3125 24.0222 18.5062 24.0222 18.7527C24.0222 18.7879 24.0222 18.8056 24.0222 18.8409L23.5653 21.0771C23.5653 21.1122 23.5478 21.1474 23.5478 21.1651C23.5478 21.4116 23.7411 21.6053 23.9871 21.6053C24.0574 21.6053 24.1276 21.5877 24.1979 21.5525L30.9987 18.0836C31.3677 17.8899 31.6488 17.5377 31.7191 17.1328L32.7384 12.1673C32.7384 12.1321 32.7559 12.0968 32.7559 12.0616C32.7384 11.8327 32.5451 11.639 32.2991 11.639Z" fill="#9194A1"/>
<path d="M32.2991 11.639C32.2814 11.639 32.2463 11.639 32.2288 11.639L29.997 11.9912C29.9795 11.9912 29.9618 11.9912 29.9443 11.9912C29.6982 11.9912 29.505 11.7975 29.505 11.551C29.505 11.5334 29.505 11.4982 29.505 11.4806L31.1744 3.416C31.192 3.36317 31.192 3.29273 31.192 3.23991C31.192 2.76449 30.8054 2.39472 30.3484 2.39472C30.2958 2.39472 30.243 2.39472 30.2078 2.41232L22.6867 3.6273C22.6339 3.6273 22.5987 3.6449 22.5461 3.6449C22.0716 3.6449 21.7027 3.25751 21.7027 2.79971C21.7027 2.74689 21.7027 2.69406 21.7201 2.64123L22.0541 1.02129C22.0541 1.02129 22.0716 0.898027 22.0716 0.845203C22.0716 0.36978 21.685 0 21.228 0C21.1754 0 21.1227 6.44872e-06 21.0875 0.0176146L5.46518 2.51797C4.72712 2.64124 4.12963 3.2047 3.97148 3.92664L0.0175687 22.9787C0.0175687 22.9787 0 23.102 0 23.1547C0 23.6303 0.386603 24 0.843498 24C0.984083 24 1.1071 23.9648 1.23011 23.912L10.7722 19.0346C10.8776 18.9816 11.0007 18.9464 11.1412 18.9464C11.6157 18.9464 11.9847 19.3338 11.9847 19.7917C11.9847 19.8444 11.9847 19.8974 11.9672 19.9501L11.3521 22.9435C11.3345 23.014 11.3345 23.0844 11.3345 23.1547C11.3345 23.6303 11.7212 24 12.178 24C12.3186 24 12.4416 23.9648 12.5647 23.912L23.3896 18.3654C23.4423 18.3302 23.5126 18.3125 23.583 18.3125C23.8289 18.3125 24.0222 18.5062 24.0222 18.7527C24.0222 18.7879 24.0222 18.8056 24.0222 18.8409L23.5653 21.0771C23.5653 21.1122 23.5478 21.1474 23.5478 21.1651C23.5478 21.4116 23.7411 21.6053 23.9871 21.6053C24.0574 21.6053 24.1276 21.5877 24.1979 21.5525L30.9987 18.0836C31.3677 17.8899 31.6488 17.5377 31.7191 17.1328L32.7384 12.1673C32.7384 12.1321 32.7559 12.0968 32.7559 12.0616C32.7384 11.8327 32.5451 11.639 32.2991 11.639Z" fill="#9194A1"/>
</g>
<defs>
<clipPath id="clip0_22733_5622">
<rect width="159" height="24" fill="white"/>
</clipPath>
</defs>
</svg>
