<svg width="106" height="28" viewBox="0 0 106 28" fill="none" xmlns="http://www.w3.org/2000/svg">
<g clip-path="url(#clip0_22733_5579)">
<path d="M35.9574 20.0336H32.7109V5.46598H36.6858L40.6607 16.1419L44.6147 5.46598H48.59V20.0336H45.3435V11.0433L41.9926 20.0336H39.308L35.9574 11.0433V20.0336ZM52.2897 7.90086C51.763 7.90086 51.312 7.72053 50.9374 7.35977C50.5765 6.98517 50.3963 6.52734 50.3963 5.98625C50.3963 5.45904 50.5765 5.01509 50.9374 4.65436C51.312 4.29364 51.763 4.11328 52.2897 4.11328C52.8308 4.11328 53.2819 4.29364 53.6428 4.65436C54.0038 5.01509 54.1839 5.45904 54.1839 5.98625C54.1839 6.52734 54.0038 6.98517 53.6428 7.35977C53.2819 7.72053 52.8308 7.90086 52.2897 7.90086ZM53.8926 20.0336H50.6877V9.00384H53.8926V20.0336ZM55.8041 20.0336V9.00384H58.3847L58.6556 10.5646C58.9606 9.98195 59.432 9.51026 60.0707 9.14951C60.7223 8.78877 61.451 8.60843 62.2555 8.60843C63.4209 8.60843 64.3502 8.98303 65.0441 9.73222C65.7517 10.4814 66.1059 11.4873 66.1059 12.7498V20.0336H62.901V12.9163C62.901 12.4446 62.7481 12.07 62.4432 11.7925C62.1374 11.515 61.7212 11.3763 61.1945 11.3763C60.5702 11.3763 60.0495 11.5636 59.6333 11.9382C59.2171 12.3128 59.009 12.7984 59.009 13.3949V20.0336H55.8041ZM72.7714 20.0336C71.4539 20.0336 70.4406 19.7284 69.733 19.1179C69.0398 18.5074 68.6925 17.6195 68.6925 16.4541V11.7092H66.8823V9.00384H68.6925V5.23707H71.8973V9.00384H74.6027V11.7092H71.8973V16.1003C71.8973 16.5027 72.0017 16.8079 72.2099 17.016C72.418 17.2241 72.7161 17.3282 73.1043 17.3282H74.3742V20.0336H72.7714ZM79.1402 20.0336H75.9354V4.42544H79.1402V20.0336ZM82.6735 7.90086C82.1468 7.90086 81.6958 7.72053 81.3212 7.35977C80.9602 6.98517 80.7801 6.52734 80.7801 5.98625C80.7801 5.45904 80.9602 5.01509 81.3212 4.65436C81.6958 4.29364 82.1468 4.11328 82.6735 4.11328C83.2146 4.11328 83.6656 4.29364 84.0266 4.65436C84.3876 5.01509 84.5677 5.45904 84.5677 5.98625C84.5677 6.52734 84.3876 6.98517 84.0266 7.35977C83.6656 7.72053 83.2146 7.90086 82.6735 7.90086ZM84.2763 20.0336H81.0715V9.00384H84.2763V20.0336ZM87.4161 20.0336V11.7092H85.6052V9.00384H87.4161V7.79681C87.4161 6.70076 87.7491 5.86833 88.415 5.2995C89.081 4.71679 90.0451 4.42544 91.3074 4.42544H93.6594V7.13085H91.6403C90.9608 7.13085 90.621 7.47076 90.621 8.15059V9.00384H93.4513V11.7092H90.621V20.0336H87.4161ZM94.821 24.1957V21.4903H97.0474C97.7966 21.4903 98.2688 21.2267 98.4625 20.6995L98.7122 20.0336H98.234L93.8637 9.00384H97.2971L100.044 16.4333L102.791 9.00384H106.121L101.459 21.5111C101.126 22.413 100.606 23.0858 99.8988 23.5298C99.1913 23.9738 98.2408 24.1957 97.0474 24.1957H94.821Z" fill="#9194A1"/>
<mask id="mask0_22733_5579" style="mask-type:luminance" maskUnits="userSpaceOnUse" x="0" y="1" width="23" height="23">
<path d="M22.5467 1.30469H0.695312V23.1561H22.5467V1.30469Z" fill="white"/>
</mask>
<g mask="url(#mask0_22733_5579)">
<path d="M6.45302 9.27736C6.4683 7.19644 7.29355 5.20334 8.75371 3.7207H8.75099L3.11368 9.35803H3.11633C3.09536 9.37461 3.07561 9.39254 3.05715 9.41192C1.68613 10.7811 0.854911 12.5988 0.716046 14.5314C0.577106 16.4641 1.1399 18.382 2.301 19.9332L7.99491 14.2393L8.05409 14.1827C6.99281 12.7696 6.42979 11.0445 6.45302 9.27736Z" fill="#9194A1"/>
<path d="M20.1421 15.1113C19.0632 16.1687 17.7088 16.9017 16.2334 17.2267C14.7582 17.5516 13.2211 17.4555 11.7978 16.9493C11.0389 16.6798 10.3256 16.296 9.68278 15.811L9.62352 15.8702L3.92969 21.5613C5.48149 22.7196 7.39836 23.2805 9.32975 23.1417C11.2612 23.0029 13.0781 22.1735 14.4483 20.8052L14.5048 20.7487L20.1421 15.1113Z" fill="#9194A1"/>
<path d="M22.5575 9.35843V1.30469H14.5037C13.446 1.30363 12.3985 1.51157 11.4213 1.91655C10.4442 2.32154 9.55672 2.91559 8.8098 3.66458L8.75335 3.7211C7.76889 4.7205 7.06449 5.96122 6.71094 7.31877C7.351 7.15303 8.00878 7.0654 8.66988 7.05777C10.4371 7.03697 12.1616 7.60079 13.5753 8.66153C14.8458 9.60899 15.8074 10.9114 16.3389 12.4045C16.8805 13.9306 16.9517 15.5841 16.5434 17.1512C17.9012 16.7983 19.142 16.0938 20.141 15.1088L20.1976 15.055C20.9468 14.3078 21.5411 13.4199 21.9461 12.4423C22.3511 11.4647 22.5589 10.4167 22.5575 9.35843Z" fill="#9194A1"/>
</g>
</g>
<defs>
<clipPath id="clip0_22733_5579">
<rect width="106" height="28" fill="white"/>
</clipPath>
</defs>
</svg>
