<svg width="125" height="28" viewBox="0 0 125 28" fill="none" xmlns="http://www.w3.org/2000/svg">
<g clip-path="url(#clip0_22733_5589)">
<path fill-rule="evenodd" clip-rule="evenodd" d="M15.0437 3.32995C12.7659 3.32995 10.9164 5.17742 10.9164 7.45277V9.18168H9.58501V7.45277C9.58501 4.44291 12.0306 2 15.0437 2C18.0568 2 20.5023 4.44291 20.5023 7.45277C20.5023 10.4627 18.0568 12.9055 15.0437 12.9055H13.3131V11.5756H15.0437C17.3215 11.5756 19.1709 9.72808 19.1709 7.45277C19.1709 5.17742 17.3215 3.32995 15.0437 3.32995ZM10.9173 15.2995H9.58591V17.0284C9.58591 19.3037 7.73644 21.1512 5.45866 21.1512C3.18086 21.1512 1.33138 19.3037 1.33138 17.0284C1.33138 14.753 3.18086 12.9055 5.45866 12.9055H7.18877V11.5756H5.45866C2.44556 11.5756 0 14.0185 0 17.0284C0 20.0382 2.44556 22.4811 5.45866 22.4811C8.4718 22.4811 10.9173 20.0382 10.9173 17.0284V15.2995ZM10.2636 13.5806C9.5006 13.5806 8.93451 12.9904 8.93451 12.2283C8.93451 11.4906 9.5006 10.9006 10.2636 10.9006C10.9774 10.9006 11.5681 11.4906 11.5681 12.2283C11.5681 12.9904 10.9774 13.5806 10.2636 13.5806Z" fill="#9194A1"/>
<path d="M30.8184 21.0327C28.9232 21.0327 27.1264 20.4673 25.625 19.3854V16.1154H26.1911C27.0772 18.7707 28.7017 20.0001 30.9169 20.0001C32.8121 20.0001 34.6581 18.7953 34.6581 16.7546C34.6581 15.4023 33.8952 14.5418 31.9753 13.6813L29.4401 12.5257C27.1757 11.5176 26.0927 9.99321 26.0927 8.10004C26.0927 5.54301 28.3079 3.45312 31.5815 3.45312C33.3291 3.45312 35.0027 3.96945 36.0611 4.60871V7.75583H35.495C34.7812 5.34632 33.3291 4.48577 31.4338 4.48577C29.3662 4.48577 27.8156 5.71511 27.8156 7.63289C27.8156 9.00976 28.5787 9.96863 30.3016 10.7309L32.886 11.911C35.175 12.9436 36.4057 14.2222 36.4057 16.2629C36.4057 19.0658 33.969 21.0327 30.8184 21.0327Z" fill="#9194A1"/>
<path d="M45.1553 9.69889V9.15796H48.5273V9.69889C47.4444 10.0676 47.0998 10.6578 46.6321 11.8625L42.4478 22.5332C41.3156 25.3607 39.7896 26 38.362 26C37.7959 26 37.279 25.9016 36.8605 25.6804V24.0822C37.3529 24.2789 37.8698 24.3772 38.4113 24.3772C39.7404 24.3772 40.8972 23.8609 41.6356 21.9431L42.1033 20.7875L38.4113 11.8625C37.919 10.6578 37.5744 9.99389 36.5898 9.69889V9.15796H40.7249V9.69889C39.5188 10.0185 39.6911 10.6086 40.1834 11.8379L42.8662 18.501H42.9893L45.6722 11.7396C46.1152 10.6086 46.2383 10.0431 45.1553 9.69889Z" fill="#9194A1"/>
<path d="M50.176 18.4518V11.6659C50.176 10.4611 49.9791 10.1906 48.9453 10.1169V9.57592L51.7266 9.03505H51.8498V11.1495H51.9728C52.8835 9.77266 54.1141 8.91211 55.7141 8.91211C57.2401 8.91211 58.4215 9.79724 58.8399 11.2725H58.9877C59.923 9.82183 61.129 8.91211 62.7288 8.91211C64.5994 8.91211 66.1994 10.2398 66.1994 12.9443V18.4027C66.1994 19.8533 66.2978 20.0991 67.2577 20.2466V20.7875H63.4673V20.2466C64.378 20.0991 64.5256 19.8287 64.5256 18.4027V13.0427C64.5256 11.1495 63.5903 10.2152 62.212 10.2152C60.7352 10.2152 59.6768 11.3708 59.0369 12.551V18.501C59.0369 19.9025 59.2337 20.0991 60.1198 20.2466V20.7875H56.3048V20.2466C57.1909 20.0991 57.3877 19.9025 57.3877 18.501V13.0919C57.3877 11.1987 56.5509 10.2152 55.0494 10.2152C53.5727 10.2152 52.4897 11.4445 51.8498 12.5756V18.4518C51.8498 19.8041 51.9974 20.0745 52.9081 20.2466V20.7875H49.1177V20.2466C50.0776 20.0745 50.176 19.8041 50.176 18.4518Z" fill="#9194A1"/>
<path d="M74.3433 21.0333C72.9649 21.0333 71.8327 20.517 70.9958 19.7056H70.8727L69.9374 20.9104H69.3713V5.76488C69.3713 4.51094 69.1006 4.38801 68.1406 4.28966V3.74875L70.922 3.23242H71.0451V11.1494H71.1681C72.0788 9.77254 73.3341 8.91199 75.0569 8.91199C77.6416 8.91199 79.8317 11.0264 79.8317 14.6653C79.8317 18.5501 77.346 21.0333 74.3433 21.0333ZM74.2694 20.099C76.6813 20.099 78.1091 17.8862 78.1091 14.985C78.1091 12.3296 76.8786 10.2151 74.5648 10.2151C72.8418 10.2151 71.7096 11.4444 71.0451 12.6984V16.116C71.0451 18.673 72.2757 20.099 74.2694 20.099Z" fill="#9194A1"/>
<path d="M86.8368 21.0334C83.5385 21.0334 81.1016 18.5256 81.1016 14.9605C81.1016 11.42 83.5385 8.91211 86.8368 8.91211C90.1103 8.91211 92.5225 11.3954 92.5225 14.9605C92.5225 18.5256 90.1103 21.0334 86.8368 21.0334ZM86.8368 19.9762C89.0764 19.9762 90.6513 18.083 90.6513 14.9605C90.6513 11.8379 89.0764 9.94474 86.8368 9.94474C84.5229 9.94474 82.972 11.9117 82.972 14.9605C82.972 18.0339 84.5229 19.9762 86.8368 19.9762Z" fill="#9194A1"/>
<path d="M93.8197 20.7866V20.2457C94.7793 20.0736 94.9024 19.8524 94.9024 18.4017V5.71489C94.9024 4.48555 94.5827 4.36262 93.6719 4.28885V3.74794L96.4532 3.20703H96.5763V18.4017C96.5763 19.8524 96.6993 20.0736 97.6342 20.2457V20.7866H93.8197Z" fill="#9194A1"/>
<path d="M101.081 6.79716C100.318 6.79716 99.7513 6.20706 99.7513 5.44488C99.7513 4.70727 100.318 4.11719 101.081 4.11719C101.794 4.11719 102.386 4.70727 102.386 5.44488C102.386 6.20706 101.794 6.79716 101.081 6.79716ZM101.967 9.03456V18.4268C101.967 19.8528 102.09 20.0986 103.025 20.2461V20.787H99.2343V20.2461C100.17 20.0986 100.293 19.8528 100.293 18.4268V11.5425C100.293 10.3377 99.9974 10.1656 99.0625 10.0918V9.55085L101.844 9.03456H101.967Z" fill="#9194A1"/>
<path d="M109.988 21.0334C106.764 21.0334 104.352 18.5502 104.352 15.108C104.352 11.6167 106.764 8.91211 110.185 8.91211C111.317 8.91211 112.474 9.15798 113.336 9.62516V12.0347H112.769C112.425 10.707 111.465 9.92016 110.16 9.92016C107.699 9.92016 106.099 12.01 106.099 14.7392C106.099 17.7634 107.969 19.6074 110.456 19.6074C111.883 19.6074 112.966 19.1648 114.024 18.2797L114.492 18.7223C113.188 20.222 111.785 21.0334 109.988 21.0334Z" fill="#9194A1"/>
<path d="M123.487 13.0919V18.4027C123.487 19.5828 123.61 19.7057 124.545 19.8041V20.345L121.936 20.8859H121.813V18.8452H121.69C120.656 20.4188 119.401 21.0334 118.023 21.0334C116.447 21.0334 115.094 19.927 115.094 18.3043C115.094 16.4357 116.768 15.6243 119.106 14.9605L121.813 14.1983V13.0919C121.813 11.1004 120.828 10.1906 119.155 10.1906C117.924 10.1906 116.743 10.6578 115.586 11.4937L115.192 10.9528C116.447 9.77266 118.023 8.91211 119.647 8.91211C121.739 8.91211 123.487 10.1169 123.487 13.0919ZM118.687 19.7795C120.09 19.7795 121.222 18.6485 121.813 17.4684V15.0343L119.573 15.7964C118.072 16.3373 116.841 16.7799 116.841 18.0584C116.841 19.1402 117.604 19.7795 118.687 19.7795Z" fill="#9194A1"/>
</g>
<defs>
<clipPath id="clip0_22733_5589">
<rect width="125" height="28" fill="white"/>
</clipPath>
</defs>
</svg>
