<svg width="75" height="29" viewBox="0 0 75 29" fill="none" xmlns="http://www.w3.org/2000/svg">
<path d="M5.65974 8.48426C5.51368 8.48426 5.47716 8.41123 5.55019 8.30169L6.31702 7.31577C6.39005 7.20622 6.57263 7.13319 6.71869 7.13319H19.7547C19.9008 7.13319 19.9373 7.24274 19.8643 7.35228L19.2435 8.30169C19.1705 8.41123 18.9879 8.52078 18.8784 8.52078L5.65974 8.48426Z" fill="#00ACD7"/>
<path d="M5.65974 8.48426C5.51368 8.48426 5.47716 8.41123 5.55019 8.30169L6.31702 7.31577C6.39005 7.20622 6.57263 7.13319 6.71869 7.13319H19.7547C19.9008 7.13319 19.9373 7.24274 19.8643 7.35228L19.2435 8.30169C19.1705 8.41123 18.9879 8.52078 18.8784 8.52078L5.65974 8.48426Z" fill="white"/>
<path d="M0.146062 11.8429C0 11.8429 -0.0365155 11.7698 0.0365155 11.6603L0.803342 10.6744C0.876373 10.5648 1.05895 10.4918 1.20501 10.4918H17.8561C18.0022 10.4918 18.0752 10.6013 18.0387 10.7109L17.7466 11.5873C17.71 11.7333 17.564 11.8063 17.4179 11.8063L0.146062 11.8429Z" fill="#00ACD7"/>
<path d="M0.146062 11.8429C0 11.8429 -0.0365155 11.7698 0.0365155 11.6603L0.803342 10.6744C0.876373 10.5648 1.05895 10.4918 1.20501 10.4918H17.8561C18.0022 10.4918 18.0752 10.6013 18.0387 10.7109L17.7466 11.5873C17.71 11.7333 17.564 11.8063 17.4179 11.8063L0.146062 11.8429Z" fill="white"/>
<path d="M8.98094 15.2033C8.83488 15.2033 8.79836 15.0938 8.87139 14.9842L9.38261 14.0713C9.45564 13.9618 9.60171 13.8522 9.74777 13.8522H17.0509C17.1969 13.8522 17.27 13.9618 17.27 14.1079L17.1969 14.9842C17.1969 15.1303 17.0509 15.2398 16.9413 15.2398L8.98094 15.2033Z" fill="#00ACD7"/>
<path d="M8.98094 15.2033C8.83488 15.2033 8.79836 15.0938 8.87139 14.9842L9.38261 14.0713C9.45564 13.9618 9.60171 13.8522 9.74777 13.8522H17.0509C17.1969 13.8522 17.27 13.9618 17.27 14.1079L17.1969 14.9842C17.1969 15.1303 17.0509 15.2398 16.9413 15.2398L8.98094 15.2033Z" fill="white"/>
<path d="M46.8885 7.82686C44.5881 8.41111 43.0179 8.84929 40.7539 9.43354C40.2062 9.57961 40.1697 9.61612 39.695 9.06839C39.1472 8.44762 38.7456 8.04595 37.9787 7.6808C35.6783 6.54882 33.4508 6.87746 31.3694 8.22853C28.8864 9.83521 27.6083 12.2087 27.6448 15.1665C27.6814 18.0877 29.6897 20.4978 32.5744 20.8994C35.0575 21.2281 37.1389 20.3517 38.7821 18.4894C39.1107 18.0877 39.4029 17.6495 39.768 17.1383C38.4534 17.1383 36.8102 17.1383 32.7205 17.1383C31.9537 17.1383 31.7711 16.6636 32.0267 16.0429C32.5014 14.9109 33.3778 13.0121 33.889 12.0627C33.9986 11.8436 34.2542 11.4784 34.8019 11.4784C36.6642 11.4784 43.5291 11.4784 48.0936 11.4784C48.0205 12.4643 48.0205 13.4503 47.8745 14.4362C47.4728 17.0653 46.4869 19.4753 44.8802 21.5932C42.2511 25.0622 38.8186 27.2166 34.4733 27.8009C30.8947 28.2756 27.5718 27.5818 24.6506 25.3908C21.9484 23.346 20.4148 20.6438 20.0131 17.2844C19.5384 13.3042 20.7069 9.72567 23.1169 6.58533C25.7095 3.18939 29.142 1.03497 33.3413 0.268143C36.7737 -0.352621 40.0601 0.04905 43.0179 2.0574C44.9532 3.33545 46.3408 5.08819 47.2537 7.2061C47.4728 7.53474 47.3267 7.71731 46.8885 7.82686Z" fill="#00ACD7"/>
<path d="M46.8885 7.82686C44.5881 8.41111 43.0179 8.84929 40.7539 9.43354C40.2062 9.57961 40.1697 9.61612 39.695 9.06839C39.1472 8.44762 38.7456 8.04595 37.9787 7.6808C35.6783 6.54882 33.4508 6.87746 31.3694 8.22853C28.8864 9.83521 27.6083 12.2087 27.6448 15.1665C27.6814 18.0877 29.6897 20.4978 32.5744 20.8994C35.0575 21.2281 37.1389 20.3517 38.7821 18.4894C39.1107 18.0877 39.4029 17.6495 39.768 17.1383C38.4534 17.1383 36.8102 17.1383 32.7205 17.1383C31.9537 17.1383 31.7711 16.6636 32.0267 16.0429C32.5014 14.9109 33.3778 13.0121 33.889 12.0627C33.9986 11.8436 34.2542 11.4784 34.8019 11.4784C36.6642 11.4784 43.5291 11.4784 48.0936 11.4784C48.0205 12.4643 48.0205 13.4503 47.8745 14.4362C47.4728 17.0653 46.4869 19.4753 44.8802 21.5932C42.2511 25.0622 38.8186 27.2166 34.4733 27.8009C30.8947 28.2756 27.5718 27.5818 24.6506 25.3908C21.9484 23.346 20.4148 20.6438 20.0131 17.2844C19.5384 13.3042 20.7069 9.72567 23.1169 6.58533C25.7095 3.18939 29.142 1.03497 33.3413 0.268143C36.7737 -0.352621 40.0601 0.04905 43.0179 2.0574C44.9532 3.33545 46.3408 5.08819 47.2537 7.2061C47.4728 7.53474 47.3267 7.71731 46.8885 7.82686Z" fill="white"/>
<path d="M58.9742 28.0199C55.6513 27.9469 52.6205 26.9975 50.0644 24.8065C47.91 22.9442 46.5589 20.5707 46.1207 17.759C45.4634 13.6328 46.5954 9.98121 49.0785 6.73133C51.7441 3.22583 54.9575 1.40006 59.3028 0.633232C63.0274 -0.0240482 66.5329 0.341107 69.7097 2.49552C72.5945 4.46736 74.3837 7.133 74.8584 10.6385C75.4792 15.5681 74.0551 19.5848 70.6591 23.0173C68.2491 25.4638 65.2914 26.9975 61.8954 27.6912C60.9095 27.8738 59.9236 27.9103 58.9742 28.0199ZM67.6649 13.2676C67.6284 12.7929 67.6284 12.4278 67.5553 12.0626C66.898 8.44756 63.5751 6.40269 60.1062 7.20603C56.7102 7.97286 54.5193 10.1273 53.7159 13.5597C53.0587 16.4079 54.4462 19.2927 57.0754 20.4612C59.0837 21.3375 61.0921 21.228 63.0274 20.2421C65.9121 18.7449 67.4823 16.4079 67.6649 13.2676Z" fill="#00ACD7"/>
<path d="M58.9742 28.0199C55.6513 27.9469 52.6205 26.9975 50.0644 24.8065C47.91 22.9442 46.5589 20.5707 46.1207 17.759C45.4634 13.6328 46.5954 9.98121 49.0785 6.73133C51.7441 3.22583 54.9575 1.40006 59.3028 0.633232C63.0274 -0.0240482 66.5329 0.341107 69.7097 2.49552C72.5945 4.46736 74.3837 7.133 74.8584 10.6385C75.4792 15.5681 74.0551 19.5848 70.6591 23.0173C68.2491 25.4638 65.2914 26.9975 61.8954 27.6912C60.9095 27.8738 59.9236 27.9103 58.9742 28.0199ZM67.6649 13.2676C67.6284 12.7929 67.6284 12.4278 67.5553 12.0626C66.898 8.44756 63.5751 6.40269 60.1062 7.20603C56.7102 7.97286 54.5193 10.1273 53.7159 13.5597C53.0587 16.4079 54.4462 19.2927 57.0754 20.4612C59.0837 21.3375 61.0921 21.228 63.0274 20.2421C65.9121 18.7449 67.4823 16.4079 67.6649 13.2676Z" fill="white"/>
</svg>
