<svg preserveAspectRatio="none" width="100%" height="100%" overflow="visible" style="display: block;" viewBox="0 0 94.9014 22.75" fill="none" xmlns="http://www.w3.org/2000/svg">
<g id="Group 2147226888">
<path id="Vector" d="M11.7038 2.06088H6.83815V17.096H4.86561V2.06088H0V0.263672H11.6599V2.06088H11.7038Z" fill="var(--fill-0, white)"/>
<path id="Vector_2" d="M21.0406 5.08478L15.5175 19.0241C14.5093 21.5226 13.1504 22.75 11.3532 22.75C10.871 22.75 10.4327 22.7062 10.082 22.6185V20.909C10.4765 21.0405 10.871 21.1281 11.2217 21.1281C12.1861 21.1281 12.9312 20.5583 13.4134 19.3748L14.3778 17.0954L9.6875 5.08478H11.8354L15.0791 14.3338C15.123 14.4653 15.2106 14.7722 15.3421 15.2543H15.4298C15.4736 15.079 15.5613 14.7722 15.649 14.3776L19.068 5.08478H21.0406ZM24.2843 15.3858H24.2405V22.6623H22.3118V5.12862H24.2405V7.23266H24.2843C25.2487 5.65462 26.6075 4.82177 28.4486 4.82177C29.9828 4.82177 31.2101 5.34779 32.0868 6.44365C32.9635 7.53951 33.4019 8.9422 33.4019 10.7832C33.4019 12.7996 32.9197 14.4215 31.9553 15.605C30.991 16.7885 29.6321 17.4022 27.9226 17.4022C26.3445 17.4022 25.161 16.7447 24.2843 15.3858ZM24.2405 10.5202V12.1859C24.2405 13.1941 24.5473 14.027 25.2048 14.7283C25.8624 15.4297 26.6514 15.7803 27.6596 15.7803C28.8431 15.7803 29.7198 15.342 30.4211 14.4215C31.1225 13.501 31.4293 12.2736 31.4293 10.6956C31.4293 9.3367 31.1225 8.32852 30.5088 7.53951C29.8951 6.79432 29.0623 6.39981 28.0102 6.39981C26.8705 6.39981 25.9939 6.79431 25.2925 7.58333C24.5912 8.37235 24.2405 9.33671 24.2405 10.5202ZM45.2809 11.5723H36.7771C36.8209 12.9311 37.1716 13.9393 37.873 14.6845C38.5743 15.4297 39.4948 15.7803 40.7222 15.7803C42.081 15.7803 43.3084 15.342 44.4481 14.4215V16.2187C43.3961 17.0077 41.9934 17.3584 40.24 17.3584C38.5305 17.3584 37.2154 16.8324 36.2511 15.7365C35.2867 14.6407 34.8046 13.1065 34.8046 11.1339C34.8046 9.24903 35.3306 7.75867 36.3826 6.57515C37.4346 5.39162 38.7496 4.82177 40.3277 4.82177C41.9057 4.82177 43.1331 5.34778 43.9659 6.35597C44.8426 7.36416 45.2371 8.76687 45.2371 10.6079V11.5723H45.2809ZM43.3084 9.95039C43.3084 8.85453 43.0454 7.97784 42.5194 7.36416C41.9934 6.75048 41.2482 6.44365 40.3277 6.44365C39.4072 6.44365 38.662 6.75048 38.0045 7.40799C37.3908 8.06551 36.9963 8.89837 36.8209 9.95039H43.3084ZM46.333 16.5255V15.2105C47.5603 15.9995 48.7439 16.3502 50.0151 16.3502C51.3301 16.3502 52.3383 16.0872 52.9958 15.5173C53.6971 14.9913 54.004 14.2023 54.004 13.238C54.004 12.3613 53.7848 11.7038 53.3026 11.1777C52.8643 10.6517 51.8561 9.95039 50.3219 9.07371C48.6124 8.06552 47.5165 7.23266 47.0782 6.57515C46.6398 5.91763 46.3768 5.12862 46.3768 4.25193C46.3768 3.06841 46.859 2.06021 47.7795 1.22736C48.7 0.394503 49.9274 0 51.4616 0C52.4698 0 53.478 0.175343 54.4862 0.526017V1.75337C53.478 1.31503 52.4259 1.09586 51.3301 1.09586C50.1904 1.09586 49.2699 1.4027 48.6124 1.97254C47.9548 2.54239 47.6042 3.28757 47.6042 4.16426C47.6042 5.04094 47.8233 5.69846 48.3055 6.22448C48.7439 6.75049 49.752 7.40799 51.2862 8.28468C52.8643 9.16137 53.9163 9.95038 54.4423 10.6517C54.9683 11.3531 55.2313 12.1421 55.2313 13.0626C55.2313 14.3338 54.793 15.3858 53.8725 16.2187C52.9958 17.0515 51.7246 17.446 50.0589 17.446C49.489 17.446 48.8315 17.3584 48.0425 17.1831C47.3412 16.9639 46.7713 16.7447 46.333 16.5255ZM65.4009 16.5694C64.5242 17.0954 63.4284 17.4022 62.201 17.4022C60.5791 17.4022 59.2641 16.8324 58.2559 15.7365C57.2477 14.5968 56.7655 13.1503 56.7655 11.3092C56.7655 9.38054 57.3354 7.84634 58.4751 6.61898C59.6148 5.39162 61.0613 4.77794 62.8147 4.77794C63.7352 4.77794 64.6119 4.95328 65.4886 5.34779V6.57515C64.6119 6.04913 63.6914 5.78613 62.6393 5.78613C61.2366 5.78613 60.0969 6.31214 59.2203 7.32033C58.3436 8.32852 57.9052 9.64355 57.9052 11.2654C57.9052 12.8435 58.2997 14.0708 59.0888 15.0352C59.8778 15.9995 60.9298 16.4379 62.2448 16.4379C63.4283 16.4379 64.4804 16.131 65.4009 15.4735V16.5694ZM72.6774 6.22448C72.3267 5.96147 71.8884 5.82996 71.4062 5.82996C70.4418 5.82996 69.6528 6.31214 69.0391 7.2765C68.3816 8.24085 68.0748 9.64355 68.0748 11.4408V17.0954H67.0228V5.08478H68.0748V7.75868H68.1186C68.3816 6.83816 68.82 6.1368 69.4337 5.61079C70.0473 5.08477 70.7048 4.86561 71.4939 4.86561C71.9322 4.86561 72.3267 4.95328 72.6774 5.08478V6.22448ZM74.5184 2.06022C74.2993 2.06022 74.0801 1.97255 73.9047 1.79721C73.7294 1.62187 73.6417 1.4027 73.6417 1.13969C73.6417 0.876689 73.7294 0.65752 73.9047 0.526017C74.0801 0.35068 74.2993 0.306845 74.5184 0.306845C74.7814 0.306845 74.9568 0.394514 75.1759 0.526017C75.3513 0.701354 75.4389 0.876689 75.4389 1.13969C75.4389 1.4027 75.3513 1.62187 75.1759 1.79721C74.9568 1.97255 74.7814 2.06022 74.5184 2.06022ZM73.9924 17.1392V5.12862H75.0883V17.1392H73.9924ZM78.858 14.9913H78.8142V22.6623H77.7183V5.12862H78.8142V7.62717H78.858C79.2964 6.75048 79.91 6.04914 80.6991 5.56696C81.4881 5.08478 82.3648 4.86561 83.3291 4.86561C84.8633 4.86561 86.0468 5.39162 86.9235 6.44365C87.8002 7.49567 88.1947 8.9422 88.1947 10.7394C88.1947 12.7558 87.7126 14.3777 86.7044 15.605C85.74 16.8324 84.425 17.446 82.8031 17.446C81.0497 17.4022 79.7347 16.6132 78.858 14.9913ZM78.8142 10.5202V12.0544C78.8142 13.2818 79.2087 14.29 79.9539 15.1667C80.6991 16.0434 81.7073 16.4817 82.9346 16.4817C84.162 16.4817 85.1702 15.9557 85.9153 14.9037C86.6605 13.8516 87.055 12.4489 87.055 10.7394C87.055 9.24904 86.7044 8.02167 86.003 7.14499C85.3017 6.2683 84.3373 5.82996 83.1976 5.82996C81.7949 5.82996 80.6991 6.31214 79.9539 7.23266C79.2087 8.15318 78.8142 9.24904 78.8142 10.5202ZM94.9014 16.9639C94.3315 17.2269 93.8055 17.3584 93.3233 17.3584C91.5261 17.3584 90.6494 16.3064 90.6494 14.1585V6.09297H88.5016V5.08478H90.6494V1.97254C90.8248 1.92871 91.0001 1.84104 91.1755 1.79721C91.3508 1.75337 91.5261 1.66571 91.7015 1.62187V5.12862H94.8575V6.1368H91.7015V14.0708C91.7015 14.9037 91.833 15.5173 92.096 15.868C92.359 16.2187 92.7973 16.4379 93.411 16.4379C93.8494 16.4379 94.3315 16.3064 94.8575 15.9995V16.9639H94.9014Z" fill="var(--fill-0, white)"/>
</g>
</svg>
