<svg width="142" height="142" viewBox="0 0 142 142" fill="none" xmlns="http://www.w3.org/2000/svg">
<circle cx="71" cy="71" r="8.2818" stroke="#777A88" stroke-width="1.5"/>
<circle cx="106.124" cy="10.788" r="4.26767" stroke="#777A88" stroke-width="1.5"/>
<circle cx="35.8763" cy="59.9611" r="4.26767" stroke="#777A88" stroke-width="1.5"/>
<circle cx="101.106" cy="114.152" r="4.26767" stroke="#777A88" stroke-width="1.5"/>
<path d="M34.5068 64.1128C34.0882 66.3446 33.8693 68.6467 33.8693 71C33.8693 91.5067 50.4933 108.131 71 108.131C91.5067 108.131 108.131 91.5067 108.131 71C108.131 50.4933 91.5067 33.8693 71 33.8693C55.9106 33.8693 42.9234 42.8702 37.1148 55.7959" stroke="#777A88" stroke-width="1.5"/>
<path d="M104.707 112.145C116.6 102.391 124.187 87.5814 124.187 71C124.187 41.6255 100.375 17.8127 71 17.8127C41.6255 17.8127 17.8127 41.6255 17.8127 71C17.8127 100.375 41.6255 124.187 71 124.187C80.8956 124.187 90.1599 121.485 98.0954 116.778" stroke="#777A88" stroke-width="1.5" stroke-dasharray="3 3"/>
<path d="M102.611 8.25009C93.1097 3.45406 82.3703 0.75265 71 0.75265C32.2035 0.75265 0.75265 32.2035 0.75265 71C0.75265 109.797 32.2035 141.247 71 141.247C109.797 141.247 141.247 109.797 141.247 71C141.247 46.6415 128.85 25.1787 110.02 12.5776" stroke="#777A88" stroke-width="1.5"/>
</svg>
