<svg width="148" height="148" viewBox="0 0 148 148" fill="none" xmlns="http://www.w3.org/2000/svg">
<path d="M118.943 43.4326V104.566L66 135.134L13.0566 104.566V43.4326L66 12.8652L118.943 43.4326Z" stroke="#777A88" stroke-width="1.5"/>
<path d="M92.9004 18.5312L95.4629 20.0098V20.0107L95.0879 20.6602L97.6494 22.1387L98.0244 21.4893V21.4883L100.587 22.9678V22.9688L100.212 23.6182L102.773 25.0977L103.148 24.4482V24.4473L105.71 25.9268H105.711L105.336 26.5762L107.897 28.0557L108.272 27.4062V27.4053L110.835 28.8848V28.8857L110.46 29.5352L113.021 31.0137L113.396 30.3643V30.3633L115.959 31.8428V31.8438L115.584 32.4932L118.146 33.9727L118.521 33.3232V33.3223L121.082 34.8018H121.083L120.708 35.4512L123.27 36.9307L123.645 36.2812V36.2803L126.207 37.7598V37.7607L125.832 38.4102L126.738 38.9326V39.9795H127.488V42.9375H126.738V45.8955H127.488V48.8545H126.738V51.8125H127.488V54.7705H126.738V57.7295H127.488V60.6875H126.738V63.6455H127.488V66.6045H126.738V69.5625H127.488V72.5205H126.738V75.4795H127.488V78.4375H126.738V81.3955H127.488V84.3545H126.738V87.3125H127.488V90.2705H126.738V93.2295H127.488V96.1875H126.738V99.1455H127.488V102.104H126.738V105.062H127.488V108.021H126.738V109.066L125.832 109.59L126.207 110.239L123.645 111.719L123.27 111.069L120.708 112.549L121.082 113.197L118.521 114.677L118.146 114.027L115.584 115.507L115.959 116.156L113.396 117.636L113.021 116.986L110.46 118.465L110.835 119.114L108.272 120.594L107.897 119.944L105.336 121.424L105.71 122.072L103.148 123.552L102.773 122.902L100.212 124.382L100.587 125.031L98.0244 126.51L97.6504 125.861L95.0879 127.34L95.4629 127.989L92.9004 129.468L92.5264 128.819L89.9639 130.299L90.3379 130.947L87.7773 132.427L87.4023 131.777L84.8398 133.257L85.2148 133.906L82.6523 135.385L82.2783 134.736L79.7158 136.215L80.0908 136.864L77.5283 138.343L77.1543 137.694L74.5918 139.174L74.9658 139.822L72.4053 141.302L72.0303 140.652L69.4678 142.132L69.8428 142.781L67.2803 144.26L66.9062 143.611L66 144.134L65.0938 143.611L64.7188 144.26L62.1562 142.781L62.5322 142.132L59.9697 140.652L59.5938 141.302L57.0332 139.822L57.4082 139.174L54.8457 137.694L54.4707 138.343L51.9082 136.864H51.9092L52.2842 136.215L49.7217 134.736L49.3467 135.385L46.7842 133.906L47.1602 133.257L44.5977 131.777L44.2217 132.427L41.6611 130.947L42.0361 130.299L39.4736 128.819L39.0986 129.468L36.5361 127.989H36.5371L36.9121 127.34L34.3506 125.861L33.9746 126.511L31.4121 125.031L31.7881 124.382L29.2266 122.902L28.8516 123.552H28.8506L26.2891 122.072L26.6641 121.424L24.1025 119.944L23.7275 120.594H23.7266L21.1641 119.114H21.165L21.54 118.465L18.9785 116.986L18.6025 117.636L16.04 116.156L16.416 115.507L13.8545 114.027L13.4795 114.677H13.4785L10.917 113.197L11.292 112.549L8.73047 111.069L8.35547 111.719H8.35449L5.79199 110.239H5.79297L6.16797 109.59L5.26172 109.066V108.021H4.51172V105.062H5.26172V102.104H4.51172V99.1455H5.26172V96.1875H4.51172V93.2295H5.26172V90.2705H4.51172V87.3125H5.26172V84.3545H4.51172V81.3955H5.26172V78.4375H4.51172V75.4795H5.26172V72.5205H4.51172V69.5625H5.26172V66.6045H4.51172V63.6455H5.26172V60.6875H4.51172V57.7295H5.26172V54.7705H4.51172V51.8125H5.26172V48.8545H4.51172V45.8955H5.26172V42.9375H4.51172V39.9795H5.26172V38.9326L6.16797 38.4102L5.79297 37.7607L5.79199 37.7598L8.35449 36.2803L8.35547 36.2812L8.73047 36.9307L11.292 35.4512L10.917 34.8018L13.4785 33.3223L13.4795 33.3232L13.8545 33.9727L16.416 32.4932L16.041 31.8438L16.04 31.8428L18.6025 30.3633L18.6035 30.3643L18.9785 31.0137L21.54 29.5352L21.165 28.8857L21.1641 28.8848L23.7266 27.4053L23.7275 27.4062L24.1025 28.0557L26.6641 26.5762L26.2891 25.9268L28.8506 24.4473L28.8516 24.4482L29.2266 25.0977L31.7881 23.6182L31.4131 22.9688L31.4121 22.9678L33.9746 21.4883L33.9756 21.4893L34.3506 22.1387L36.9121 20.6602L36.5371 20.0107L36.5361 20.0098L39.0986 18.5312L39.4736 19.1807L42.0361 17.7012L41.6611 17.0518L44.2217 15.5723L44.2227 15.5732L44.5977 16.2227L47.1602 14.7432L46.7852 14.0938L46.7842 14.0928L49.3467 12.6143L49.7217 13.2637L52.2842 11.7852L51.9092 11.1357L51.9082 11.1348L54.4707 9.65625L54.8457 10.3057L57.4082 8.82617L57.0332 8.17676L59.5938 6.69727L59.5947 6.69824L59.9697 7.34766L62.5322 5.86816L62.1572 5.21875L62.1562 5.21777L64.7188 3.73926L65.0938 4.38867L66 3.86523L66.9062 4.38867L67.2803 3.73926L69.8428 5.21777V5.21875L69.4678 5.86816L72.0303 7.34766L72.4053 6.69824V6.69727L74.9658 8.17676H74.9668L74.5918 8.82617L77.1543 10.3057L77.5283 9.65625L80.0908 11.1348V11.1357L79.7158 11.7852L82.2783 13.2637L82.6523 12.6143L85.2148 14.0928V14.0938L84.8398 14.7432L87.4023 16.2227L87.7773 15.5732V15.5723L90.3379 17.0518H90.3389L89.9639 17.7012L92.5264 19.1807L92.9004 18.5312Z" stroke="#777A88" stroke-width="1.5" stroke-dasharray="3 3"/>
<path d="M104.509 54L66.5 76.1318L28.4902 54L66.5 31.8672L104.509 54Z" stroke="#777A88" stroke-width="1.5"/>
<path d="M104.532 73.5L66.5 96.127L28.4668 73.5L66.5 50.8721L104.532 73.5Z" stroke="#777A88" stroke-width="1.5"/>
<path d="M104.509 93L66.5 115.132L28.4902 93L66.5 70.8672L104.509 93Z" stroke="#777A88" stroke-width="1.5"/>
</svg>
