<svg width="149" height="148" viewBox="0 0 149 148" fill="none" xmlns="http://www.w3.org/2000/svg">
<path d="M86.7227 23.5303V44.5918L68.6699 55.123L50.6172 44.5918V23.5303L68.6699 13L86.7227 23.5303ZM52.1172 43.7295L67.9199 52.9482V34.4912L52.1172 25.2734V43.7295ZM69.4199 34.4912V52.9482L85.2227 43.7295V25.2734L69.4199 34.4912ZM52.8496 23.9639L68.6699 33.1924L84.4893 23.9639L68.6699 14.7363L52.8496 23.9639Z" fill="#777A88"/>
<path d="M86.7227 107.53V128.592L68.6699 139.123L50.6172 128.592V107.53L68.6699 97L86.7227 107.53ZM52.1172 127.729L67.9199 136.948V118.491L52.1172 109.273V127.729ZM69.4199 118.491V136.948L85.2227 127.729V109.273L69.4199 118.491ZM52.8496 107.964L68.6699 117.192L84.4893 107.964L68.6699 98.7363L52.8496 107.964Z" fill="#777A88"/>
<path d="M137.34 23.5303V44.5918L119.287 55.123L101.234 44.5918V23.5303L119.287 13L137.34 23.5303ZM102.734 43.7295L118.537 52.9482V34.4912L102.734 25.2734V43.7295ZM120.037 34.4912V52.9482L135.84 43.7295V25.2734L120.037 34.4912ZM103.467 23.9639L119.287 33.1924L135.106 23.9639L119.287 14.7363L103.467 23.9639Z" fill="#777A88"/>
<path d="M112.34 65.6709V86.7324L94.2871 97.2637L76.2344 86.7324V65.6709L94.2871 55.1406L112.34 65.6709ZM77.7344 85.8701L93.5371 95.0889V76.6318L77.7344 67.4141V85.8701ZM95.0371 76.6318V95.0889L110.84 85.8701V67.4141L95.0371 76.6318ZM78.4668 66.1045L94.2871 75.333L110.106 66.1045L94.2871 56.877L78.4668 66.1045Z" fill="#777A88"/>
<path d="M36.1055 23.5459V44.6074L18.0527 55.1387L0 44.6074L0 23.5459L18.0527 13.0156L36.1055 23.5459ZM1.5 43.7451L17.3027 52.9639V34.5068L1.5 25.2891L1.5 43.7451ZM18.8027 34.5068V52.9639L34.6055 43.7451V25.2891L18.8027 34.5068ZM2.23242 23.9795L18.0527 33.208L33.8721 23.9795L18.0527 14.752L2.23242 23.9795Z" fill="#777A88"/>
<path d="M61.1055 65.6865V86.748L43.0527 97.2793L25 86.748L25 65.6865L43.0527 55.1562L61.1055 65.6865ZM26.5 85.8857L42.3027 95.1045V76.6475L26.5 67.4297L26.5 85.8857ZM43.8027 76.6475V95.1045L59.6055 85.8857V67.4297L43.8027 76.6475ZM27.2324 66.1201L43.0527 75.3486L58.8721 66.1201L43.0527 56.8926L27.2324 66.1201Z" fill="#777A88"/>
<path d="M50.999 119H42.999V96" stroke="#777A88" stroke-width="1.5" stroke-dasharray="3 3"/>
<path d="M25.999 77H17.999V54" stroke="#777A88" stroke-width="1.5" stroke-dasharray="3 3"/>
<path d="M76.999 77H68.999M68.999 77V54M68.999 77H60.499" stroke="#777A88" stroke-width="1.5" stroke-dasharray="3 3"/>
<path d="M110.999 77H118.999V54" stroke="#777A88" stroke-width="1.5" stroke-dasharray="3 3"/>
<path d="M85.999 119H93.999V96" stroke="#777A88" stroke-width="1.5" stroke-dasharray="3 3"/>
</svg>
