<svg width="105" height="28" viewBox="0 0 105 28" fill="none" xmlns="http://www.w3.org/2000/svg">
<g clip-path="url(#clip0_6845_26997)">
<path d="M14.4783 4.76849C14.4716 4.76849 14.4649 4.77523 14.4582 4.77523C13.4418 5.15273 12.4921 5.66505 11.6227 6.28523C11.2683 6.5414 10.9273 6.81105 10.5995 7.10091C10.5795 7.12113 10.5594 7.13462 10.5394 7.15484C10.5327 7.16158 10.5327 7.16158 10.526 7.16832C9.00797 8.53003 7.83097 10.2692 7.1288 12.2376H7.10873L7.09536 12.2781C6.61387 13.114 5.99862 13.8555 5.26969 14.469C5.26301 14.4757 5.26301 14.4757 5.25632 14.4824C5.17606 14.5566 5.08913 14.624 5.00219 14.6914C4.85507 14.806 4.70795 14.9139 4.55414 15.0217C3.97233 15.4194 3.33702 15.7363 2.66159 15.9722C2.5011 16.0261 2.3406 16.08 2.1801 16.1205C1.75211 16.2419 1.31074 16.3295 0.855992 16.3767C0.8493 16.3767 0.842618 16.3767 0.835926 16.3767C0.561743 16.4104 0.280872 16.4238 0 16.4238V20.5831C1.49798 20.5831 2.9224 20.3135 4.24652 19.8146C4.2532 19.8146 4.25989 19.8079 4.26658 19.8079C5.28307 19.4304 6.23268 18.9181 7.10205 18.2979C7.45648 18.0417 7.79754 17.7721 8.12522 17.4822C8.14529 17.462 8.16534 17.4485 8.18541 17.4283C8.19209 17.4215 8.1921 17.4215 8.19878 17.4148C9.71684 16.0531 10.8938 14.3139 11.596 12.3455H11.6027L11.6094 12.3185H11.6361C11.6361 12.3118 11.6295 12.3118 11.6295 12.305C12.1109 11.4692 12.7261 10.7276 13.4551 10.1142C13.4617 10.1074 13.4617 10.1074 13.4685 10.1007C13.5487 10.0266 13.6357 9.95914 13.7226 9.89173C13.8697 9.77713 14.0169 9.66928 14.1706 9.56142C14.7525 9.1637 15.3878 8.84686 16.0632 8.61092C16.2237 8.55699 16.3842 8.50307 16.5447 8.46262C16.9727 8.34128 17.4141 8.25364 17.8688 8.20645C17.8754 8.20645 17.8822 8.20645 17.8889 8.20645C18.163 8.17275 18.4439 8.15926 18.7248 8.15926V4C17.2335 4.00674 15.8024 4.27638 14.4783 4.76849Z" fill="#9194A1"/>
<path d="M18.7248 16.4576V20.5899C16.0766 20.5831 13.629 19.7338 11.6228 18.2979V12.359H11.6094L11.6161 12.332H11.6429C11.6495 12.3455 11.6562 12.3523 11.6629 12.3657C13.0806 14.7993 15.7155 16.4441 18.7248 16.4576Z" fill="#9194A1"/>
<path d="M7.11654 12.2376L7.10317 12.2781C7.09649 12.2646 7.08979 12.2511 7.07642 12.2376C5.652 9.79062 3.01716 8.14578 0.0078125 8.1323V4C2.65603 4.00674 5.10363 4.85612 7.10986 6.29197L7.11654 12.2376Z" fill="#9194A1"/>
<path d="M88.127 8.88672C89.6686 8.88672 90.8685 9.23871 91.7268 9.9427C92.5992 10.6467 93.0359 11.6807 93.0359 13.0447V20.5842H90.1127V18.7865C89.8503 19.3438 89.4436 19.7839 88.8903 20.1065C88.3379 20.4292 87.6546 20.5905 86.8396 20.5905C85.7639 20.5905 84.8689 20.2752 84.1565 19.6446C83.4582 19.0139 83.1094 18.1779 83.1094 17.1366C83.1094 16.1539 83.444 15.3546 84.1131 14.7387C84.7823 14.1226 85.7489 13.778 87.0146 13.7046L90.0252 13.5287V13.0447C90.0252 12.4726 89.8577 12.0327 89.5236 11.7247C89.2036 11.402 88.7303 11.2407 88.1054 11.2407C86.9854 11.2407 86.353 11.688 86.2072 12.5826L83.5673 12.3187C83.6982 11.292 84.1565 10.4634 84.9423 9.8327C85.7272 9.20205 86.7888 8.88672 88.127 8.88672ZM87.7129 18.1046C88.3812 18.1046 88.9345 17.9359 89.3703 17.5985C89.8069 17.2612 90.0252 16.7846 90.0252 16.1686V15.5746L87.5162 15.7506C87.0654 15.7799 86.7163 15.9046 86.4688 16.1246C86.2222 16.33 86.098 16.6159 86.098 16.9826C86.098 17.3492 86.2438 17.6279 86.5346 17.8185C86.8255 18.0093 87.2179 18.1046 87.7129 18.1046Z" fill="#9194A1"/>
<path d="M71.375 4H77.5844C79.2889 4 80.6354 4.43151 81.6237 5.29453C82.612 6.15756 83.1062 7.41489 83.1062 9.06654C83.1062 10.7182 82.612 11.9755 81.6237 12.8385C80.6354 13.7015 79.2889 14.1331 77.5844 14.1331H74.4905V20.5899H71.375V4ZM77.3695 11.3208C78.2433 11.3208 78.895 11.1348 79.3247 10.7628C79.7688 10.3908 79.9907 9.8254 79.9907 9.06654C79.9907 8.2928 79.7688 7.72737 79.3247 7.37025C78.895 6.99826 78.2433 6.81226 77.3695 6.81226H74.4905V11.3208H77.3695Z" fill="#9194A1"/>
<path d="M63.9182 20.5762C63.0024 20.5762 62.1666 20.3546 61.4107 19.9112C60.6695 19.4531 60.0735 18.7807 59.6229 17.8941C59.1868 17.0074 58.9688 15.936 58.9688 14.6799C58.9688 13.4238 59.1941 12.3524 59.6447 11.4657C60.1098 10.579 60.7203 9.91405 61.4762 9.47071C62.2465 9.0126 63.0824 8.78354 63.9836 8.78354C64.6668 8.78354 65.2772 8.91655 65.815 9.18255C66.3529 9.44854 66.7599 9.80321 67.036 10.2465V4H70.0232L70.0166 20.5899H67.1654L67.1669 18.8915C66.8471 19.4236 66.4037 19.8374 65.8369 20.1328C65.2845 20.4284 64.6449 20.5762 63.9182 20.5762ZM64.5723 18.0049C65.3426 18.0049 65.9677 17.7167 66.4474 17.1404C66.927 16.5641 67.1669 15.7439 67.1669 14.6799C67.1669 13.6011 66.927 12.7809 66.4474 12.2194C65.9677 11.643 65.3426 11.3549 64.5723 11.3549C63.7873 11.3549 63.155 11.643 62.6753 12.2194C62.2102 12.7809 61.9776 13.6011 61.9776 14.6799C61.9776 15.7586 62.2102 16.5862 62.6753 17.1625C63.155 17.7241 63.7873 18.0049 64.5723 18.0049Z" fill="#9194A1"/>
<path d="M47.4609 8.89069H50.3607V10.8785C50.6854 10.2588 51.1724 9.77194 51.8217 9.41785C52.4711 9.06377 53.231 8.88672 54.1017 8.88672C55.3118 8.88672 56.2711 9.27032 56.9795 10.0375C57.7026 10.7899 58.0641 11.867 58.0641 13.2686V20.5905H55.0093V13.7112C55.0093 12.9735 54.8175 12.4055 54.4338 12.0071C54.0501 11.594 53.5189 11.3875 52.84 11.3875C52.1759 11.3875 51.6152 11.6088 51.1577 12.0514C50.715 12.494 50.4936 13.0915 50.4936 13.844V20.5905H47.4609V8.89069Z" fill="#9194A1"/>
<path d="M41.7062 20.5899H38.7734V4H41.7062V20.5899Z" fill="#9194A1"/>
<path d="M25.3516 4H31.9267C33.6366 4 34.9422 4.3792 35.8438 5.1376C36.7454 5.89599 37.1962 6.94667 37.1962 8.28966C37.1962 9.09546 36.9941 9.79065 36.59 10.3752C36.2013 10.944 35.6961 11.3785 35.0744 11.6787C35.8671 11.9315 36.5277 12.3819 37.0563 13.0297C37.6003 13.6616 37.8723 14.5464 37.8723 15.684C37.8723 16.711 37.6236 17.5958 37.1262 18.3384C36.6288 19.081 35.9682 19.6419 35.1443 20.0211C34.336 20.4002 33.4578 20.5899 32.5096 20.5899H25.3516V4ZM31.8335 10.5411C32.5329 10.5411 33.0615 10.391 33.4189 10.0908C33.7764 9.79065 33.9552 9.34825 33.9552 8.76366C33.9552 8.17906 33.7764 7.73667 33.4189 7.43647C33.0615 7.13628 32.5329 6.98618 31.8335 6.98618H28.7324V10.5411H31.8335ZM31.9734 17.6037C32.7506 17.6037 33.3645 17.4062 33.8153 17.0112C34.2661 16.6162 34.4914 16.0632 34.4914 15.3522C34.4914 14.657 34.2661 14.1119 33.8153 13.7169C33.3645 13.3219 32.7506 13.1244 31.9734 13.1244H28.7324V17.6037H31.9734Z" fill="#9194A1"/>
<path d="M96.0604 23.9994C95.4913 23.9994 94.8514 23.8998 94.1406 23.7005V21.011C94.3681 21.0964 94.638 21.1675 94.9513 21.2245C95.278 21.2814 95.5838 21.3099 95.8679 21.3099C96.3371 21.3099 96.7146 21.1889 96.9987 20.947C97.297 20.7193 97.582 20.2924 97.852 19.6662L97.8728 19.6022L93.2656 8.88672H96.5937L99.2811 15.5039L101.819 8.88672H104.997L100.39 20.7335C99.9352 21.9004 99.366 22.7329 98.6836 23.231C98.0011 23.7432 97.1262 23.9994 96.0604 23.9994Z" fill="#9194A1"/>
<path d="M43.0625 8.88672H46.1081V20.5905H43.0625V8.88672Z" fill="#9194A1"/>
<path d="M46.5653 6.15944C46.5653 7.28949 45.6814 8.20559 44.5912 8.20559C43.501 8.20559 42.6172 7.28949 42.6172 6.15944C42.6172 5.02938 43.501 4.11328 44.5912 4.11328C45.6814 4.11328 46.5653 5.02938 46.5653 6.15944Z" fill="#9194A1"/>
</g>
<defs>
<clipPath id="clip0_6845_26997">
<rect width="105" height="28" fill="white"/>
</clipPath>
</defs>
</svg>
