<svg width="160" height="28" viewBox="0 0 160 28" fill="none" xmlns="http://www.w3.org/2000/svg">
<path fill-rule="evenodd" clip-rule="evenodd" d="M22.7345 5.29688L18.7541 14.8352L14.77 5.29688H12.2142L16.581 15.7239C16.9432 16.5939 17.7927 17.1559 18.7392 17.1559C19.6858 17.1559 20.5334 16.5939 20.8974 15.7276L25.2904 5.29688H22.7345ZM24.4353 19.8293L31.7166 12.4679L30.7233 10.1248L22.77 18.1808C22.1054 18.8548 21.915 19.848 22.2827 20.7181C22.6486 21.5805 23.4944 22.1388 24.4372 22.1388L24.4409 22.1425L35.8089 22.1145L34.8157 19.7715L24.4372 19.8293H24.4353ZM5.79552 12.4623L6.78876 10.1192L14.742 18.1752C15.4067 18.8474 15.599 19.8443 15.2293 20.7125C14.8634 21.5768 14.0139 22.1332 13.0748 22.1332L1.70683 22.1071L1.70312 22.1108L2.69637 19.7677L13.0748 19.8256L5.79552 12.4623Z" fill="#9194A1"/>
<path d="M44.8906 21.207L44.8924 21.2089H46.8472V14.4766H53.1613V12.731H46.8472V8.35107H53.7923V6.60547H44.8906V21.207Z" fill="#9194A1"/>
<path d="M57.6536 10.6602H55.8203V21.2066H57.6536V10.6602Z" fill="#9194A1"/>
<path d="M62.3019 12.0566H62.3038C62.2627 12.1574 62.2235 12.219 62.1003 12.219C61.9976 12.219 61.9584 12.1798 61.9584 12.079V10.6582H60.125V21.2047H61.9547V15.2193C61.9547 13.1936 62.8937 12.402 64.6655 12.402H66.1329V10.6172H64.9511C63.5061 10.6172 62.7724 11.0429 62.3019 12.0566Z" fill="#9194A1"/>
<path d="M72.2263 19.9332C70.2603 19.9332 68.7929 18.8167 68.6697 16.4457H77.2368V15.4301C77.2368 12.4896 75.4448 10.3594 72.1832 10.3594C68.9216 10.3594 66.8438 12.4896 66.8438 15.936C66.8438 19.3824 68.8603 21.5127 72.2226 21.5127C75.5848 21.5127 76.9667 19.4665 77.2762 17.8646H75.3646C75.068 19.0632 74.1924 19.9332 72.2263 19.9332ZM72.1832 11.937C74.1213 11.937 75.32 12.9731 75.404 14.9204H68.7203C69.0245 12.9302 70.4306 11.937 72.1832 11.937Z" fill="#9194A1"/>
<path d="M90.2482 19.2389C90.2035 19.4218 90.1475 19.4834 90.0022 19.4834C89.8562 19.4834 89.7949 19.4218 89.7555 19.2389L87.7168 10.6602H84.5581L82.5194 19.2389C82.4748 19.4218 82.4188 19.4834 82.2727 19.4834C82.1274 19.4834 82.0654 19.4218 82.0268 19.2389L79.9873 10.6602H78.1953V11.0671H78.2067L80.6934 21.2066H83.8407L85.9415 12.3629C85.9808 12.2191 86.0202 12.1799 86.1428 12.1799C86.2442 12.1799 86.3055 12.2228 86.3448 12.3629L88.4448 21.2066H91.5929L94.0796 11.0671V10.6602H92.2869L90.2482 19.2389Z" fill="#9194A1"/>
<path d="M100.475 10.3594C97.3967 10.3594 94.9531 12.2842 94.9531 15.936C94.9531 19.5878 97.3944 21.5126 100.475 21.5126C103.556 21.5126 106 19.5878 106 15.936C106 12.2842 103.554 10.3594 100.475 10.3594ZM100.479 19.8902C98.3396 19.8902 96.8102 18.4732 96.8102 15.936C96.8102 13.3988 98.3396 11.9818 100.479 11.9818C102.618 11.9818 104.148 13.4025 104.148 15.936C104.148 18.4695 102.618 19.8902 100.479 19.8902Z" fill="#9194A1"/>
<path d="M110.115 12.0566C110.075 12.1574 110.036 12.219 109.913 12.219C109.81 12.219 109.771 12.1798 109.771 12.079V10.6582H107.938V21.2029H109.767V15.2193C109.767 13.1936 110.706 12.402 112.478 12.402H113.945V10.6172H112.763C111.319 10.6172 110.585 11.0429 110.115 12.0566Z" fill="#9194A1"/>
<path d="M117.192 15.5688V6.60547H115.359V21.2164H117.192V17.8484L119.181 16.1532L123.135 21.2126H125.14V20.8056L120.534 14.9937L125.14 11.0675V10.6605H122.784L117.192 15.5688Z" fill="#9194A1"/>
<path d="M131.496 15.1687L129.99 14.8849C128.545 14.6105 127.911 14.3081 127.911 13.4343C127.911 12.5606 128.627 11.9127 130.337 11.9127C132.047 11.9127 133.025 12.5643 133.167 14.0037H135.034C134.827 11.4329 132.831 10.3594 130.329 10.3594C127.827 10.3594 126.071 11.4347 126.071 13.4604C126.071 15.4861 127.508 16.1881 129.577 16.5727L131.084 16.8564C132.551 17.1309 133.284 17.4464 133.284 18.3575C133.284 19.2686 132.549 19.9482 130.78 19.9482C129.01 19.9482 127.835 19.2181 127.694 17.8179H125.828C126.001 20.3327 128.05 21.5089 130.781 21.5089C133.512 21.5089 135.122 20.3439 135.122 18.253C135.122 16.162 133.43 15.5328 131.496 15.1687Z" fill="#9194A1"/>
<path d="M157.524 6.60547H155.469V21.2164H157.524V6.60547Z" fill="#9194A1"/>
<path d="M145.503 6.7474L139.805 20.9494V21.2164H141.84L143.283 17.4022H150.142L151.586 21.2164H153.682V20.9531L147.943 6.60547H145.503V6.7474ZM143.961 15.636L146.41 9.21922H146.408C146.45 9.10912 146.556 9.03624 146.674 9.03624H146.774C146.892 9.03624 146.998 9.10912 147.039 9.21922L149.47 15.636H143.961Z" fill="#9194A1"/>
<path d="M57.6536 6.60547H55.8203V8.75624H57.6536V6.60547Z" fill="#9194A1"/>
</svg>
