<svg width="159" height="24" viewBox="0 0 159 24" fill="none" xmlns="http://www.w3.org/2000/svg">
<g clip-path="url(#clip0_6845_27018)">
<path d="M68.4271 8.45047C69.1123 8.45047 69.71 8.59144 70.2371 8.85556C70.7642 9.11968 71.1685 9.47187 71.4671 9.91207V8.60904H73.8044V17.9062C73.8044 18.7513 73.6462 19.5261 73.2948 20.1952C72.9433 20.8643 72.4337 21.4102 71.7483 21.7976C71.063 22.2025 70.2196 22.3962 69.253 22.3962C67.9526 22.3962 66.8807 22.0968 66.0372 21.4806C65.1937 20.8643 64.7191 20.0367 64.6136 18.9802H66.9157C67.0387 19.4028 67.3024 19.7373 67.7067 19.984C68.1108 20.2304 68.6027 20.3537 69.1827 20.3537C69.8679 20.3537 70.4129 20.1424 70.8347 19.7373C71.2563 19.3148 71.4671 18.716 71.4671 17.8885V16.4623C71.1685 16.8849 70.7642 17.2548 70.2371 17.5365C69.71 17.8357 69.0949 17.9766 68.4271 17.9766C67.6538 17.9766 66.9511 17.7828 66.3008 17.3778C65.6507 16.9728 65.1411 16.4094 64.772 15.6875C64.403 14.9656 64.2097 14.138 64.2097 13.1872C64.2097 12.2539 64.403 11.4264 64.772 10.7045C65.1411 9.98252 65.6505 9.41897 66.2833 9.03158C66.9334 8.64424 67.6363 8.45047 68.4271 8.45047ZM129.669 8.43301C130.547 8.43303 131.338 8.62675 132.024 8.99652C132.709 9.38389 133.253 9.91209 133.64 10.6164C134.027 11.3207 134.22 12.1131 134.22 13.0111C134.22 13.3457 134.202 13.645 134.15 13.9091H127.419C127.472 14.5782 127.718 15.1065 128.122 15.4762C128.526 15.846 129.036 16.0397 129.633 16.0397C130.494 16.0397 131.11 15.6699 131.479 14.9304H133.992C133.728 15.8108 133.218 16.5504 132.463 17.1138C131.707 17.6949 130.776 17.9768 129.686 17.9768C128.79 17.9768 127.999 17.7654 127.296 17.378C126.593 16.9906 126.031 16.4271 125.644 15.7051C125.24 14.9832 125.047 14.1556 125.047 13.2048C125.047 12.254 125.24 11.4088 125.627 10.6868C126.013 9.96494 126.558 9.4015 127.261 9.01413C127.964 8.62675 128.755 8.43301 129.669 8.43301ZM57.6898 8.43301C58.3751 8.43303 58.9902 8.57383 59.4998 8.85556C60.0094 9.13728 60.4136 9.48949 60.7299 9.91207V8.59143H63.0671V17.8182H60.7299V16.4623C60.4312 16.9025 60.0269 17.2548 59.4998 17.5365C58.9727 17.8182 58.3576 17.9591 57.6722 17.9591C56.8814 17.9591 56.1785 17.7654 55.5459 17.3603C54.9133 16.9554 54.4037 16.392 54.0345 15.67C53.6656 14.9481 53.4723 14.1204 53.4723 13.1696C53.4723 12.2363 53.6656 11.4088 54.0345 10.6868C54.4035 9.96492 54.9133 9.40152 55.5459 9.01413C56.196 8.62675 56.8991 8.43301 57.6898 8.43301ZM104.908 8.43301C105.593 8.43301 106.208 8.57384 106.718 8.85556C107.228 9.13728 107.632 9.48947 107.948 9.91207V8.59143H110.285V17.8182H107.948V16.4623C107.649 16.9025 107.245 17.2546 106.718 17.5365C106.191 17.8182 105.576 17.9591 104.891 17.9591C104.1 17.9591 103.397 17.7654 102.764 17.3603C102.132 16.9554 101.622 16.392 101.253 15.67C100.884 14.9481 100.69 14.1204 100.69 13.1696C100.69 12.2363 100.884 11.4088 101.253 10.6868C101.622 9.96492 102.132 9.4015 102.764 9.01413C103.414 8.62676 104.117 8.43303 104.908 8.43301ZM83.1001 8.41524C84.2423 8.41524 85.1737 8.71463 85.9293 9.2781C86.6849 9.85917 87.177 10.6516 87.4405 11.6905H84.9276C84.8046 11.3031 84.5761 10.9861 84.2598 10.7571C83.9435 10.5283 83.5394 10.4225 83.0824 10.4225C82.4323 10.4225 81.9051 10.6692 81.5009 11.1446C81.1143 11.6376 80.9212 12.3244 80.9212 13.2048C80.9212 14.0852 81.1143 14.7719 81.5009 15.2473C81.8874 15.7227 82.4147 15.9692 83.0824 15.9692C84.0313 15.9692 84.6465 15.5466 84.9276 14.7015H87.4405C87.1945 15.6875 86.6849 16.4974 85.9293 17.0784C85.1737 17.6595 84.2247 17.9589 83.1001 17.9589C82.2214 17.9589 81.4306 17.7475 80.7452 17.3603C80.0599 16.9552 79.5153 16.4094 79.1287 15.6875C78.742 14.9832 78.5487 14.138 78.5487 13.1872C78.5487 12.2363 78.742 11.4086 79.1287 10.6867C79.5153 9.96479 80.0599 9.40133 80.7452 9.01396C81.4306 8.60898 82.2214 8.41524 83.1001 8.41524ZM155.202 8.45047C156.292 8.45047 157.17 8.73224 157.82 9.2781C158.471 9.82395 158.822 10.5636 158.892 11.4968H156.661C156.625 11.1271 156.467 10.8277 156.204 10.6164C155.922 10.4051 155.571 10.2994 155.114 10.2994C154.692 10.2994 154.376 10.3698 154.148 10.5283C153.919 10.6867 153.814 10.8981 153.814 11.1799C153.814 11.4792 153.954 11.7257 154.27 11.8841C154.569 12.0426 155.061 12.2187 155.712 12.3772C156.379 12.5356 156.924 12.7117 157.363 12.8878C157.803 13.0639 158.172 13.3457 158.488 13.7154C158.804 14.0852 158.963 14.5782 158.998 15.1945C158.998 15.7227 158.857 16.1981 158.559 16.6207C158.26 17.0434 157.838 17.3603 157.293 17.6069C156.749 17.8359 156.116 17.9589 155.378 17.9589C154.64 17.9589 153.954 17.8182 153.357 17.554C152.759 17.2723 152.285 16.9201 151.934 16.4447C151.582 15.9692 151.389 15.4586 151.354 14.8951H153.691C153.743 15.2473 153.919 15.5467 154.218 15.7756C154.534 16.0045 154.903 16.1277 155.36 16.1277C155.799 16.1277 156.151 16.0396 156.397 15.8635C156.643 15.6875 156.766 15.4586 156.766 15.1769C156.766 14.8775 156.608 14.6663 156.309 14.5078C155.993 14.3493 155.518 14.1909 154.851 14.0148C154.165 13.8563 153.603 13.6802 153.164 13.5042C152.724 13.3281 152.355 13.0639 152.039 12.6942C151.723 12.3244 151.564 11.8314 151.564 11.2151C151.564 10.7045 151.705 10.2466 152.004 9.82397C152.302 9.40138 152.724 9.06683 153.269 8.82031C153.814 8.57381 154.464 8.45047 155.202 8.45047ZM42.3489 6.19665L46.0392 14.8424L49.7295 6.19665H52.3477V17.8182H50.0281V10.2467L46.9179 17.8182H45.1429L42.0326 10.2467V17.8182H39.6953V6.19665H42.3489ZM96.3679 6.19665C98.4064 6.19665 100.076 7.8519 100.058 9.89446C100.058 11.937 98.4064 13.5923 96.3679 13.5923H93.5037V17.8182H91.1841V6.19665H96.3679ZM77.4065 17.818H75.0869V8.59143H77.4065V17.818ZM115.558 8.59143H117.35V10.5106H115.558V17.818H113.22V10.5106H111.428V8.59143H113.22V6.30237H115.558V8.59143ZM122.622 8.59143H124.414V10.5106H122.622V17.818H120.285V10.5106H118.492V8.59143H120.285V6.30237H122.622V8.59143ZM140.493 10.9156H139.878C139.14 10.9156 138.595 11.0741 138.226 11.4262C137.857 11.7608 137.664 12.3595 137.664 13.2223V17.818H135.344V8.59126H137.664V10.0176C137.963 9.5246 138.367 9.15475 138.841 8.89063C139.316 8.60891 139.878 8.46809 140.493 8.46809V10.9156ZM146.732 8.45047C147.839 8.45047 148.717 8.80266 149.385 9.48937C150.071 10.1761 150.404 11.1446 150.404 12.3948V17.8005H148.085V12.7118C148.085 11.9722 147.909 11.4087 147.54 11.0213C147.171 10.6163 146.679 10.4227 146.046 10.4227C145.396 10.4227 144.887 10.6339 144.517 11.0213C144.148 11.4087 143.955 11.9722 143.955 12.7118V17.8005H141.636V8.57381H143.955V9.71825C144.271 9.3309 144.676 9.01398 145.15 8.78508C145.624 8.55618 146.152 8.45047 146.732 8.45047ZM58.2871 10.4932C57.8655 10.4932 57.4612 10.5989 57.0922 10.8102C56.7233 11.0039 56.4246 11.3208 56.1961 11.7257C55.9677 12.1307 55.8622 12.6061 55.8622 13.1696C55.8622 13.733 55.9677 14.2086 56.1961 14.6312C56.4246 15.0361 56.7233 15.3531 57.0922 15.5819C57.4612 15.8108 57.8655 15.9165 58.2871 15.9166C58.7266 15.9166 59.1309 15.8109 59.4998 15.5996C59.8688 15.3883 60.1676 15.0713 60.3959 14.6664C60.6244 14.2614 60.7299 13.7683 60.7299 13.2048C60.7299 12.6414 60.6244 12.1483 60.3959 11.7434C60.1676 11.3384 59.8688 11.0215 59.4998 10.8102C59.1309 10.5989 58.7266 10.4932 58.2871 10.4932ZM105.506 10.4932C105.084 10.4932 104.68 10.5989 104.311 10.8102C103.942 11.0039 103.643 11.3208 103.414 11.7257C103.186 12.1307 103.081 12.6061 103.081 13.1696C103.081 13.733 103.186 14.2086 103.414 14.6312C103.643 15.0361 103.942 15.353 104.311 15.5819C104.68 15.8108 105.084 15.9165 105.506 15.9166C105.945 15.9166 106.349 15.8108 106.718 15.5996C107.087 15.3883 107.386 15.0714 107.614 14.6664C107.843 14.2614 107.948 13.7683 107.948 13.2048C107.948 12.6414 107.843 12.1483 107.614 11.7434C107.386 11.3384 107.087 11.0215 106.718 10.8102C106.349 10.5989 105.945 10.4932 105.506 10.4932ZM69.0245 10.493C68.6029 10.493 68.1986 10.5987 67.8296 10.81C67.4607 11.0037 67.1619 11.3208 66.9334 11.7257C66.7049 12.1307 66.5994 12.6061 66.5994 13.1696C66.5994 13.733 66.7049 14.2084 66.9334 14.631C67.1619 15.036 67.4607 15.3529 67.8296 15.5818C68.1986 15.8107 68.6029 15.9164 69.0245 15.9164C69.4638 15.9164 69.8681 15.8107 70.2371 15.5994C70.606 15.3881 70.905 15.0712 71.1333 14.6662C71.3443 14.2613 71.4671 13.7682 71.4671 13.2048C71.4671 12.6414 71.3618 12.1483 71.1333 11.7434C70.905 11.3384 70.606 11.0213 70.2371 10.81C69.8681 10.5987 69.4638 10.493 69.0245 10.493ZM129.598 10.3522C129.018 10.3522 128.526 10.5284 128.14 10.8805C127.753 11.2327 127.507 11.7258 127.419 12.3421H131.795C131.777 11.7434 131.567 11.2679 131.145 10.8981C130.723 10.5283 130.213 10.3522 129.598 10.3522ZM93.5212 11.6905H95.8935C96.8775 11.6905 97.686 10.8629 97.686 9.87684C97.686 8.89078 96.8952 8.08079 95.8935 8.08079H93.5212V11.6905ZM76.2465 5.35156C76.6331 5.35156 76.9494 5.4749 77.2129 5.72142C77.4765 5.96792 77.5997 6.26721 77.5997 6.63698C77.5997 7.00675 77.4765 7.30601 77.2129 7.55253C76.9494 7.79905 76.6331 7.92237 76.2465 7.92237C75.8598 7.92237 75.5435 7.79905 75.2801 7.55253C75.0164 7.30603 74.8933 7.00673 74.8933 6.63698C74.8933 6.26722 75.0164 5.96792 75.2801 5.72142C75.5435 5.4749 75.8598 5.35156 76.2465 5.35156Z" fill="#9194A1"/>
<path d="M32.2991 11.639C32.2814 11.639 32.2463 11.639 32.2288 11.639L29.997 11.9912C29.9795 11.9912 29.9618 11.9912 29.9443 11.9912C29.6982 11.9912 29.505 11.7975 29.505 11.551C29.505 11.5334 29.505 11.4982 29.505 11.4806L31.1744 3.416C31.192 3.36317 31.192 3.29273 31.192 3.23991C31.192 2.76449 30.8054 2.39472 30.3484 2.39472C30.2958 2.39472 30.243 2.39472 30.2078 2.41232L22.6867 3.6273C22.6339 3.6273 22.5987 3.6449 22.5461 3.6449C22.0716 3.6449 21.7027 3.25751 21.7027 2.79971C21.7027 2.74689 21.7027 2.69406 21.7201 2.64123L22.0541 1.02129C22.0541 1.02129 22.0716 0.898027 22.0716 0.845203C22.0716 0.36978 21.685 0 21.228 0C21.1754 0 21.1227 6.44871e-06 21.0875 0.0176146L5.46518 2.51797C4.72712 2.64124 4.12963 3.2047 3.97148 3.92664L0.0175686 22.9787C0.0175686 22.9787 0 23.102 0 23.1547C0 23.6303 0.386603 24 0.843498 24C0.984083 24 1.1071 23.9648 1.23011 23.912L10.7722 19.0346C10.8776 18.9816 11.0007 18.9464 11.1412 18.9464C11.6157 18.9464 11.9847 19.3338 11.9847 19.7917C11.9847 19.8444 11.9847 19.8974 11.9672 19.9501L11.3521 22.9435C11.3345 23.014 11.3345 23.0844 11.3345 23.1547C11.3345 23.6303 11.7212 24 12.178 24C12.3186 24 12.4416 23.9648 12.5647 23.912L23.3896 18.3654C23.4423 18.3302 23.5126 18.3125 23.583 18.3125C23.8289 18.3125 24.0222 18.5062 24.0222 18.7527C24.0222 18.7879 24.0222 18.8056 24.0222 18.8409L23.5653 21.0771C23.5653 21.1122 23.5478 21.1474 23.5478 21.1651C23.5478 21.4116 23.7411 21.6053 23.9871 21.6053C24.0574 21.6053 24.1276 21.5877 24.1979 21.5525L30.9987 18.0836C31.3677 17.8899 31.6488 17.5377 31.7191 17.1328L32.7384 12.1673C32.7384 12.1321 32.7559 12.0968 32.7559 12.0616C32.7384 11.8327 32.5451 11.639 32.2991 11.639Z" fill="#9194A1"/>
<path d="M32.2991 11.639C32.2814 11.639 32.2463 11.639 32.2288 11.639L29.997 11.9912C29.9795 11.9912 29.9618 11.9912 29.9443 11.9912C29.6982 11.9912 29.505 11.7975 29.505 11.551C29.505 11.5334 29.505 11.4982 29.505 11.4806L31.1744 3.416C31.192 3.36317 31.192 3.29273 31.192 3.23991C31.192 2.76449 30.8054 2.39472 30.3484 2.39472C30.2958 2.39472 30.243 2.39472 30.2078 2.41232L22.6867 3.6273C22.6339 3.6273 22.5987 3.6449 22.5461 3.6449C22.0716 3.6449 21.7027 3.25751 21.7027 2.79971C21.7027 2.74689 21.7027 2.69406 21.7201 2.64123L22.0541 1.02129C22.0541 1.02129 22.0716 0.898027 22.0716 0.845203C22.0716 0.36978 21.685 0 21.228 0C21.1754 0 21.1227 6.44871e-06 21.0875 0.0176146L5.46518 2.51797C4.72712 2.64124 4.12963 3.2047 3.97148 3.92664L0.0175686 22.9787C0.0175686 22.9787 0 23.102 0 23.1547C0 23.6303 0.386603 24 0.843498 24C0.984083 24 1.1071 23.9648 1.23011 23.912L10.7722 19.0346C10.8776 18.9816 11.0007 18.9464 11.1412 18.9464C11.6157 18.9464 11.9847 19.3338 11.9847 19.7917C11.9847 19.8444 11.9847 19.8974 11.9672 19.9501L11.3521 22.9435C11.3345 23.014 11.3345 23.0844 11.3345 23.1547C11.3345 23.6303 11.7212 24 12.178 24C12.3186 24 12.4416 23.9648 12.5647 23.912L23.3896 18.3654C23.4423 18.3302 23.5126 18.3125 23.583 18.3125C23.8289 18.3125 24.0222 18.5062 24.0222 18.7527C24.0222 18.7879 24.0222 18.8056 24.0222 18.8409L23.5653 21.0771C23.5653 21.1122 23.5478 21.1474 23.5478 21.1651C23.5478 21.4116 23.7411 21.6053 23.9871 21.6053C24.0574 21.6053 24.1276 21.5877 24.1979 21.5525L30.9987 18.0836C31.3677 17.8899 31.6488 17.5377 31.7191 17.1328L32.7384 12.1673C32.7384 12.1321 32.7559 12.0968 32.7559 12.0616C32.7384 11.8327 32.5451 11.639 32.2991 11.639Z" fill="#9194A1"/>
</g>
<defs>
<clipPath id="clip0_6845_27018">
<rect width="159" height="24" fill="white"/>
</clipPath>
</defs>
</svg>
