<svg width="125" height="28" viewBox="0 0 125 28" fill="none" xmlns="http://www.w3.org/2000/svg">
<path fill-rule="evenodd" clip-rule="evenodd" d="M15.0437 3.32995C12.7659 3.32995 10.9164 5.17742 10.9164 7.45277V9.18168H9.58501V7.45277C9.58501 4.44291 12.0306 2 15.0437 2C18.0568 2 20.5023 4.44291 20.5023 7.45277C20.5023 10.4627 18.0568 12.9055 15.0437 12.9055H13.3131V11.5756H15.0437C17.3215 11.5756 19.1709 9.72808 19.1709 7.45277C19.1709 5.17742 17.3215 3.32995 15.0437 3.32995ZM10.9173 15.2995H9.58591V17.0284C9.58591 19.3037 7.73644 21.1512 5.45866 21.1512C3.18086 21.1512 1.33138 19.3037 1.33138 17.0284C1.33138 14.753 3.18086 12.9055 5.45866 12.9055H7.18877V11.5756H5.45866C2.44556 11.5756 0 14.0185 0 17.0284C0 20.0382 2.44556 22.4811 5.45866 22.4811C8.4718 22.4811 10.9173 20.0382 10.9173 17.0284V15.2995ZM10.2636 13.5806C9.5006 13.5806 8.93451 12.9904 8.93451 12.2283C8.93451 11.4906 9.5006 10.9006 10.2636 10.9006C10.9774 10.9006 11.5681 11.4906 11.5681 12.2283C11.5681 12.9904 10.9774 13.5806 10.2636 13.5806Z" fill="#9194A1"/>
<path d="M30.8184 21.0327C28.9232 21.0327 27.1264 20.4673 25.625 19.3854V16.1154H26.1911C27.0772 18.7707 28.7017 20.0001 30.9169 20.0001C32.8121 20.0001 34.6581 18.7953 34.6581 16.7546C34.6581 15.4023 33.8952 14.5418 31.9753 13.6813L29.4401 12.5257C27.1757 11.5176 26.0927 9.99321 26.0927 8.10004C26.0927 5.54301 28.3079 3.45312 31.5815 3.45312C33.3291 3.45312 35.0027 3.96945 36.0611 4.60871V7.75583H35.495C34.7812 5.34632 33.3291 4.48577 31.4338 4.48577C29.3662 4.48577 27.8156 5.71511 27.8156 7.63289C27.8156 9.00976 28.5787 9.96863 30.3016 10.7309L32.886 11.911C35.175 12.9436 36.4057 14.2222 36.4057 16.2629C36.4057 19.0658 33.969 21.0327 30.8184 21.0327Z" fill="#9194A1"/>
<path d="M45.1514 9.69718V9.15625H48.5234V9.69718C47.4405 10.0659 47.0959 10.6561 46.6282 11.8608L42.4439 22.5315C41.3117 25.359 39.7857 25.9982 38.3581 25.9982C37.792 25.9982 37.2751 25.8999 36.8566 25.6787V24.0805C37.349 24.2772 37.8659 24.3755 38.4073 24.3755C39.7365 24.3755 40.8933 23.8592 41.6317 21.9414L42.0994 20.7858L38.4073 11.8608C37.9151 10.6561 37.5705 9.99218 36.5859 9.69718V9.15625H40.721V9.69718C39.5149 10.0168 39.6872 10.6069 40.1795 11.8362L42.8623 18.4993H42.9854L45.6683 11.7379C46.1113 10.6069 46.2344 10.0413 45.1514 9.69718Z" fill="#9194A1"/>
<path d="M50.176 18.4499V11.6639C50.176 10.4591 49.9791 10.1887 48.9453 10.1149V9.57397L51.7266 9.03309H51.8498V11.1476H51.9728C52.8835 9.77071 54.1141 8.91016 55.7141 8.91016C57.2401 8.91016 58.4215 9.79529 58.8399 11.2705H58.9877C59.923 9.81987 61.129 8.91016 62.7288 8.91016C64.5994 8.91016 66.1994 10.2379 66.1994 12.9424V18.4007C66.1994 19.8513 66.2978 20.0972 67.2577 20.2447V20.7856H63.4673V20.2447C64.378 20.0972 64.5256 19.8268 64.5256 18.4007V13.0408C64.5256 11.1476 63.5903 10.2133 62.212 10.2133C60.7352 10.2133 59.6768 11.3688 59.0369 12.549V18.4991C59.0369 19.9005 59.2337 20.0972 60.1198 20.2447V20.7856H56.3048V20.2447C57.1909 20.0972 57.3877 19.9005 57.3877 18.4991V13.0899C57.3877 11.1968 56.5509 10.2133 55.0494 10.2133C53.5727 10.2133 52.4897 11.4426 51.8498 12.5736V18.4499C51.8498 19.8021 51.9974 20.0726 52.9081 20.2447V20.7856H49.1177V20.2447C50.0776 20.0726 50.176 19.8021 50.176 18.4499Z" fill="#9194A1"/>
<path d="M74.3433 21.0314C72.9649 21.0314 71.8327 20.515 70.9958 19.7037H70.8727L69.9374 20.9085H69.3713V5.76292C69.3713 4.50899 69.1006 4.38605 68.1406 4.28771V3.7468L70.922 3.23047H71.0451V11.1475H71.1681C72.0788 9.77059 73.3341 8.91004 75.0569 8.91004C77.6416 8.91004 79.8317 11.0245 79.8317 14.6634C79.8317 18.5481 77.346 21.0314 74.3433 21.0314ZM74.2694 20.0971C76.6813 20.0971 78.1091 17.8843 78.1091 14.983C78.1091 12.3276 76.8786 10.2132 74.5648 10.2132C72.8418 10.2132 71.7096 11.4425 71.0451 12.6964V16.114C71.0451 18.671 72.2757 20.0971 74.2694 20.0971Z" fill="#9194A1"/>
<path d="M86.8368 21.0315C83.5385 21.0315 81.1016 18.5236 81.1016 14.9586C81.1016 11.418 83.5385 8.91016 86.8368 8.91016C90.1103 8.91016 92.5225 11.3934 92.5225 14.9586C92.5225 18.5236 90.1103 21.0315 86.8368 21.0315ZM86.8368 19.9743C89.0764 19.9743 90.6513 18.0811 90.6513 14.9586C90.6513 11.836 89.0764 9.94279 86.8368 9.94279C84.5229 9.94279 82.972 11.9097 82.972 14.9586C82.972 18.0319 84.5229 19.9743 86.8368 19.9743Z" fill="#9194A1"/>
<path d="M93.8197 20.7866V20.2457C94.7793 20.0736 94.9024 19.8524 94.9024 18.4017V5.71489C94.9024 4.48555 94.5827 4.36262 93.6719 4.28885V3.74794L96.4532 3.20703H96.5763V18.4017C96.5763 19.8524 96.6993 20.0736 97.6342 20.2457V20.7866H93.8197Z" fill="#9194A1"/>
<path d="M101.081 6.79716C100.318 6.79716 99.7513 6.20706 99.7513 5.44488C99.7513 4.70727 100.318 4.11719 101.081 4.11719C101.794 4.11719 102.386 4.70727 102.386 5.44488C102.386 6.20706 101.794 6.79716 101.081 6.79716ZM101.967 9.03456V18.4268C101.967 19.8528 102.09 20.0986 103.025 20.2461V20.787H99.2343V20.2461C100.17 20.0986 100.293 19.8528 100.293 18.4268V11.5425C100.293 10.3377 99.9974 10.1656 99.0625 10.0918V9.55085L101.844 9.03456H101.967Z" fill="#9194A1"/>
<path d="M109.988 21.0315C106.764 21.0315 104.352 18.5482 104.352 15.1061C104.352 11.6147 106.764 8.91016 110.185 8.91016C111.317 8.91016 112.474 9.15602 113.336 9.62321V12.0327H112.769C112.425 10.705 111.465 9.91821 110.16 9.91821C107.699 9.91821 106.099 12.0081 106.099 14.7372C106.099 17.7614 107.969 19.6054 110.456 19.6054C111.883 19.6054 112.966 19.1629 114.024 18.2777L114.492 18.7203C113.188 20.2201 111.785 21.0315 109.988 21.0315Z" fill="#9194A1"/>
<path d="M123.487 13.0899V18.4007C123.487 19.5809 123.61 19.7038 124.545 19.8021V20.3431L121.936 20.884H121.813V18.8432H121.69C120.656 20.4168 119.401 21.0315 118.023 21.0315C116.447 21.0315 115.094 19.9251 115.094 18.3023C115.094 16.4338 116.768 15.6224 119.106 14.9586L121.813 14.1963V13.0899C121.813 11.0984 120.828 10.1887 119.155 10.1887C117.924 10.1887 116.743 10.6558 115.586 11.4917L115.192 10.9508C116.447 9.77071 118.023 8.91016 119.647 8.91016C121.739 8.91016 123.487 10.1149 123.487 13.0899ZM118.687 19.7775C120.09 19.7775 121.222 18.6466 121.813 17.4664V15.0323L119.573 15.7945C118.072 16.3354 116.841 16.7779 116.841 18.0565C116.841 19.1383 117.604 19.7775 118.687 19.7775Z" fill="#9194A1"/>
</svg>
