<svg width="1778" height="1112" viewBox="0 0 1778 1112" fill="none" xmlns="http://www.w3.org/2000/svg">
<rect width="1778" height="1112" fill="url(#paint0_linear_17723_145699)"/>
<g filter="url(#filter0_i_17723_145699)">
<path d="M74.7429 63.1818V101H67.892V69.848H67.6705L58.8253 75.4986V69.2202L68.2244 63.1818H74.7429ZM96.8946 101.517C95.0849 101.505 93.3184 101.191 91.5949 100.575C89.8714 99.9474 88.3203 98.9318 86.9415 97.5284C85.5627 96.1127 84.467 94.2353 83.6545 91.8963C82.842 89.545 82.442 86.6335 82.4543 83.1619C82.4543 79.9242 82.799 77.0374 83.4884 74.5014C84.1777 71.9654 85.1688 69.8234 86.4614 68.0753C87.754 66.3149 89.3113 64.973 91.1332 64.0497C92.9675 63.1264 95.0172 62.6648 97.2824 62.6648C99.6583 62.6648 101.763 63.1326 103.598 64.0682C105.444 65.0038 106.934 66.2841 108.066 67.9091C109.199 69.5218 109.901 71.3438 110.172 73.375H103.432C103.087 71.9223 102.379 70.7652 101.308 69.9034C100.249 69.0294 98.9074 68.5923 97.2824 68.5923C94.6602 68.5923 92.6413 69.7311 91.2256 72.0085C89.8222 74.286 89.1143 77.4129 89.102 81.3892H89.3605C89.9637 80.3059 90.7455 79.3764 91.7057 78.6009C92.6659 77.8253 93.7492 77.2282 94.9557 76.8097C96.1744 76.3788 97.4609 76.1634 98.8151 76.1634C101.031 76.1634 103.019 76.6927 104.78 77.7514C106.552 78.8101 107.956 80.2689 108.99 82.1278C110.024 83.9744 110.535 86.0919 110.522 88.4801C110.535 90.9669 109.968 93.2012 108.824 95.1832C107.679 97.1529 106.084 98.7041 104.041 99.8366C101.997 100.969 99.6152 101.529 96.8946 101.517ZM96.8577 95.9773C98.1995 95.9773 99.3998 95.651 100.459 94.9986C101.517 94.3461 102.354 93.4659 102.97 92.358C103.585 91.25 103.887 90.0066 103.875 88.6278C103.887 87.2737 103.592 86.0488 102.988 84.9531C102.397 83.8575 101.579 82.9896 100.532 82.3494C99.486 81.7093 98.2919 81.3892 96.95 81.3892C95.9528 81.3892 95.0234 81.58 94.1616 81.9616C93.2999 82.3433 92.549 82.8726 91.9088 83.5497C91.2687 84.2145 90.7639 84.9901 90.3946 85.8764C90.0376 86.7505 89.8529 87.6861 89.8406 88.6832C89.8529 90.0005 90.1607 91.2131 90.7639 92.321C91.3671 93.429 92.1981 94.3153 93.2568 94.9801C94.3155 95.6449 95.5158 95.9773 96.8577 95.9773ZM119.656 96.4574C118.535 96.4574 117.575 96.0634 116.775 95.2756C115.975 94.4754 115.581 93.5152 115.593 92.3949C115.581 91.2869 115.975 90.339 116.775 89.5511C117.575 88.7633 118.535 88.3693 119.656 88.3693C120.739 88.3693 121.681 88.7633 122.481 89.5511C123.293 90.339 123.706 91.2869 123.718 92.3949C123.706 93.1458 123.509 93.8291 123.127 94.4446C122.758 95.0601 122.266 95.5526 121.65 95.9219C121.047 96.2789 120.382 96.4574 119.656 96.4574ZM119.656 77.7145C118.535 77.7145 117.575 77.3205 116.775 76.5327C115.975 75.7325 115.581 74.7723 115.593 73.652C115.581 72.544 115.975 71.5961 116.775 70.8082C117.575 70.008 118.535 69.608 119.656 69.608C120.739 69.608 121.681 70.008 122.481 70.8082C123.293 71.5961 123.706 72.544 123.718 73.652C123.706 74.3906 123.509 75.0677 123.127 75.6832C122.758 76.2988 122.266 76.7912 121.65 77.1605C121.047 77.5298 120.382 77.7145 119.656 77.7145ZM144.628 63.1818V101H137.777V69.848H137.556L128.71 75.4986V69.2202L138.11 63.1818H144.628ZM166.909 101.72C163.868 101.72 161.258 100.951 159.079 99.4119C156.913 97.8608 155.245 95.6264 154.075 92.7088C152.918 89.7789 152.339 86.2519 152.339 82.1278C152.352 78.0038 152.936 74.4953 154.094 71.6023C155.263 68.697 156.931 66.4811 159.098 64.9545C161.277 63.428 163.881 62.6648 166.909 62.6648C169.937 62.6648 172.541 63.428 174.72 64.9545C176.899 66.4811 178.567 68.697 179.724 71.6023C180.894 74.5076 181.479 78.0161 181.479 82.1278C181.479 86.2642 180.894 89.7973 179.724 92.7273C178.567 95.6449 176.899 97.8731 174.72 99.4119C172.553 100.951 169.95 101.72 166.909 101.72ZM166.909 95.9403C169.273 95.9403 171.138 94.777 172.504 92.4503C173.883 90.1113 174.572 86.6705 174.572 82.1278C174.572 79.1241 174.258 76.6004 173.631 74.5568C173.003 72.5133 172.116 70.9744 170.972 69.9403C169.827 68.8939 168.472 68.3707 166.909 68.3707C164.558 68.3707 162.699 69.5402 161.332 71.8793C159.966 74.206 159.276 77.6222 159.264 82.1278C159.252 85.1439 159.553 87.6799 160.169 89.7358C160.797 91.7917 161.683 93.3428 162.828 94.3892C163.973 95.4233 165.333 95.9403 166.909 95.9403Z" fill="#C8C8D0"/>
</g>
<g filter="url(#filter1_i_17723_145699)">
<path d="M904 502C905.657 502 907 503.343 907 505C907 506.657 905.657 508 904 508H835C827.82 508 822 513.82 822 521V603C822 610.18 827.82 616 835 616H939C946.18 616 952 610.18 952 603V545C952 543.343 953.343 542 955 542C956.657 542 958 543.343 958 545V603C958 613.493 949.493 622 939 622H835C824.507 622 816 613.493 816 603V521C816 510.507 824.507 502 835 502H904ZM903.111 542.004C903.877 542.044 904.577 542.472 904.968 543.146L934.682 594.477C935.1 595.2 935.106 596.091 934.697 596.821C934.29 597.549 933.534 598 932.714 598H841.285C840.449 598 839.68 597.533 839.278 596.784C838.879 596.035 838.911 595.121 839.363 594.402L859.935 561.737C860.307 561.145 860.927 560.755 861.612 560.681C862.293 560.597 862.984 560.851 863.471 561.351L877.587 575.76L901.155 542.953C901.61 542.321 902.35 541.96 903.111 542.004ZM862 526C868.065 526 873 530.935 873 537C873 543.065 868.065 548 862 548C855.935 548 851 543.065 851 537C851 530.935 855.935 526 862 526ZM940 490C941.217 490 942.2 490.984 942.2 492.2C942.2 501.904 950.096 509.8 959.8 509.8C961.016 509.8 962 510.783 962 512C962 513.217 961.016 514.2 959.8 514.2C950.096 514.2 942.2 522.096 942.2 531.8C942.2 533.016 941.217 534 940 534C938.783 534 937.8 533.016 937.8 531.8C937.8 522.096 929.904 514.2 920.2 514.2C918.984 514.2 918 513.217 918 512C918 510.783 918.984 509.8 920.2 509.8C929.904 509.8 937.8 501.904 937.8 492.2C937.8 490.984 938.783 490 940 490Z" fill="url(#paint1_linear_17723_145699)"/>
</g>
<rect x="816" y="502" width="142" height="120" rx="19" fill="#D2D2D7" fill-opacity="0.01"/>
<rect x="817" y="503" width="140" height="118" rx="18" stroke="url(#paint2_linear_17723_145699)" stroke-opacity="0.2" stroke-width="2"/>
<defs>
<filter id="filter0_i_17723_145699" x="58.8252" y="62.665" width="124.653" height="41.0547" filterUnits="userSpaceOnUse" color-interpolation-filters="sRGB">
<feFlood flood-opacity="0" result="BackgroundImageFix"/>
<feBlend mode="normal" in="SourceGraphic" in2="BackgroundImageFix" result="shape"/>
<feColorMatrix in="SourceAlpha" type="matrix" values="0 0 0 0 0 0 0 0 0 0 0 0 0 0 0 0 0 0 127 0" result="hardAlpha"/>
<feOffset dx="2" dy="2"/>
<feGaussianBlur stdDeviation="1"/>
<feComposite in2="hardAlpha" operator="arithmetic" k2="-1" k3="1"/>
<feColorMatrix type="matrix" values="0 0 0 0 0 0 0 0 0 0 0 0 0 0 0 0 0 0 0.25 0"/>
<feBlend mode="normal" in2="shape" result="effect1_innerShadow_17723_145699"/>
</filter>
<filter id="filter1_i_17723_145699" x="816" y="490" width="148" height="134" filterUnits="userSpaceOnUse" color-interpolation-filters="sRGB">
<feFlood flood-opacity="0" result="BackgroundImageFix"/>
<feBlend mode="normal" in="SourceGraphic" in2="BackgroundImageFix" result="shape"/>
<feColorMatrix in="SourceAlpha" type="matrix" values="0 0 0 0 0 0 0 0 0 0 0 0 0 0 0 0 0 0 127 0" result="hardAlpha"/>
<feOffset dx="2" dy="2"/>
<feGaussianBlur stdDeviation="1"/>
<feComposite in2="hardAlpha" operator="arithmetic" k2="-1" k3="1"/>
<feColorMatrix type="matrix" values="0 0 0 0 0 0 0 0 0 0 0 0 0 0 0 0 0 0 0.25 0"/>
<feBlend mode="normal" in2="shape" result="effect1_innerShadow_17723_145699"/>
</filter>
<linearGradient id="paint0_linear_17723_145699" x1="889" y1="1112" x2="889" y2="0" gradientUnits="userSpaceOnUse">
<stop stop-color="#242428"/>
<stop offset="1" stop-color="#303036"/>
</linearGradient>
<linearGradient id="paint1_linear_17723_145699" x1="889" y1="490" x2="889" y2="622" gradientUnits="userSpaceOnUse">
<stop offset="0.4" stop-color="#AFAFB6"/>
<stop offset="0.795455" stop-color="#6E6E77"/>
</linearGradient>
<linearGradient id="paint2_linear_17723_145699" x1="887" y1="502" x2="887" y2="622" gradientUnits="userSpaceOnUse">
<stop offset="0.334657" stop-color="white" stop-opacity="0"/>
<stop offset="0.75" stop-color="white"/>
</linearGradient>
</defs>
</svg>
