<svg width="85" height="40" viewBox="0 0 85 40" fill="none" xmlns="http://www.w3.org/2000/svg">
<path fill-rule="evenodd" clip-rule="evenodd" d="M9.27748 30.1986C9.27748 30.1986 7.78608 31.0664 10.34 31.3596C13.4348 31.713 15.0156 31.6621 18.4249 31.0172C18.4249 31.0172 19.3225 31.5792 20.5755 32.0654C12.9304 35.3413 3.27348 31.8759 9.27748 30.1986ZM8.34298 25.9238C8.34298 25.9238 6.66988 27.1621 9.22598 27.4265C12.532 27.7679 15.1416 27.7957 19.66 26.9263C19.66 26.9263 20.2839 27.5596 21.2657 27.9056C12.0238 30.6087 1.73061 28.1184 8.34298 25.9238Z" fill="#3174B9"/>
<path fill-rule="evenodd" clip-rule="evenodd" d="M9.27748 30.1986C9.27748 30.1986 7.78608 31.0664 10.34 31.3596C13.4348 31.713 15.0156 31.6621 18.4249 31.0172C18.4249 31.0172 19.3225 31.5792 20.5755 32.0654C12.9304 35.3413 3.27348 31.8759 9.27748 30.1986ZM8.34298 25.9238C8.34298 25.9238 6.66988 27.1621 9.22598 27.4265C12.532 27.7679 15.1416 27.7957 19.66 26.9263C19.66 26.9263 20.2839 27.5596 21.2657 27.9056C12.0238 30.6087 1.73061 28.1184 8.34298 25.9238Z" fill="white"/>
<path fill-rule="evenodd" clip-rule="evenodd" d="M16.2156 18.6727C18.1002 20.842 15.7216 22.7931 15.7216 22.7931C15.7216 22.7931 20.5047 20.3244 18.3079 17.2319C16.2568 14.3492 14.6834 12.9172 23.1998 7.97852C23.1998 7.97852 9.83129 11.316 16.2156 18.6727Z" fill="#CA3132"/>
<path fill-rule="evenodd" clip-rule="evenodd" d="M16.2156 18.6727C18.1002 20.842 15.7216 22.7931 15.7216 22.7931C15.7216 22.7931 20.5047 20.3244 18.3079 17.2319C16.2568 14.3492 14.6834 12.9172 23.1998 7.97852C23.1998 7.97852 9.83129 11.316 16.2156 18.6727Z" fill="white"/>
<path fill-rule="evenodd" clip-rule="evenodd" d="M26.3254 33.3605C26.3254 33.3605 27.4293 34.2708 25.1093 34.9746C20.6978 36.3108 6.74459 36.7138 2.86879 35.0278C1.47654 34.4214 4.08869 33.5808 4.91049 33.4033C5.76759 33.218 6.25679 33.2517 6.25679 33.2517C4.70739 32.1607 -3.75781 35.3945 1.95759 36.3222C17.5424 38.8491 30.3673 35.1846 26.3254 33.3605ZM9.99198 21.4937C9.99198 21.4937 2.89539 23.1798 7.47929 23.7927C9.41539 24.0515 13.2721 23.9919 16.8673 23.6903C19.8047 23.4438 22.7531 22.9164 22.7531 22.9164C22.7531 22.9164 21.7181 23.3605 20.9683 23.8717C13.7605 25.7676 -0.161244 24.8846 3.84709 22.9466C7.23599 21.3072 9.99198 21.4937 9.99198 21.4937ZM22.7236 28.6095C30.0499 24.8033 26.6626 21.1449 24.2976 21.6379C23.7194 21.7587 23.4599 21.863 23.4599 21.863C23.4599 21.863 23.6756 21.5255 24.0857 21.3804C28.7636 19.7364 32.3605 26.2302 22.5775 28.8019C22.5775 28.8019 22.6899 28.7002 22.7236 28.6095Z" fill="#3174B9"/>
<path fill-rule="evenodd" clip-rule="evenodd" d="M26.3254 33.3605C26.3254 33.3605 27.4293 34.2708 25.1093 34.9746C20.6978 36.3108 6.74459 36.7138 2.86879 35.0278C1.47654 34.4214 4.08869 33.5808 4.91049 33.4033C5.76759 33.218 6.25679 33.2517 6.25679 33.2517C4.70739 32.1607 -3.75781 35.3945 1.95759 36.3222C17.5424 38.8491 30.3673 35.1846 26.3254 33.3605ZM9.99198 21.4937C9.99198 21.4937 2.89539 23.1798 7.47929 23.7927C9.41539 24.0515 13.2721 23.9919 16.8673 23.6903C19.8047 23.4438 22.7531 22.9164 22.7531 22.9164C22.7531 22.9164 21.7181 23.3605 20.9683 23.8717C13.7605 25.7676 -0.161244 24.8846 3.84709 22.9466C7.23599 21.3072 9.99198 21.4937 9.99198 21.4937ZM22.7236 28.6095C30.0499 24.8033 26.6626 21.1449 24.2976 21.6379C23.7194 21.7587 23.4599 21.863 23.4599 21.863C23.4599 21.863 23.6756 21.5255 24.0857 21.3804C28.7636 19.7364 32.3605 26.2302 22.5775 28.8019C22.5775 28.8019 22.6899 28.7002 22.7236 28.6095Z" fill="white"/>
<path fill-rule="evenodd" clip-rule="evenodd" d="M18.3078 0C18.3078 0 22.3644 4.05914 14.4592 10.299C8.11956 15.3063 13.0139 18.1604 14.4573 21.4227C10.7561 18.084 8.04126 15.1443 9.86236 12.4091C12.5361 8.39394 19.9446 6.44681 18.3078 0Z" fill="#CA3132"/>
<path fill-rule="evenodd" clip-rule="evenodd" d="M18.3078 0C18.3078 0 22.3644 4.05914 14.4592 10.299C8.11956 15.3063 13.0139 18.1604 14.4573 21.4227C10.7561 18.084 8.04126 15.1443 9.86236 12.4091C12.5361 8.39394 19.9446 6.44681 18.3078 0Z" fill="white"/>
<path fill-rule="evenodd" clip-rule="evenodd" d="M10.7121 38.9271C17.7433 39.3767 28.5427 38.6774 28.7989 35.3496C28.7989 35.3496 28.3072 36.611 22.9874 37.6116C16.9853 38.7415 9.58131 38.61 5.19141 37.8854C5.19141 37.8854 6.09101 38.6297 10.7121 38.9271Z" fill="#3174B9"/>
<path fill-rule="evenodd" clip-rule="evenodd" d="M10.7121 38.9271C17.7433 39.3767 28.5427 38.6774 28.7989 35.3496C28.7989 35.3496 28.3072 36.611 22.9874 37.6116C16.9853 38.7415 9.58131 38.61 5.19141 37.8854C5.19141 37.8854 6.09101 38.6297 10.7121 38.9271Z" fill="white"/>
<path fill-rule="evenodd" clip-rule="evenodd" d="M54.9312 29.3828C53.8834 30.2909 52.7757 30.8017 51.7811 30.8017C50.3643 30.8017 49.5954 29.9505 49.5954 28.5884C49.5954 27.1137 50.4185 26.0347 53.7129 26.0347H54.9307L54.9312 29.3828ZM57.8233 32.6455V22.5452C57.8233 19.9638 56.3511 18.2603 52.8023 18.2603C50.7318 18.2603 48.9167 18.7717 47.441 19.4233L47.8658 21.2123C49.0283 20.7854 50.5311 20.3897 52.0063 20.3897C54.0508 20.3897 54.9307 21.2123 54.9307 22.9153V24.1924H53.909C48.9428 24.1924 46.7018 26.1191 46.7018 29.0158C46.7018 31.5117 48.1786 32.9306 50.9585 32.9306C52.7455 32.9306 54.0805 32.193 55.3269 31.1135L55.5536 32.6455H57.8233ZM67.4757 32.6455H63.8695L59.5273 18.5173H62.6774L65.3724 27.1992L65.9723 29.8077C67.3318 26.0347 68.2967 22.2043 68.7794 18.5173H71.8425C71.0224 23.1692 69.5452 28.2767 67.4757 32.6455ZM81.3152 29.3828C80.2643 30.2909 79.1566 30.8017 78.1641 30.8017C76.7472 30.8017 75.9794 29.9505 75.9794 28.5884C75.9794 27.1137 76.803 26.0347 80.0954 26.0347H81.3152V29.3828ZM84.2083 32.6455V22.5452C84.2083 19.9638 82.7315 18.2603 79.1863 18.2603C77.1137 18.2603 75.2991 18.7717 73.8234 19.4233L74.2483 21.2123C75.4107 20.7854 76.9167 20.3897 78.3924 20.3897C80.4337 20.3897 81.3147 21.2123 81.3147 22.9153V24.1924H80.293C75.3263 24.1924 73.0868 26.1191 73.0868 29.0158C73.0868 31.5117 74.5605 32.9306 77.341 32.9306C79.1295 32.9306 80.4624 32.193 81.7119 31.1135L81.9397 32.6455H84.2083ZM43.5308 35.0462C42.7066 36.2506 41.3737 37.2042 39.9164 37.7422L38.4883 36.0602C39.5985 35.4905 40.5496 34.5707 40.9924 33.7148C41.3737 32.9521 41.5329 31.9714 41.5329 29.6239V13.4922H44.6067V29.4012C44.6067 32.5411 44.3559 33.81 43.5308 35.0462Z" fill="#CA3132"/>
<path fill-rule="evenodd" clip-rule="evenodd" d="M54.9312 29.3828C53.8834 30.2909 52.7757 30.8017 51.7811 30.8017C50.3643 30.8017 49.5954 29.9505 49.5954 28.5884C49.5954 27.1137 50.4185 26.0347 53.7129 26.0347H54.9307L54.9312 29.3828ZM57.8233 32.6455V22.5452C57.8233 19.9638 56.3511 18.2603 52.8023 18.2603C50.7318 18.2603 48.9167 18.7717 47.441 19.4233L47.8658 21.2123C49.0283 20.7854 50.5311 20.3897 52.0063 20.3897C54.0508 20.3897 54.9307 21.2123 54.9307 22.9153V24.1924H53.909C48.9428 24.1924 46.7018 26.1191 46.7018 29.0158C46.7018 31.5117 48.1786 32.9306 50.9585 32.9306C52.7455 32.9306 54.0805 32.193 55.3269 31.1135L55.5536 32.6455H57.8233ZM67.4757 32.6455H63.8695L59.5273 18.5173H62.6774L65.3724 27.1992L65.9723 29.8077C67.3318 26.0347 68.2967 22.2043 68.7794 18.5173H71.8425C71.0224 23.1692 69.5452 28.2767 67.4757 32.6455ZM81.3152 29.3828C80.2643 30.2909 79.1566 30.8017 78.1641 30.8017C76.7472 30.8017 75.9794 29.9505 75.9794 28.5884C75.9794 27.1137 76.803 26.0347 80.0954 26.0347H81.3152V29.3828ZM84.2083 32.6455V22.5452C84.2083 19.9638 82.7315 18.2603 79.1863 18.2603C77.1137 18.2603 75.2991 18.7717 73.8234 19.4233L74.2483 21.2123C75.4107 20.7854 76.9167 20.3897 78.3924 20.3897C80.4337 20.3897 81.3147 21.2123 81.3147 22.9153V24.1924H80.293C75.3263 24.1924 73.0868 26.1191 73.0868 29.0158C73.0868 31.5117 74.5605 32.9306 77.341 32.9306C79.1295 32.9306 80.4624 32.193 81.7119 31.1135L81.9397 32.6455H84.2083ZM43.5308 35.0462C42.7066 36.2506 41.3737 37.2042 39.9164 37.7422L38.4883 36.0602C39.5985 35.4905 40.5496 34.5707 40.9924 33.7148C41.3737 32.9521 41.5329 31.9714 41.5329 29.6239V13.4922H44.6067V29.4012C44.6067 32.5411 44.3559 33.81 43.5308 35.0462Z" fill="white"/>
</svg>
