<svg width="97" height="40" viewBox="0 0 97 40" fill="none" xmlns="http://www.w3.org/2000/svg">
<path fill-rule="evenodd" clip-rule="evenodd" d="M17.4689 31.0014C17.4689 31.0014 15.9775 31.8692 18.5314 32.1624C21.6262 32.5158 23.207 32.4649 26.6163 31.82C26.6163 31.82 27.5139 32.382 28.7669 32.8682C21.1218 36.1441 11.4649 32.6787 17.4689 31.0014ZM16.5344 26.7266C16.5344 26.7266 14.8613 27.9649 17.4174 28.2293C20.7234 28.5707 23.333 28.5985 27.8514 27.7291C27.8514 27.7291 28.4753 28.3624 29.4571 28.7084C20.2152 31.4115 9.92203 28.9212 16.5344 26.7266Z" fill="#3174B9"/>
<path fill-rule="evenodd" clip-rule="evenodd" d="M17.4689 31.0014C17.4689 31.0014 15.9775 31.8692 18.5314 32.1624C21.6262 32.5158 23.207 32.4649 26.6163 31.82C26.6163 31.82 27.5139 32.382 28.7669 32.8682C21.1218 36.1441 11.4649 32.6787 17.4689 31.0014ZM16.5344 26.7266C16.5344 26.7266 14.8613 27.9649 17.4174 28.2293C20.7234 28.5707 23.333 28.5985 27.8514 27.7291C27.8514 27.7291 28.4753 28.3624 29.4571 28.7084C20.2152 31.4115 9.92203 28.9212 16.5344 26.7266Z" fill="white"/>
<path fill-rule="evenodd" clip-rule="evenodd" d="M24.407 19.4754C26.2916 21.6447 23.913 23.5958 23.913 23.5958C23.913 23.5958 28.6961 21.1271 26.4993 18.0346C24.4482 15.1519 22.8748 13.7199 31.3912 8.78125C31.3912 8.78125 18.0227 12.1187 24.407 19.4754Z" fill="#CA3132"/>
<path fill-rule="evenodd" clip-rule="evenodd" d="M24.407 19.4754C26.2916 21.6447 23.913 23.5958 23.913 23.5958C23.913 23.5958 28.6961 21.1271 26.4993 18.0346C24.4482 15.1519 22.8748 13.7199 31.3912 8.78125C31.3912 8.78125 18.0227 12.1187 24.407 19.4754Z" fill="white"/>
<path fill-rule="evenodd" clip-rule="evenodd" d="M34.5168 34.1632C34.5168 34.1632 35.6207 35.0735 33.3007 35.7773C28.8892 37.1135 14.936 37.5165 11.0602 35.8305C9.66795 35.2241 12.2801 34.3835 13.1019 34.206C13.959 34.0207 14.4482 34.0544 14.4482 34.0544C12.8988 32.9634 4.4336 36.1972 10.149 37.1249C25.7338 39.6518 38.5587 35.9873 34.5168 34.1632ZM18.1834 22.2964C18.1834 22.2964 11.0868 23.9825 15.6707 24.5954C17.6068 24.8542 21.4635 24.7946 25.0587 24.493C27.9961 24.2465 30.9445 23.7191 30.9445 23.7191C30.9445 23.7191 29.9095 24.1632 29.1597 24.6744C21.9519 26.5703 8.03017 25.6873 12.0385 23.7493C15.4274 22.1099 18.1834 22.2964 18.1834 22.2964ZM30.915 29.4122C38.2413 25.606 34.854 21.9476 32.489 22.4406C31.9108 22.5614 31.6513 22.6657 31.6513 22.6657C31.6513 22.6657 31.867 22.3282 32.2771 22.1831C36.955 20.5391 40.5519 27.0329 30.7689 29.6046C30.7686 29.6046 30.8813 29.5029 30.915 29.4122Z" fill="#3174B9"/>
<path fill-rule="evenodd" clip-rule="evenodd" d="M34.5168 34.1632C34.5168 34.1632 35.6207 35.0735 33.3007 35.7773C28.8892 37.1135 14.936 37.5165 11.0602 35.8305C9.66795 35.2241 12.2801 34.3835 13.1019 34.206C13.959 34.0207 14.4482 34.0544 14.4482 34.0544C12.8988 32.9634 4.4336 36.1972 10.149 37.1249C25.7338 39.6518 38.5587 35.9873 34.5168 34.1632ZM18.1834 22.2964C18.1834 22.2964 11.0868 23.9825 15.6707 24.5954C17.6068 24.8542 21.4635 24.7946 25.0587 24.493C27.9961 24.2465 30.9445 23.7191 30.9445 23.7191C30.9445 23.7191 29.9095 24.1632 29.1597 24.6744C21.9519 26.5703 8.03017 25.6873 12.0385 23.7493C15.4274 22.1099 18.1834 22.2964 18.1834 22.2964ZM30.915 29.4122C38.2413 25.606 34.854 21.9476 32.489 22.4406C31.9108 22.5614 31.6513 22.6657 31.6513 22.6657C31.6513 22.6657 31.867 22.3282 32.2771 22.1831C36.955 20.5391 40.5519 27.0329 30.7689 29.6046C30.7686 29.6046 30.8813 29.5029 30.915 29.4122Z" fill="white"/>
<path fill-rule="evenodd" clip-rule="evenodd" d="M26.4992 0.802734C26.4992 0.802734 30.5558 4.86187 22.6506 11.1017C16.311 16.109 21.2053 18.9631 22.6487 22.2254C18.9475 18.8867 16.2327 15.947 18.0538 13.2118C20.7275 9.19667 28.136 7.24954 26.4992 0.802734Z" fill="#CA3132"/>
<path fill-rule="evenodd" clip-rule="evenodd" d="M26.4992 0.802734C26.4992 0.802734 30.5558 4.86187 22.6506 11.1017C16.311 16.109 21.2053 18.9631 22.6487 22.2254C18.9475 18.8867 16.2327 15.947 18.0538 13.2118C20.7275 9.19667 28.136 7.24954 26.4992 0.802734Z" fill="white"/>
<path fill-rule="evenodd" clip-rule="evenodd" d="M18.9035 39.7298C25.9347 40.1794 36.7341 39.4801 36.9903 36.1523C36.9903 36.1523 36.4986 37.4137 31.1788 38.4143C25.1767 39.5442 17.7727 39.4127 13.3828 38.6881C13.3828 38.6881 14.2824 39.4324 18.9035 39.7298Z" fill="#3174B9"/>
<path fill-rule="evenodd" clip-rule="evenodd" d="M18.9035 39.7298C25.9347 40.1794 36.7341 39.4801 36.9903 36.1523C36.9903 36.1523 36.4986 37.4137 31.1788 38.4143C25.1767 39.5442 17.7727 39.4127 13.3828 38.6881C13.3828 38.6881 14.2824 39.4324 18.9035 39.7298Z" fill="white"/>
<path fill-rule="evenodd" clip-rule="evenodd" d="M63.1226 30.1855C62.0748 31.0936 60.9671 31.6044 59.9725 31.6044C58.5557 31.6044 57.7868 30.7532 57.7868 29.3911C57.7868 27.9164 58.6099 26.8374 61.9043 26.8374H63.1221L63.1226 30.1855ZM66.0147 33.4482V23.3479C66.0147 20.7665 64.5425 19.063 60.9937 19.063C58.9232 19.063 57.1081 19.5744 55.6324 20.226L56.0572 22.015C57.2197 21.5881 58.7225 21.1924 60.1977 21.1924C62.2422 21.1924 63.1221 22.015 63.1221 23.718V24.9951H62.1004C57.1342 24.9951 54.8932 26.9218 54.8932 29.8185C54.8932 32.3144 56.37 33.7333 59.1499 33.7333C60.9369 33.7333 62.2719 32.9957 63.5183 31.9162L63.745 33.4482H66.0147ZM75.6671 33.4482H72.0609L67.7187 19.32H70.8688L73.5638 28.0019L74.1637 30.6104C75.5232 26.8374 76.4881 23.007 76.9708 19.32H80.0339C79.2138 23.9719 77.7366 29.0794 75.6671 33.4482ZM89.5066 30.1855C88.4557 31.0936 87.348 31.6044 86.3555 31.6044C84.9386 31.6044 84.1708 30.7532 84.1708 29.3911C84.1708 27.9164 84.9944 26.8374 88.2868 26.8374H89.5066V30.1855ZM92.3997 33.4482V23.3479C92.3997 20.7665 90.9229 19.063 87.3777 19.063C85.3051 19.063 83.4905 19.5744 82.0148 20.226L82.4397 22.015C83.6021 21.5881 85.1081 21.1924 86.5838 21.1924C88.6251 21.1924 89.5061 22.015 89.5061 23.718V24.9951H88.4844C83.5177 24.9951 81.2782 26.9218 81.2782 29.8185C81.2782 32.3144 82.7519 33.7333 85.5324 33.7333C87.3209 33.7333 88.6538 32.9957 89.9033 31.9162L90.1311 33.4482H92.3997ZM51.7222 35.8489C50.898 37.0533 49.5651 38.0069 48.1078 38.5449L46.6797 36.8629C47.7899 36.2932 48.741 35.3734 49.1838 34.5175C49.5651 33.7548 49.7243 32.7741 49.7243 30.4266V14.2949H52.7981V30.2039C52.7981 33.3438 52.5473 34.6127 51.7222 35.8489Z" fill="#CA3132"/>
<path fill-rule="evenodd" clip-rule="evenodd" d="M63.1226 30.1855C62.0748 31.0936 60.9671 31.6044 59.9725 31.6044C58.5557 31.6044 57.7868 30.7532 57.7868 29.3911C57.7868 27.9164 58.6099 26.8374 61.9043 26.8374H63.1221L63.1226 30.1855ZM66.0147 33.4482V23.3479C66.0147 20.7665 64.5425 19.063 60.9937 19.063C58.9232 19.063 57.1081 19.5744 55.6324 20.226L56.0572 22.015C57.2197 21.5881 58.7225 21.1924 60.1977 21.1924C62.2422 21.1924 63.1221 22.015 63.1221 23.718V24.9951H62.1004C57.1342 24.9951 54.8932 26.9218 54.8932 29.8185C54.8932 32.3144 56.37 33.7333 59.1499 33.7333C60.9369 33.7333 62.2719 32.9957 63.5183 31.9162L63.745 33.4482H66.0147ZM75.6671 33.4482H72.0609L67.7187 19.32H70.8688L73.5638 28.0019L74.1637 30.6104C75.5232 26.8374 76.4881 23.007 76.9708 19.32H80.0339C79.2138 23.9719 77.7366 29.0794 75.6671 33.4482ZM89.5066 30.1855C88.4557 31.0936 87.348 31.6044 86.3555 31.6044C84.9386 31.6044 84.1708 30.7532 84.1708 29.3911C84.1708 27.9164 84.9944 26.8374 88.2868 26.8374H89.5066V30.1855ZM92.3997 33.4482V23.3479C92.3997 20.7665 90.9229 19.063 87.3777 19.063C85.3051 19.063 83.4905 19.5744 82.0148 20.226L82.4397 22.015C83.6021 21.5881 85.1081 21.1924 86.5838 21.1924C88.6251 21.1924 89.5061 22.015 89.5061 23.718V24.9951H88.4844C83.5177 24.9951 81.2782 26.9218 81.2782 29.8185C81.2782 32.3144 82.7519 33.7333 85.5324 33.7333C87.3209 33.7333 88.6538 32.9957 89.9033 31.9162L90.1311 33.4482H92.3997ZM51.7222 35.8489C50.898 37.0533 49.5651 38.0069 48.1078 38.5449L46.6797 36.8629C47.7899 36.2932 48.741 35.3734 49.1838 34.5175C49.5651 33.7548 49.7243 32.7741 49.7243 30.4266V14.2949H52.7981V30.2039C52.7981 33.3438 52.5473 34.6127 51.7222 35.8489Z" fill="white"/>
</svg>
