<svg width="111" height="28" viewBox="0 0 111 28" fill="none" xmlns="http://www.w3.org/2000/svg">
<path d="M18.6334 4.68588H13.7678V19.721H11.7953V4.68588H6.92969V2.88867H18.5896V4.68588H18.6334Z" fill="white"/>
<path d="M27.9703 7.70978L22.4471 21.6491C21.439 24.1476 20.0801 25.375 18.2829 25.375C17.8007 25.375 17.3624 25.3312 17.0117 25.2435V23.534C17.4062 23.6655 17.8007 23.7531 18.1514 23.7531C19.1157 23.7531 19.8609 23.1833 20.3431 21.9998L21.3075 19.7204L16.6172 7.70978H18.7651L22.0088 16.9588C22.0526 17.0903 22.1403 17.3972 22.2718 17.8793H22.3595C22.4033 17.704 22.491 17.3972 22.5787 17.0026L25.9977 7.70978H27.9703ZM31.214 18.0108H31.1702V25.2873H29.2415V7.75362H31.1702V9.85766H31.214C32.1784 8.27962 33.5372 7.44677 35.3783 7.44677C36.9125 7.44677 38.1398 7.97279 39.0165 9.06865C39.8932 10.1645 40.3315 11.5672 40.3315 13.4082C40.3315 15.4246 39.8494 17.0465 38.885 18.23C37.9207 19.4135 36.5618 20.0272 34.8523 20.0272C33.2742 20.0272 32.0907 19.3697 31.214 18.0108ZM31.1702 13.1452V14.8109C31.1702 15.8191 31.477 16.652 32.1345 17.3533C32.792 18.0547 33.5811 18.4053 34.5893 18.4053C35.7728 18.4053 36.6495 17.967 37.3508 17.0465C38.0522 16.126 38.359 14.8986 38.359 13.3206C38.359 11.9617 38.0522 10.9535 37.4385 10.1645C36.8248 9.41932 35.9919 9.02481 34.9399 9.02481C33.8002 9.02481 32.9235 9.41931 32.2222 10.2083C31.5208 10.9973 31.1702 11.9617 31.1702 13.1452ZM52.2106 14.1973H43.7068C43.7506 15.5561 44.1013 16.5643 44.8026 17.3095C45.504 18.0547 46.4245 18.4053 47.6519 18.4053C49.0107 18.4053 50.2381 17.967 51.3778 17.0465V18.8437C50.3258 19.6327 48.9231 19.9834 47.1697 19.9834C45.4602 19.9834 44.1451 19.4574 43.1808 18.3615C42.2164 17.2657 41.7342 15.7315 41.7342 13.7589C41.7342 11.874 42.2603 10.3837 43.3123 9.20015C44.3643 8.01662 45.6793 7.44677 47.2574 7.44677C48.8354 7.44677 50.0628 7.97278 50.8956 8.98097C51.7723 9.98916 52.1668 11.3919 52.1668 13.2329V14.1973H52.2106ZM50.2381 12.5754C50.2381 11.4795 49.9751 10.6028 49.4491 9.98916C48.9231 9.37548 48.1779 9.06865 47.2574 9.06865C46.3368 9.06865 45.5917 9.37548 44.9341 10.033C44.3205 10.6905 43.926 11.5234 43.7506 12.5754H50.2381ZM53.2627 19.1505V17.8355C54.49 18.6245 55.6735 18.9752 56.9447 18.9752C58.2598 18.9752 59.268 18.7122 59.9255 18.1423C60.6268 17.6163 60.9337 16.8273 60.9337 15.863C60.9337 14.9863 60.7145 14.3288 60.2323 13.8027C59.794 13.2767 58.7858 12.5754 57.2516 11.6987C55.542 10.6905 54.4462 9.85766 54.0078 9.20015C53.5695 8.54263 53.3065 7.75362 53.3065 6.87693C53.3065 5.69341 53.7887 4.68521 54.7092 3.85236C55.6297 3.0195 56.8571 2.625 58.3913 2.625C59.3995 2.625 60.4076 2.80034 61.4158 3.15102V4.37837C60.4076 3.94003 59.3556 3.72086 58.2598 3.72086C57.1201 3.72086 56.1996 4.0277 55.542 4.59754C54.8845 5.16739 54.5339 5.91257 54.5339 6.78926C54.5339 7.66594 54.753 8.32346 55.2352 8.84948C55.6735 9.37549 56.6817 10.033 58.2159 10.9097C59.794 11.7864 60.846 12.5754 61.372 13.2767C61.898 13.9781 62.161 14.7671 62.161 15.6876C62.161 16.9588 61.7227 18.0108 60.8022 18.8437C59.9255 19.6765 58.6543 20.071 56.9886 20.071C56.4187 20.071 55.7612 19.9834 54.9722 19.8081C54.2709 19.5889 53.701 19.3697 53.2627 19.1505ZM72.3306 19.1944C71.4539 19.7204 70.358 20.0272 69.1307 20.0272C67.5088 20.0272 66.1938 19.4574 65.1856 18.3615C64.1774 17.2218 63.6952 15.7753 63.6952 13.9342C63.6952 12.0055 64.2651 10.4713 65.4048 9.24398C66.5445 8.01662 67.991 7.40294 69.7444 7.40294C70.6649 7.40294 71.5416 7.57828 72.4183 7.97279V9.20015C71.5416 8.67413 70.621 8.41113 69.569 8.41113C68.1663 8.41113 67.0266 8.93714 66.1499 9.94533C65.2733 10.9535 64.8349 12.2686 64.8349 13.8904C64.8349 15.4685 65.2294 16.6958 66.0184 17.6602C66.8075 18.6245 67.8595 19.0629 69.1745 19.0629C70.358 19.0629 71.4101 18.756 72.3306 18.0985V19.1944ZM79.6071 8.84948C79.2564 8.58647 78.8181 8.45496 78.3359 8.45496C77.3715 8.45496 76.5825 8.93714 75.9688 9.9015C75.3113 10.8659 75.0045 12.2685 75.0045 14.0658V19.7204H73.9525V7.70978H75.0045V10.3837H75.0483C75.3113 9.46316 75.7497 8.7618 76.3633 8.23579C76.977 7.70977 77.6345 7.49061 78.4235 7.49061C78.8619 7.49061 79.2564 7.57828 79.6071 7.70978V8.84948ZM81.4481 4.68522C81.2289 4.68522 81.0098 4.59755 80.8344 4.42221C80.6591 4.24687 80.5714 4.0277 80.5714 3.76469C80.5714 3.50169 80.6591 3.28252 80.8344 3.15102C81.0098 2.97568 81.2289 2.93185 81.4481 2.93185C81.7111 2.93185 81.8865 3.01951 82.1056 3.15102C82.281 3.32635 82.3686 3.50169 82.3686 3.76469C82.3686 4.0277 82.281 4.24687 82.1056 4.42221C81.8865 4.59755 81.7111 4.68522 81.4481 4.68522ZM80.9221 19.7642V7.75362H82.018V19.7642H80.9221ZM85.7877 17.6163H85.7439V25.2873H84.648V7.75362H85.7439V10.2522H85.7877C86.2261 9.37548 86.8397 8.67414 87.6288 8.19196C88.4178 7.70978 89.2945 7.49061 90.2588 7.49061C91.793 7.49061 92.9765 8.01662 93.8532 9.06865C94.7299 10.1207 95.1244 11.5672 95.1244 13.3644C95.1244 15.3808 94.6422 17.0027 93.634 18.23C92.6697 19.4574 91.3547 20.071 89.7328 20.071C87.9794 20.0272 86.6644 19.2382 85.7877 17.6163ZM85.7439 13.1452V14.6794C85.7439 15.9068 86.1384 16.915 86.8836 17.7917C87.6288 18.6684 88.6369 19.1067 89.8643 19.1067C91.0917 19.1067 92.0999 18.5807 92.845 17.5287C93.5902 16.4766 93.9847 15.0739 93.9847 13.3644C93.9847 11.874 93.6341 10.6467 92.9327 9.76999C92.2314 8.8933 91.267 8.45496 90.1273 8.45496C88.7246 8.45496 87.6288 8.93714 86.8836 9.85766C86.1384 10.7782 85.7439 11.874 85.7439 13.1452ZM101.831 19.5889C101.261 19.8519 100.735 19.9834 100.253 19.9834C98.4558 19.9834 97.5791 18.9314 97.5791 16.7835V8.71797H95.4313V7.70978H97.5791V4.59754C97.7545 4.55371 97.9298 4.46604 98.1052 4.42221C98.2805 4.37837 98.4558 4.29071 98.6312 4.24687V7.75362H101.787V8.7618H98.6312V16.6958C98.6312 17.5287 98.7627 18.1423 99.0257 18.493C99.2887 18.8437 99.727 19.0629 100.341 19.0629C100.779 19.0629 101.261 18.9314 101.787 18.6245V19.5889H101.831Z" fill="white"/>
</svg>
