<svg preserveAspectRatio="none" width="100%" height="100%" overflow="visible" style="display: block;" viewBox="0 0 84.2083 39.0496" fill="none" xmlns="http://www.w3.org/2000/svg">
<g id="Group">
<g id="Vector">
<path fill-rule="evenodd" clip-rule="evenodd" d="M9.2775 30.1987C9.2775 30.1987 7.78613 31.0665 10.34 31.3597C13.4348 31.7131 15.0156 31.6622 18.4249 31.0173C18.4249 31.0173 19.3225 31.5793 20.5755 32.0655C12.9304 35.3414 3.2735 31.876 9.2775 30.1987ZM8.34297 25.9238C8.34297 25.9238 6.66988 27.1622 9.22599 27.4265C12.532 27.7679 15.1416 27.7958 19.66 26.9264C19.66 26.9264 20.2839 27.5597 21.2657 27.9056C12.0238 30.6088 1.73063 28.1184 8.34297 25.9238Z" fill="var(--fill-0, #3174B9)"/>
<path fill-rule="evenodd" clip-rule="evenodd" d="M9.2775 30.1987C9.2775 30.1987 7.78613 31.0665 10.34 31.3597C13.4348 31.7131 15.0156 31.6622 18.4249 31.0173C18.4249 31.0173 19.3225 31.5793 20.5755 32.0655C12.9304 35.3414 3.2735 31.876 9.2775 30.1987ZM8.34297 25.9238C8.34297 25.9238 6.66988 27.1622 9.22599 27.4265C12.532 27.7679 15.1416 27.7958 19.66 26.9264C19.66 26.9264 20.2839 27.5597 21.2657 27.9056C12.0238 30.6088 1.73063 28.1184 8.34297 25.9238Z" fill="var(--fill-1, white)"/>
</g>
<g id="Vector_2">
<path fill-rule="evenodd" clip-rule="evenodd" d="M16.2156 18.6727C18.1002 20.842 15.7216 22.793 15.7216 22.793C15.7216 22.793 20.5047 20.3244 18.3079 17.2318C16.2568 14.3492 14.6834 12.9171 23.1998 7.97852C23.1998 7.97852 9.83132 11.3159 16.2156 18.6727Z" fill="var(--fill-0, #CA3132)"/>
<path fill-rule="evenodd" clip-rule="evenodd" d="M16.2156 18.6727C18.1002 20.842 15.7216 22.793 15.7216 22.793C15.7216 22.793 20.5047 20.3244 18.3079 17.2318C16.2568 14.3492 14.6834 12.9171 23.1998 7.97852C23.1998 7.97852 9.83132 11.3159 16.2156 18.6727Z" fill="var(--fill-1, white)"/>
</g>
<g id="Vector_3">
<path fill-rule="evenodd" clip-rule="evenodd" d="M26.3254 33.3605C26.3254 33.3605 27.4293 34.2707 25.1093 34.9746C20.6978 36.3108 6.74458 36.7138 2.86878 35.0277C1.47654 34.4213 4.0887 33.5808 4.9105 33.4032C5.76761 33.218 6.25674 33.2516 6.25674 33.2516C4.7074 32.1607 -3.75781 35.3944 1.95758 36.3222C17.5424 38.8491 30.3673 35.1845 26.3254 33.3605ZM9.99196 21.4937C9.99196 21.4937 2.89535 23.1798 7.47925 23.7926C9.41537 24.0514 13.272 23.9918 16.8673 23.6903C19.8047 23.4438 22.7531 22.9164 22.7531 22.9164C22.7531 22.9164 21.7181 23.3605 20.9682 23.8717C13.7605 25.7676 -0.161236 24.8846 3.84705 22.9465C7.23598 21.3071 9.99196 21.4937 9.99196 21.4937ZM22.7236 28.6094C30.0499 24.8033 26.6626 21.1448 24.2976 21.6379C23.7194 21.7587 23.4599 21.863 23.4599 21.863C23.4599 21.863 23.6756 21.5255 24.0857 21.3803C28.7636 19.7364 32.3605 26.2302 22.5775 28.8018C22.5772 28.8018 22.6899 28.7001 22.7236 28.6094Z" fill="var(--fill-0, #3174B9)"/>
<path fill-rule="evenodd" clip-rule="evenodd" d="M26.3254 33.3605C26.3254 33.3605 27.4293 34.2707 25.1093 34.9746C20.6978 36.3108 6.74458 36.7138 2.86878 35.0277C1.47654 34.4213 4.0887 33.5808 4.9105 33.4032C5.76761 33.218 6.25674 33.2516 6.25674 33.2516C4.7074 32.1607 -3.75781 35.3944 1.95758 36.3222C17.5424 38.8491 30.3673 35.1845 26.3254 33.3605ZM9.99196 21.4937C9.99196 21.4937 2.89535 23.1798 7.47925 23.7926C9.41537 24.0514 13.272 23.9918 16.8673 23.6903C19.8047 23.4438 22.7531 22.9164 22.7531 22.9164C22.7531 22.9164 21.7181 23.3605 20.9682 23.8717C13.7605 25.7676 -0.161236 24.8846 3.84705 22.9465C7.23598 21.3071 9.99196 21.4937 9.99196 21.4937ZM22.7236 28.6094C30.0499 24.8033 26.6626 21.1448 24.2976 21.6379C23.7194 21.7587 23.4599 21.863 23.4599 21.863C23.4599 21.863 23.6756 21.5255 24.0857 21.3803C28.7636 19.7364 32.3605 26.2302 22.5775 28.8018C22.5772 28.8018 22.6899 28.7001 22.7236 28.6094Z" fill="var(--fill-1, white)"/>
</g>
<g id="Vector_4">
<path fill-rule="evenodd" clip-rule="evenodd" d="M18.3078 0C18.3078 0 22.3644 4.05914 14.4592 10.299C8.11964 15.3062 13.0139 18.1604 14.4573 21.4226C10.7561 18.0839 8.04124 15.1443 9.86237 12.409C12.5361 8.39394 19.9446 6.44681 18.3078 0Z" fill="var(--fill-0, #CA3132)"/>
<path fill-rule="evenodd" clip-rule="evenodd" d="M18.3078 0C18.3078 0 22.3644 4.05914 14.4592 10.299C8.11964 15.3062 13.0139 18.1604 14.4573 21.4226C10.7561 18.0839 8.04124 15.1443 9.86237 12.409C12.5361 8.39394 19.9446 6.44681 18.3078 0Z" fill="var(--fill-1, white)"/>
</g>
<g id="Vector_5">
<path fill-rule="evenodd" clip-rule="evenodd" d="M10.7121 38.9271C17.7433 39.3767 28.5427 38.6773 28.7989 35.3496C28.7989 35.3496 28.3072 36.611 22.9874 37.6116C16.9853 38.7415 9.58128 38.6099 5.19141 37.8853C5.19141 37.8853 6.09095 38.6297 10.7121 38.9271Z" fill="var(--fill-0, #3174B9)"/>
<path fill-rule="evenodd" clip-rule="evenodd" d="M10.7121 38.9271C17.7433 39.3767 28.5427 38.6773 28.7989 35.3496C28.7989 35.3496 28.3072 36.611 22.9874 37.6116C16.9853 38.7415 9.58128 38.6099 5.19141 37.8853C5.19141 37.8853 6.09095 38.6297 10.7121 38.9271Z" fill="var(--fill-1, white)"/>
</g>
<g id="Vector_6">
<path fill-rule="evenodd" clip-rule="evenodd" d="M54.9312 29.3828C53.8834 30.2908 52.7757 30.8017 51.7811 30.8017C50.3643 30.8017 49.5954 29.9505 49.5954 28.5884C49.5954 27.1137 50.4185 26.0346 53.7129 26.0346H54.9307L54.9312 29.3828ZM57.8233 32.6455V22.5452C57.8233 19.9638 56.3511 18.2603 52.8023 18.2603C50.7318 18.2603 48.9167 18.7717 47.4409 19.4233L47.8658 21.2123C49.0283 20.7854 50.5311 20.3897 52.0063 20.3897C54.0508 20.3897 54.9307 21.2123 54.9307 22.9153V24.1924H53.909C48.9428 24.1924 46.7018 26.1191 46.7018 29.0158C46.7018 31.5117 48.1786 32.9306 50.9585 32.9306C52.7455 32.9306 54.0805 32.193 55.3269 31.1134L55.5536 32.6455H57.8233ZM67.4757 32.6455H63.8695L59.5273 18.5172H62.6774L65.3724 27.1991L65.9723 29.8076C67.3318 26.0346 68.2967 22.2043 68.7794 18.5172H71.8425C71.0224 23.1692 69.5452 28.2766 67.4757 32.6455ZM81.3152 29.3828C80.2643 30.2908 79.1566 30.8017 78.1641 30.8017C76.7472 30.8017 75.9794 29.9505 75.9794 28.5884C75.9794 27.1137 76.803 26.0346 80.0954 26.0346H81.3152V29.3828ZM84.2083 32.6455V22.5452C84.2083 19.9638 82.7315 18.2603 79.1863 18.2603C77.1137 18.2603 75.2991 18.7717 73.8234 19.4233L74.2483 21.2123C75.4107 20.7854 76.9167 20.3897 78.3924 20.3897C80.4337 20.3897 81.3147 21.2123 81.3147 22.9153V24.1924H80.293C75.3263 24.1924 73.0868 26.1191 73.0868 29.0158C73.0868 31.5117 74.5605 32.9306 77.341 32.9306C79.1295 32.9306 80.4624 32.193 81.7119 31.1134L81.9397 32.6455H84.2083ZM43.5307 35.0462C42.7066 36.2506 41.3737 37.2042 39.9164 37.7422L38.4883 36.0602C39.5985 35.4905 40.5496 34.5706 40.9924 33.7148C41.3737 32.9521 41.5329 31.9713 41.5329 29.6239V13.4922H44.6067V29.4012C44.6067 32.541 44.3559 33.81 43.5307 35.0462Z" fill="var(--fill-0, #CA3132)"/>
<path fill-rule="evenodd" clip-rule="evenodd" d="M54.9312 29.3828C53.8834 30.2908 52.7757 30.8017 51.7811 30.8017C50.3643 30.8017 49.5954 29.9505 49.5954 28.5884C49.5954 27.1137 50.4185 26.0346 53.7129 26.0346H54.9307L54.9312 29.3828ZM57.8233 32.6455V22.5452C57.8233 19.9638 56.3511 18.2603 52.8023 18.2603C50.7318 18.2603 48.9167 18.7717 47.4409 19.4233L47.8658 21.2123C49.0283 20.7854 50.5311 20.3897 52.0063 20.3897C54.0508 20.3897 54.9307 21.2123 54.9307 22.9153V24.1924H53.909C48.9428 24.1924 46.7018 26.1191 46.7018 29.0158C46.7018 31.5117 48.1786 32.9306 50.9585 32.9306C52.7455 32.9306 54.0805 32.193 55.3269 31.1134L55.5536 32.6455H57.8233ZM67.4757 32.6455H63.8695L59.5273 18.5172H62.6774L65.3724 27.1991L65.9723 29.8076C67.3318 26.0346 68.2967 22.2043 68.7794 18.5172H71.8425C71.0224 23.1692 69.5452 28.2766 67.4757 32.6455ZM81.3152 29.3828C80.2643 30.2908 79.1566 30.8017 78.1641 30.8017C76.7472 30.8017 75.9794 29.9505 75.9794 28.5884C75.9794 27.1137 76.803 26.0346 80.0954 26.0346H81.3152V29.3828ZM84.2083 32.6455V22.5452C84.2083 19.9638 82.7315 18.2603 79.1863 18.2603C77.1137 18.2603 75.2991 18.7717 73.8234 19.4233L74.2483 21.2123C75.4107 20.7854 76.9167 20.3897 78.3924 20.3897C80.4337 20.3897 81.3147 21.2123 81.3147 22.9153V24.1924H80.293C75.3263 24.1924 73.0868 26.1191 73.0868 29.0158C73.0868 31.5117 74.5605 32.9306 77.341 32.9306C79.1295 32.9306 80.4624 32.193 81.7119 31.1134L81.9397 32.6455H84.2083ZM43.5307 35.0462C42.7066 36.2506 41.3737 37.2042 39.9164 37.7422L38.4883 36.0602C39.5985 35.4905 40.5496 34.5706 40.9924 33.7148C41.3737 32.9521 41.5329 31.9713 41.5329 29.6239V13.4922H44.6067V29.4012C44.6067 32.541 44.3559 33.81 43.5307 35.0462Z" fill="var(--fill-1, white)"/>
</g>
</g>
</svg>
