<svg preserveAspectRatio="none" width="100%" height="100%" overflow="visible" style="display: block;" viewBox="0 0 112 28" fill="none" xmlns="http://www.w3.org/2000/svg">
<g id="svg2" clip-path="url(#clip0_0_24)">
<path id="path46" d="M42.3959 14.2601C42.3959 10.8446 41.422 9.09117 39.4743 8.99515C38.6992 8.95858 37.9425 9.08203 37.2064 9.3678C36.6189 9.57812 36.2234 9.78616 36.0153 9.99649V18.1489C37.2613 18.9307 38.3678 19.2942 39.3325 19.2371C41.374 19.1022 42.3959 17.4447 42.3959 14.2601ZM44.7987 14.4019C44.7987 16.1371 44.3918 17.5773 43.5733 18.7227C42.6611 20.0189 41.3969 20.6865 39.7806 20.7231C38.5621 20.7619 37.307 20.3802 36.0153 19.58V26.9894L33.9258 26.2441V9.79759C34.2687 9.37694 34.7099 9.01573 35.2449 8.70939C36.4885 7.98468 37.9997 7.61204 39.7783 7.59375L39.808 7.62347C41.4335 7.60289 42.6863 8.27045 43.5665 9.62384C44.3872 10.8652 44.7987 12.4564 44.7987 14.4019Z" fill="var(--fill-0, white)"/>
<path id="path48" d="M57.569 19.2645C57.569 21.5918 57.3358 23.2035 56.8694 24.0997C56.4007 24.9959 55.5091 25.7114 54.1923 26.2441C53.1247 26.6648 51.9702 26.8934 50.7311 26.9322L50.3859 25.6154C51.6456 25.444 52.5326 25.2725 53.047 25.101C54.0597 24.7581 54.7547 24.2323 55.1365 23.5282C55.4428 22.9544 55.5937 21.8593 55.5937 20.2384V19.6943C54.1649 20.3436 52.6675 20.6659 51.1015 20.6659C50.0727 20.6659 49.1651 20.3436 48.3832 19.6943C47.5053 18.9879 47.0664 18.0917 47.0664 17.0058V8.30931L49.1559 7.59375V16.3474C49.1559 17.2824 49.4577 18.0026 50.0613 18.5078C50.6648 19.013 51.4467 19.2554 52.4046 19.2371C53.3624 19.2165 54.3889 18.8462 55.4794 18.1214V7.90924H57.569V19.2645Z" fill="var(--fill-0, white)"/>
<path id="path50" d="M65.7256 20.6093C65.4764 20.6298 65.2478 20.639 65.0375 20.639C63.8556 20.639 62.9342 20.3578 62.2758 19.7931C61.6197 19.2284 61.2905 18.4488 61.2905 17.4544V9.22425H59.8594V7.90972H61.2905V4.41878L63.3777 3.67578V7.90972H65.7256V9.22425H63.3777V17.3972C63.3777 18.1814 63.5881 18.7369 64.0087 19.0615C64.3699 19.329 64.9438 19.4822 65.7256 19.5211V20.6093Z" fill="var(--fill-0, white)"/>
<path id="path52" d="M78.3746 20.4375H76.285V12.3719C76.285 11.5512 76.093 10.8448 75.7112 10.255C75.27 9.58742 74.6573 9.25364 73.8709 9.25364C72.913 9.25364 71.715 9.75888 70.277 10.7694V20.4375H68.1875V1.15841L70.277 0.5V9.28108C71.6121 8.30947 73.0707 7.82252 74.655 7.82252C75.7615 7.82252 76.6577 8.19516 77.3435 8.93816C78.0316 9.68115 78.3746 10.607 78.3746 11.7135V20.4375Z" fill="var(--fill-0, white)"/>
<path id="path54" d="M89.4826 13.9309C89.4826 12.6187 89.2334 11.5351 88.7373 10.6778C88.1475 9.63299 87.2308 9.08203 85.9917 9.02488C83.7009 9.15747 82.5579 10.7989 82.5579 13.9447C82.5579 15.3872 82.7956 16.592 83.2757 17.5591C83.8884 18.7913 84.8074 19.3994 86.0328 19.3788C88.3327 19.3605 89.4826 17.5453 89.4826 13.9309ZM91.771 13.9447C91.771 15.8124 91.2932 17.367 90.3399 18.6084C89.2906 19.9984 87.8412 20.6956 85.9917 20.6956C84.1582 20.6956 82.7293 19.9984 81.6983 18.6084C80.7633 17.367 80.2969 15.8124 80.2969 13.9447C80.2969 12.1889 80.8021 10.7121 81.8126 9.50954C82.8802 8.23387 84.2839 7.59375 86.0191 7.59375C87.7543 7.59375 89.1671 8.23387 90.2553 9.50954C91.2658 10.7121 91.771 12.1889 91.771 13.9447Z" fill="var(--fill-0, white)"/>
<path id="path56" d="M103.751 20.4373H101.661V11.9146C101.661 10.9795 101.38 10.2503 100.818 9.72443C100.255 9.20091 99.5055 8.94715 98.5705 8.96772C97.5783 8.98601 96.6341 9.31064 95.738 9.93933V20.4373H93.6484V9.681C94.8509 8.80541 95.9574 8.23387 96.9679 7.96639C97.9212 7.7172 98.7625 7.59375 99.4873 7.59375C99.9833 7.59375 100.45 7.64176 100.889 7.73778C101.709 7.92753 102.377 8.27959 102.891 8.79626C103.465 9.3678 103.751 10.0536 103.751 10.8561V20.4373Z" fill="var(--fill-0, white)"/>
<g id="path1948">
<path d="M13.287 1.23635C12.212 1.24134 11.1853 1.33303 10.2819 1.49288C7.6207 1.96303 7.13753 2.94709 7.13753 4.76187V7.15864H13.4263V7.95756H7.13753H4.77741C2.94971 7.95756 1.34933 9.05611 0.848755 11.1459C0.271344 13.5413 0.245732 15.0361 0.848755 17.5373C1.29578 19.3991 2.36335 20.7257 4.19104 20.7257H6.35326V17.8525C6.35326 15.7768 8.14922 13.9458 10.2819 13.9458H16.5634C18.3119 13.9458 19.7077 12.5061 19.7077 10.7501V4.76187C19.7077 3.05758 18.27 1.77732 16.5634 1.49288C15.483 1.31305 14.3621 1.23135 13.287 1.23635ZM9.88612 3.16402C10.5357 3.16402 11.0662 3.70316 11.0662 4.36607C11.0662 5.02663 10.5357 5.56079 9.88612 5.56079C9.2342 5.56079 8.70606 5.02663 8.70606 4.36607C8.70606 3.70316 9.2342 3.16402 9.88612 3.16402Z" fill="url(#paint0_linear_0_24)"/>
<path d="M13.287 1.23635C12.212 1.24134 11.1853 1.33303 10.2819 1.49288C7.6207 1.96303 7.13753 2.94709 7.13753 4.76187V7.15864H13.4263V7.95756H7.13753H4.77741C2.94971 7.95756 1.34933 9.05611 0.848755 11.1459C0.271344 13.5413 0.245732 15.0361 0.848755 17.5373C1.29578 19.3991 2.36335 20.7257 4.19104 20.7257H6.35326V17.8525C6.35326 15.7768 8.14922 13.9458 10.2819 13.9458H16.5634C18.3119 13.9458 19.7077 12.5061 19.7077 10.7501V4.76187C19.7077 3.05758 18.27 1.77732 16.5634 1.49288C15.483 1.31305 14.3621 1.23135 13.287 1.23635ZM9.88612 3.16402C10.5357 3.16402 11.0662 3.70316 11.0662 4.36607C11.0662 5.02663 10.5357 5.56079 9.88612 5.56079C9.2342 5.56079 8.70606 5.02663 8.70606 4.36607C8.70606 3.70316 9.2342 3.16402 9.88612 3.16402Z" fill="var(--fill-1, white)"/>
</g>
<g id="path1950">
<path d="M20.4912 7.95703V10.7496C20.4912 12.9146 18.6557 14.7369 16.5625 14.7369H10.2811C8.56051 14.7369 7.13672 16.2095 7.13672 17.9326V23.9208C7.13672 25.6251 8.61872 26.6276 10.2811 27.1165C12.2718 27.7019 14.1807 27.8077 16.5625 27.1165C18.1458 26.6581 19.7069 25.7356 19.7069 23.9208V21.5241H13.4255V20.7251H19.7069H22.8513C24.679 20.7251 25.3601 19.4503 25.9957 17.5368C26.6523 15.5669 26.6243 13.6725 25.9957 11.1454C25.544 9.32592 24.6813 7.95703 22.8513 7.95703H20.4912ZM16.9583 23.1219C17.6103 23.1219 18.1384 23.6561 18.1384 24.3166C18.1384 24.9795 17.6103 25.5187 16.9583 25.5187C16.3088 25.5187 15.7783 24.9795 15.7783 24.3166C15.7783 23.6561 16.3088 23.1219 16.9583 23.1219Z" fill="url(#paint1_linear_0_24)"/>
<path d="M20.4912 7.95703V10.7496C20.4912 12.9146 18.6557 14.7369 16.5625 14.7369H10.2811C8.56051 14.7369 7.13672 16.2095 7.13672 17.9326V23.9208C7.13672 25.6251 8.61872 26.6276 10.2811 27.1165C12.2718 27.7019 14.1807 27.8077 16.5625 27.1165C18.1458 26.6581 19.7069 25.7356 19.7069 23.9208V21.5241H13.4255V20.7251H19.7069H22.8513C24.679 20.7251 25.3601 19.4503 25.9957 17.5368C26.6523 15.5669 26.6243 13.6725 25.9957 11.1454C25.544 9.32592 24.6813 7.95703 22.8513 7.95703H20.4912ZM16.9583 23.1219C17.6103 23.1219 18.1384 23.6561 18.1384 24.3166C18.1384 24.9795 17.6103 25.5187 16.9583 25.5187C16.3088 25.5187 15.7783 24.9795 15.7783 24.3166C15.7783 23.6561 16.3088 23.1219 16.9583 23.1219Z" fill="var(--fill-1, white)"/>
</g>
<path id="text3004" d="M107.821 6.04811H108.187V3.75043H109.055V3.47656H106.953V3.75043H107.821V6.04811ZM109.38 6.04811H109.693V3.94961L110.372 6.04784H110.721L111.429 3.95673V6.04811H111.77V3.47656H111.318L110.545 5.67962L109.885 3.47656H109.38V6.04811Z" fill="var(--fill-0, white)"/>
</g>
<defs>
<linearGradient id="paint0_linear_0_24" x1="0.40604" y1="1.23613" x2="14.9073" y2="13.5932" gradientUnits="userSpaceOnUse">
<stop stop-color="#5A9FD4"/>
<stop offset="1" stop-color="#306998"/>
</linearGradient>
<linearGradient id="paint1_linear_0_24" x1="16.8072" y1="24.1151" x2="11.6047" y2="16.8249" gradientUnits="userSpaceOnUse">
<stop stop-color="#FFD43B"/>
<stop offset="1" stop-color="#FFE873"/>
</linearGradient>
<clipPath id="clip0_0_24">
<rect width="112" height="28" fill="white"/>
</clipPath>
</defs>
</svg>
