<svg width="80" height="32" viewBox="0 0 80 32" fill="none" xmlns="http://www.w3.org/2000/svg">
<g clip-path="url(#clip0_9157_72)">
<path d="M3.81606 3.388C4.02406 2.4008 5.00806 1.6 6.01046 1.6H11.4601L6.92806 23.0584H1.47846C0.475264 23.0584 -0.169536 22.2584 0.039264 21.2704L3.81606 3.388ZM21.9817 3.388C22.1905 2.4008 23.1737 1.6 24.1761 1.6H29.6257L25.0937 23.0584H19.6441C18.6409 23.0584 17.9961 22.2584 18.2049 21.2704L21.9817 3.388ZM58.3137 3.388C58.5217 2.4008 59.5041 1.6 60.5081 1.6H65.9577L61.4257 23.0584H55.9753C54.9721 23.0584 54.3281 22.2584 54.5369 21.2704L58.3137 3.388ZM31.4425 1.6H36.8921C37.8953 1.6 38.5401 2.4 38.3313 3.388L34.5545 21.2704C34.3465 22.2584 33.3633 23.0584 32.3601 23.0584H26.9105L31.4425 1.6ZM67.7745 1.6H73.2241C74.2273 1.6 74.8721 2.4 74.6633 3.388L70.8857 21.2704C70.6777 22.2584 69.6953 23.0584 68.6921 23.0584H63.2417L67.7745 1.6ZM40.1481 3.388C40.3561 2.4008 41.3385 1.6 42.3417 1.6H47.7921L43.2593 23.0584H37.8097C36.8065 23.0584 36.1617 22.2584 36.3713 21.2704L40.1473 3.388H40.1481ZM49.6081 1.6H55.0585C56.0617 1.6 56.7057 2.4 56.4969 3.388L50.8321 30.212C50.6225 31.1992 49.6401 32 48.6369 32H43.1865L49.6081 1.6ZM10.2553 15.9056H17.5217L16.3889 21.2704C16.1801 22.2584 15.1969 23.0584 14.1945 23.0584H8.74406L10.2545 15.9064L10.2553 15.9056ZM35.6161 24.8472H42.8817L41.3713 32H35.9217C34.9177 32 34.2737 31.2 34.4825 30.212L35.6161 24.8472ZM55.3393 26.5104L54.4193 30.8672C54.3793 31.0544 54.3169 31.1056 54.1265 31.1056H53.7081C53.5177 31.1056 53.4761 31.0544 53.5161 30.8672L54.4361 26.5104C54.4761 26.324 54.5385 26.272 54.7289 26.272H55.1473C55.3377 26.272 55.3793 26.324 55.3393 26.5104ZM56.5489 29.4496H56.4633C56.3721 29.4496 56.3401 29.4752 56.3217 29.5656L56.0465 30.8672C56.0065 31.0544 55.9433 31.1056 55.7537 31.1056H55.3345C55.1449 31.1056 55.1033 31.0544 55.1425 30.8672L56.0625 26.5104C56.1025 26.324 56.1665 26.272 56.3561 26.272H57.2201C58.2153 26.272 58.5921 26.6264 58.4081 27.496L58.2545 28.2248C58.0705 29.0952 57.5441 29.4496 56.5489 29.4496ZM56.8017 27.2904L56.5617 28.4312C56.5417 28.5216 56.5625 28.5472 56.6545 28.5472H56.7921C57.1121 28.5472 57.2841 28.4184 57.3537 28.0896L57.4497 27.632C57.5193 27.304 57.4025 27.1744 57.0817 27.1744H56.9441C56.8529 27.1744 56.8209 27.2 56.8017 27.2904ZM59.7921 27.9928L60.4721 28.7408C60.8289 29.1272 60.8785 29.3592 60.7873 29.7912L60.7633 29.9072C60.5913 30.7192 60.1817 31.1704 59.2321 31.1704C58.2833 31.1704 58.0489 30.7904 58.2681 29.752L58.2953 29.624C58.3353 29.4368 58.3985 29.3848 58.5881 29.3848H59.0329C59.2233 29.3848 59.2649 29.4368 59.2249 29.6232L59.1649 29.9072C59.1105 30.1648 59.1937 30.268 59.4225 30.268C59.6521 30.268 59.7769 30.172 59.8265 29.94L59.8521 29.8168C59.8905 29.636 59.8697 29.5464 59.6729 29.3336L59.0329 28.644C58.6745 28.264 58.6289 28.044 58.7201 27.612L58.7497 27.4712C58.9217 26.6592 59.3313 26.2072 60.2801 26.2072C61.2297 26.2072 61.4641 26.588 61.2449 27.6256L61.2177 27.7544C61.1777 27.9416 61.1145 27.9928 60.9249 27.9928H60.4793C60.2897 27.9928 60.2481 27.9416 60.2873 27.7544L60.3473 27.4712C60.4017 27.2128 60.3193 27.1104 60.0897 27.1104C59.8609 27.1104 59.7353 27.2064 59.6865 27.4384L59.6633 27.548C59.6233 27.7352 59.6441 27.8256 59.7921 27.9928ZM63.6257 26.5104C63.6657 26.324 63.7281 26.272 63.9185 26.272H64.3369C64.5273 26.272 64.5689 26.324 64.5289 26.5104L63.8441 29.7528C63.6249 30.7904 63.2305 31.1704 62.2809 31.1704C61.3321 31.1704 61.0977 30.7904 61.3169 29.752L62.0017 26.5104C62.0417 26.324 62.1049 26.272 62.2945 26.272H62.7137C62.9033 26.272 62.9449 26.324 62.9057 26.5104L62.1881 29.9072C62.1337 30.1648 62.2233 30.268 62.4721 30.268C62.7137 30.268 62.8537 30.1648 62.9081 29.9072L63.6257 26.5104ZM66.3505 29.1336C66.3529 29.1856 66.3697 29.1976 66.4025 29.1976C66.4345 29.1976 66.4577 29.1856 66.4817 29.1336L67.6129 26.44C67.6681 26.304 67.7337 26.272 67.8977 26.272H68.5329C68.7225 26.272 68.7641 26.324 68.7249 26.5104L67.8049 30.8672C67.7649 31.0544 67.7009 31.1056 67.5113 31.1056H67.2105C67.0209 31.1056 66.9785 31.0544 67.0185 30.8672L67.4601 28.7792C67.4721 28.7216 67.4617 28.708 67.4225 28.708C67.3961 28.708 67.3665 28.7216 67.3505 28.7664L66.4369 30.8936C66.3713 31.048 66.2873 31.1056 66.0977 31.1056H65.9201C65.7233 31.1056 65.6641 31.048 65.6641 30.8936L65.6417 28.7656C65.6377 28.7208 65.6273 28.708 65.5945 28.708C65.5553 28.708 65.5393 28.7216 65.5273 28.7792L65.0865 30.8672C65.0465 31.0544 64.9841 31.1056 64.7937 31.1056H64.4929C64.3025 31.1056 64.2609 31.0544 64.3009 30.8672L65.2209 26.5104C65.2609 26.324 65.3241 26.272 65.5137 26.272H66.0577C66.2865 26.272 66.3601 26.324 66.3585 26.5496L66.3497 29.1336H66.3505ZM80.0001 1.6C80.0001 2.484 79.2881 3.2 78.4105 3.2C78.201 3.19937 77.9937 3.15748 77.8005 3.07672C77.6072 2.99596 77.4318 2.87792 77.2842 2.72934C77.1366 2.58075 77.0197 2.40454 76.9402 2.21076C76.8607 2.01699 76.8201 1.80945 76.8209 1.6C76.8209 0.716 77.5329 0 78.4105 0C79.2881 0 80.0001 0.716 80.0001 1.6Z" fill="white"/>
</g>
<defs>
<clipPath id="clip0_9157_72">
<rect width="80" height="32" fill="white"/>
</clipPath>
</defs>
</svg>
