<svg width="127" height="25" viewBox="0 0 127 25" fill="none" xmlns="http://www.w3.org/2000/svg">
<path d="M33.4113 5.50096H38.1511L35.4962 18.1013C35.0088 20.4878 34.0787 21.8537 32.6688 22.8218C31.2427 23.6498 29.6051 24.0412 27.959 23.9474C24.8241 23.9474 21.8167 22.6342 21.5167 19.4446H26.2865C26.4365 20.1951 27.1265 20.6229 28.1765 20.6229C29.5939 20.6229 30.2464 19.7674 30.5389 18.424L30.8239 17.0356H30.7189C30.3004 17.496 29.7927 17.8664 29.2267 18.1244C28.6607 18.3824 28.0483 18.5226 27.4265 18.5366C24.6666 18.5366 22.4767 16.3377 22.5217 13.1182C22.5817 9.36584 25.0266 5.1032 29.129 5.1032C29.9064 5.0508 30.6825 5.22224 31.3657 5.59728C32.0488 5.97224 32.6103 6.5352 32.9838 7.21952H33.0663L33.4113 5.50096ZM29.3389 15.0169C31.1614 15.0169 32.1738 12.9156 32.2038 11.107C32.2038 9.89872 31.7313 8.6604 30.3364 8.6604C28.4314 8.6604 27.464 10.7842 27.434 12.6078C27.434 13.8386 27.9065 15.0169 29.3014 15.0169M82.5499 15.4222C82.5499 16.2251 81.8592 16.5478 80.9518 16.5478C79.4519 16.5478 78.9496 15.7974 78.9421 14.7467H74.2248C74.1423 18.6642 77.6372 19.6322 80.7423 19.6322C84.7093 19.6322 87.282 17.9137 87.3347 14.4841C87.3347 11.7448 85.0019 10.9118 82.7074 10.379C80.9446 9.97376 80.1723 9.68104 80.1795 9.01312C80.1875 8.3452 80.9749 8.07504 81.7472 8.07504C82.7146 8.07504 83.3742 8.42024 83.4421 9.30584H88.0247C87.9719 6.03376 85.0243 5.0732 82.0246 5.0732C78.3797 5.0732 75.5372 6.73168 75.4922 9.86864C75.4922 12.3377 77.1572 13.2458 79.6694 13.8912C81.2819 14.319 82.5643 14.454 82.5499 15.4222ZM117.596 7.53472H117.513C117.309 6.79568 116.858 6.14872 116.236 5.70096C115.614 5.25328 114.858 5.03176 114.093 5.0732C112.054 5.0732 110.809 6.08632 109.631 7.61728H109.549L109.984 5.50096H105.213L102.356 19.1745H107.344L108.844 11.7974C109.188 10.1914 110.006 9.06568 111.244 9.06568C112.481 9.06568 112.646 10.0562 112.391 11.2646L110.741 19.1745H115.728L117.229 11.7974C117.573 10.0863 118.391 9.06568 119.628 9.06568C120.865 9.06568 121.031 10.0038 120.776 11.2646L119.126 19.1745H124.113L125.898 11.0469C126.648 7.61728 125.501 5.04312 122.208 5.04312C121.292 5.03936 120.39 5.26544 119.585 5.70072C118.779 6.136 118.095 6.76656 117.596 7.53472ZM0 19.1745H5.15231L9.13467 0H3.98986L0 19.1745ZM15.5094 5.09568C18.9893 5.09568 22.3117 7.00184 22.2592 11.317C22.2142 16.0375 19.0043 19.5722 14.0995 19.5722C10.7246 19.5722 7.34977 17.6961 7.40973 13.4034C7.49224 8.79552 10.6571 5.09568 15.5094 5.09568ZM14.242 16.2251C16.4394 16.2251 17.2419 13.0356 17.2419 11.1594C17.2419 9.81616 16.8294 8.5028 15.3819 8.5028C13.207 8.5028 12.4646 11.8799 12.4646 13.621C12.4646 15.0169 12.8545 16.2251 14.272 16.2251M10.8521 0L10.1021 3.8349H53.3681L54.1181 0H10.8521ZM45.6509 5.09568C49.1307 5.09568 52.4531 7.00184 52.4006 11.317C52.3556 16.0375 49.1382 19.5722 44.2334 19.5722C40.8585 19.5722 37.4836 17.6961 37.5512 13.4034C37.6561 8.79552 40.821 5.09568 45.6509 5.09568ZM44.4059 16.2251C46.6033 16.2251 47.4058 13.0356 47.4058 11.1594C47.4058 9.81616 46.9858 8.5028 45.5384 8.5028C43.3709 8.5028 42.6209 11.8799 42.6209 13.621C42.6209 15.0169 43.0109 16.2251 44.4359 16.2251M55.888 0L55.138 3.8349H60.1178L60.8678 0H55.888ZM51.8982 19.1745H56.8854L59.7428 5.50096H54.7255L51.8982 19.1745ZM67.8125 19.6322C67.0188 19.6886 66.225 19.5226 65.5202 19.1528C64.8155 18.783 64.2276 18.2239 63.8227 17.5385H63.7402L62.2403 24.4578H57.1929L61.2428 5.50096H65.9826L65.6077 7.32456C66.1026 6.65096 66.7438 6.0984 67.4829 5.7084C68.222 5.31848 69.0399 5.10128 69.875 5.0732C72.8748 5.0732 74.6373 7.64728 74.5848 10.9944C74.5173 15.2045 72.3349 19.6322 67.7825 19.6322H67.8125ZM67.6175 8.9456C65.6902 8.9456 64.5052 11.4146 64.4752 13.3134C64.4752 14.6342 64.9402 16.105 66.5226 16.105C68.585 16.105 69.4325 13.3734 69.455 11.5497C69.455 10.3114 69.095 8.9456 67.6175 8.9456ZM96.4543 17.0206H96.5366L96.1017 19.1895H100.841L103.699 5.51592H98.7192L97.1291 13.1557C96.8069 14.7392 95.8315 15.5722 94.6019 15.5722C93.3715 15.5722 93.1013 14.4165 93.3492 13.2082L94.9617 5.51592H89.9818L88.2189 13.9587C87.469 17.636 89.1791 19.6173 92.0444 19.6173C92.9438 19.6085 93.8256 19.3625 94.5995 18.9039C95.3734 18.4454 96.0138 17.7906 96.4543 17.0056V17.0206ZM123.205 24.5254L123.955 20.6904H64.8127L64.0627 24.5254H123.205Z" fill="#FAFAFA"/>
</svg>
