<svg width="143" height="32" viewBox="0 0 143 32" fill="none" xmlns="http://www.w3.org/2000/svg">
<g clip-path="url(#clip0_7390_28800)">
<path d="M41.2588 16.6416C41.2872 16.095 41.2872 15.5473 41.2588 15.0006H10.0708C10.0642 15.1368 10.0585 15.2738 10.0552 15.4109H3.52158L3.51829 15.616H0V16.0263H3.51747L3.5224 16.2314H10.0552C10.0585 16.3692 10.0634 16.5054 10.0716 16.6416H19.0256C18.9916 16.3695 18.9746 16.0954 18.9746 15.8211H32.124C32.124 16.0993 32.1076 16.3733 32.0731 16.6416H41.2588ZM41.1939 14.1801H31.9178C31.8456 13.9009 31.755 13.6268 31.6466 13.3596H19.4546C19.3469 13.6254 19.2557 13.8987 19.1834 14.1801H10.1349C10.1497 14.0431 10.1662 13.9061 10.1842 13.7698H3.65061L3.67855 13.5696H0V13.1594H3.74348L3.78128 12.9493H10.3149C10.3396 12.8123 10.3675 12.6753 10.3971 12.5391H40.9333C41.0484 13.0765 41.1363 13.6238 41.1939 14.1801ZM40.7336 11.7186H30.6825C30.4455 11.4232 30.1835 11.1487 29.8993 10.8981H21.201C20.9174 11.1491 20.6545 11.4232 20.4178 11.7186H10.5968C10.6338 11.5815 10.6732 11.4445 10.7143 11.3083H4.1807L4.25302 11.0777H0V10.6667H4.39026L4.45437 10.487H10.988C11.0373 10.3491 11.0899 10.2129 11.1441 10.0767H40.1855C40.3975 10.6101 40.5808 11.159 40.7336 11.7186ZM39.8321 9.25703H11.4975C11.5616 9.11918 11.6274 8.98297 11.6956 8.84677H5.16279L5.27867 8.62031H0V8.21005H5.50139L5.60576 8.02626H12.1394C12.2191 7.88841 12.3013 7.75138 12.3851 7.616H38.9445C39.2716 8.14277 39.5691 8.69087 39.8321 9.25703ZM10.1349 17.4622H41.1947C41.1363 18.0185 41.0484 18.5666 40.9333 19.1032H31.2455C31.3975 18.8406 31.5323 18.5666 31.6474 18.2827H19.4529C19.568 18.5666 19.702 18.8406 19.854 19.1032H10.3963C10.367 18.9668 10.3396 18.83 10.3141 18.6929H3.78128C3.7679 18.6208 3.75502 18.5486 3.74266 18.4763H0V18.0661H3.67773C3.66829 18.0016 3.65925 17.937 3.65061 17.8724H10.1842C10.166 17.7359 10.1496 17.5991 10.1349 17.4622ZM10.596 19.9237H40.7328C40.5808 20.4841 40.3975 21.0314 40.1855 21.5647H28.7356C29.152 21.3339 29.5422 21.0588 29.8993 20.7442H21.201C21.5581 21.0588 21.9483 21.3339 22.3647 21.5647H11.1441C11.0902 21.4287 11.0381 21.2919 10.988 21.1545H4.45437L4.38369 20.9567H0V20.5465H4.24726C4.22485 20.4758 4.20293 20.4049 4.18152 20.3339H10.7143C10.6732 20.1977 10.6338 20.0615 10.596 19.9237ZM11.4975 22.3852H39.8321C39.5693 22.9495 39.2729 23.4975 38.9445 24.0263H12.3851C12.3008 23.8908 12.2186 23.754 12.1386 23.616H5.60576C5.56467 23.5454 5.5244 23.4749 5.48495 23.4035H0V22.9932H5.26388L5.16279 22.7963H11.6964C11.6281 22.6605 11.5618 22.5238 11.4975 22.3861V22.3852ZM13.9055 26.0775C14.0263 26.217 14.1504 26.3532 14.277 26.4878H37.0526C37.5377 25.9718 37.9872 25.4235 38.398 24.8468H12.9316C13.0303 24.9854 13.1305 25.1225 13.2341 25.257H6.70045L6.86318 25.4663H0V25.8765H7.19931C7.25602 25.9446 7.31355 26.0111 7.3719 26.0775H13.9055ZM16.6316 28.5391C16.8313 28.681 17.0343 28.8181 17.2397 28.9493H34.0899C34.8463 28.4643 35.5595 27.9153 36.2217 27.3083H15.1087C15.2607 27.4478 15.4161 27.5848 15.5739 27.7186H9.04023C9.12899 27.7941 9.21857 27.8679 9.30897 27.9401H0V28.3504H9.83906C9.92453 28.4144 10.0116 28.4775 10.0988 28.5391H16.6324H16.6316ZM22.3984 31.0695C23.452 31.2935 24.5442 31.4109 25.6644 31.4109C28.1743 31.4109 30.5453 30.8201 32.6459 29.7698H18.6829C18.9754 29.9159 19.2721 30.0529 19.5737 30.1801H13.0401C13.1568 30.2293 13.2743 30.2777 13.3919 30.3245H0V30.7348H14.5671C16.0111 31.1746 17.5438 31.4109 19.1316 31.4109C20.2518 31.4109 21.3448 31.2935 22.3984 31.0695ZM12.9316 6.79549H38.398C37.9872 6.21876 37.5377 5.6705 37.0526 5.15446H14.277C14.1504 5.28903 14.0263 5.42523 13.9047 5.56472H7.3719L7.22725 5.73374H0V6.144H6.88866C6.82537 6.22359 6.76291 6.304 6.70128 6.38523H13.2341C13.1305 6.52062 13.0303 6.65764 12.9316 6.79549ZM15.1079 4.33395H36.2209C35.559 3.72697 34.846 3.17794 34.0899 2.69292H17.2397C17.0343 2.82503 16.8313 2.96205 16.6316 3.10318H10.0988C10.0084 3.168 9.91795 3.23282 9.8292 3.29928H0V3.70954H9.29993C9.21282 3.7801 9.12652 3.85149 9.04105 3.92369H15.5739C15.4161 4.05744 15.2607 4.19446 15.1079 4.33395ZM18.6837 1.87241H32.6467C30.4795 0.789691 28.0887 0.227733 25.6652 0.231385C24.5442 0.231385 23.452 0.349538 22.3984 0.573538C21.3245 0.3456 20.2295 0.23092 19.1316 0.231385C17.3778 0.231385 15.6922 0.520205 14.1184 1.0519H0V1.46215H19.5737C19.2728 1.58952 18.976 1.72634 18.6837 1.87241ZM91.428 0C91.9679 0 92.392 0.134564 92.7002 0.403692C93.0215 0.660513 93.1818 1.01908 93.1818 1.48185C93.1818 1.94379 93.0215 2.30892 92.7002 2.57805C92.392 2.83487 91.9679 2.96369 91.428 2.96369C90.8888 2.96369 90.4582 2.83487 90.1368 2.57805C89.8287 2.30892 89.6741 1.94379 89.6741 1.48185C89.6741 1.0199 89.8287 0.661333 90.1368 0.403692C90.4582 0.134564 90.8888 0 91.428 0ZM92.9311 4.75241V13.1225C92.9311 13.6615 93.0215 14.0275 93.2015 14.2195C93.3938 14.4123 93.7151 14.5083 94.1647 14.5083V14.912C93.8052 14.8945 93.4454 14.8816 93.0856 14.8734C92.5913 14.8476 92.0964 14.8348 91.6014 14.8349C91.1009 14.8349 90.593 14.848 90.0793 14.8734C89.6937 14.8819 89.3083 14.8948 88.923 14.912V14.5083C89.3725 14.5083 89.6873 14.4123 89.8673 14.2195C90.0596 14.0275 90.1566 13.6615 90.1566 13.1225V7.06133C90.1566 6.48451 90.0662 6.06031 89.8862 5.792C89.7194 5.50974 89.398 5.36862 88.923 5.36862V4.9641C89.3339 5.00267 89.7325 5.02154 90.1179 5.02154C90.6571 5.02154 91.1584 5.00267 91.6211 4.9641C92.0961 4.91323 92.5333 4.84267 92.9311 4.75241Z" fill="#FAFAFA"/>
<path fill-rule="evenodd" clip-rule="evenodd" d="M98.3552 6.51878V4.75304C97.9575 4.84329 97.5203 4.91386 97.0452 4.96473C96.5694 5.0033 96.0681 5.02217 95.5413 5.02217C95.1558 5.02217 94.7581 5.0033 94.3463 4.96473V5.36924C94.809 5.36924 95.1303 5.51037 95.3103 5.79263C95.4903 6.06176 95.5799 6.48514 95.5799 7.06196V16.6833C95.5799 17.1961 95.4903 17.5424 95.3103 17.7221C95.1435 17.9018 94.8476 17.9912 94.4236 17.9912V18.3957L95.4451 18.3383C95.914 18.3252 96.383 18.3187 96.8521 18.3186C97.5071 18.3186 98.1243 18.3251 98.7021 18.3374C99.293 18.3637 99.7557 18.3826 100.09 18.3949V17.9912C99.5502 17.9912 99.1261 17.8886 98.8179 17.6835C98.5097 17.4915 98.3552 17.0936 98.3552 16.4905V14.5623C98.5245 14.7034 98.7234 14.8199 98.9527 14.9126C99.3636 15.0931 99.8198 15.1826 100.321 15.1826C101.002 15.1826 101.612 15.0603 102.152 14.8166C102.701 14.5756 103.184 14.2061 103.559 13.7393C103.957 13.2519 104.259 12.6554 104.465 11.9498C104.683 11.2441 104.793 10.4236 104.793 9.48658C104.793 8.42237 104.638 7.53704 104.33 6.8314C104.022 6.11263 103.61 5.58094 103.096 5.23468C102.583 4.87549 101.969 4.68687 101.343 4.6956C100.597 4.6956 99.9422 4.8876 99.3768 5.27242C98.9322 5.57191 98.5919 5.98709 98.3552 6.5196V6.51878ZM98.3552 7.18012V14.1553C98.4621 14.2817 98.5911 14.3867 98.7407 14.4704C98.9848 14.5984 99.2609 14.6624 99.5699 14.6624C100.148 14.6624 100.604 14.4704 100.938 14.0856C101.272 13.6876 101.509 13.1362 101.651 12.4306C101.805 11.7126 101.883 10.8593 101.883 9.8714C101.883 8.76863 101.812 7.90217 101.671 7.27365C101.529 6.64514 101.336 6.19632 101.092 5.92719C100.848 5.65724 100.553 5.52268 100.205 5.52268C99.7433 5.52268 99.3193 5.70319 98.9338 6.06176C98.6437 6.34073 98.4506 6.71406 98.3552 7.18012Z" fill="#FAFAFA"/>
<path d="M109.217 4.6955C109.757 4.6955 110.226 4.76606 110.624 4.90719C111.035 5.03519 111.331 5.16401 111.511 5.29201C111.948 5.5874 112.218 5.39457 112.321 4.71437H112.725C112.7 5.07375 112.68 5.51683 112.668 6.04196C112.654 6.5556 112.648 7.24155 112.648 8.10145H112.243C112.178 7.62035 112.055 7.14879 111.877 6.69673C111.713 6.258 111.442 5.86747 111.087 5.56114C110.753 5.26575 110.316 5.11806 109.776 5.11806C109.404 5.11806 109.089 5.22801 108.832 5.44627C108.575 5.6514 108.447 5.95252 108.447 6.35047C108.447 6.73529 108.562 7.07499 108.793 7.37037C109.025 7.65263 109.32 7.92832 109.68 8.19745C110.052 8.45427 110.438 8.72996 110.836 9.02452C111.261 9.34534 111.646 9.66616 111.993 9.98699C112.325 10.2772 112.606 10.6221 112.821 11.0069C113.028 11.3786 113.13 11.8208 113.13 12.3345C113.13 12.9113 112.963 13.4176 112.629 13.8541C112.294 14.2774 111.851 14.6048 111.299 14.8354C110.759 15.0668 110.155 15.1825 109.488 15.1825C109.137 15.1864 108.788 15.1476 108.447 15.0668C108.179 15.0003 107.921 14.9034 107.676 14.778C107.509 14.7008 107.348 14.6303 107.194 14.5663C107.063 14.4943 106.928 14.4302 106.789 14.3743C106.661 14.3357 106.545 14.38 106.442 14.5088C106.353 14.6368 106.282 14.8165 106.23 15.0471H105.826C105.851 14.6368 105.871 14.1363 105.883 13.5464C105.896 12.9564 105.903 12.1737 105.903 11.1997H106.307C106.385 11.8922 106.526 12.5076 106.731 13.0459C106.937 13.5726 107.213 13.9894 107.56 14.2971C107.92 14.5925 108.369 14.7402 108.909 14.7402C109.128 14.7402 109.34 14.6951 109.545 14.6048C109.751 14.5146 109.918 14.3669 110.047 14.1618C110.188 13.9566 110.259 13.6941 110.259 13.3741C110.259 12.8087 110.072 12.3402 109.699 11.9685C109.34 11.5968 108.877 11.1923 108.312 10.7566C107.901 10.4227 107.509 10.0961 107.137 9.77529C106.791 9.45994 106.493 9.0972 106.25 8.69796C106.015 8.28812 105.895 7.82272 105.903 7.35068C105.903 6.77386 106.057 6.28647 106.365 5.88852C106.679 5.48643 107.1 5.17984 107.58 5.00319C108.101 4.79664 108.657 4.69218 109.217 4.6955ZM133.142 4.90719C132.808 4.76606 132.371 4.6955 131.831 4.6955C131.227 4.68937 130.631 4.83496 130.097 5.11888C129.57 5.38801 129.153 5.8434 128.844 6.48504V4.75375C128.446 4.84319 128.009 4.91375 127.534 4.96463C127.071 5.00319 126.57 5.02206 126.031 5.02206C125.645 5.02206 125.247 5.00319 124.836 4.96463V5.36914C125.311 5.36914 125.632 5.51027 125.799 5.79252C125.979 6.06165 126.068 6.48504 126.068 7.06186V13.123C126.068 13.6621 125.972 14.028 125.78 14.22C125.6 14.4128 125.285 14.5088 124.836 14.5088V14.9125C125.221 14.8953 125.606 14.8824 125.992 14.874C126.493 14.8486 126.994 14.8358 127.495 14.8354C127.945 14.8354 128.382 14.8485 128.805 14.874C129.242 14.8871 129.564 14.9002 129.769 14.9125V14.5088C129.436 14.5088 129.197 14.4128 129.056 14.22C128.914 14.028 128.844 13.6621 128.844 13.123V7.77406C128.844 7.35068 128.928 6.97242 129.094 6.63847C129.274 6.29222 129.505 6.02309 129.788 5.83109C130.06 5.64222 130.383 5.54137 130.714 5.54227C131.009 5.54227 131.227 5.61283 131.369 5.75396C131.523 5.88196 131.626 6.06822 131.678 6.31191C131.728 6.54247 131.754 6.81816 131.754 7.13899V13.123C131.754 13.6621 131.683 14.028 131.542 14.22C131.414 14.4128 131.176 14.5088 130.829 14.5088V14.9125C131.06 14.9002 131.401 14.8871 131.851 14.874C132.762 14.822 133.676 14.822 134.588 14.874C135.063 14.8871 135.416 14.9002 135.647 14.9125V14.5088C135.236 14.5088 134.947 14.4128 134.78 14.22C134.613 14.028 134.529 13.6621 134.529 13.123V7.8594L134.528 7.7995L134.525 7.60504C134.555 7.2834 134.641 6.96951 134.78 6.67786C134.96 6.33078 135.191 6.05509 135.474 5.84996C135.756 5.64483 136.065 5.54227 136.399 5.54227C136.733 5.54227 136.978 5.61283 137.131 5.75396C137.298 5.88196 137.407 6.06822 137.459 6.31191C137.523 6.54247 137.555 6.81816 137.555 7.13899V13.123C137.555 13.6621 137.485 14.028 137.343 14.22C137.215 14.4128 136.978 14.5088 136.63 14.5088V14.9125C136.862 14.9002 137.202 14.8871 137.651 14.874C138.107 14.8481 138.563 14.8353 139.02 14.8354C139.496 14.8354 139.977 14.8485 140.465 14.874C140.954 14.8871 141.32 14.9002 141.564 14.9125V14.5088C141.115 14.5088 140.793 14.4128 140.6 14.22C140.42 14.028 140.331 13.6621 140.331 13.123V7.94719C140.331 7.30555 140.285 6.79273 140.196 6.40791C140.105 6.00996 139.958 5.68996 139.752 5.44627C139.547 5.21488 139.277 5.03601 138.943 4.90719C138.609 4.76606 138.172 4.6955 137.633 4.6955C136.978 4.6955 136.36 4.83006 135.783 5.09919C135.229 5.3634 134.78 5.86719 134.436 6.61057C134.424 6.54265 134.41 6.47507 134.395 6.40791C134.305 6.00996 134.157 5.68996 133.952 5.44627C133.746 5.21488 133.476 5.03601 133.142 4.90719ZM123.324 12.8153V4.75293C122.925 4.84319 122.489 4.91375 122.013 4.96463C121.551 5.00319 121.049 5.02206 120.51 5.02206C120.124 5.02206 119.726 5.00319 119.315 4.96463V5.36914C119.79 5.36914 120.112 5.51027 120.279 5.79252C120.459 6.06165 120.548 6.48504 120.548 7.06186V12.1031C120.548 12.5265 120.459 12.9113 120.279 13.2575C120.126 13.5746 119.893 13.8466 119.604 14.0469C119.334 14.2395 119.01 14.3407 118.678 14.3357C118.358 14.3357 118.114 14.2709 117.946 14.1429C117.773 13.9916 117.652 13.7898 117.599 13.5661C117.545 13.2872 117.519 13.0034 117.522 12.7193V4.75293C117.124 4.84319 116.687 4.91375 116.212 4.96463C115.749 5.00319 115.248 5.02206 114.709 5.02206C114.324 5.02206 113.925 5.00319 113.514 4.96463V5.36914C113.989 5.36914 114.31 5.51027 114.477 5.79252C114.657 6.06165 114.747 6.48504 114.747 7.06186V11.93C114.747 12.5585 114.792 13.0721 114.882 13.4692C114.972 13.8672 115.126 14.188 115.344 14.4317C115.537 14.65 115.8 14.8297 116.135 14.9708C116.469 15.1111 116.906 15.1825 117.446 15.1825C118.114 15.1825 118.717 15.0471 119.257 14.778C119.809 14.4957 120.24 14.0338 120.548 13.3929V15.1242C120.979 15.0184 121.417 14.9476 121.859 14.9125C122.322 14.874 122.822 14.8551 123.362 14.8551C123.761 14.8551 124.159 14.874 124.557 14.9125V14.5088C124.094 14.5088 123.773 14.3743 123.593 14.1043C123.413 13.8221 123.324 13.3929 123.324 12.8161V12.8153Z" fill="#FAFAFA"/>
<path fill-rule="evenodd" clip-rule="evenodd" d="M86.0432 5.21561C85.3365 4.86936 84.5138 4.69623 83.5761 4.69623C82.6638 4.69623 81.8478 4.86936 81.1287 5.21561C80.4219 5.56187 79.863 6.11982 79.4521 6.88946C79.0535 7.6591 78.8538 8.679 78.8538 9.94915C78.8538 11.2193 79.0535 12.2384 79.4513 13.0088C79.8622 13.7654 80.421 14.3167 81.1278 14.663C81.8478 15.0093 82.6638 15.1832 83.5761 15.1832C84.5138 15.1832 85.3365 15.0093 86.0432 14.663C86.7492 14.3167 87.3023 13.7654 87.7001 13.0088C88.0987 12.2392 88.2976 11.2193 88.2976 9.94915C88.2976 8.679 88.0987 7.65992 87.7001 6.88946C87.3023 6.11982 86.7492 5.56187 86.0432 5.21561ZM82.285 6.23551C82.6318 5.46587 83.0624 5.08105 83.5761 5.08105C84.1029 5.08105 84.5335 5.46587 84.8672 6.23551C85.214 6.99202 85.3874 8.23018 85.3874 9.94915C85.3874 11.6681 85.214 12.9063 84.8672 13.6628C84.5335 14.4193 84.1029 14.7984 83.5761 14.7984C83.0624 14.7984 82.6318 14.4193 82.285 13.6628C81.9382 12.9063 81.7647 11.6681 81.7647 9.94915C81.7647 8.23018 81.9373 6.99202 82.285 6.23551ZM72.5692 18.5309C71.772 18.5309 71.0595 18.4603 70.4299 18.3192C69.8136 18.1912 69.3254 17.9861 68.9654 17.7038C68.6186 17.4339 68.4452 17.1007 68.4452 16.7028C68.4452 16.3048 68.6244 15.9463 68.9843 15.6255C69.3443 15.3178 69.8777 15.0741 70.5845 14.8944L70.757 15.2021C70.5364 15.3675 70.3528 15.5771 70.2179 15.8175C70.1152 16.0488 70.0634 16.286 70.0634 16.5297C70.0634 17.0687 70.3075 17.479 70.7965 17.7604C71.2978 18.0558 71.9717 18.2035 72.8199 18.2035C73.3976 18.2035 73.9121 18.1264 74.3616 17.9729C74.8243 17.8187 75.1835 17.5873 75.4407 17.2804C75.7111 16.9719 75.8459 16.5937 75.8459 16.1448C75.8459 15.76 75.7045 15.4326 75.4218 15.1635C75.1391 14.9067 74.5737 14.7787 73.7255 14.7787H72.5306C72.0046 14.7787 71.5411 14.7213 71.1433 14.6056C70.757 14.4907 70.4554 14.3102 70.2368 14.0665C70.019 13.8105 69.9097 13.4897 69.9097 13.1048C69.9097 12.5658 70.1218 12.0915 70.5458 11.6804C70.8778 11.3588 71.3364 11.0527 71.9216 10.7631C71.5369 10.7153 71.159 10.6231 70.7957 10.4882C70.2179 10.27 69.7618 9.93602 69.4281 9.4872C69.0936 9.03838 68.9268 8.46156 68.9268 7.75592C68.9268 7.05028 69.0936 6.47264 69.4281 6.02382C69.7618 5.56187 70.2179 5.22792 70.7965 5.02279C71.3742 4.80536 72.0292 4.69623 72.7615 4.69623C73.4946 4.69623 74.1496 4.80536 74.7273 5.02361C75.1087 5.15818 75.4358 5.34936 75.7111 5.59551C75.8746 5.36002 76.0735 5.14997 76.3077 4.96536C76.745 4.63223 77.2142 4.46484 77.7147 4.46484C78.1256 4.46484 78.4347 4.58054 78.6401 4.81192C78.8587 5.02936 78.968 5.31818 78.968 5.67756C78.968 6.06238 78.8645 6.35038 78.659 6.5432C78.4536 6.72372 78.2226 6.81315 77.9654 6.81315C77.7392 6.81016 77.5211 6.72831 77.349 6.58177C77.1682 6.42751 77.0663 6.19695 77.0408 5.88925C77.0186 5.61356 77.0959 5.27223 77.2726 4.86361C76.8978 5.02279 76.6085 5.20413 76.4047 5.40843C76.2511 5.55634 76.1168 5.72315 76.0053 5.90484C76.0365 5.94341 76.0669 5.98361 76.0957 6.02382C76.4302 6.47264 76.597 7.04946 76.597 7.7551C76.597 8.46074 76.4302 9.03838 76.0957 9.4872C75.762 9.93602 75.3059 10.27 74.7273 10.4882C74.1496 10.7057 73.4946 10.8148 72.7615 10.8148C72.6519 10.8149 72.5423 10.8124 72.4328 10.8074C72.2594 10.9247 72.0925 11.0495 71.9331 11.1807C71.8341 11.2581 71.7546 11.3575 71.7011 11.4711C71.6476 11.5847 71.6215 11.7092 71.6249 11.8347C71.6249 12.2449 71.8821 12.4501 72.3958 12.4501H74.4964C75.2032 12.4501 75.8327 12.5338 76.385 12.7003C76.9504 12.8677 77.3934 13.1434 77.7147 13.5282C78.0492 13.8999 78.216 14.3873 78.216 14.9904C78.216 15.6189 78.0106 16.2023 77.5997 16.7414C77.2011 17.2804 76.5847 17.7096 75.7489 18.0304C74.9139 18.3643 73.8537 18.5309 72.5692 18.5309ZM72.7615 10.4685C73.1091 10.4685 73.3779 10.2765 73.571 9.89172C73.7641 9.49377 73.8603 8.78156 73.8603 7.75592C73.8603 6.72946 73.7641 6.02382 73.571 5.639C73.3787 5.24105 73.1091 5.04248 72.7623 5.04248C72.4278 5.04248 72.1583 5.24105 71.9528 5.639C71.7597 6.02382 71.6635 6.72946 71.6635 7.75592C71.6635 8.78156 71.7597 9.49377 71.9528 9.89172C72.1583 10.2765 72.4278 10.4685 72.7615 10.4685ZM65.9501 5.21561C65.2433 4.86936 64.4215 4.69623 63.4838 4.69623C62.5715 4.69623 61.7554 4.86936 61.0363 5.21561C60.3295 5.56187 59.7707 6.11982 59.3598 6.88946C58.9612 7.6591 58.7615 8.679 58.7615 9.94915C58.7615 11.2193 58.9612 12.2384 59.3589 13.0088C59.7699 13.7654 60.3287 14.3167 61.0355 14.663C61.7554 15.0093 62.5715 15.1832 63.4838 15.1832C64.4215 15.1832 65.2441 15.0093 65.9501 14.663C66.6569 14.3167 67.2092 13.7654 67.6078 13.0088C68.0063 12.2392 68.2052 11.2193 68.2052 9.94915C68.2052 8.679 68.0063 7.65992 67.6078 6.88946C67.21 6.11982 66.6569 5.56187 65.9501 5.21561ZM62.1918 6.23551C62.5395 5.46587 62.9693 5.08105 63.4838 5.08105C64.0097 5.08105 64.4404 5.46587 64.7741 6.23551C65.1217 6.99202 65.2951 8.23018 65.2951 9.94915C65.2951 11.6681 65.1217 12.9063 64.7749 13.6628C64.4404 14.4193 64.0106 14.7984 63.4838 14.7984C62.9693 14.7984 62.5387 14.4193 62.1918 13.6628C61.845 12.9063 61.6716 11.6681 61.6716 9.94915C61.6716 8.23018 61.845 6.99202 62.1918 6.23551Z" fill="#FAFAFA"/>
<path d="M53.5708 1.28906V1.6747C53.1344 1.68701 52.7999 1.73788 52.569 1.82814C52.4632 1.86387 52.3677 1.92451 52.2905 2.00492C52.2132 2.08534 52.1565 2.18315 52.1252 2.29009C52.0487 2.50752 52.0101 2.8546 52.0101 3.32886V13.1036C52.0101 13.5008 52.0356 13.7961 52.0874 13.989C52.1515 14.181 52.2673 14.309 52.4342 14.3738C52.6142 14.4378 52.878 14.4698 53.224 14.4698H54.1691C54.6047 14.4698 55.0164 14.3672 55.4018 14.1621C55.7881 13.957 56.1341 13.6681 56.4423 13.2956C56.7673 12.8819 57.0275 12.4213 57.214 11.9295C57.4194 11.4043 57.5731 10.8201 57.6759 10.1785H58.1197C58.081 10.615 58.0621 11.1795 58.0621 11.872C58.0621 12.1674 58.0679 12.5965 58.081 13.1611C58.0942 13.7256 58.132 14.3098 58.1961 14.912C57.4578 14.8849 56.7191 14.872 55.9804 14.8735C55.1586 14.8612 54.4255 14.8546 53.7828 14.8546H52.5501C52.0487 14.8546 51.5088 14.8612 50.931 14.8735C50.3525 14.8735 49.7681 14.88 49.1772 14.8932C48.5855 14.8932 48.0266 14.8997 47.5007 14.912V14.5272C47.9116 14.5018 48.2198 14.4501 48.4252 14.3738C48.6307 14.2967 48.7655 14.1424 48.8304 13.9118C48.9068 13.6804 48.9455 13.3342 48.9455 12.8722V3.32886C48.9455 2.85378 48.9068 2.50834 48.8304 2.29009C48.8051 2.18335 48.7528 2.08486 48.6786 2.004C48.6044 1.92313 48.5106 1.86259 48.4063 1.82814C48.2009 1.73788 47.8984 1.68701 47.5007 1.67388V1.28906C48.5152 1.32659 49.5303 1.34574 50.5456 1.3465C51.111 1.3465 51.6633 1.34075 52.2024 1.32763C52.7555 1.3145 53.2116 1.30219 53.5708 1.28906Z" fill="#FAFAFA"/>
<path fill-rule="evenodd" clip-rule="evenodd" d="M139.607 30.8113C139.58 30.6734 139.598 30.4937 139.663 30.2722L142.377 20.4531C141.942 20.6311 141.493 20.7698 141.033 20.8675C140.562 20.9602 140.022 21.0103 139.413 21.0201L139.316 21.3106C139.769 21.3106 140.05 21.3844 140.161 21.5321C140.272 21.6798 140.285 21.9095 140.202 22.223L139.56 24.6427C139.519 24.5259 139.45 24.4214 139.358 24.3391C139.201 24.1914 138.984 24.1175 138.707 24.1175C138.153 24.1175 137.64 24.2423 137.169 24.4909C136.695 24.7493 136.269 25.0861 135.908 25.487C135.529 25.8932 135.208 26.3493 134.953 26.8425C134.701 27.3224 134.501 27.8277 134.357 28.3497C134.225 28.7994 134.156 29.2648 134.149 29.7331C134.149 30.1754 134.219 30.5397 134.357 30.8252C134.496 31.1017 134.685 31.3093 134.925 31.4472C135.165 31.5768 135.433 31.6408 135.728 31.6408C136.18 31.6408 136.587 31.5079 136.947 31.2404C137.307 30.9639 137.644 30.5397 137.959 29.9678C138.09 29.7348 138.223 29.473 138.354 29.1826L138.263 29.5255C138.18 29.7957 138.124 30.0736 138.097 30.3551C138.079 30.5947 138.097 30.7981 138.153 30.9639C138.263 31.4152 138.605 31.6416 139.178 31.6416C139.39 31.6416 139.607 31.5998 139.829 31.5169C140.05 31.434 140.258 31.2913 140.451 31.0878C140.655 30.8851 140.816 30.5955 140.936 30.2164L141.269 29.2072H141.006L140.784 29.8291C140.618 30.3001 140.461 30.6176 140.313 30.7834C140.175 30.9409 140.032 31.0189 139.884 31.0189C139.727 31.0189 139.635 30.9499 139.607 30.8113ZM138.868 27.2503C138.763 27.5875 138.65 27.9083 138.527 28.2111C138.296 28.8018 138.051 29.3089 137.792 29.7331C137.543 30.1475 137.298 30.4699 137.058 30.7013C136.818 30.922 136.605 31.0328 136.421 31.0328C136.245 31.0328 136.116 30.9499 136.033 30.7842C135.959 30.6086 135.922 30.346 135.922 29.9957C135.922 29.4976 135.977 28.9906 136.088 28.4745C136.199 27.9493 136.351 27.4464 136.545 26.9672C136.724 26.5175 136.947 26.0865 137.21 25.6806C137.46 25.2933 137.723 24.9889 138 24.7674C138.286 24.5458 138.568 24.4359 138.845 24.4359C139.03 24.4359 139.178 24.5007 139.289 24.6295C139.366 24.7132 139.425 24.8347 139.466 24.9955L138.868 27.2503Z" fill="#FAFAFA"/>
<path d="M130.389 31.4468H128.685L130.347 25.4866C130.431 25.2101 130.458 25.0165 130.431 24.9057C130.403 24.795 130.32 24.74 130.181 24.74C130.006 24.74 129.844 24.8278 129.696 25.0025C129.548 25.1773 129.396 25.4866 129.239 25.9297L129.003 26.5787H128.74L129.1 25.5416C129.23 25.1724 129.391 24.8877 129.585 24.6842C129.779 24.4725 129.992 24.3248 130.223 24.2419C130.454 24.1591 130.689 24.1172 130.929 24.1172C131.225 24.1172 131.442 24.1771 131.58 24.2977C131.728 24.4175 131.82 24.5742 131.857 24.7679C131.904 24.9766 131.913 25.1919 131.885 25.4038C131.867 25.6253 131.83 25.8419 131.774 26.0536L131.551 26.9209L131.608 26.7732C131.867 26.1184 132.116 25.5974 132.356 25.2101C132.605 24.8138 132.868 24.5324 133.145 24.3666C133.417 24.202 133.728 24.1156 134.046 24.1172C134.378 24.1172 134.632 24.214 134.808 24.4077C134.993 24.6013 135.085 24.8409 135.085 25.1273C135.085 25.357 135.029 25.5744 134.919 25.7771C134.811 25.9673 134.659 26.1286 134.475 26.2473C134.3 26.358 134.097 26.413 133.866 26.413C133.635 26.413 133.45 26.3531 133.311 26.2333C133.182 26.1135 133.117 25.9379 133.117 25.7082C133.117 25.5047 133.164 25.3209 133.256 25.1543C133.345 24.9922 133.468 24.8509 133.616 24.74C133.764 24.6202 133.926 24.5373 134.101 24.4905C134.082 24.4715 134.058 24.4575 134.032 24.4495C134.001 24.4397 133.968 24.435 133.935 24.4356C133.732 24.4356 133.524 24.5094 133.311 24.6571C133.099 24.795 132.877 25.0214 132.646 25.3348C132.416 25.6483 132.18 26.0626 131.94 26.5787C131.67 27.189 131.429 27.8123 131.22 28.4462C131.115 28.7531 131.01 29.083 130.905 29.4366L130.389 31.4468Z" fill="#FAFAFA"/>
<path fill-rule="evenodd" clip-rule="evenodd" d="M125.213 29.3106L125.155 29.5255C125.067 29.8378 125.007 30.1571 124.975 30.4798C124.947 30.7752 124.993 31.0238 125.113 31.2265C125.298 31.503 125.612 31.6416 126.055 31.6416C126.267 31.6416 126.479 31.5998 126.692 31.5169C126.913 31.434 127.121 31.2913 127.315 31.0878C127.509 30.8761 127.671 30.5807 127.8 30.2033L128.147 29.194H127.883L127.675 29.816C127.509 30.2952 127.348 30.6135 127.191 30.7703C127.034 30.9261 126.881 31.0049 126.733 31.0049C126.613 31.0049 126.535 30.968 126.498 30.8941C126.469 30.8002 126.46 30.7014 126.47 30.6037C126.488 30.4864 126.516 30.3709 126.553 30.2583L128.341 24.1175C128.063 24.1839 127.78 24.2303 127.495 24.2562C127.209 24.2841 126.9 24.3022 126.567 24.3112L126.367 25.0513C126.358 24.8634 126.304 24.6804 126.207 24.5188C126.135 24.3927 126.03 24.2887 125.903 24.218C125.776 24.1473 125.632 24.1126 125.487 24.1175C125.081 24.1175 124.675 24.2423 124.268 24.4909C123.836 24.7621 123.448 25.0981 123.118 25.487C122.745 25.9111 122.42 26.3747 122.148 26.8695C121.876 27.3658 121.658 27.8898 121.497 28.4326C121.346 28.921 121.267 29.4287 121.262 29.9399C121.262 30.4568 121.382 30.8712 121.622 31.1846C121.862 31.489 122.231 31.6408 122.73 31.6408C123.081 31.6408 123.418 31.5399 123.742 31.3372C124.074 31.1337 124.388 30.7973 124.684 30.328C124.867 30.0449 125.043 29.706 125.213 29.3106ZM124.019 30.7145C123.806 30.9081 123.617 31.0049 123.451 31.0049C123.312 31.0049 123.206 30.936 123.132 30.7973C123.067 30.6496 123.035 30.4059 123.035 30.0646C123.035 29.5756 123.09 29.0734 123.201 28.5573C123.312 28.0404 123.46 27.5432 123.645 27.064C123.839 26.584 124.051 26.1557 124.282 25.7774C124.513 25.4 124.744 25.0997 124.975 24.8781C125.215 24.6566 125.441 24.5467 125.653 24.5467C125.875 24.5467 126.032 24.6574 126.124 24.8781C126.216 25.0784 126.24 25.3467 126.196 25.6823L125.787 27.1936L125.833 26.9532C125.686 27.5432 125.51 28.0872 125.307 28.5852C125.13 29.0305 124.917 29.4605 124.67 29.871C124.448 30.2304 124.231 30.5118 124.019 30.7145ZM119.4 30.2722C119.335 30.4937 119.317 30.6734 119.345 30.8113C119.372 30.9499 119.465 31.0189 119.622 31.0189C119.77 31.0189 119.913 30.9409 120.051 30.7842C120.199 30.6176 120.356 30.3001 120.522 29.8291L120.744 29.2072H121.007L120.675 30.2164C120.555 30.5947 120.393 30.8851 120.19 31.0878C120.017 31.2763 119.804 31.423 119.566 31.5169C119.358 31.5974 119.138 31.6397 118.915 31.6416C118.343 31.6416 118.001 31.4152 117.89 30.9639C117.832 30.7666 117.813 30.5597 117.835 30.3551C117.853 30.1155 117.908 29.8381 118.001 29.5255L118.093 29.1826C117.96 29.473 117.828 29.7348 117.696 29.9678C117.382 30.5397 117.046 30.9639 116.686 31.2396C116.335 31.5042 115.906 31.6456 115.466 31.6416C115.171 31.6416 114.903 31.576 114.663 31.448C114.416 31.3019 114.218 31.0849 114.095 30.8252C113.956 30.5397 113.887 30.1754 113.887 29.7331C113.887 29.3089 113.956 28.847 114.095 28.3497C114.233 27.8427 114.432 27.3405 114.69 26.8425C114.946 26.3494 115.267 25.8934 115.646 25.487C116.025 25.0718 116.445 24.7403 116.907 24.4909C117.38 24.2413 117.909 24.113 118.444 24.1175C118.721 24.1175 118.938 24.1914 119.095 24.3391C119.186 24.4187 119.254 24.5196 119.298 24.6427L119.94 22.223C120.024 21.9095 120.01 21.679 119.899 21.5313C119.788 21.3836 119.506 21.3097 119.054 21.3097L119.151 21.0201C119.695 21.017 120.237 20.9659 120.772 20.8675C121.231 20.7698 121.681 20.6311 122.115 20.4531L119.4 30.2722ZM118.264 28.2111C118.388 27.9075 118.502 27.5875 118.605 27.2503L119.205 24.9955C119.176 24.8609 119.114 24.7353 119.026 24.6295C118.972 24.566 118.904 24.5155 118.827 24.482C118.75 24.4485 118.667 24.4327 118.583 24.4359C118.306 24.4359 118.024 24.5467 117.738 24.7674C117.461 24.9889 117.198 25.2933 116.949 25.6806C116.685 26.0861 116.462 26.5168 116.284 26.9664C116.087 27.4545 115.934 27.9592 115.827 28.4745C115.717 28.9742 115.662 29.4841 115.66 29.9957C115.66 30.346 115.697 30.6086 115.771 30.7834C115.854 30.9499 115.984 31.0328 116.159 31.0328C116.344 31.0328 116.556 30.922 116.796 30.7005C117.036 30.4708 117.281 30.1475 117.53 29.7323C117.818 29.2472 118.064 28.7382 118.264 28.2111Z" fill="#FAFAFA"/>
<path d="M106.259 31.4468H107.963L108.123 30.8216L108.115 30.8667C108.29 30.221 108.488 29.599 108.71 28.9992C108.926 28.4268 109.166 27.864 109.43 27.3123C109.68 26.7953 109.929 26.3441 110.179 25.9568C110.428 25.5695 110.668 25.27 110.899 25.0575C111.13 24.836 111.342 24.726 111.536 24.726C111.693 24.726 111.79 24.781 111.827 24.8918C111.865 25.0174 111.87 25.1509 111.841 25.279C111.813 25.4289 111.776 25.5769 111.73 25.7221L110.47 29.5252C110.34 29.9125 110.266 30.244 110.248 30.5205C110.229 30.797 110.28 31.0234 110.4 31.1982C110.493 31.3369 110.622 31.4427 110.788 31.5166C110.964 31.5986 111.172 31.6413 111.412 31.6413C111.633 31.6413 111.855 31.5994 112.077 31.5166C112.308 31.4427 112.52 31.3041 112.714 31.1014C112.917 30.8987 113.083 30.6033 113.212 30.2161L113.558 29.2068H113.295L113.074 29.8288C112.898 30.3088 112.732 30.6263 112.575 30.783C112.428 30.9406 112.285 31.0185 112.146 31.0185C111.998 31.0185 111.906 30.9586 111.869 30.838C111.832 30.71 111.855 30.5205 111.938 30.2719L113.295 26.2054C113.415 25.846 113.475 25.5096 113.475 25.1962C113.484 24.8737 113.397 24.6152 113.212 24.4216C113.037 24.2189 112.723 24.118 112.271 24.118C111.929 24.118 111.601 24.1919 111.287 24.3387C110.973 24.4864 110.668 24.7441 110.373 25.1133C110.077 25.4727 109.772 25.9617 109.458 26.5787C109.25 26.9949 109.059 27.4195 108.885 27.8513L109.347 26.0536C109.403 25.8321 109.444 25.6105 109.472 25.3898C109.5 25.1601 109.49 24.9516 109.444 24.767C109.4 24.5764 109.287 24.4089 109.126 24.2969C108.969 24.1771 108.738 24.1172 108.433 24.1172C108.064 24.1172 107.727 24.2189 107.422 24.4216C107.118 24.6243 106.868 24.9976 106.674 25.5416L106.314 26.5787H106.577L106.813 25.9289C106.979 25.4776 107.131 25.1683 107.27 25.0025C107.418 24.8278 107.579 24.74 107.755 24.74C107.884 24.74 107.963 24.7769 107.99 24.8507C108.027 24.9246 108.036 25.0165 108.018 25.1272C107.997 25.2485 107.969 25.3685 107.935 25.4866L106.259 31.4468Z" fill="#FAFAFA"/>
<path fill-rule="evenodd" clip-rule="evenodd" d="M102.728 29.5252L102.787 29.3102C102.639 29.6634 102.462 30.0037 102.257 30.3276C101.961 30.797 101.648 31.1342 101.315 31.3369C100.992 31.5395 100.655 31.6405 100.304 31.6405C99.805 31.6405 99.436 31.4887 99.196 31.1843C98.9552 30.8708 98.8352 30.4565 98.8352 29.9395C98.8352 29.4604 98.9141 28.9582 99.0711 28.4323C99.2313 27.8895 99.4495 27.3654 99.722 26.8692C99.9934 26.3742 100.319 25.9105 100.692 25.4866C101.022 25.0977 101.409 24.7618 101.841 24.4905C102.247 24.2419 102.654 24.1172 103.06 24.1172C103.374 24.1172 103.614 24.2509 103.781 24.5192C103.87 24.6563 103.923 24.8335 103.94 25.0509L104.141 24.3108C104.473 24.3018 104.783 24.2838 105.069 24.2559C105.365 24.228 105.646 24.182 105.914 24.1172L104.127 30.2587C104.089 30.3713 104.062 30.4868 104.044 30.6042C104.034 30.7019 104.043 30.8007 104.072 30.8946C104.109 30.9685 104.187 31.0054 104.307 31.0054C104.455 31.0054 104.607 30.9274 104.764 30.7707C104.921 30.614 105.083 30.2948 105.249 29.8165L105.457 29.1937H105.72L105.374 30.2029C105.245 30.5812 105.083 30.8757 104.889 31.0891C104.716 31.2771 104.503 31.4235 104.266 31.5174C104.063 31.5986 103.847 31.6409 103.628 31.6421C103.185 31.6421 102.871 31.5034 102.686 31.2269C102.566 31.0243 102.52 30.7756 102.548 30.4803C102.581 30.1576 102.641 29.8375 102.728 29.5252ZM101.024 31.0046C101.191 31.0046 101.38 30.9078 101.592 30.7141C101.805 30.5114 102.021 30.23 102.243 29.8706C102.464 29.5112 102.677 29.0829 102.88 28.5849C103.083 28.0868 103.259 27.5428 103.407 26.9521L103.36 27.1933L103.77 25.6827C103.813 25.3463 103.789 25.078 103.698 24.8786C103.605 24.6571 103.448 24.5463 103.226 24.5463C103.014 24.5463 102.788 24.6571 102.548 24.8778C102.317 25.0993 102.086 25.3988 101.855 25.7771C101.625 26.1545 101.412 26.5836 101.218 27.0628C101.032 27.5484 100.884 28.0477 100.775 28.5562C100.666 29.0516 100.611 29.5571 100.609 30.0643C100.609 30.4056 100.641 30.6501 100.706 30.797C100.78 30.9356 100.886 31.0046 101.024 31.0046Z" fill="#FAFAFA"/>
<path d="M99.7959 24.5902L99.8379 24.3137H98.1876L98.8401 22.0458C98.5671 22.1129 98.2893 22.1593 98.0093 22.1844C97.7233 22.2115 97.4134 22.2304 97.0814 22.2394L96.4856 24.3137H95.2249L95.1558 24.5902H96.4067L94.989 29.528C94.869 29.9334 94.8279 30.2977 94.8649 30.6201C94.9109 30.9336 95.04 31.183 95.2528 31.3668C95.4739 31.5514 95.7928 31.6441 96.2086 31.6441C96.6795 31.6441 97.0855 31.5194 97.4274 31.27C97.7693 31.0214 98.0372 30.6111 98.2312 30.0392L98.5081 29.2097H98.2443L98.0372 29.7766C97.8704 30.2378 97.6863 30.5602 97.4825 30.7448C97.2885 30.9295 97.0946 31.0214 96.9006 31.0214C96.8244 31.0239 96.7486 31.0089 96.6791 30.9776C96.6095 30.9463 96.5481 30.8995 96.4995 30.8408C96.4067 30.7219 96.3976 30.5332 96.4716 30.2747L98.1079 24.5902H99.7959ZM95.2084 21.5617C95.1164 21.8013 94.9915 22.1524 94.8345 22.6127C94.6866 23.064 94.5395 23.6548 94.3915 24.3826H94.1146C94.1417 24.2538 94.1606 24.12 94.1696 23.9822C94.1873 23.8585 94.1967 23.7338 94.1976 23.6088C94.1976 23.2486 94.1236 22.936 93.9757 22.6685C93.8336 22.388 93.6056 22.1601 93.3248 22.0179C93.0388 21.8521 92.669 21.7693 92.2169 21.7693C91.7271 21.7693 91.3113 21.8981 90.9702 22.1565C90.6283 22.4052 90.4574 22.8064 90.4574 23.3594C90.4574 23.7007 90.5355 24.024 90.6924 24.3276C90.8593 24.623 91.0672 24.9135 91.3162 25.199C91.5751 25.4755 91.8471 25.7569 92.1331 26.0425C92.4199 26.319 92.6879 26.6054 92.9369 26.8999C93.1859 27.1953 93.3897 27.5087 93.5467 27.8402C93.7127 28.1635 93.7957 28.518 93.7957 28.9053C93.7957 29.3943 93.6757 29.8136 93.4357 30.1639C93.2016 30.5081 92.894 30.7962 92.535 31.0074C92.1586 31.2222 91.7527 31.3807 91.3302 31.4776C90.9234 31.586 90.5044 31.642 90.0834 31.6441C89.6676 31.6441 89.3216 31.6113 89.0446 31.5473C88.8079 31.5028 88.5792 31.4234 88.3658 31.3118C88.1845 31.2126 88.0042 31.1114 87.825 31.0082C87.7435 30.9399 87.6494 30.8881 87.5481 30.8556C87.4835 30.8232 87.4131 30.8042 87.341 30.7998C87.2202 30.7998 87.1191 30.8597 87.0361 30.9803C86.9271 31.1605 86.8344 31.3499 86.7591 31.5465H86.4813C86.7101 30.9841 86.9001 30.4068 87.05 29.8185C87.1602 29.3943 87.2851 28.8642 87.424 28.2275H87.7009C87.6623 28.4107 87.6299 28.5951 87.604 28.7805C87.576 28.9652 87.567 29.1498 87.576 29.3344C87.604 29.9793 87.802 30.4774 88.1719 30.8277C88.5507 31.1781 89.1046 31.3528 89.8336 31.3528C90.4525 31.3528 90.9193 31.224 91.2332 30.9664C91.5471 30.6989 91.7041 30.3116 91.7041 29.8045C91.7041 29.4173 91.6302 29.0661 91.4822 28.7535C91.3426 28.4283 91.156 28.1253 90.9283 27.8542C90.6935 27.5736 90.4487 27.3016 90.1944 27.0386C89.9395 26.7756 89.6944 26.5032 89.4597 26.2222C89.2329 25.9429 89.0421 25.6364 88.8918 25.3098C88.7406 24.9606 88.6652 24.5833 88.6707 24.2029C88.6707 23.7426 88.7677 23.3414 88.9616 23C89.157 22.6671 89.4212 22.3795 89.7366 22.1565C90.0601 21.926 90.421 21.7528 90.8034 21.6445C91.1754 21.5273 91.563 21.4667 91.9531 21.4648C92.452 21.4648 92.8629 21.5247 93.1859 21.6454C93.5097 21.7643 93.7867 21.9079 94.0176 22.0737L94.2806 22.2394C94.3636 22.2763 94.4285 22.2944 94.4745 22.2944C94.6036 22.2944 94.7564 22.0507 94.9315 21.5617H95.2084Z" fill="#FAFAFA"/>
<path fill-rule="evenodd" clip-rule="evenodd" d="M81.8371 30.8113C81.8092 30.6734 81.8281 30.4937 81.893 30.2722L84.6075 20.4531C84.1729 20.6311 83.7232 20.7698 83.2638 20.8675C82.7929 20.9602 82.253 21.0103 81.6432 21.0201L81.5462 21.3106C81.9982 21.3106 82.2809 21.3844 82.391 21.5321C82.502 21.6798 82.5159 21.9095 82.4329 22.223L81.7903 24.6427C81.7499 24.5259 81.6803 24.4214 81.5881 24.3391C81.4311 24.1914 81.2142 24.1175 80.9372 24.1175C80.3825 24.1175 79.8704 24.2423 79.3995 24.4909C78.9258 24.7492 78.4995 25.0861 78.1388 25.487C77.7599 25.8932 77.4383 26.3493 77.183 26.8425C76.9315 27.3224 76.7317 27.8276 76.5872 28.3497C76.4557 28.7994 76.3857 29.2647 76.3793 29.7331C76.3793 30.1754 76.4491 30.5397 76.5872 30.8252C76.7261 31.1017 76.9151 31.3093 77.1551 31.4472C77.3951 31.5768 77.663 31.6408 77.9589 31.6408C78.4109 31.6408 78.8177 31.5079 79.1776 31.2404C79.5376 30.9639 79.8746 30.5397 80.1885 29.9678C80.32 29.7348 80.4523 29.473 80.5846 29.1826L80.4942 29.5255C80.4102 29.7956 80.3543 30.0736 80.3274 30.3551C80.3053 30.5597 80.324 30.7666 80.3825 30.9639C80.4934 31.4152 80.8345 31.6416 81.4081 31.6416C81.6201 31.6416 81.8371 31.5998 82.059 31.5169C82.2809 31.434 82.488 31.2913 82.682 31.0878C82.8858 30.8851 83.0469 30.5955 83.1668 30.2164L83.4997 29.2072H83.2367L83.0148 29.8291C82.8488 30.3001 82.6918 30.6176 82.5439 30.7834C82.405 30.9409 82.262 31.0189 82.1141 31.0189C81.9579 31.0189 81.8651 30.9499 81.8371 30.8113ZM81.0975 27.2503C80.9939 27.5875 80.8805 27.9083 80.7564 28.2111C80.5263 28.8018 80.2814 29.3089 80.0225 29.7331C79.7735 30.1475 79.5286 30.4699 79.2886 30.7013C79.0486 30.922 78.8366 31.0328 78.6508 31.0328C78.4758 31.0328 78.3468 30.9499 78.2638 30.7842C78.1898 30.6086 78.1528 30.346 78.1528 29.9957C78.1528 29.4976 78.2079 28.9906 78.3188 28.4745C78.4298 27.9493 78.5818 27.4464 78.7758 26.9672C78.9545 26.5174 79.1775 26.0864 79.4414 25.6806C79.6905 25.2933 79.9535 24.9889 80.2304 24.7674C80.5164 24.5458 80.7983 24.4359 81.0753 24.4359C81.2602 24.4359 81.4081 24.5007 81.5191 24.6295C81.5963 24.7132 81.6555 24.8347 81.6966 24.9955L81.0975 27.2503Z" fill="#FAFAFA"/>
<path d="M70.4546 31.4468H68.751L70.4275 25.4866C70.4645 25.3578 70.4916 25.238 70.5097 25.1272C70.5303 25.0345 70.5208 24.9377 70.4826 24.8507C70.4547 24.7769 70.3758 24.74 70.2467 24.74C70.0717 24.74 69.9098 24.8278 69.7618 25.0025C69.6238 25.1683 69.4709 25.4776 69.3049 25.9297L69.0699 26.5787H68.8069L69.1668 25.5416C69.3608 24.9976 69.6106 24.6243 69.9147 24.4216C70.2188 24.2189 70.5557 24.118 70.9256 24.118C71.2305 24.118 71.4614 24.1771 71.6184 24.2969C71.7793 24.4087 71.893 24.5763 71.9372 24.767C71.9833 24.9516 71.9923 25.1592 71.9652 25.3898C71.9369 25.6134 71.8952 25.835 71.8403 26.0536L71.3784 27.8522C71.574 27.3689 71.7647 26.9455 71.9512 26.5787C72.2652 25.9617 72.5692 25.4727 72.8651 25.1133C73.161 24.7441 73.465 24.4864 73.779 24.3387C74.0938 24.191 74.4208 24.1172 74.7627 24.1172C75.2147 24.1172 75.5295 24.2189 75.7046 24.4216C75.8895 24.6152 75.9774 24.8729 75.9675 25.1962C75.9675 25.5096 75.9084 25.846 75.7876 26.2054L74.4307 30.2719C74.3469 30.5205 74.3239 30.71 74.3609 30.838C74.3978 30.9586 74.4907 31.0185 74.6386 31.0185C74.7767 31.0185 74.9197 30.9406 75.0676 30.7839C75.2246 30.6263 75.3906 30.308 75.5665 29.8288L75.7884 29.2068H76.0514L75.7046 30.2161C75.5755 30.6033 75.4087 30.8987 75.2065 31.1022C75.0325 31.292 74.813 31.4345 74.5688 31.5166C74.3565 31.5979 74.1313 31.6402 73.9039 31.6413C73.6639 31.6413 73.456 31.5994 73.281 31.5166C73.1141 31.4427 72.9851 31.3361 72.893 31.1982C72.7731 31.0234 72.7221 30.797 72.7402 30.5205C72.7591 30.244 72.8331 29.9125 72.9621 29.5252L74.2228 25.7221C74.2688 25.5744 74.3058 25.4267 74.3337 25.279C74.3628 25.1509 74.358 25.0175 74.3198 24.8918C74.2828 24.781 74.1858 24.726 74.0288 24.726C73.8349 24.726 73.622 24.8368 73.3919 25.0575C73.161 25.27 72.9202 25.5695 72.6712 25.9568C72.3947 26.3931 72.145 26.8458 71.9233 27.3123C71.6743 27.8292 71.4335 28.3904 71.2025 28.9992C70.9806 29.5982 70.7834 30.221 70.6075 30.8667L70.6157 30.8216L70.4546 31.4468Z" fill="#FAFAFA"/>
<path fill-rule="evenodd" clip-rule="evenodd" d="M65.2787 29.3106L65.2212 29.5256C65.1339 29.838 65.0734 30.1573 65.0404 30.4799C65.0124 30.7753 65.0585 31.0239 65.1784 31.2265C65.3634 31.5031 65.6773 31.6417 66.1211 31.6417C66.3579 31.64 66.5919 31.59 66.8087 31.4948C67.0255 31.3996 67.2205 31.2611 67.3818 31.0879C67.5757 30.8762 67.7368 30.5808 67.8667 30.2034L68.2118 29.1941H67.9489L67.7418 29.8161C67.5749 30.2953 67.413 30.6136 67.2569 30.7703C67.0999 30.9262 66.947 31.005 66.7999 31.005C66.6791 31.005 66.601 30.9681 66.5641 30.8942C66.5352 30.8003 66.5257 30.7015 66.5361 30.6038C66.555 30.484 66.5821 30.3691 66.6199 30.2583L68.4066 24.1176C68.1287 24.184 67.8464 24.2303 67.5618 24.2563C67.275 24.2842 66.9659 24.3022 66.6331 24.3113L66.4326 25.0514C66.424 24.8635 66.3693 24.6806 66.2731 24.5189C66.201 24.3929 66.0959 24.289 65.969 24.2183C65.8422 24.1476 65.6984 24.1128 65.5532 24.1176C65.1464 24.1176 64.7396 24.2423 64.3336 24.491C63.9276 24.7404 63.5446 25.0719 63.1838 25.4871C62.8107 25.911 62.4855 26.3746 62.2141 26.8696C61.9416 27.3659 61.7234 27.8899 61.5632 28.4327C61.4121 28.9211 61.3329 29.4288 61.3281 29.94C61.3281 30.4569 61.4481 30.8713 61.6881 31.1847C61.9281 31.4891 62.2979 31.6409 62.7959 31.6409C63.1469 31.6409 63.4846 31.54 63.8068 31.3373C64.1396 31.1338 64.4544 30.7974 64.7494 30.3281C64.9327 30.045 65.1086 29.7061 65.2787 29.3106ZM64.0846 30.7145C63.8725 30.9082 63.6827 31.005 63.5167 31.005C63.3778 31.005 63.2718 30.9361 63.1978 30.7974C63.1337 30.6497 63.1008 30.406 63.1008 30.0647C63.1008 29.5757 63.1567 29.0735 63.2677 28.5574C63.3778 28.0405 63.5257 27.5433 63.7106 27.0641C63.9046 26.5841 64.1166 26.1558 64.3476 25.7775C64.5785 25.4001 64.8094 25.0998 65.0404 24.8782C65.2803 24.6567 65.5064 24.5468 65.7192 24.5468C65.9411 24.5468 66.0973 24.6575 66.1901 24.8782C66.2822 25.0784 66.3052 25.3468 66.2616 25.6823L65.8523 27.1937L65.8992 26.9533C65.7513 27.5433 65.5762 28.0873 65.3732 28.5853C65.1694 29.0825 64.9574 29.5117 64.7355 29.8711C64.5136 30.2304 64.2966 30.5119 64.0846 30.7145Z" fill="#FAFAFA"/>
<path d="M57.6232 31.4468H55.9196L57.5813 25.4866C57.6643 25.2101 57.6923 25.0165 57.6643 24.9057C57.6372 24.795 57.5542 24.74 57.4153 24.74C57.2403 24.74 57.0784 24.8278 56.9304 25.0025C56.7825 25.1773 56.6304 25.4866 56.4735 25.9297L56.2376 26.5787H55.9746L56.3346 25.5416C56.4644 25.1724 56.6255 24.8877 56.8195 24.6842C57.0134 24.4725 57.2263 24.3248 57.4572 24.2419C57.6873 24.1591 57.9232 24.1172 58.164 24.1172C58.459 24.1172 58.676 24.1771 58.8141 24.2977C58.961 24.4154 59.0598 24.5826 59.0919 24.7679C59.1379 24.9615 59.1469 25.1732 59.119 25.4038C59.1009 25.6253 59.0639 25.8419 59.008 26.0536L58.7861 26.9209L58.8083 26.861L58.842 26.7732C59.1009 26.1184 59.3499 25.5974 59.5899 25.2101C59.8397 24.8138 60.1027 24.5324 60.3797 24.3666C60.6511 24.202 60.9628 24.1156 61.2804 24.1172C61.6124 24.1172 61.8664 24.214 62.0423 24.4077C62.2263 24.6013 62.3192 24.8409 62.3192 25.1273C62.3192 25.357 62.2633 25.5744 62.1524 25.7771C62.0449 25.9672 61.8929 26.1285 61.7094 26.2473C61.5263 26.3599 61.3146 26.4175 61.0996 26.413C60.8695 26.413 60.6846 26.3531 60.5457 26.2333C60.4167 26.1135 60.3517 25.9379 60.3517 25.7082C60.3517 25.5047 60.3978 25.3209 60.4906 25.1543C60.5827 24.9886 60.7027 24.8507 60.8506 24.74C60.9985 24.6202 61.1596 24.5373 61.3355 24.4905C61.316 24.4717 61.2923 24.4576 61.2664 24.4495C61.2481 24.4433 61.229 24.4392 61.2097 24.4372C61.1961 24.4359 61.1824 24.4354 61.1686 24.4356C60.9665 24.4356 60.7577 24.5094 60.5457 24.6571C60.3337 24.795 60.1118 25.0214 59.8808 25.3348C59.6507 25.6483 59.4148 26.0626 59.174 26.5787C58.9033 27.189 58.663 27.8122 58.4541 28.4462C58.3497 28.7523 58.2445 29.083 58.1393 29.4366L57.6232 31.4468Z" fill="#FAFAFA"/>
<path fill-rule="evenodd" clip-rule="evenodd" d="M55.032 22.1682C54.5701 21.8359 53.8313 21.6702 52.8155 21.6702C52.5015 21.6702 52.1876 21.6751 51.8728 21.6841C51.5688 21.6932 51.2178 21.6981 50.8209 21.6981H50.1281C49.8782 21.6882 49.6432 21.6841 49.4213 21.6841C49.2366 21.676 49.0519 21.6667 48.8674 21.6562L48.7983 21.9328C49.1583 21.9328 49.4032 21.9787 49.5322 22.0714C49.6711 22.1535 49.7352 22.2831 49.7262 22.4587C49.7076 22.6826 49.6704 22.9047 49.6152 23.1225L47.7866 29.982C47.7045 30.3135 47.6116 30.5629 47.5097 30.7287C47.4177 30.8872 47.2696 31.0057 47.0947 31.061C46.9188 31.1159 46.6739 31.1529 46.3599 31.1709L46.3049 31.4474C46.461 31.4392 46.6509 31.4343 46.8719 31.4343C47.0938 31.4245 47.3297 31.4204 47.5787 31.4204C48.2759 31.3992 48.9735 31.4038 49.6703 31.4343C50.0492 31.4425 50.396 31.4482 50.7099 31.4482C51.3099 31.4482 51.8778 31.3875 52.4136 31.2677C52.9075 31.1559 53.3799 30.9647 53.8124 30.7016C54.1993 30.4715 54.5267 30.1539 54.7682 29.7744C55.0081 29.4052 55.1281 28.9728 55.1281 28.4747C55.1281 27.9118 54.898 27.4277 54.4361 27.0224C53.9841 26.6163 53.2675 26.3767 52.2887 26.3028C52.8994 26.2153 53.4927 26.0334 54.0474 25.7637C54.5652 25.4962 54.9712 25.1689 55.267 24.7816C55.5648 24.4139 55.7263 23.9548 55.724 23.4819C55.724 22.9289 55.4947 22.4907 55.032 22.1682ZM50.6105 26.4833L49.6843 29.982C49.6292 30.2117 49.5922 30.4152 49.5741 30.59C49.5643 30.7656 49.6103 30.8993 49.7122 30.992C49.8141 31.0839 50.0031 31.1299 50.2801 31.1299C50.9359 31.1299 51.4718 31.0052 51.8868 30.7566C52.2934 30.5178 52.6174 30.1609 52.8155 29.7334C53.0185 29.2903 53.1196 28.7922 53.1196 28.24C53.1196 27.8979 53.0596 27.5984 52.9396 27.3408C52.8339 27.079 52.6439 26.8599 52.3996 26.718C52.1506 26.5613 51.8178 26.4833 51.4019 26.4833H50.6105ZM50.6729 26.2478H51.3058C51.8317 26.2478 52.2796 26.1141 52.6486 25.8466C53.0275 25.5701 53.3143 25.2107 53.5083 24.7685C53.7103 24.3303 53.814 23.8534 53.8124 23.3711C53.8124 22.91 53.7203 22.5555 53.5354 22.3061C53.3604 22.0575 53.0505 21.9328 52.6067 21.9328C52.2846 21.9328 52.0536 21.9976 51.9147 22.1264C51.7767 22.2462 51.6567 22.5088 51.5548 22.9141L50.6729 26.2478Z" fill="#FAFAFA"/>
</g>
<defs>
<clipPath id="clip0_7390_28800">
<rect width="143" height="32" fill="white"/>
</clipPath>
</defs>
</svg>
