<svg width="84" height="28" viewBox="0 0 84 28" fill="none" xmlns="http://www.w3.org/2000/svg">
<g clip-path="url(#clip0_6845_26972)">
<path d="M8.44273 22.0321C11.2125 22.0321 13.2557 20.9651 14.459 19.5121L12.1433 17.537C11.2125 18.5586 10.0546 19.0808 8.51085 19.0808C5.37787 19.0808 3.44814 16.7197 3.44814 13.8138C3.44814 10.9078 5.37787 8.50134 8.44273 8.50134C9.873 8.50134 11.0536 9.0008 12.0071 9.99972L14.2546 8.04728C12.8244 6.3446 11.0308 5.55001 8.44273 5.55001C3.53895 5.55001 0.15625 9.25053 0.15625 13.8138C0.15625 18.3543 3.72057 22.0321 8.44273 22.0321ZM20.2439 22.0321C22.3553 22.0321 23.4223 21.1467 24.058 19.8073V21.737H27.032V9.93161H23.9899V11.7932C23.3542 10.5219 22.2872 9.68188 20.2439 9.68188C16.9974 9.68188 14.4093 12.4743 14.4093 15.8797C14.4093 19.2851 16.9974 22.0321 20.2439 22.0321ZM17.4742 15.857C17.4742 14.0181 18.7909 12.4516 20.7434 12.4516C22.7639 12.4516 24.058 14.0408 24.058 15.8797C24.058 17.7186 22.7639 19.2624 20.7434 19.2624C18.7909 19.2624 17.4742 17.6505 17.4742 15.857ZM28.853 21.737H31.9181V5.16406H28.853V21.737ZM35.3651 22.0321C36.5457 22.0321 37.3857 21.124 37.3857 20.0343C37.3857 18.9673 36.5457 18.0592 35.3651 18.0592C34.1846 18.0592 33.3219 18.9673 33.3219 20.0343C33.3219 21.124 34.1846 22.0321 35.3651 22.0321ZM43.9725 22.0321C46.2881 22.0321 47.9227 21.1921 49.0352 19.7619L46.8103 17.8321C46.1973 18.6494 45.4254 19.2397 44.2449 19.2397C42.2925 19.2397 40.953 17.6732 40.953 15.8343C40.953 13.9954 42.2244 12.4289 44.1768 12.4289C45.2211 12.4289 46.1292 12.9511 46.6741 13.7684L49.0352 11.8386C48.0362 10.4538 46.2881 9.61377 44.1314 9.63647C40.5217 9.65917 37.8881 12.4062 37.8881 15.8343C37.8881 19.2624 40.5898 22.0321 43.9725 22.0321ZM55.3284 22.0321C58.9835 22.0321 61.617 19.2624 61.617 15.857C61.617 12.4516 58.9835 9.65917 55.3284 9.65917C51.6732 9.65917 49.0397 12.4516 49.0397 15.857C49.0397 19.2624 51.6732 22.0321 55.3284 22.0321ZM52.1046 15.857C52.1046 14.0181 53.3759 12.4516 55.3284 12.4516C57.2808 12.4516 58.5521 14.0181 58.5521 15.857C58.5521 17.6959 57.2808 19.2397 55.3284 19.2397C53.3759 19.2397 52.1046 17.6959 52.1046 15.857ZM62.9739 21.737H66.0387V15.2667C66.0387 13.2235 67.1966 12.3381 68.4906 12.3381C70.0117 12.3381 71.0333 13.2235 71.0333 15.2667V21.737H74.0982V15.2667C74.0982 12.9965 75.0744 12.3381 76.5047 12.3381C77.8896 12.3381 78.8658 13.2235 78.8658 15.2667V21.737H81.9306V14.5176C81.9306 11.5435 79.9782 9.65917 77.4355 9.65917C75.3696 9.65917 74.2344 10.4538 73.4398 11.884C72.6679 10.4538 71.2604 9.65917 69.6031 9.65917C67.7868 9.65917 66.6063 10.3403 65.9933 11.657V9.93161H62.9739V21.737Z" fill="#9194A1"/>
</g>
<defs>
<clipPath id="clip0_6845_26972">
<rect width="84" height="28" fill="white"/>
</clipPath>
</defs>
</svg>
