<svg preserveAspectRatio="none" width="100%" height="100%" overflow="visible" style="display: block;" viewBox="0 0 155.825 16.8456" fill="none" xmlns="http://www.w3.org/2000/svg">
<g id="Group">
<path id="Vector" fill-rule="evenodd" clip-rule="evenodd" d="M21.0314 0L17.051 9.53831L13.0669 0H10.511L14.8778 10.427C15.2401 11.297 16.0896 11.859 17.0361 11.859C17.9827 11.859 18.8302 11.297 19.1943 10.4308L23.5873 0H21.0314ZM22.7322 14.5325L30.0134 7.17103L29.0202 4.82796L21.0669 12.8839C20.4022 13.5579 20.2118 14.5511 20.5796 15.4212C20.9455 16.2837 21.7913 16.8419 22.7341 16.8419L22.7378 16.8456L34.1058 16.8176L33.1126 14.4746L22.7341 14.5325H22.7322ZM4.09239 7.16543L5.08563 4.82236L13.0389 12.8783C13.7036 13.5505 13.8959 14.5474 13.5262 15.4156C13.1602 16.28 12.3108 16.8363 11.3717 16.8363L0.00370809 16.8102L0 16.8139L0.993243 14.4709L11.3717 14.5287L4.09239 7.16543Z" fill="var(--fill-0, #9194A1)"/>
<path id="Vector_2" d="M43.1867 15.9102L43.1886 15.9121H45.1433V9.17984H51.4574V7.43423H45.1433V3.05427H52.0884V1.30867H43.1867V15.9102Z" fill="var(--fill-0, #9194A1)"/>
<path id="Vector_3" d="M55.9495 5.36328H54.1162V15.9097H55.9495V5.36328Z" fill="var(--fill-0, #9194A1)"/>
<path id="Vector_4" d="M60.5978 6.76169H60.5997C60.5586 6.86249 60.5194 6.92409 60.3962 6.92409C60.2935 6.92409 60.2543 6.88489 60.2543 6.78409V5.36328H58.4209V15.9098H60.2506V9.92433C60.2506 7.89864 61.1896 7.10708 62.9614 7.10708H64.4288V5.32227H63.247C61.802 5.32227 61.0683 5.74794 60.5978 6.76169Z" fill="var(--fill-0, #9194A1)"/>
<path id="Vector_5" d="M70.5271 14.6363C68.5611 14.6363 67.0937 13.5199 66.9704 11.1488H75.5376V10.1332C75.5376 7.19269 73.7456 5.0625 70.484 5.0625C67.2224 5.0625 65.1445 7.19269 65.1445 10.6391C65.1445 14.0855 67.1611 16.2158 70.5233 16.2158C73.8856 16.2158 75.2674 14.1696 75.577 12.5677H73.6654C73.3687 13.7663 72.4932 14.6363 70.5271 14.6363ZM70.484 6.64011C72.422 6.64011 73.6207 7.67626 73.7047 9.62355H67.0211C67.3253 7.63335 68.7313 6.64011 70.484 6.64011Z" fill="var(--fill-0, #9194A1)"/>
<path id="Vector_6" d="M88.548 13.942C88.5033 14.1249 88.4473 14.1865 88.302 14.1865C88.156 14.1865 88.0947 14.1249 88.0553 13.942L86.0166 5.36328H82.8579L80.8192 13.942C80.7746 14.1249 80.7186 14.1865 80.5725 14.1865C80.4272 14.1865 80.3652 14.1249 80.3266 13.942L78.2871 5.36328H76.4951V5.77026H76.5065L78.9932 15.9097H82.1405L84.2413 7.06598C84.2806 6.9222 84.32 6.883 84.4426 6.883C84.544 6.883 84.6053 6.92591 84.6446 7.06598L86.7446 15.9097H89.8927L92.3794 5.77026V5.36328H90.5867L88.548 13.942Z" fill="var(--fill-0, #9194A1)"/>
<path id="Vector_7" d="M98.7721 5.06055C95.6936 5.06055 93.25 6.98536 93.25 10.6372C93.25 14.289 95.6913 16.2138 98.7721 16.2138C101.853 16.2138 104.296 14.289 104.296 10.6372C104.296 6.98536 101.851 5.06055 98.7721 5.06055ZM98.7758 14.5914C96.6365 14.5914 95.1071 13.1743 95.1071 10.6372C95.1071 8.09999 96.6365 6.68296 98.7758 6.68296C100.915 6.68296 102.445 8.10369 102.445 10.6372C102.445 13.1706 100.915 14.5914 98.7758 14.5914Z" fill="var(--fill-0, #9194A1)"/>
<path id="Vector_8" d="M108.412 6.76169C108.372 6.86249 108.333 6.92409 108.21 6.92409C108.107 6.92409 108.068 6.88489 108.068 6.78409V5.36328H106.234V15.9079H108.064V9.92433C108.064 7.89864 109.003 7.10708 110.775 7.10708H112.242V5.32227H111.06C109.616 5.32227 108.882 5.74794 108.412 6.76169Z" fill="var(--fill-0, #9194A1)"/>
<path id="Vector_9" d="M115.489 10.2719V1.30859H113.656V15.9195H115.489V12.5515L117.478 10.8563L121.432 15.9157H123.437V15.5087L118.831 9.69686L123.437 5.77065V5.36367H121.081L115.489 10.2719Z" fill="var(--fill-0, #9194A1)"/>
<path id="Vector_10" d="M129.79 9.87379L128.283 9.59001C126.839 9.31553 126.205 9.01313 126.205 8.13938C126.205 7.26563 126.921 6.61777 128.631 6.61777C130.341 6.61777 131.319 7.26934 131.461 8.70877H133.328C133.121 6.13799 131.125 5.06445 128.623 5.06445C126.121 5.06445 124.365 6.1398 124.365 8.16549C124.365 10.1912 125.802 10.8931 127.871 11.2777L129.378 11.5615C130.845 11.836 131.578 12.1515 131.578 13.0625C131.578 13.9737 130.843 14.6532 129.074 14.6532C127.303 14.6532 126.129 13.9232 125.987 12.523H124.122C124.295 15.0378 126.344 16.214 129.075 16.214C131.806 16.214 133.416 15.049 133.416 12.958C133.416 10.867 131.724 10.2379 129.79 9.87379Z" fill="var(--fill-0, #9194A1)"/>
<path id="Vector_11" d="M155.825 1.30859H153.77V15.9195H155.825V1.30859Z" fill="var(--fill-0, #9194A1)"/>
<path id="Vector_12" d="M143.8 1.45052L138.102 15.6525V15.9195H140.136L141.58 12.1053H148.439L149.883 15.9195H151.979V15.6562L146.24 1.30859H143.8V1.45052ZM142.258 10.3391L144.707 3.92235H144.705C144.747 3.81224 144.853 3.73936 144.971 3.73936H145.071C145.189 3.73936 145.295 3.81224 145.336 3.92235L147.767 10.3391H142.258Z" fill="var(--fill-0, #9194A1)"/>
<path id="Vector_13" d="M55.9493 1.30867H54.116V3.45944H55.9493V1.30867Z" fill="var(--fill-0, #9194A1)"/>
</g>
</svg>
