<svg preserveAspectRatio="none" width="100%" height="100%" overflow="visible" style="display: block;" viewBox="0 0 159 24" fill="none" xmlns="http://www.w3.org/2000/svg">
<g id="magicpatterns_logo_light 1" clip-path="url(#clip0_0_57)">
<path id="Vector" d="M68.429 8.45194C69.1143 8.45194 69.7119 8.59291 70.239 8.85703C70.7661 9.12115 71.1704 9.47333 71.4691 9.91354V8.61051H73.8063V17.9076C73.8063 18.7527 73.6482 19.5275 73.2967 20.1967C72.9452 20.8658 72.4356 21.4116 71.7502 21.799C71.0649 22.204 70.2215 22.3977 69.255 22.3977C67.9546 22.3977 66.8827 22.0983 66.0391 21.4821C65.1957 20.8658 64.7211 20.0382 64.6156 18.9817H66.9177C67.0407 19.4043 67.3043 19.7388 67.7086 19.9854C68.1127 20.2319 68.6047 20.3551 69.1846 20.3551C69.8699 20.3551 70.4148 20.1439 70.8366 19.7388C71.2583 19.3163 71.4691 18.7175 71.4691 17.8899V16.4637C71.1704 16.8863 70.7661 17.2562 70.239 17.5379C69.7119 17.8372 69.0968 17.9781 68.429 17.9781C67.6558 17.9781 66.953 17.7842 66.3028 17.3793C65.6527 16.9743 65.143 16.4109 64.7739 15.689C64.4049 14.967 64.2116 14.1395 64.2116 13.1886C64.2116 12.2554 64.4049 11.4279 64.7739 10.7059C65.143 9.98399 65.6525 9.42043 66.2853 9.03304C66.9354 8.64571 67.6383 8.45194 68.429 8.45194ZM129.671 8.43447C130.549 8.43449 131.34 8.62821 132.025 8.99798C132.711 9.38535 133.255 9.91355 133.642 10.6178C134.029 11.3222 134.222 12.1146 134.222 13.0126C134.222 13.3471 134.204 13.6464 134.152 13.9105H127.421C127.474 14.5796 127.72 15.1079 128.124 15.4777C128.528 15.8475 129.038 16.0412 129.635 16.0412C130.496 16.0412 131.112 15.6714 131.481 14.9318H133.994C133.73 15.8122 133.22 16.5519 132.465 17.1153C131.709 17.6964 130.778 17.9783 129.688 17.9783C128.792 17.9783 128.001 17.7669 127.298 17.3795C126.595 16.9921 126.033 16.4285 125.646 15.7066C125.242 14.9847 125.049 14.1571 125.049 13.2063C125.049 12.2554 125.242 11.4102 125.629 10.6883C126.015 9.96641 126.56 9.40297 127.263 9.0156C127.966 8.62821 128.757 8.43447 129.671 8.43447ZM57.6918 8.43447C58.377 8.43449 58.9922 8.57529 59.5018 8.85703C60.0114 9.13875 60.4155 9.49095 60.7318 9.91354V8.59289H63.0691V17.8196H60.7318V16.4637C60.4332 16.9039 60.0289 17.2562 59.5018 17.5379C58.9747 17.8196 58.3596 17.9606 57.6741 17.9606C56.8834 17.9606 56.1804 17.7669 55.5478 17.3618C54.9152 16.9569 54.4056 16.3934 54.0365 15.6715C53.6675 14.9496 53.4742 14.1219 53.4742 13.171C53.4742 12.2378 53.6675 11.4102 54.0365 10.6883C54.4054 9.96639 54.9152 9.40299 55.5478 9.0156C56.1979 8.62821 56.901 8.43447 57.6918 8.43447ZM104.91 8.43447C105.595 8.43447 106.21 8.57531 106.72 8.85703C107.23 9.13875 107.634 9.49093 107.95 9.91354V8.59289H110.287V17.8196H107.95V16.4637C107.651 16.9039 107.247 17.2561 106.72 17.5379C106.193 17.8196 105.578 17.9606 104.893 17.9606C104.102 17.9606 103.399 17.7669 102.766 17.3618C102.133 16.9569 101.624 16.3934 101.255 15.6715C100.886 14.9496 100.692 14.1219 100.692 13.171C100.692 12.2378 100.886 11.4102 101.255 10.6883C101.624 9.96639 102.133 9.40297 102.766 9.0156C103.416 8.62823 104.119 8.43449 104.91 8.43447ZM83.1021 8.4167C84.2443 8.4167 85.1757 8.71609 85.9313 9.27956C86.6869 9.86064 87.179 10.6531 87.4424 11.692H84.9295C84.8066 11.3046 84.5781 10.9875 84.2618 10.7586C83.9455 10.5297 83.5413 10.424 83.0844 10.424C82.4343 10.424 81.907 10.6707 81.5029 11.1461C81.1163 11.6391 80.9231 12.3259 80.9231 13.2063C80.9231 14.0866 81.1163 14.7734 81.5029 15.2488C81.8893 15.7242 82.4166 15.9707 83.0844 15.9707C84.0333 15.9707 84.6484 15.5481 84.9295 14.7029H87.4424C87.1965 15.689 86.6869 16.4989 85.9313 17.0799C85.1757 17.661 84.2266 17.9604 83.1021 17.9604C82.2233 17.9604 81.4326 17.749 80.7471 17.3618C80.0619 16.9567 79.5173 16.4109 79.1306 15.689C78.744 14.9847 78.5507 14.1395 78.5507 13.1886C78.5507 12.2378 78.744 11.4101 79.1306 10.6881C79.5173 9.96625 80.0619 9.4028 80.7471 9.01543C81.4326 8.61044 82.2233 8.4167 83.1021 8.4167ZM155.204 8.45194C156.294 8.45194 157.172 8.73371 157.822 9.27956C158.472 9.82542 158.824 10.5651 158.894 11.4983H156.662C156.627 11.1286 156.469 10.8291 156.206 10.6178C155.924 10.4065 155.573 10.3008 155.116 10.3008C154.694 10.3008 154.378 10.3713 154.15 10.5297C153.921 10.6882 153.816 10.8996 153.816 11.1813C153.816 11.4806 153.956 11.7271 154.272 11.8856C154.571 12.0441 155.063 12.2202 155.714 12.3786C156.381 12.5371 156.926 12.7132 157.365 12.8893C157.805 13.0654 158.174 13.3471 158.49 13.7169C158.806 14.0867 158.965 14.5797 159 15.196C159 15.7242 158.859 16.1996 158.56 16.6222C158.262 17.0448 157.84 17.3618 157.295 17.6084C156.75 17.8373 156.118 17.9604 155.38 17.9604C154.642 17.9604 153.956 17.8196 153.359 17.5555C152.761 17.2738 152.287 16.9215 151.935 16.4461C151.584 15.9707 151.391 15.46 151.356 14.8966H153.693C153.745 15.2488 153.921 15.5482 154.22 15.7771C154.536 16.0059 154.905 16.1291 155.362 16.1291C155.801 16.1291 156.153 16.0411 156.399 15.865C156.645 15.6889 156.768 15.4601 156.768 15.1783C156.768 14.879 156.61 14.6678 156.311 14.5093C155.995 14.3508 155.52 14.1923 154.852 14.0163C154.167 13.8578 153.605 13.6817 153.166 13.5056C152.726 13.3295 152.357 13.0654 152.041 12.6956C151.724 12.3259 151.566 11.8328 151.566 11.2166C151.566 10.7059 151.707 10.248 152.006 9.82544C152.304 9.40285 152.726 9.0683 153.271 8.82178C153.816 8.57527 154.466 8.45194 155.204 8.45194ZM42.3508 6.19812L46.0411 14.8439L49.7314 6.19812H52.3497V17.8196H50.0301V10.2481L46.9199 17.8196H45.1449L42.0345 10.2481V17.8196H39.6973V6.19812H42.3508ZM96.3699 6.19812C98.4084 6.19812 100.078 7.85337 100.06 9.89592C100.06 11.9385 98.4084 13.5937 96.3699 13.5937H93.5057V17.8196H91.1861V6.19812H96.3699ZM77.4085 17.8195H75.0889V8.59289H77.4085V17.8195ZM115.559 8.59289H117.352V10.5121H115.559V17.8195H113.222V10.5121H111.43V8.59289H113.222V6.30384H115.559V8.59289ZM122.624 8.59289H124.416V10.5121H122.624V17.8195H120.286V10.5121H118.494V8.59289H120.286V6.30384H122.624V8.59289ZM140.495 10.917H139.88C139.142 10.917 138.597 11.0755 138.228 11.4277C137.859 11.7622 137.666 12.3609 137.666 13.2237V17.8195H135.346V8.59272H137.666V10.0191C137.965 9.52607 138.369 9.15621 138.843 8.89209C139.318 8.61037 139.88 8.46956 140.495 8.46956V10.917ZM146.734 8.45194C147.841 8.45194 148.719 8.80413 149.387 9.49083C150.072 10.1776 150.406 11.1461 150.406 12.3962V17.8019H148.087V12.7132C148.087 11.9737 147.911 11.4101 147.542 11.0227C147.173 10.6178 146.681 10.4242 146.048 10.4242C145.398 10.4242 144.889 10.6354 144.519 11.0227C144.15 11.4101 143.957 11.9737 143.957 12.7132V17.8019H141.638V8.57527H143.957V9.71972C144.273 9.33236 144.678 9.01544 145.152 8.78654C145.626 8.55764 146.154 8.45194 146.734 8.45194ZM58.2891 10.4947C57.8674 10.4947 57.4631 10.6003 57.0942 10.8116C56.7252 11.0053 56.4266 11.3222 56.1981 11.7272C55.9696 12.1322 55.8641 12.6076 55.8641 13.171C55.8641 13.7345 55.9696 14.21 56.1981 14.6326C56.4266 15.0376 56.7252 15.3545 57.0942 15.5834C57.4631 15.8123 57.8674 15.918 58.2891 15.918C58.7285 15.918 59.1328 15.8123 59.5018 15.601C59.8707 15.3897 60.1695 15.0728 60.3978 14.6679C60.6263 14.2629 60.7318 13.7697 60.7318 13.2063C60.7318 12.6428 60.6263 12.1498 60.3978 11.7448C60.1695 11.3399 59.8707 11.0229 59.5018 10.8116C59.1328 10.6003 58.7285 10.4947 58.2891 10.4947ZM105.507 10.4947C105.086 10.4947 104.682 10.6003 104.313 10.8116C103.944 11.0053 103.645 11.3222 103.416 11.7272C103.188 12.1322 103.083 12.6076 103.083 13.171C103.083 13.7345 103.188 14.21 103.416 14.6326C103.645 15.0376 103.944 15.3545 104.313 15.5834C104.682 15.8123 105.086 15.918 105.507 15.918C105.947 15.918 106.351 15.8123 106.72 15.601C107.089 15.3897 107.388 15.0728 107.616 14.6679C107.845 14.2629 107.95 13.7697 107.95 13.2063C107.95 12.6428 107.845 12.1498 107.616 11.7448C107.388 11.3398 107.089 11.0229 106.72 10.8116C106.351 10.6003 105.947 10.4947 105.507 10.4947ZM69.0265 10.4945C68.6049 10.4945 68.2006 10.6002 67.8316 10.8115C67.4626 11.0052 67.1638 11.3222 66.9354 11.7272C66.7069 12.1322 66.6014 12.6076 66.6014 13.171C66.6014 13.7345 66.7069 14.2099 66.9354 14.6324C67.1638 15.0374 67.4626 15.3543 67.8316 15.5833C68.2006 15.8121 68.6049 15.9179 69.0265 15.9179C69.4658 15.9179 69.8701 15.8122 70.239 15.6009C70.608 15.3896 70.907 15.0727 71.1353 14.6677C71.3462 14.2627 71.4691 13.7697 71.4691 13.2063C71.4691 12.6428 71.3637 12.1498 71.1353 11.7448C70.907 11.3398 70.608 11.0228 70.239 10.8115C69.8701 10.6002 69.4658 10.4945 69.0265 10.4945ZM129.6 10.3537C129.02 10.3537 128.528 10.5298 128.142 10.882C127.755 11.2341 127.509 11.7273 127.421 12.3436H131.797C131.779 11.7449 131.569 11.2694 131.147 10.8996C130.725 10.5298 130.215 10.3537 129.6 10.3537ZM93.5232 11.692H95.8954C96.8795 11.692 97.6879 10.8644 97.6879 9.8783C97.6879 8.89224 96.8972 8.08225 95.8954 8.08225H93.5232V11.692ZM76.2484 5.35303C76.635 5.35303 76.9513 5.47636 77.2148 5.72288C77.4784 5.96939 77.6016 6.26867 77.6016 6.63844C77.6016 7.00821 77.4784 7.30748 77.2148 7.554C76.9513 7.80052 76.635 7.92384 76.2484 7.92384C75.8618 7.92384 75.5455 7.80052 75.282 7.554C75.0184 7.3075 74.8952 7.00819 74.8952 6.63844C74.8952 6.26869 75.0184 5.96939 75.282 5.72288C75.5455 5.47636 75.8618 5.35303 76.2484 5.35303Z" fill="var(--fill-0, #9194A1)"/>
<path id="Vector_2" d="M32.2991 11.639C32.2814 11.639 32.2463 11.639 32.2288 11.639L29.997 11.9912C29.9795 11.9912 29.9618 11.9912 29.9443 11.9912C29.6982 11.9912 29.505 11.7975 29.505 11.551C29.505 11.5334 29.505 11.4982 29.505 11.4806L31.1744 3.416C31.192 3.36317 31.192 3.29273 31.192 3.23991C31.192 2.76449 30.8054 2.39472 30.3484 2.39472C30.2958 2.39472 30.243 2.39472 30.2078 2.41232L22.6867 3.6273C22.6339 3.6273 22.5987 3.6449 22.5461 3.6449C22.0716 3.6449 21.7027 3.25751 21.7027 2.79971C21.7027 2.74689 21.7027 2.69406 21.7201 2.64123L22.0541 1.02129C22.0541 1.02129 22.0716 0.898027 22.0716 0.845203C22.0716 0.36978 21.685 0 21.228 0C21.1754 0 21.1227 6.44872e-06 21.0875 0.0176146L5.46518 2.51797C4.72712 2.64124 4.12963 3.2047 3.97148 3.92664L0.0175687 22.9787C0.0175687 22.9787 0 23.102 0 23.1547C0 23.6303 0.386603 24 0.843498 24C0.984083 24 1.1071 23.9648 1.23011 23.912L10.7722 19.0346C10.8776 18.9816 11.0007 18.9464 11.1412 18.9464C11.6157 18.9464 11.9847 19.3338 11.9847 19.7917C11.9847 19.8444 11.9847 19.8974 11.9672 19.9501L11.3521 22.9435C11.3345 23.014 11.3345 23.0844 11.3345 23.1547C11.3345 23.6303 11.7212 24 12.178 24C12.3186 24 12.4416 23.9648 12.5647 23.912L23.3896 18.3654C23.4423 18.3302 23.5126 18.3125 23.583 18.3125C23.8289 18.3125 24.0222 18.5062 24.0222 18.7527C24.0222 18.7879 24.0222 18.8056 24.0222 18.8409L23.5653 21.0771C23.5653 21.1122 23.5478 21.1474 23.5478 21.1651C23.5478 21.4116 23.7411 21.6053 23.9871 21.6053C24.0574 21.6053 24.1276 21.5877 24.1979 21.5525L30.9987 18.0836C31.3677 17.8899 31.6488 17.5377 31.7191 17.1328L32.7384 12.1673C32.7384 12.1321 32.7559 12.0968 32.7559 12.0616C32.7384 11.8327 32.5451 11.639 32.2991 11.639Z" fill="var(--fill-0, #9194A1)"/>
<path id="Vector_3" d="M32.2991 11.639C32.2814 11.639 32.2463 11.639 32.2288 11.639L29.997 11.9912C29.9795 11.9912 29.9618 11.9912 29.9443 11.9912C29.6982 11.9912 29.505 11.7975 29.505 11.551C29.505 11.5334 29.505 11.4982 29.505 11.4806L31.1744 3.416C31.192 3.36317 31.192 3.29273 31.192 3.23991C31.192 2.76449 30.8054 2.39472 30.3484 2.39472C30.2958 2.39472 30.243 2.39472 30.2078 2.41232L22.6867 3.6273C22.6339 3.6273 22.5987 3.6449 22.5461 3.6449C22.0716 3.6449 21.7027 3.25751 21.7027 2.79971C21.7027 2.74689 21.7027 2.69406 21.7201 2.64123L22.0541 1.02129C22.0541 1.02129 22.0716 0.898027 22.0716 0.845203C22.0716 0.36978 21.685 0 21.228 0C21.1754 0 21.1227 6.44872e-06 21.0875 0.0176146L5.46518 2.51797C4.72712 2.64124 4.12963 3.2047 3.97148 3.92664L0.0175687 22.9787C0.0175687 22.9787 0 23.102 0 23.1547C0 23.6303 0.386603 24 0.843498 24C0.984083 24 1.1071 23.9648 1.23011 23.912L10.7722 19.0346C10.8776 18.9816 11.0007 18.9464 11.1412 18.9464C11.6157 18.9464 11.9847 19.3338 11.9847 19.7917C11.9847 19.8444 11.9847 19.8974 11.9672 19.9501L11.3521 22.9435C11.3345 23.014 11.3345 23.0844 11.3345 23.1547C11.3345 23.6303 11.7212 24 12.178 24C12.3186 24 12.4416 23.9648 12.5647 23.912L23.3896 18.3654C23.4423 18.3302 23.5126 18.3125 23.583 18.3125C23.8289 18.3125 24.0222 18.5062 24.0222 18.7527C24.0222 18.7879 24.0222 18.8056 24.0222 18.8409L23.5653 21.0771C23.5653 21.1122 23.5478 21.1474 23.5478 21.1651C23.5478 21.4116 23.7411 21.6053 23.9871 21.6053C24.0574 21.6053 24.1276 21.5877 24.1979 21.5525L30.9987 18.0836C31.3677 17.8899 31.6488 17.5377 31.7191 17.1328L32.7384 12.1673C32.7384 12.1321 32.7559 12.0968 32.7559 12.0616C32.7384 11.8327 32.5451 11.639 32.2991 11.639Z" fill="var(--fill-0, #9194A1)"/>
</g>
<defs>
<clipPath id="clip0_0_57">
<rect width="159" height="24" fill="white"/>
</clipPath>
</defs>
</svg>
