<svg preserveAspectRatio="none" width="100%" height="100%" overflow="visible" style="display: block;" viewBox="0 0 21.8622 21.8578" fill="none" xmlns="http://www.w3.org/2000/svg">
<g id="Group">
<path id="Vector" d="M5.7577 7.97268C5.77299 5.89175 6.59824 3.89865 8.0584 2.41602H8.05567L2.41837 8.05335H2.42101C2.40005 8.06992 2.3803 8.08785 2.36183 8.10723C0.990818 9.47643 0.159598 11.2942 0.0207336 13.2268C-0.118207 15.1594 0.444592 17.0773 1.60568 18.6285L7.2996 12.9346L7.35878 12.878C6.2975 11.4649 5.73447 9.73985 5.7577 7.97268Z" fill="var(--fill-0, #9194A1)"/>
<path id="Vector_2" d="M19.4458 13.8067C18.3669 14.8641 17.0125 15.5971 15.5371 15.922C14.0619 16.247 12.5249 16.1508 11.1015 15.6446C10.3426 15.3751 9.62935 14.9914 8.98649 14.5064L8.92723 14.5656L3.2334 20.2567C4.7852 21.415 6.70207 21.9759 8.63346 21.8371C10.5649 21.6983 12.3818 20.8689 13.752 19.5005L13.8085 19.4441L19.4458 13.8067Z" fill="var(--fill-0, #9194A1)"/>
<path id="Vector_3" d="M21.8622 8.05374V4.02827e-06H13.8084C12.7507 -0.00105543 11.7032 0.206879 10.726 0.611865C9.74884 1.01685 8.86139 1.6109 8.11448 2.3599L8.05802 2.41641C7.07356 3.41582 6.36917 4.65653 6.01561 6.01409C6.65568 5.84834 7.31345 5.76071 7.97455 5.75308C9.74181 5.73228 11.4663 6.2961 12.88 7.35685C14.1505 8.3043 15.1121 9.60668 15.6436 11.0998C16.1852 12.6259 16.2563 14.2794 15.8481 15.8465C17.2059 15.4936 18.4467 14.7891 19.4457 13.8041L19.5022 13.7503C20.2515 13.0031 20.8458 12.1153 21.2508 11.1376C21.6557 10.16 21.8635 9.11199 21.8622 8.05374Z" fill="var(--fill-0, #9194A1)"/>
</g>
</svg>
