<svg width="74" height="22" viewBox="0 0 74 22" fill="none" xmlns="http://www.w3.org/2000/svg">
<path d="M29.2285 1.9568C31.8793 1.9568 34.4232 3.73955 34.4232 6.9863C34.4232 10.2338 31.8786 12.0165 29.2285 12.0165H26.9385V16.8128H23.7583V1.95755L29.2285 1.9568ZM29.0162 9.13055C30.331 9.13055 31.2211 8.32355 31.2211 6.9863C31.2211 5.6498 30.331 4.8638 29.0162 4.8638H26.9385V9.13055H29.0169H29.0162ZM36.4067 16.8128V1.95755H39.4175V16.8135L36.4067 16.8128ZM41.6126 11.4008C41.6126 8.30255 43.7333 5.88305 46.9345 5.88305C48.2072 5.88305 49.394 6.30755 50.2849 7.05005V5.98955H53.2745V16.8128H50.2849V15.7515C49.394 16.494 48.2064 16.9193 46.9345 16.9193C43.7333 16.9193 41.6126 14.4998 41.6126 11.4008ZM50.2849 11.4008C50.2849 9.72455 49.0762 8.49305 47.4436 8.49305C45.7899 8.49305 44.6023 9.72455 44.6023 11.4008C44.6023 13.0778 45.7899 14.3085 47.4436 14.3085C49.0762 14.3085 50.2849 13.0778 50.2849 11.4008ZM57.2085 16.8128V8.68505H55.2784V5.98955H60.2185V16.8128H57.2085ZM56.9962 3.00755C56.9962 2.09555 57.7809 1.3313 58.7131 1.3313C59.6251 1.3313 60.4309 2.09555 60.4309 3.00755C60.4309 4.00505 59.6462 4.77005 58.7139 4.77005C57.7801 4.77005 56.9962 4.00505 56.9962 3.00755ZM62.9446 16.8128V5.98955H65.9553V7.3688C66.6971 6.43505 67.8636 5.88305 69.305 5.88305C72.1041 5.88305 73.8007 7.8143 73.8007 11.295V16.8128H70.8111V11.6978C70.8111 9.72455 69.9624 8.5778 68.3937 8.5778C66.7822 8.5778 65.9553 9.74555 65.9553 11.6978V16.8128H62.9446Z" fill="#9194A1"/>
<path d="M17.7642 6C17.7642 2.6865 15.0803 0 11.7698 0H7.09635C6.70099 0 6.16858 0.24825 5.91405 0.55125L1.80986 5.44875C1.55533 5.75175 1.67055 6 2.0659 6H7.86071C11.0469 6 13.6517 8.49 13.8423 11.631C14.9951 11.2035 15.9889 10.4347 16.6902 9.4281C17.3914 8.42147 17.7657 7.22518 17.7642 6ZM5.4223 12C5.02619 12 4.49453 12.2475 4.23999 12.5513L0.135807 17.4487C-0.118728 17.7517 -0.00350953 18 0.391848 18H7.86071C11.1712 18 13.8551 15.3135 13.8551 12C13.8546 11.8769 13.8503 11.7538 13.8423 11.631C13.1792 11.8755 12.4777 12.0005 11.7706 12H5.4223Z" fill="#9194A1"/>
</svg>
