<svg preserveAspectRatio="none" width="100%" height="100%" overflow="visible" style="display: block;" viewBox="0 0 124.548 24" fill="none" xmlns="http://www.w3.org/2000/svg">
<g id="Group 2147227801">
<path id="Vector" fill-rule="evenodd" clip-rule="evenodd" d="M15.0437 1.32995C12.7659 1.32995 10.9164 3.17742 10.9164 5.45277V7.18168H9.58501V5.45277C9.58501 2.44291 12.0306 0 15.0437 0C18.0568 0 20.5023 2.44291 20.5023 5.45277C20.5023 8.46265 18.0568 10.9055 15.0437 10.9055H13.3131V9.57556H15.0437C17.3215 9.57556 19.1709 7.72808 19.1709 5.45277C19.1709 3.17742 17.3215 1.32995 15.0437 1.32995ZM10.9173 13.2995H9.58591V15.0284C9.58591 17.3037 7.73644 19.1512 5.45866 19.1512C3.18086 19.1512 1.33138 17.3037 1.33138 15.0284C1.33138 12.753 3.18086 10.9055 5.45866 10.9055H7.18877V9.57556H5.45866C2.44556 9.57556 0 12.0185 0 15.0284C0 18.0382 2.44556 20.4811 5.45866 20.4811C8.4718 20.4811 10.9173 18.0382 10.9173 15.0284V13.2995ZM10.2636 11.5806C9.5006 11.5806 8.93451 10.9904 8.93451 10.2283C8.93451 9.49065 9.5006 8.90058 10.2636 8.90058C10.9774 8.90058 11.5681 9.49065 11.5681 10.2283C11.5681 10.9904 10.9774 11.5806 10.2636 11.5806Z" fill="var(--fill-0, #9194A1)"/>
<path id="Vector_2" d="M30.8192 19.0323C28.924 19.0323 27.1272 18.4668 25.6258 17.385V14.1149H26.1919C27.078 16.7702 28.7025 17.9996 30.9177 17.9996C32.8129 17.9996 34.6589 16.7948 34.6589 14.7541C34.6589 13.4018 33.896 12.5414 31.9761 11.6808L29.4409 10.5252C27.1765 9.51711 26.0935 7.99273 26.0935 6.09956C26.0935 3.54253 28.3087 1.45265 31.5823 1.45265C33.3299 1.45265 35.0035 1.96898 36.0619 2.60823V5.75535H35.4958C34.782 3.34584 33.3299 2.4853 31.4346 2.4853C29.367 2.4853 27.8164 3.71464 27.8164 5.63242C27.8164 7.00928 28.5795 7.96815 30.3024 8.73038L32.8868 9.91051C35.1758 10.9432 36.4065 12.2217 36.4065 14.2624C36.4065 17.0653 33.9698 19.0323 30.8192 19.0323Z" fill="var(--fill-0, #9194A1)"/>
<path id="Vector_3" d="M45.1534 7.69894V7.15801H48.5255V7.69894C47.4425 8.06769 47.0979 8.65783 46.6302 9.86255L42.4459 20.5333C41.3137 23.3608 39.7877 24 38.3601 24C37.794 24 37.2771 23.9017 36.8587 23.6804V22.0822C37.351 22.279 37.8679 22.3773 38.4094 22.3773C39.7385 22.3773 40.8953 21.861 41.6337 19.9432L42.1014 18.7876L38.4094 9.86255C37.9171 8.65783 37.5725 7.99394 36.5879 7.69894V7.15801H40.723V7.69894C39.5169 8.01852 39.6892 8.60866 40.1815 9.83797L42.8644 16.501H42.9874L45.6703 9.73964C46.1133 8.60866 46.2364 8.0431 45.1534 7.69894Z" fill="var(--fill-0, #9194A1)"/>
<path id="Vector_4" d="M50.1739 16.451V9.66505C50.1739 8.46025 49.9771 8.18983 48.9432 8.11609V7.57511L51.7246 7.03423H51.8477V9.14873H51.9707C52.8814 7.77185 54.1121 6.9113 55.712 6.9113C57.238 6.9113 58.4194 7.79643 58.8378 9.27164H58.9856C59.9209 7.82101 61.1269 6.9113 62.7267 6.9113C64.5974 6.9113 66.1973 8.239 66.1973 10.9435V16.4019C66.1973 17.8525 66.2957 18.0983 67.2556 18.2458V18.7867H63.4652V18.2458C64.3759 18.0983 64.5235 17.8279 64.5235 16.4019V11.0419C64.5235 9.14873 63.5882 8.21442 62.2099 8.21442C60.7331 8.21442 59.6747 9.36997 59.0348 10.5502V16.5002C59.0348 17.9017 59.2317 18.0983 60.1178 18.2458V18.7867H56.3027V18.2458C57.1888 18.0983 57.3856 17.9017 57.3856 16.5002V11.0911C57.3856 9.19789 56.5488 8.21442 55.0474 8.21442C53.5706 8.21442 52.4876 9.44372 51.8477 10.5748V16.451C51.8477 17.8032 51.9953 18.0737 52.906 18.2458V18.7867H49.1156V18.2458C50.0755 18.0737 50.1739 17.8032 50.1739 16.451Z" fill="var(--fill-0, #9194A1)"/>
<path id="Vector_5" d="M74.3426 19.0327C72.9642 19.0327 71.832 18.5164 70.9951 17.705H70.872L69.9367 18.9098H69.3706V3.76427C69.3706 2.51034 69.0999 2.3874 68.1399 2.28906V1.74815L70.9213 1.23182H71.0444V9.14882H71.1674C72.0781 7.77194 73.3334 6.91139 75.0562 6.91139C77.6409 6.91139 79.831 9.02583 79.831 12.6647C79.831 16.5495 77.3453 19.0327 74.3426 19.0327ZM74.2687 18.0984C76.6806 18.0984 78.1084 15.8856 78.1084 12.9844C78.1084 10.329 76.8779 8.21451 74.5641 8.21451C72.8411 8.21451 71.7089 9.44381 71.0444 10.6978V14.1154C71.0444 16.6724 72.275 18.0984 74.2687 18.0984Z" fill="var(--fill-0, #9194A1)"/>
<path id="Vector_6" d="M86.8386 19.0326C83.5403 19.0326 81.1034 16.5248 81.1034 12.9597C81.1034 9.41914 83.5403 6.9113 86.8386 6.9113C90.1121 6.9113 92.5243 9.39456 92.5243 12.9597C92.5243 16.5248 90.1121 19.0326 86.8386 19.0326ZM86.8386 17.9754C89.0782 17.9754 90.6531 16.0822 90.6531 12.9597C90.6531 9.83713 89.0782 7.94393 86.8386 7.94393C84.5247 7.94393 82.9738 9.91088 82.9738 12.9597C82.9738 16.033 84.5247 17.9754 86.8386 17.9754Z" fill="var(--fill-0, #9194A1)"/>
<path id="Vector_7" d="M93.8221 18.7872V18.2463C94.7817 18.0743 94.9048 17.853 94.9048 16.4024V3.71552C94.9048 2.48618 94.5851 2.36325 93.6743 2.28949V1.74858L96.4556 1.20767H96.5787V16.4024C96.5787 17.853 96.7017 18.0743 97.6366 18.2463V18.7872H93.8221Z" fill="var(--fill-0, #9194A1)"/>
<path id="Vector_8" d="M101.081 4.79683C100.318 4.79683 99.7518 4.20674 99.7518 3.44455C99.7518 2.70695 100.318 2.11686 101.081 2.11686C101.795 2.11686 102.386 2.70695 102.386 3.44455C102.386 4.20674 101.795 4.79683 101.081 4.79683ZM101.967 7.03424V16.4264C101.967 17.8525 102.09 18.0983 103.025 18.2458V18.7867H99.2349V18.2458C100.17 18.0983 100.294 17.8525 100.294 16.4264V9.54214C100.294 8.33734 99.9979 8.16526 99.0631 8.09151V7.55053L101.844 7.03424H101.967Z" fill="var(--fill-0, #9194A1)"/>
<path id="Vector_9" d="M109.986 19.0326C106.762 19.0326 104.35 16.5494 104.35 13.1072C104.35 9.61588 106.762 6.9113 110.184 6.9113C111.316 6.9113 112.473 7.15717 113.334 7.62435V10.0339H112.768C112.423 8.70615 111.464 7.91935 110.159 7.91935C107.698 7.91935 106.097 10.0092 106.097 12.7384C106.097 15.7626 107.968 17.6066 110.454 17.6066C111.881 17.6066 112.965 17.164 114.023 16.2789L114.491 16.7214C113.186 18.2212 111.783 19.0326 109.986 19.0326Z" fill="var(--fill-0, #9194A1)"/>
<path id="Vector_10" d="M123.489 11.0911V16.4019C123.489 17.582 123.612 17.7049 124.548 17.8032V18.3442L121.939 18.8851H121.816V16.8444H121.693C120.659 18.418 119.404 19.0326 118.026 19.0326C116.45 19.0326 115.097 17.9262 115.097 16.3035C115.097 14.4349 116.77 13.6235 119.108 12.9597L121.816 12.1975V11.0911C121.816 9.09956 120.831 8.18983 119.158 8.18983C117.927 8.18983 116.746 8.65699 115.589 9.49289L115.195 8.95199C116.45 7.77185 118.026 6.9113 119.65 6.9113C121.742 6.9113 123.489 8.11609 123.489 11.0911ZM118.69 17.7787C120.093 17.7787 121.225 16.6477 121.816 15.4676V13.0335L119.576 13.7956C118.074 14.3365 116.844 14.7791 116.844 16.0576C116.844 17.1394 117.607 17.7787 118.69 17.7787Z" fill="var(--fill-0, #9194A1)"/>
</g>
</svg>
